<svg width="624" height="624" viewBox="0 0 624 624" fill="none" xmlns="http://www.w3.org/2000/svg">
<rect width="624" height="624" fill="white"/>
<path d="M174.569 162.421C174.24 158.94 173.272 154.465 176.404 152.022C181.091 148.365 184.996 155.078 186.747 158.07C190.853 155.388 196.296 153.106 197.284 160.4C198.116 166.533 195.629 170.592 192.043 175.184C194.556 177.644 194.978 178.325 196.847 181.235C206.706 171.376 209.717 181.604 207.038 191.095C207.772 193.432 208.109 193.257 207.679 195.326C206.43 196.502 206.486 196.492 204.957 197.244L204.924 198.044L205.973 199.177C207.077 198.869 206.808 198.876 207.797 198.109C208.698 198.563 209.684 199.026 210.545 199.536C218.804 194.088 219.725 206.285 217.566 211.499C215.378 216.782 214.073 218.309 209.97 222.025C212.193 224.38 214.052 227.978 215.476 228.687L215.994 228.506C218.834 219.306 236.324 221.33 223.551 243.306C225.699 243.06 224.809 242.792 226.404 243.725L226.88 245.162L226.294 245.59C225.495 245.448 224.476 245.154 223.765 245.325C224.699 246.525 224.874 246.584 225.495 247.979C232.71 248.21 230.355 252.159 233.292 256.293L233.666 256.084C240.088 252.55 243.133 259.814 241.007 265.026C238.994 269.958 236.307 271.958 233.098 275.811C233.161 278.303 232.137 279.385 232.401 281.171C234.076 282.344 233.686 281.978 235.988 282.237C241.201 285.337 239.288 286.02 242.775 289.917C243.058 290.233 250.333 287.859 251.216 292.604C252.977 302.076 245.306 307.341 238.916 312.409C241.979 325.734 246.454 340.638 249.815 354.376L251.373 354.051C251.897 347.553 254.364 312.213 262.112 312.773C269.252 317.416 265.027 343.55 263.415 350.914C262.449 355.327 256.245 376.157 256.901 378.502C257.574 378.663 257.921 378.774 258.61 378.84C261.707 378.158 263.464 377.974 266.598 377.67C266.132 374.513 264.663 369.851 266.62 367.397L267.817 367.265C268.793 368.48 269.143 370.336 269.577 371.883L271.318 377.082C274.481 376.621 277.093 376.451 280.276 376.249C278.065 350.146 274.857 324.137 270.66 298.279C265.028 295.754 258.102 292.802 255.6 286.665C254.329 283.549 255.174 279.892 259.158 279.517C263.058 279.149 264.821 280.729 267.607 283.125C267.143 277.166 265.775 270.883 264.57 265.008L264.104 264.901L263.329 264.714L262.545 264.534C243.545 260.038 244.549 240.103 261.565 251.5C260.74 247.656 260.322 243.237 259.853 239.294C252.607 237.653 244.075 234.333 243.134 225.88C242.595 221.036 249.467 222.085 252.044 222.788L251.857 216.036C246.944 214.896 234.765 209.327 240.055 202.378C241.692 200.228 243.798 200.441 246.312 200.174C246.533 198.275 246.23 195.143 246.105 193.137C241.665 191.251 231.73 185.716 234.678 179.203C235.531 177.317 238.769 176.963 240.711 176.53C242.051 175.024 240.612 169.728 242.456 168.275C249.266 162.91 250.522 171.267 253.062 174.202C258.3 172.103 262.009 171.913 262.241 179.174C262.388 183.765 258.926 187.645 255.782 190.694C256.984 193.186 257.621 194.74 259.391 196.923C262.327 195.751 265.117 194.153 267.967 196.097C271.672 201.528 267.48 207.79 263.406 211.462C261.929 212.793 261.577 213.164 261.603 214.962C262.667 216.664 263.348 218.025 264.253 219.824C277.67 209.988 277.676 225.424 271.134 232.87C269.304 234.953 267.738 235.481 265.635 237.075L265.627 237.88C268.397 239.685 271.956 236.123 273.206 243.55C275.59 243.939 277.97 241.064 280.67 243.876C286.445 249.891 277.93 259.191 273.028 262.267C272.347 262.626 270.831 263.169 270.705 263.859C270.26 266.308 269.973 269.941 271.746 271.865C273.683 271.067 275.053 270.271 277.114 270.391C280.107 271.881 280.088 273.469 280.991 276.529C282.852 278.244 288.952 275.972 289.034 282.612C289.12 289.462 280.669 294.375 275.737 296.341C276.801 304.989 278.189 313.623 279.424 322.252C281.975 340.069 283.585 358.016 285.435 375.923C288.787 375.706 293.048 375.313 296.334 375.276C298.372 375.19 298.997 375.211 300.937 374.708L301.337 373.501L298.347 366.739C294.429 358.208 290.147 349.554 287.533 340.533C286.448 336.787 282.321 316.31 287.343 315.399C289.185 316.316 291.261 319.63 292.3 321.455C297.657 330.862 301.582 341.181 304.102 351.699C304.672 354.059 305.177 356.59 306.107 358.825C306.742 351.048 306.382 337.538 307.697 330.417C307.742 325.906 308.667 318.213 309.097 313.468L309.932 313.786C309.677 312.462 312.817 323.825 312.147 322.325C312.697 321.124 312.552 321.185 312.737 319.811L313.477 319.833C313.272 324.039 313.022 328.242 312.722 332.442C312.477 336.397 312.317 339.838 312.297 343.796C312.672 347.25 312.192 353.368 313.202 355.396C316.242 347.905 331.032 319.612 340.107 320.833C344.757 325.257 333.257 344.345 330.492 348.757L330.997 349.713C329.137 353.679 324.212 360.876 320.527 362.915C317.497 366.614 315.827 370.368 313.792 374.657C316.652 374.869 319.757 375.035 322.587 375.314L322.497 373.793C326.847 370.544 322.722 369.599 324.437 366.491C325.677 367.085 325.357 367.018 326.677 367.293C328.342 363.497 328.837 362.259 332.812 362.04C334.642 360.866 333.707 361.074 335.602 361.008C339.327 364.217 334.167 372.47 337.417 375.625C339.022 375.823 339.157 375.936 340.767 375.533C341.242 370.332 342.582 362.183 343.437 356.916C345.632 343.412 348.067 328.006 351.357 314.735C351.457 312.024 355.392 296.652 356.207 292.753C349.657 288.428 346.567 286.077 344.862 278.28C343.662 272.15 346.082 271.315 351.317 269.653C353.317 265.462 355.137 266.129 359.177 266.288C360.902 267.496 361.092 268.082 362.827 268.163C364.387 266.49 364.767 263.313 365.472 260.72C368.282 261.977 368.622 264.203 369.047 266.941C368.567 269.279 368.137 269.235 369.027 270.757L369.767 271.024C372.977 272.199 373.662 272.362 374.677 275.773C374.722 277.185 374.377 277.505 375.327 278.439C382.167 285.133 378.187 289.283 370.532 292.422C367.332 298.219 364.827 293.092 360.587 297.024L355.162 320.441C352.947 331.002 350.962 341.61 349.217 352.259C348.027 359.655 346.962 368.581 345.567 375.766C348.087 376.305 363.637 378.283 365.357 377.83L365.707 376.84C363.212 368.674 362.017 358.583 361.077 350.159C360.482 344.813 360.292 319.449 367.477 318.803C370.187 320.547 370.412 323.877 371.112 327.046C372.852 337.981 374.202 353.843 372.822 365.051L372.992 365.428C374.002 364.711 376.132 356.636 376.702 354.762C380.362 343.613 384.782 332.543 388.157 321.385C383.147 317.374 373.017 305.63 380.367 298.892C382.362 297.061 385.197 298.363 387.612 299.117C391.207 296.683 388.387 288.18 398.867 294.604C400.022 293.216 400.602 290.937 401.252 289.121C394.372 284.017 393.032 280.839 390.927 272.921C390.397 270.162 390.032 269.012 391.172 266.513C393.197 264.49 395.517 265.246 396.797 263.168C399.562 258.667 405.907 260.059 408.537 256.213C410.372 256.501 408.492 257.343 410.502 259.298L411.352 258.921C411.947 256.074 410.492 259.137 411.047 255.505C407.457 248.751 404.162 238.131 413.812 234.836C416.577 234.359 418.902 233.208 420.382 235.817L420.157 236.304L420.437 236.641L419.862 236.87L419.577 236.545L420.297 236.328C421.642 236.972 420.937 236.737 423.012 236.08C422.292 234.743 421.932 234.672 420.722 233.653C420.612 232.364 421.007 231.994 421.702 230.89L421.957 230.496C418.422 224.037 416.337 216.893 425.277 214.405C425.527 209.808 425.347 203.072 430.792 201.498C435.742 201.937 436.532 207.924 437.272 211.904L440.377 208.55L441.882 207.485C442.162 206.378 442.532 206.285 441.987 205.428C439.267 201.164 438.237 195.295 439.577 190.369C441.537 183.154 446.517 180.228 451.192 187.605L451.367 187.875C452.587 181.081 454.632 170.54 463.762 170.467C464.712 170.46 465.797 171.479 466.127 172.256C468.087 175.909 465.007 180.638 470.812 181.038C471.887 181.112 472.497 181.598 473.222 182.378C476.637 191.361 463.967 193.219 462.812 195.856C463.962 196.773 467.207 199.17 467.547 200.516C469.387 207.776 459.322 210.217 454.257 210.424C452.937 210.473 451.617 210.496 450.292 210.492C449.492 218.388 447.027 218.817 446.347 222.738C449.872 222.116 454.537 223.011 455.617 226.904C454.902 230.933 451.537 232.631 448.602 235.05C444.597 238.352 439.147 238.453 433.917 238.436C433.807 241.026 433.822 242.384 433.137 244.938C434.627 249.025 440.102 245.417 441.177 249.524C443.147 257.057 435.797 261.374 429.447 262.451C425.407 263.274 420.562 262.81 418.267 265.574L418.157 266.484C421.427 267.401 423.732 266.928 425.572 270.282C427.277 272.886 422.967 276.476 425.312 278.566C427.072 280.133 428.857 282.05 428.167 284.557C425.897 292.744 412.537 292.957 406.187 291.699L402.947 299.805C405.632 299.325 407.997 298.956 410.477 300.367C412.552 303.589 410.087 306.565 411.107 308.09C412.582 310.289 416.362 311.016 414.912 315.613C412.557 323.101 399.462 323.512 393.717 323.424C390.257 330.813 383.292 350.975 380.717 359.442C379.682 363.109 378.382 367.302 377.482 370.954L378.987 372.692C380.487 370.356 382.077 368.079 383.747 365.864C386.877 361.776 394.977 352.552 400.222 351.865C407.572 354.865 390.852 377.175 388.002 381.034L398.707 383.348C401.177 378.422 408.557 363.194 411.722 359.486C412.737 356.905 412.717 357.102 411.877 355.121C407.607 350.702 406.747 348.054 405.557 342.33C406.272 339.92 406.587 339.208 407.737 336.967C409.162 335.924 409.632 335.407 411.402 335.377C420.087 339.938 418.622 325.123 426.282 336.049C427.732 333.668 429.082 330.887 430.377 328.392C426.752 323.731 419.567 309.976 429.412 306.602C431.077 306.031 433.307 307.844 434.822 308.842C436.112 307.644 437.387 306.426 438.647 305.189C439.147 304.071 439.517 303.762 440.282 302.8C439.077 300.761 440.622 296.559 441.537 294.536C442.657 284.014 448.897 280.986 453.597 291.707L458.447 287.072C456.017 281.4 454.312 274.484 457.917 268.902C460.077 265.56 466.082 270.999 467.602 272.695L470.232 270.319L472.357 268.945C472.602 266.366 471.407 262.743 471.387 259.901C471.332 253.324 476.282 247.022 481.897 254.204C484.542 254.523 486.337 248.064 493.617 252.159C494.187 254.153 494.427 254.722 494.487 256.753C493.667 258.321 492.617 260.707 491.452 261.868C493.932 262.388 498.192 264.989 497.002 267.717C494.087 274.389 486.327 274.652 480.677 274.437C479.687 276.587 478.917 278.093 477.742 280.149C479.282 282.929 484.992 283.306 481.792 289.076C476.887 295.692 467.687 291.669 465.432 293.152L465.237 293.884L464.172 297.66C466.067 299.317 469.492 299.416 470.242 301.898C472.722 310.131 458.847 312.275 453.682 311.002C451.092 310.573 451.282 310.188 449.212 311.005C448.522 312.151 448.182 312.667 447.627 313.903C447.722 315.68 447.417 317.138 448.427 318.054C450.452 317.681 450.587 317.816 452.462 318.694L452.512 319.616C450.212 320.061 452.757 317.926 449.762 320.183C464.472 324.534 451.842 336.142 435.272 331.976C432.902 334.775 431.997 336.334 430.112 339.473C442.792 340.543 432.032 345.835 438.327 351.585L439.812 351.435C441.552 353.082 441.487 355.388 439.732 357.009C439.112 356.742 438.532 356.514 437.942 356.195C432.182 362.591 425.292 361.237 417.777 359.714C417.327 360.37 416.712 361.192 416.372 361.882C415.477 364.707 415.582 367.476 414.177 369.767C412.892 370.409 412.062 370.71 410.732 371.192C408.787 374.882 404.497 380.88 405.112 384.28C406.597 385.696 406.817 385.334 409.207 385.855C410.247 386.175 410.912 386.245 411.732 386.883C416.157 387.123 424.412 380.991 429.597 378.375C432.997 376.767 442.342 372.131 445.612 374.677C446.977 379.738 432.932 390.405 429.237 393.394C435.432 396.141 441.082 398.747 447.082 401.972C446.607 412.002 443.627 423.882 441.337 433.809C442.402 440.544 439.507 446.669 440.582 449.064L442.687 450.029C441.732 451.544 439.402 451.844 437.652 451.964L437.087 452.479C428.407 486.859 419.837 524.439 393.947 550.754C385.292 559.369 379.537 562.334 369.057 568.579C370.742 573.144 371.107 569.584 372.392 573.124C374.312 578.094 374.792 582.514 372.522 587.599C372.157 588.414 371.767 589.214 371.362 590.004C368.857 593.854 363.107 597.399 358.557 597.409C325.317 597.504 291.614 598.259 258.438 596.839C251.863 596.554 237.964 578.864 249.315 573.099C252.544 571.834 254.838 573.104 256.592 571.914C256.126 571.509 252.199 569.389 251.402 568.944C249.962 568.309 247.197 566.649 245.715 565.824C242.972 564.239 239.073 561.959 236.787 559.819C234.347 558.419 232.599 556.774 230.462 554.954C217.635 543.504 206.096 527.854 199.395 511.989L199.333 511.574C198.436 510.269 198.167 509.419 197.532 507.969C192.23 494.504 188.443 480.964 184.419 467.099L181.209 455.659C179.654 450.779 178.296 445.489 176.931 440.524C174.523 431.699 172.447 422.783 169.927 413.985C169.154 411.285 168.003 407.591 169.401 404.887C171.523 400.785 176.799 399.167 180.767 397.448C184.518 395.927 188.254 394.559 191.994 393.139C188.485 390.065 177.926 381.791 179.029 377.029L180.205 376.306C187.734 375.818 201.438 384.505 208.258 388.202L220.704 385.23C215.736 375.094 211.206 366.383 205.452 356.741C198.667 358.652 194.546 358.873 187.994 356.12L187.043 357.506L185.859 357.667C184.113 356.482 183.614 354.412 184.428 352.538C184.914 347.011 188.729 347.219 186.28 340.798C184.918 337.227 190.665 336.928 193.207 336.676C191.365 333.604 189.943 331.122 188.338 327.928C167.578 335.027 158.517 313.747 178.833 317.059C178.96 313.969 175.127 308.82 173.385 306.124C167.413 307.459 163.553 307.942 157.665 305.623C153.915 304.146 150.586 302.165 152.91 297.648C154.413 294.728 156.968 295.641 159.472 294.09L157.64 288.994C151.561 289.919 142.338 289.589 139.704 282.765C139.844 279.315 142.826 277.77 145.841 277.011C144.297 274.251 143.864 273.661 143.061 270.596C137.152 270.929 130.42 270.521 126.665 265.238C124.26 261.853 128.968 258.886 131.368 257.763C125.362 246.099 132.522 242.814 141.22 250.623C144.103 246.201 148.292 244.145 150.831 250.487C152.976 255.845 152.279 259.961 150.236 265.093C152.707 266.47 153.957 267.472 156.155 269.174C162.532 256.76 171.552 267.782 164.643 283.453C167.543 284.794 167.832 286.16 169.856 286.598C171.394 283.775 173.407 280.88 176.792 280.444C183.269 282.832 182.181 293.02 180.143 298.263L180.436 299.568C181.42 300.016 181.92 300.133 182.71 300.792C185.122 302.204 185.609 302.449 187.459 304.508L188.91 304.922C190.306 303.762 192.409 301.851 194.197 302.515C204.117 306.198 196.223 320.531 192.513 325.109C193.936 327.335 194.75 328.537 195.798 331.016L196.911 331.69C198.607 330.631 198.01 330.584 199.158 329.372C200.212 326.665 201.888 325.727 204.543 327.151C205.783 329.163 205.687 328.187 205.396 330.093C205.694 331.016 207.365 333.332 208.182 334.08C209.676 332.937 210.368 332.172 212.224 331.895C223.376 334.249 215.025 348.87 210.298 353.989C215.285 364.031 220.857 374.04 225.934 384.186L237.798 381.595C233.996 375.882 220.329 354.527 224.111 348.741C232.618 347.083 246.325 372.104 249.945 378.834C246.565 360.814 239.638 331.387 233.67 313.964C230.533 313.93 228.943 314.023 225.852 313.208C224.5 312.881 223.166 312.482 221.856 312.012C215.83 309.851 211.47 305.851 214.216 299.261C215.63 298.555 216.007 298.436 217.25 297.423C218.232 294.959 217.287 294.526 217.244 291.977C219.433 286.932 222.518 289.443 226.233 288.798C226.687 287.759 224.966 282.277 224.559 280.721C217.834 281.09 208.257 280.488 204.049 274.754C201.649 271.486 203.499 267.235 206.706 265.744C208.83 264.756 205.474 260.117 207.525 256.313C210.053 254.036 212.073 255.004 215.357 255.085L215.892 254.342C214.817 249.265 207.784 250.64 203.829 249.278C199.273 247.708 192.053 242.37 192.689 236.844C193.304 231.493 199.772 233.406 201.7 231.876C202.038 231.067 201.597 226.841 201.81 224.565C184.09 222.381 177.113 206.342 194.098 208.524L193.074 201.654C188.242 201.812 176.683 199.628 176.495 192.547C176.338 186.647 182.301 188.221 184.235 186.188C184.51 185.175 183.383 181.527 183.273 178.899C178.546 177.87 164.917 173.208 168.636 165.105C169.419 163.399 172.81 162.76 174.569 162.421Z" fill="#1A1C7E"/>
<path d="M176.931 440.524C179.27 438.459 178.376 435.059 180.852 435.054C183.191 435.054 187.128 437.529 188.876 439.324C189.407 440.934 188.922 441.664 187.605 442.754C190.923 444.424 195.004 446.619 198.397 447.909C204.377 450.709 211.128 452.984 217.405 455.089C234.012 459.929 248.464 463.524 265.773 465.694C267.655 465.944 270.399 466.429 272.205 466.349C292.284 469.829 325.847 468.534 346.032 466.519L359.992 464.579C383.587 461.554 409.582 452.229 431.162 442.439C430.307 447.064 428.877 452.544 427.792 457.199L426.562 461.779C417.892 491.479 413.442 515.279 392.787 540.294L393.967 541.519C393.852 544.604 392.197 548.284 393.947 550.754C385.292 559.369 379.537 562.334 369.057 568.579C370.742 573.144 371.107 569.584 372.392 573.124C374.312 578.094 374.792 582.514 372.522 587.599C372.157 588.414 371.767 589.214 371.362 590.004C368.857 593.854 363.107 597.399 358.557 597.409C325.317 597.504 291.614 598.259 258.438 596.839C251.863 596.554 237.964 578.864 249.315 573.099C252.544 571.834 254.838 573.104 256.592 571.914C256.126 571.509 252.199 569.389 251.402 568.944C249.962 568.309 247.197 566.649 245.715 565.824C242.972 564.239 239.073 561.959 236.787 559.819C234.347 558.419 232.599 556.774 230.462 554.954C217.635 543.504 206.096 527.854 199.395 511.989L199.333 511.574C198.436 510.269 198.167 509.419 197.532 507.969C192.23 494.504 188.443 480.964 184.419 467.099L181.209 455.659C179.654 450.779 178.296 445.489 176.931 440.524Z" fill="#FCFCFA"/>
<path d="M392.787 540.294L393.967 541.519C393.852 544.604 392.197 548.284 393.947 550.754C385.292 559.369 379.537 562.334 369.057 568.579C370.742 573.144 371.107 569.584 372.392 573.124C374.312 578.094 374.792 582.514 372.522 587.599C372.157 588.414 371.767 589.214 371.362 590.004C368.857 593.854 363.107 597.399 358.557 597.409C325.317 597.504 291.614 598.259 258.438 596.839C251.863 596.554 237.964 578.864 249.315 573.099C252.544 571.834 254.838 573.104 256.592 571.914L257.127 570.624C259.684 568.514 263.841 571.174 267.659 570.584L268.401 569.199L270.532 568.624C281.477 572.164 306.982 573.804 318.722 572.654C323.232 572.534 327.632 572.149 332.122 571.789C356.882 567.734 369.877 562.009 388.327 545.124L388.482 544.774L392.787 540.294Z" fill="#14177C"/>
<path d="M318.722 572.654C323.232 572.534 327.632 572.149 332.122 571.789L330.822 573.039L331.217 573.769C334.922 574.619 337.057 572.939 339.667 573.709L339.907 574.434C336.602 578.309 323.107 572.934 318.722 572.654Z" fill="#151775"/>
<path d="M369.057 568.579C370.742 573.144 371.107 569.584 372.392 573.124C370.382 572.734 366.152 572.499 364.942 571.499C365.622 570.129 367.597 569.354 369.057 568.579Z" fill="#EFF0F1"/>
<path d="M388.327 545.124L388.482 544.774C390.372 545.849 390.172 545.349 390.912 546.969C390.362 548.624 390.867 548.014 389.367 548.874L388.417 548.584C387.762 546.804 387.997 547.254 388.327 545.124Z" fill="#1A1C7E"/>
<path d="M253.325 580.989C278.175 579.574 306.157 580.974 331.277 580.419C336.367 580.304 362.647 580.284 365.677 581.194C367.032 583.524 364.487 585.859 362.877 587.699C362.217 588.829 361.552 589.954 360.872 591.074C360.652 591.169 349.617 590.344 348.337 590.259L296.357 590.399C286.672 590.449 276.725 590.699 267.049 590.259C260.146 589.944 254.958 588.434 253.325 580.989Z" fill="#FCFCFA"/>
<path d="M362.877 587.699C362.217 588.829 361.552 589.954 360.872 591.074C360.652 591.169 349.617 590.344 348.337 590.259C353.762 589.664 358.052 590.414 362.877 587.699Z" fill="#151775"/>
<path d="M279.925 572.594C282.11 572.594 281.659 572.259 283.094 573.319L282.851 573.379L283.501 574.054L284.162 574.139L284.602 574.579L284.478 573.859L284.748 574.409L284.242 574.839C282.441 574.769 280.116 574.954 278.7 574.164L278.646 573.354L279.131 573.409L279.925 572.594Z" fill="#151775"/>
<path d="M176.931 440.524C179.27 438.459 178.376 435.059 180.852 435.054C183.191 435.054 187.128 437.529 188.876 439.324C189.407 440.934 188.922 441.664 187.605 442.754L186.368 442.704C186.013 443.979 186.038 443.349 186.257 444.594C186.999 447.219 188.502 452.044 188.924 454.544C189.441 456.099 190.015 458.434 191.066 459.569L191.022 461.519C191.876 464.264 192.733 466.854 193.349 469.664C195.083 475.364 197.794 483.424 199.112 489.029C200.69 492.394 201.26 495.519 202.493 498.299C209.943 518.944 219.448 534.519 235.389 549.724C233.928 551.939 233.116 550.809 231.771 554.074L230.462 554.954C217.635 543.504 206.096 527.854 199.395 511.989L199.333 511.574C198.436 510.269 198.167 509.419 197.532 507.969C192.23 494.504 188.443 480.964 184.419 467.099L181.209 455.659C179.654 450.779 178.296 445.489 176.931 440.524Z" fill="#14177C"/>
<path d="M193.349 469.664C195.083 475.364 197.794 483.424 199.112 489.029C198.256 488.119 197.895 487.254 196.894 486.259C195.063 485.919 193.042 485.614 191.776 484.314C191.061 478.974 193.01 475.614 193.316 470.334L193.349 469.664Z" fill="#151775"/>
<path d="M200.475 500.474C202.032 502.004 201.672 501.139 202.045 502.939C201.112 504.479 200.826 504.749 199.664 506.069C199.188 503.049 199.117 503.064 200.475 500.474Z" fill="#151775"/>
<path d="M228.886 548.214C229.565 548.329 230.365 548.544 231.047 548.709C231.614 550.024 231.369 549.719 230.699 551.524C229.077 550.609 229.253 549.839 228.886 548.214Z" fill="#151775"/>
<path d="M197.81 494.434C199.282 495.284 198.895 494.849 199.868 496.109L199.228 498.039L198.305 497.484C197.36 495.689 197.608 496.654 197.81 494.434Z" fill="#151775"/>
<path d="M235.389 549.724L236.99 550.884C245.901 557.574 251.116 560.589 261.279 565.174C263.542 566.064 268.404 568.109 270.532 568.624L268.401 569.199L267.659 570.584C263.841 571.174 259.684 568.514 257.127 570.624L256.592 571.914C256.126 571.509 252.199 569.389 251.402 568.944C249.962 568.309 247.197 566.649 245.715 565.824C242.972 564.239 239.073 561.959 236.787 559.819C234.347 558.419 232.599 556.774 230.462 554.954L231.771 554.074C233.116 550.809 233.928 551.939 235.389 549.724Z" fill="#14177C"/>
<path d="M245.715 565.824C247.3 565.484 247.442 565.399 248.612 564.279C250.324 564.184 250.4 564.074 252.04 564.729C252.3 567.429 250.223 566.089 251.665 568.404C251.839 568.379 252.013 568.359 252.187 568.334C255.207 566.824 258.761 568.344 260.969 567.044L261.279 565.174C263.542 566.064 268.404 568.109 270.532 568.624L268.401 569.199L267.659 570.584C263.841 571.174 259.684 568.514 257.127 570.624L256.592 571.914C256.126 571.509 252.199 569.389 251.402 568.944C249.962 568.309 247.197 566.649 245.715 565.824Z" fill="#151775"/>
<path d="M235.389 549.724L236.99 550.884C236.398 551.974 236.015 552.179 236.394 553.119C236.942 554.479 234.815 556.514 236.257 558.024C236.832 558.624 236.731 558.919 236.787 559.819C234.347 558.419 232.599 556.774 230.462 554.954L231.771 554.074C233.116 550.809 233.928 551.939 235.389 549.724Z" fill="#151775"/>
<path d="M188.924 454.544C190.684 455.129 190.902 455.359 192.762 454.764C193.767 456.189 193.73 456.069 193.949 457.794C193.352 459.474 193.888 458.899 192.384 459.654L191.066 459.569C190.015 458.434 189.441 456.099 188.924 454.544Z" fill="#F4F6F2"/>
<path d="M305.112 498.869C308.852 493.444 314.002 487.409 319.857 494.719L320.597 496.744C321.112 499.349 321.582 501.964 322.012 504.584C326.962 499.359 332.212 498.774 335.877 505.724C338.007 511.534 336.477 515.804 331.307 519.269L330.137 519.984C329.902 520.779 329.817 520.394 330.592 520.999C334.717 524.194 338.447 526.839 339.467 532.354C340.347 537.104 336.582 540.614 332.092 541.149C326.992 541.759 323.212 539.504 319.367 536.489C321.322 544.049 321.062 558.099 307.927 552.094C304.282 550.424 302.972 543.694 302.317 539.794C298.342 541.754 295.147 543.579 290.473 542.974C285.756 542.364 281.873 538.679 282.959 533.649C284.072 528.499 288.474 526.084 292.596 523.489C291.558 523.134 290.533 522.749 289.522 522.324C285.146 520.454 278.078 515.704 280.946 509.989C282.641 506.609 286.42 505.629 289.747 504.489C289.519 490.904 296.066 490.569 305.112 498.869Z" fill="#14177C"/>
<path d="M335.877 505.724C338.007 511.534 336.477 515.804 331.307 519.269C333.292 515.964 335.682 509.429 335.877 505.724Z" fill="#151775"/>
<path d="M304.347 515.404C307.937 512.044 313.572 512.239 316.917 515.839C320.027 519.189 320.087 524.349 317.057 527.769C314.022 531.189 308.892 531.744 305.197 529.059C301.502 526.374 300.447 521.319 302.767 517.379C303.197 516.649 303.727 515.984 304.347 515.404Z" fill="#FCFCFA"/>
<path d="M295.076 513.094C300.027 511.389 300.112 515.129 304.347 515.404C303.727 515.984 303.197 516.649 302.767 517.379C302.622 515.654 302.922 515.559 302.007 514.514C300.432 515.569 301.242 518.154 299.137 520.079L298.002 519.959C297.302 518.084 298.962 518.274 298.692 516.104C297.622 516.119 296.547 516.139 295.473 516.164L295.019 515.579L294.139 515.179C292.769 514.549 291.295 514.029 290.838 512.779C292.411 512.244 293.434 512.699 295.076 513.094Z" fill="#151775"/>
<path d="M295.019 515.579L294.139 515.179C292.769 514.549 291.295 514.029 290.838 512.779C292.411 512.244 293.434 512.699 295.076 513.094C296.324 514.054 296.862 514.089 297.192 515.294C295.97 515.804 296.457 515.649 295.019 515.579Z" fill="#EFF0F1"/>
<path d="M310.387 536.119C313.037 537.564 312.462 541.619 312.422 544.294C309.012 541.329 309.377 540.279 310.387 536.119Z" fill="#EFF0F1"/>
<path d="M328.342 509.269C328.942 509.569 328.602 509.329 329.167 510.199C327.977 512.889 325.337 513.689 322.637 514.949C322.237 514.889 322.482 514.969 322.032 514.464C322.942 512.939 326.712 510.464 328.342 509.269Z" fill="#EFF0F1"/>
<path d="M299.212 529.849C299.782 530.379 299.532 530.014 299.712 531.079C298.167 533.289 295.499 533.989 293.015 534.704C292.85 534.494 292.959 534.684 292.735 533.834C294.689 532.319 297.047 531.084 299.212 529.849Z" fill="#EFF0F1"/>
<path d="M322.617 529.829C326.177 530.049 328.752 531.009 331.347 533.439C327.932 533.604 324.867 532.364 322.617 529.829Z" fill="#EFF0F1"/>
<path d="M314.312 499.204C315.072 500.859 315.432 502.974 315.047 504.769L314.422 504.324C314.112 502.074 314.132 501.484 314.312 499.204Z" fill="#1A1C7E"/>
<path d="M284.507 515.569L285.327 515.249C286.331 516.134 285.998 516.149 286.157 517.959L284.16 516.244L284.507 515.569Z" fill="#151775"/>
<path d="M375.212 521.354C369.847 526.254 361.312 531.534 355.347 535.749C353.682 536.929 350.462 537.609 348.317 537.114L347.977 536.364C350.512 530.959 363.832 525.109 368.862 521.144C379.117 513.059 389.807 503.744 395.827 491.749C399.777 484.179 402.167 473.769 409.867 469.034C412.027 467.704 414.362 470.144 414.892 472.419L414.082 476.149C411.322 482.224 410.202 483.139 404.292 486.369C404.232 488.164 404.157 488.894 402.787 490.334L402.942 490.554C406.452 490.054 413.037 488.864 413.387 494.164C410.432 500.539 402.267 499.579 396.532 498.949C393.902 501.734 392.572 503.939 390.477 507.139C394.657 506.434 399.417 505.374 403.287 507.484C404.367 509.319 404.157 508.374 404.077 510.384C401.247 514.999 393.967 516.239 389.032 514.569C387.612 514.089 387.507 512.034 387.147 510.619C384.957 512.029 381.802 515.284 379.837 517.214L375.212 521.354Z" fill="#14177C"/>
<path d="M402.942 490.554C400.907 490.954 401.597 491.229 400.212 490.539C400.417 488.454 402.642 487.254 404.292 486.369C404.232 488.164 404.157 488.894 402.787 490.334L402.942 490.554Z" fill="#EFF0F1"/>
<path d="M238.53 503.819C235.879 482.844 251.312 488.249 247.73 503.934L247.431 504.614C245.87 508.069 244.538 509.454 242.171 512.409C245.098 517.849 258.87 525.559 264.301 529.464C267.374 531.669 272.248 532.909 271.639 537.634C268.147 539.389 250.439 525.094 247.261 522.204C246.222 522.164 245.313 522.144 244.277 522.034C243.021 520.224 243.133 520.264 241.145 519.389C241.021 518.589 241.055 517.144 241.044 516.279C235.384 510.724 230.379 504.284 224.518 499.009C223.97 498.949 223.423 498.894 222.875 498.834C223 498.454 223.33 498.169 223.63 497.824C225.372 497.649 225.91 497.544 227.538 496.919C229.168 499.074 232.166 502.649 234.231 504.374L234.923 504.244C236.021 505.114 236.124 505.444 237.455 505.489C238.35 504.629 238.066 505.004 238.53 503.819Z" fill="#151775"/>
<path d="M238.53 503.819C235.879 482.844 251.312 488.249 247.73 503.934C244.354 503.114 244.788 503.109 242.462 506.109L241.548 505.824C240.317 503.169 242.262 502.209 240.77 499.524L240.395 499.964C240.733 503.554 240.101 501.344 238.804 504.424L238.53 503.819Z" fill="#14177C"/>
<path d="M238.53 503.819L238.804 504.424C239.428 507.274 240.424 509.444 241.519 512.129C239.28 509.864 235.958 506.874 234.231 504.374L234.923 504.244C236.021 505.114 236.124 505.444 237.455 505.489C238.35 504.629 238.066 505.004 238.53 503.819Z" fill="#EFF0F1"/>
<path d="M241.044 516.279L247.261 522.204C246.222 522.164 245.313 522.144 244.277 522.034C243.021 520.224 243.133 520.264 241.145 519.389C241.021 518.589 241.055 517.144 241.044 516.279Z" fill="#EFF0F1"/>
<path d="M216.491 477.179L218.872 483.554L221.688 483.504C222.172 482.284 222.549 482.059 223.539 481.204C224.487 479.989 225.086 478.684 226.547 478.474C231.585 477.759 232.89 484.179 232.79 487.874C232.666 492.444 231.326 494.619 227.538 496.919C225.91 497.544 225.372 497.649 223.63 497.824C223.33 498.169 223 498.454 222.875 498.834C217.005 503.994 205.944 498.634 207.726 491.954C211.25 488.039 216.52 491.124 220.601 492.794C217.851 488.009 217.553 487.519 212.87 484.679C214.418 484.714 213.931 484.839 215.342 484.389C215.704 483.354 215.902 479.374 216.491 477.179Z" fill="#14177C"/>
<path d="M216.491 477.179L218.872 483.554C220.442 487.404 221.632 490.889 224.606 493.874C223.322 493.944 221.619 493.644 220.601 492.794C217.851 488.009 217.553 487.519 212.87 484.679C214.418 484.714 213.931 484.839 215.342 484.389C215.704 483.354 215.902 479.374 216.491 477.179Z" fill="#151775"/>
<path d="M218.872 483.554L221.688 483.504C222.172 482.284 222.549 482.059 223.539 481.204C222.783 488.794 223.861 487.654 224.606 493.874C221.632 490.889 220.442 487.404 218.872 483.554Z" fill="#EFF0F1"/>
<path d="M358.562 517.924C358.272 517.494 357.987 517.059 357.712 516.614C355.247 512.589 353.102 502.384 358.227 499.694C360.152 499.404 360.717 499.979 362.422 500.964C367.092 507.839 366.487 513.659 363.692 521.044C363.012 522.319 363.522 521.904 362.342 522.534C360.827 521.849 359.957 520.059 359.007 518.589L358.562 517.924Z" fill="#14177C"/>
<path d="M358.562 517.924C358.272 517.494 357.987 517.059 357.712 516.614C355.247 512.589 353.102 502.384 358.227 499.694C360.152 499.404 360.717 499.979 362.422 500.964L359.922 502.154C360.097 507.774 361.302 510.154 358.482 515.139L358.562 517.924Z" fill="#151775"/>
<path d="M359.007 518.589C361.777 518.994 361.172 518.769 363.692 521.044C363.012 522.319 363.522 521.904 362.342 522.534C360.827 521.849 359.957 520.059 359.007 518.589Z" fill="#151775"/>
<path d="M255.017 502.704C256.289 500.364 256.36 499.869 259.042 499.464C260.81 500.004 261.182 500.544 262.517 501.799C264.708 507.044 263.038 510.909 261.423 516.159C260.264 518.654 259.137 520.834 257.855 523.259C254.039 517.809 253.341 516.179 253.355 509.409C253.505 506.769 253.964 505.079 255.017 502.704Z" fill="#14177C"/>
<path d="M370.382 493.939C373.087 483.374 383.512 492.779 378.502 507.294L377.147 509.594C375.392 510.354 376.282 510.254 374.367 509.844C369.802 506.334 368.717 499.239 370.382 493.939Z" fill="#151775"/>
<path d="M370.382 493.939L370.837 494.834C371.042 494.334 371.247 493.834 371.452 493.334C372.687 494.974 372.032 496.699 372.352 497.129C375.182 500.884 376.737 502.784 378.502 507.294L377.147 509.594C375.392 510.354 376.282 510.254 374.367 509.844C369.802 506.334 368.717 499.239 370.382 493.939Z" fill="#14177C"/>
<path d="M375.212 521.354L379.837 517.214C383.352 519.459 382.367 516.764 385.247 519.199C388.862 519.744 395.967 520.109 394.722 525.479C389.927 531.349 381.647 527.449 376.882 523.659L375.567 521.974L375.212 521.354Z" fill="#14177C"/>
<path d="M375.212 521.354L379.837 517.214C383.352 519.459 382.367 516.764 385.247 519.199L383.207 519.559C379.727 519.224 378.552 520.079 375.567 521.974L375.212 521.354Z" fill="#EFF0F1"/>
<path d="M244.277 522.034C240.686 526.589 235.215 529.714 229.344 527.579C226.414 526.514 224.047 522.879 226.558 520.119C227.574 518.944 230.644 517.799 232.167 517.974C235.349 518.339 237.758 519.504 241.145 519.389C243.133 520.264 243.021 520.224 244.277 522.034Z" fill="#151775"/>
<path d="M387.962 478.154C398.707 478.649 393.667 491.364 390.877 497.269C388.207 497.919 385.867 495.219 385.382 492.754C384.247 486.954 384.977 483.169 387.962 478.154Z" fill="#14177C"/>
<path d="M373.652 538.834C371.382 537.419 369.942 536.624 369.317 533.974C371.477 527.264 393.257 530.364 384.452 539.714C381.032 541.369 377.057 539.889 373.652 538.834Z" fill="#14177C"/>
<path d="M373.652 538.834C377.407 536.874 375.047 537.944 376.967 535.864C378.592 534.094 379.457 538.389 381.207 533.604C381.917 534.934 382.287 537.644 381.792 539.084L384.452 539.714C381.032 541.369 377.057 539.889 373.652 538.834Z" fill="#151775"/>
<path d="M212.87 484.679C207.885 482.204 200.883 473.554 207.05 469.069C212.19 467.749 214.696 473.419 216.491 477.179C215.902 479.374 215.704 483.354 215.342 484.389C213.931 484.839 214.418 484.714 212.87 484.679Z" fill="#14177C"/>
<path d="M219.807 505.959C223.386 505.899 233.492 506.754 232.247 512.124C230.768 513.839 230.592 513.854 228.503 514.869C222.71 514.944 208.797 512.709 219.807 505.959Z" fill="#14177C"/>
<path d="M241.38 531.649C244.88 531.334 247.891 530.889 249.307 534.869C249.214 538.584 246.376 539.634 243.273 540.449C239.591 540.439 236.773 540.434 235.378 536.454C235.879 532.669 237.987 532.324 241.38 531.649Z" fill="#151775"/>
<path d="M240.969 533.159C242.564 533.259 244.675 532.609 245.725 534.189C244.344 535.454 242.069 535.344 240.089 535.524L238.497 535.764C238.031 537.074 238.261 536.599 237.285 537.684L236.653 537.144C236.327 535.489 236.238 536.259 236.868 534.739C238.177 533.604 239.27 533.539 240.969 533.159Z" fill="#14177C"/>
<path d="M414.892 472.419C416.722 471.884 415.887 471.804 417.502 472.464C418.217 474.494 418.127 475.554 416.677 477.204C415.127 477.349 415.167 477.544 414.082 476.149L414.892 472.419Z" fill="#F4F6F2"/>
<path d="M275.868 469.554L276.323 470.414C275.18 471.284 274.128 471.109 272.45 471.324L272.041 470.374C273.286 469.369 273.901 469.694 275.868 469.554Z" fill="#F4F6F2"/>
<path d="M431.097 416.774C433.637 415.698 435.372 414.739 437.757 413.425C436.427 420.156 434.842 425.747 432.977 432.364L426.242 435.879L425.992 436.174C420.812 438.444 411.797 441.854 407.212 444.129L406.267 444.114C392.112 449.399 378.757 452.739 363.902 455.654C360.712 456.259 351.412 457.564 348.987 458.219C343.547 458.769 338.117 459.384 332.692 460.069C332.207 460.109 331.317 460.124 330.927 460.289C318.787 460.519 308.872 461.114 296.346 460.819C274.331 460.189 252.474 456.894 231.255 450.999C226.718 450.459 208.31 443.504 203.469 441.709L192.669 437.124C190.792 435.884 185.271 433.294 182.597 431.749C180.91 426.53 179.246 419.258 177.849 413.798C186.551 418.481 192.622 421.443 201.791 425.086C204.603 426.286 207.436 427.441 210.287 428.548L216.261 430.669L217.223 430.194C218.561 429.735 219.515 429.484 220.726 428.724L219.778 427.329L221.412 426.404C223.063 426.067 224.378 425.651 225.979 425.164C228.095 425.786 231.09 426.766 233.181 427.177C232.801 425.974 232.819 426.307 232.771 425.078C234.432 425.164 234.533 425.131 235.944 424.251C236.84 425.369 238.54 427.448 238.676 428.907L239.492 429.057C242.429 427.761 240.341 427.934 243.923 427.673C246.549 432.209 255.725 431.814 260.862 432.854C261.862 434.234 266.526 434.344 268.054 433.714C271.329 433.364 272.755 433.934 275.864 433.954C275.391 436.354 275.962 435.439 274.427 436.974C272.172 437.359 270.095 436.919 269.182 439.084L270.817 440.179C270.916 441.154 270.994 440.779 270.825 441.329C282.735 440.534 293.254 442.659 305.747 442.674C313.067 442.684 334.632 440.999 339.872 442.214C356.552 440.399 377.502 437.689 393.382 432.304C398.992 431.354 416.967 423.761 422.252 421.199L424.442 420.227C427.002 419.082 428.697 418.14 431.097 416.774Z" fill="#FCFCFA"/>
<path d="M235.944 424.251C236.84 425.369 238.54 427.448 238.676 428.907L239.492 429.057C242.429 427.761 240.341 427.934 243.923 427.673C246.549 432.209 255.725 431.814 260.862 432.854C261.862 434.234 266.526 434.344 268.054 433.714C271.329 433.364 272.755 433.934 275.864 433.954C275.391 436.354 275.962 435.439 274.427 436.974C272.172 437.359 270.095 436.919 269.182 439.084L270.817 440.179C270.916 441.154 270.994 440.779 270.825 441.329L270.673 441.784C252.575 439.734 239.701 437.209 222.264 432.529C220.393 431.844 218.193 431.244 216.261 430.669L217.223 430.194C218.561 429.735 219.515 429.484 220.726 428.724L219.778 427.329L221.412 426.404C223.063 426.067 224.378 425.651 225.979 425.164C228.095 425.786 231.09 426.766 233.181 427.177C232.801 425.974 232.819 426.307 232.771 425.078C234.432 425.164 234.533 425.131 235.944 424.251Z" fill="#14177C"/>
<path d="M221.412 426.404C223.041 426.831 223.419 426.599 224.174 427.649L222.097 429.319C222.607 429.635 223.117 429.949 223.626 430.264C223.242 431.664 223.279 431.279 222.264 432.529C220.393 431.844 218.193 431.244 216.261 430.669L217.223 430.194C218.561 429.735 219.515 429.484 220.726 428.724L219.778 427.329L221.412 426.404Z" fill="#151775"/>
<path d="M235.944 424.251C236.84 425.369 238.54 427.448 238.676 428.907L233.181 427.177C232.801 425.974 232.819 426.307 232.771 425.078C234.432 425.164 234.533 425.131 235.944 424.251Z" fill="#F4F6F2"/>
<path d="M270.825 441.329C282.735 440.534 293.254 442.659 305.747 442.674C313.067 442.684 334.632 440.999 339.872 442.214C319.457 444.204 290.997 444.034 270.673 441.784L270.825 441.329Z" fill="#151775"/>
<path d="M252.442 451.909C255.209 451.664 258.734 450.964 260.922 452.429L260.576 453.789C255.89 453.139 256.948 455.269 252.442 451.909Z" fill="#F4F6F2"/>
<path d="M363.732 451.664C364.227 451.859 363.947 451.684 364.387 452.409C363.342 453.289 360.447 453.529 358.837 453.824C358.112 452.634 358.157 453.234 358.417 452.019C359.767 451.379 362.117 451.624 363.732 451.664Z" fill="#F4F6F2"/>
<path d="M257.979 391.424C257.784 389.794 257.705 389.607 257.905 387.928C259.958 385.612 265.406 385.906 269.352 385.285C270.277 388.592 273.325 395.044 274.952 398.355C281.496 411.676 284.405 420.15 284.38 434.959L275.864 433.954C272.755 433.934 271.329 433.364 268.054 433.714C266.017 431.924 265.101 425.02 264.315 421.81C264.184 418.896 258.778 393.68 257.979 391.424Z" fill="#F4F6F2"/>
<path d="M229.405 391.173C234.115 390.407 238.838 389.716 243.57 389.101C246.232 392.144 249.621 397.478 251.977 400.957L253.543 403.763C258.803 413.429 257.842 419.733 260.601 427.895C260.915 429.555 261.509 431.399 260.862 432.854C255.725 431.814 246.549 432.209 243.923 427.673C242.196 422.359 240.549 417.956 238.518 412.771C238.095 411.312 235.828 406.351 235.117 404.698C233.216 400.401 230.935 395.559 229.405 391.173Z" fill="#FCFCFA"/>
<path d="M382.012 388.73C386.537 389.099 390.432 389.758 394.892 390.49C391.747 397.786 387.722 406.465 384.967 413.774C383.852 416.63 380.267 426.264 378.892 428.385L361.137 431.724C363.207 421.634 364.357 414.23 369.167 405.027C370.757 403.098 371.427 402.104 372.742 399.967C375.097 397.822 379.592 391.567 382.012 388.73Z" fill="#FCFCFA"/>
<path d="M199.72 398.827C208.513 404.433 230.571 417.379 235.944 424.251C234.533 425.131 234.432 425.164 232.771 425.078C232.819 426.307 232.801 425.974 233.181 427.177C231.09 426.766 228.095 425.786 225.979 425.164C213.382 420.687 205.028 418.062 192.855 412.451L189.985 411.123C187.167 409.688 183.348 407.866 180.73 406.271C187.647 402.888 192.359 401.133 199.72 398.827Z" fill="#FCFCFA"/>
<path d="M384.967 413.774L387.037 413.312C387.132 413.16 387.227 413.008 387.322 412.856C390.077 411.344 393.827 403.044 397.122 405.689C397.732 407.427 397.897 407.677 397.852 409.579C396.822 410.378 396.712 410.238 395.372 410.346C394.457 412.318 395.497 413.678 395.002 416.288C397.157 414.749 399.287 413.177 401.397 411.571C400.587 414.593 400.937 413.152 398.372 415.37C396.232 417.222 393.682 419.382 392.387 421.89L392.417 422.664C394.077 423.875 395.027 422.471 397.512 422.781C402.112 421.977 417.302 415.078 421.847 412.958C424.662 412.76 425.517 412.585 428.227 413.524L428.652 411.911L429.367 411.774L430.372 412.856L431.317 412.699C431.047 416.273 429.942 414.232 431.097 416.774C428.697 418.14 427.002 419.082 424.442 420.227L422.252 421.199C416.967 423.761 398.992 431.354 393.382 432.304C391.602 432.449 390.262 432.294 388.497 432.154L388.147 430.934L387.137 430.919C386.372 432.429 386.792 431.999 385.577 433.019C385.262 431.419 383.817 430.974 383.002 428.737C381.442 429.929 380.932 430.679 379.242 429.735L378.892 428.385C380.267 426.264 383.852 416.63 384.967 413.774Z" fill="#14177C"/>
<path d="M401.397 411.571C400.587 414.593 400.937 413.152 398.372 415.37C396.232 417.222 393.682 419.382 392.387 421.89L392.417 422.664C394.077 423.875 395.027 422.471 397.512 422.781C393.577 424.518 389.407 425.508 385.257 426.585C388.717 421.675 390.357 420.167 395.002 416.288C397.157 414.749 399.287 413.177 401.397 411.571Z" fill="#F4F6F2"/>
<path d="M391.102 427.655C392.392 428.298 392.802 428.673 392.702 430.054L391.832 430.264C389.882 430.059 389.982 430.379 388.707 429.359C389.302 428.094 389.432 428.399 391.102 427.655Z" fill="#1A1C7E"/>
<path d="M401.397 411.571C405.177 408.639 415.857 401.51 420.202 399.352C425.547 401.167 430.517 403.19 435.747 405.291C431.152 407.957 426.192 410.407 421.847 412.958C417.302 415.078 402.112 421.977 397.512 422.781C395.027 422.471 394.077 423.875 392.417 422.664L392.387 421.89C393.682 419.382 396.232 417.222 398.372 415.37C400.937 413.152 400.587 414.593 401.397 411.571Z" fill="#FCFCFA"/>
<path d="M203.469 441.709C208.31 443.504 226.718 450.459 231.255 450.999C230.469 453.384 229.049 455.279 226.32 455.319L225.772 454.564C226.622 453.829 226.399 453.974 227.405 453.419C224.705 452.689 221.187 453.059 218.457 453.624L217.405 455.089C211.128 452.984 204.377 450.709 198.397 447.909L197.859 446.774C198.859 445.944 200.108 445.839 201.418 445.554C200.822 444.209 201.032 444.679 199.782 443.619C201.172 441.924 200.894 442.434 203.469 441.709Z" fill="#14177C"/>
<path d="M205.034 443.644C208.213 446.854 205.635 443.219 210.472 445.824C208.883 447.154 206.59 446.709 205.032 445.469L205.034 443.644Z" fill="#151775"/>
<path d="M273.206 243.55C275.59 243.939 277.97 241.064 280.67 243.876C286.445 249.891 277.93 259.191 273.028 262.267C272.27 255.942 274.346 261.193 275.109 254.863C273.939 255.72 273.494 256.367 272.276 256.479C272.607 254.846 272.955 253.589 273.412 251.984L273.182 249.901C270.716 247.668 272.356 245.995 273.206 243.55Z" fill="#151775"/>
<path d="M273.412 251.984C274.313 250.015 274.484 249.134 276.154 247.909L277.161 247.958C278.221 250.637 276.978 252.83 275.109 254.863C273.939 255.72 273.494 256.367 272.276 256.479C272.607 254.846 272.955 253.589 273.412 251.984Z" fill="#EFF0F1"/>
<path d="M411.047 255.505C412.402 256.937 413.872 258.56 415.252 259.936C414.317 261.712 413.272 263.601 412.457 265.421C411.517 262.544 410.687 260.523 407.972 258.97C404.177 258.847 402.012 263.156 399.952 266.053C399.757 265.996 399.557 265.938 399.357 265.88L398.502 265.649C392.917 264.012 391.622 268.514 390.927 272.921C390.397 270.162 390.032 269.012 391.172 266.513C393.197 264.49 395.517 265.246 396.797 263.168C399.562 258.667 405.907 260.059 408.537 256.213C410.372 256.501 408.492 257.343 410.502 259.298L411.352 258.921C411.947 256.074 410.492 259.137 411.047 255.505Z" fill="#FCFCFA"/>
<path d="M330.927 460.289C331.317 460.124 332.207 460.109 332.692 460.069C335.082 460.374 336.667 460.374 338.767 461.554C338.367 462.069 331.707 464.594 331.182 464.524C328.502 464.169 315.112 463.519 313.652 462.704C315.367 461.114 325.642 461.924 330.927 460.289Z" fill="#151775"/>
<path d="M309.097 313.468L309.932 313.786C309.677 312.462 312.817 323.825 312.147 322.325C312.697 321.124 312.552 321.185 312.737 319.811L313.477 319.833C313.272 324.039 313.022 328.242 312.722 332.442C311.862 329.48 312.412 327.374 311.732 324.552C310.377 325.319 308.672 328.775 308.412 330.482L307.697 330.417C307.742 325.906 308.667 318.213 309.097 313.468Z" fill="#14177C"/>
<path d="M421.957 230.496L425.592 235.556C423.567 237.547 421.877 239.113 420.132 241.38C418.372 237.911 417.427 236.532 413.812 234.836C416.577 234.359 418.902 233.208 420.382 235.817L420.157 236.304L420.437 236.641L419.862 236.87L419.577 236.545L420.297 236.328C421.642 236.972 420.937 236.737 423.012 236.08C422.292 234.743 421.932 234.672 420.722 233.653C420.612 232.364 421.007 231.994 421.702 230.89L421.957 230.496Z" fill="#FCFCFA"/>
<path d="M202.156 197.91C204.558 195.115 205.204 194.299 207.038 191.095C207.772 193.432 208.109 193.257 207.679 195.326C206.43 196.502 206.486 196.492 204.957 197.244L204.924 198.044L205.973 199.177C207.077 198.869 206.808 198.876 207.797 198.109C208.698 198.563 209.684 199.026 210.545 199.536C209.182 200.819 207.7 202.437 206.381 203.803C204.952 200.991 204.176 200.218 202.156 197.91Z" fill="#F4F6F2"/>
<path d="M344.862 278.28C343.662 272.15 346.082 271.315 351.317 269.653C353.317 265.462 355.137 266.129 359.177 266.288C356.367 267.017 354.617 267.183 353.867 270.345C353.592 271.133 353.317 272.713 352.607 272.859C347.472 273.912 346.112 271.814 344.862 278.28Z" fill="#F4F6F2"/>
<path d="M441.337 433.809C442.402 440.544 439.507 446.669 440.582 449.064L442.687 450.029C441.732 451.544 439.402 451.844 437.652 451.964L437.087 452.479C438.317 446.319 439.897 439.949 441.337 433.809Z" fill="#FCFCFA"/>
<path d="M223.551 243.306C225.699 243.06 224.809 242.792 226.404 243.725L226.88 245.162L226.294 245.59C225.495 245.448 224.476 245.154 223.765 245.325C224.699 246.525 224.874 246.584 225.495 247.979C222.147 249.396 223.36 249.712 220.719 252.162C219.546 251.238 219.319 249.602 218.861 248.07L223.551 243.306Z" fill="#F4F6F2"/>
<path d="M438.647 305.189C439.147 304.071 439.517 303.762 440.282 302.8C439.077 300.761 440.622 296.559 441.537 294.536C442.167 300.518 443.072 302.076 446.207 307.147C443.052 305.987 442.052 305.498 438.647 305.189Z" fill="#FCFCFA"/>
<path d="M322.587 375.314L322.497 373.793C326.847 370.544 322.722 369.599 324.437 366.491C325.677 367.085 325.357 367.018 326.677 367.293C328.342 363.497 328.837 362.259 332.812 362.04C330.057 365.063 324.197 374.423 322.587 375.314Z" fill="#FCFCFA"/>
<path d="M201.791 425.086C203.611 424.831 203.486 424.802 205.233 425.347C205.733 423.938 205.599 424.339 205.701 422.794C206.783 421.621 206.146 421.973 207.635 421.626C210.406 424.202 208.219 424.587 212.272 424.968L212.416 425.525L212.033 425.9C211.06 426.87 210.469 427.22 210.287 428.548C207.436 427.441 204.603 426.286 201.791 425.086Z" fill="#151775"/>
<path d="M348.987 458.219C351.412 457.564 360.712 456.259 363.902 455.654C362.722 457.584 363.032 457.844 360.617 457.979C357.562 458.149 354.302 459.219 351.287 459.799C350.312 459.999 350.762 461.764 348.507 461.019C347.957 459.434 348.067 460.289 348.987 458.219Z" fill="#151775"/>
<path d="M192.669 437.124L203.469 441.709C200.894 442.434 201.172 441.924 199.782 443.619C197.422 443.939 196.906 443.619 195.265 444.834L195.411 443.959L195.813 444.144L195.436 443.819C195.834 441.654 195.376 442.584 196.892 440.949C196.225 440.044 195.583 440.199 194.143 439.854C193.029 439.034 193.068 438.494 192.669 437.124Z" fill="#151775"/>
<path d="M265.773 465.694C267.235 465.164 269.896 465.239 272.61 464.404L272.752 463.739C271.265 462.779 271.644 463.294 270.846 461.894C271.844 461.399 273.749 461.454 274.908 461.449L276.016 462.214C276.454 462.744 276.848 463.214 277.305 463.734L277.069 465.274L277.323 465.324C275.01 466.194 274.331 465.849 272.205 466.349C270.399 466.429 267.655 465.944 265.773 465.694Z" fill="#151775"/>
<path d="M257.979 391.424C256.77 389.711 256.688 389.068 256.501 387.084C258.876 381.66 263.933 384.8 268.526 384.651L269.353 384.62L269.352 385.285C265.406 385.906 259.958 385.612 257.905 387.928C257.705 389.607 257.784 389.794 257.979 391.424Z" fill="#151775"/>
<path d="M426.562 461.779L427.792 457.199C429.512 459.979 431.487 463.264 430.312 466.479L429.442 466.879C427.647 465.864 427.552 465.379 426.917 463.129C426.787 462.684 426.672 462.229 426.562 461.779Z" fill="#14177C"/>
<path d="M447.627 313.903C447.722 315.68 447.417 317.138 448.427 318.054C450.452 317.681 450.587 317.816 452.462 318.694L452.512 319.616C450.212 320.061 452.757 317.926 449.762 320.183C447.832 320.433 445.332 321.179 444.017 320.424C444.107 318.734 446.567 315.516 447.627 313.903Z" fill="#F4F6F2"/>
<path d="M330.492 348.757L330.997 349.713C329.137 353.679 324.212 360.876 320.527 362.915C322.412 359.66 328.112 351.818 330.492 348.757Z" fill="#F4F6F2"/>
<path d="M251.977 400.957C252.007 398.465 252.93 395.644 255.622 394.774L256.663 395.371L256.515 395.039C257.543 398.982 254.143 399.552 253.543 403.763L251.977 400.957Z" fill="#14177C"/>
<path d="M233.098 275.811C233.161 278.303 232.137 279.385 232.401 281.171C234.076 282.344 233.686 281.978 235.988 282.237C234.36 282.72 232.773 283.754 231.28 284.618L230.44 283.954C228.955 280.026 229.741 277.715 233.098 275.811Z" fill="#F4F6F2"/>
<path d="M407.212 444.129C409.687 443.989 411.002 443.474 413.282 444.624L413.577 445.364C411.672 447.264 409.142 447.214 406.912 445.884L406.267 444.114L407.212 444.129Z" fill="#14177C"/>
<path d="M416.012 361.823L416.372 361.882C415.477 364.707 415.582 367.476 414.177 369.767C412.892 370.409 412.062 370.71 410.732 371.192C412.422 368.078 414.262 364.917 416.012 361.823Z" fill="#FCFCFA"/>
<path d="M370.532 292.422C367.332 298.219 364.827 293.092 360.587 297.024C361.757 292.796 366.117 293.696 370.532 292.422Z" fill="#FCFCFA"/>
<path d="M346.032 466.519L346.777 464.949C349.187 463.574 357.032 464.279 359.992 464.579L346.032 466.519Z" fill="#151775"/>
<path d="M274.908 461.449C276.694 459.649 282.051 460.729 284.279 461.599L284.706 462.154C280.464 463.279 279.687 461.744 276.016 462.214L274.908 461.449Z" fill="#14177C"/>
<path d="M199.158 329.372C200.212 326.665 201.888 325.727 204.543 327.151C205.783 329.163 205.687 328.187 205.396 330.093C202.556 328.715 202.132 328.751 199.158 329.372Z" fill="#FCFCFA"/>
<path d="M438.327 351.585L439.812 351.435C441.552 353.082 441.487 355.388 439.732 357.009C439.112 356.742 438.532 356.514 437.942 356.195C438.452 354.659 438.322 353.218 438.327 351.585Z" fill="#F4F6F2"/>
<path d="M312.297 343.796C312.672 347.25 312.192 353.368 313.202 355.396C313.112 356.083 312.557 357.549 312.312 358.277C312.152 358.226 311.997 358.174 311.837 358.123C311.497 354.368 311.782 347.539 312.297 343.796Z" fill="#EFF0F1"/>
<path d="M217.223 430.194C216.332 429.64 216.157 429.48 215.345 428.822L215.24 427.777L216.324 427.056C217.828 426.876 218.43 426.649 219.778 427.329L220.726 428.724C219.515 429.484 218.561 429.735 217.223 430.194Z" fill="#14177C"/>
<path d="M187.994 356.12L187.043 357.506L185.859 357.667C184.113 356.482 183.614 354.412 184.428 352.538C185.481 353.656 186.842 355.195 187.994 356.12Z" fill="#FCFCFA"/>
<path d="M425.992 436.174L426.242 435.879L428.732 436.234C429.452 437.209 429.257 436.879 429.687 438.004L429.392 439.099L428.332 439.094C426.462 438.684 425.787 438.944 425.042 437.784L425.992 436.174Z" fill="#151775"/>
<path d="M180.143 298.263L180.436 299.568C181.42 300.016 181.92 300.133 182.71 300.792C181.215 301.553 179.989 302.37 178.345 302.475C178.103 300.932 178.879 300.289 179.801 298.544L180.143 298.263Z" fill="#EFF0F1"/>
<path d="M189.985 411.123L192.855 412.451C191.563 412.838 191.25 413.547 190.405 414.655L190.06 415.114C188.61 415.201 188.544 415.35 187.299 414.694C189.069 412.427 188.138 415.144 190.596 412.622L189.985 411.123Z" fill="#151775"/>
<path d="M375.697 377.749C375.872 375.821 376.892 372.897 377.482 370.954L378.987 372.692C377.937 374.32 376.797 376.181 375.697 377.749Z" fill="#EFF0F1"/>
<path d="M423.867 440.279L424.327 439.204C426.027 438.959 426.662 439.019 428.332 439.094L428.342 440.374C426.802 441.069 425.877 440.564 423.867 440.279Z" fill="#151775"/>
<path d="M249.815 354.376L251.373 354.051C251.421 355.874 251.492 356.005 251.039 357.836C250.148 356.904 250.173 355.854 249.815 354.376Z" fill="#EFF0F1"/>
<path d="M296.337 383.191C298.877 382.946 302.722 382.96 305.357 382.903C305.212 400.3 305.417 417.698 305.967 435.089C302.592 435.194 298.527 435.019 295.097 434.954L289.511 434.814C288.958 420.253 287.458 398.295 285.789 383.925C288.897 383.489 293.114 383.37 296.337 383.191Z" fill="#FCFCFA"/>
<path d="M344.432 383.857C351.842 384.729 359.242 385.657 366.642 386.644C363.837 399.509 360.317 412.224 357.237 425.026C356.662 427.423 356.172 429.857 355.377 432.194C350.182 433.249 344.912 433.904 339.617 434.154C341.502 428.996 343.157 425.634 345.652 420.721C343.092 420.697 340.312 420.245 339.037 417.704C339.087 416 339.057 414.735 340.937 414.473C343.302 408.804 343.617 391.234 344.432 383.857Z" fill="#FCFCFA"/>
<path d="M354.452 391.512C354.132 398.499 353.067 404.515 350.412 410.995C347.372 406.83 349.862 410.785 346.347 407.993C348.817 401.726 348.222 399.695 349.842 394.352C352.247 394.106 352.857 393.262 354.452 391.512Z" fill="#1A1C7E"/>
<path d="M346.347 407.993C349.862 410.785 347.372 406.83 350.412 410.995C348.952 414.148 347.382 417.743 345.652 420.721C343.092 420.697 340.312 420.245 339.037 417.704C339.087 416 339.057 414.735 340.937 414.473C341.102 415.702 341.092 415.729 341.557 416.871C343.507 416.023 345.377 410.329 346.347 407.993Z" fill="#14177C"/>
<path d="M349.842 394.352L349.267 393.777C347.667 394.555 346.212 397.565 344.867 399.407L344.387 399.203C345.907 395.414 347.702 392.391 351.587 390.627C353.092 390.688 353.077 390.811 354.452 391.512C352.857 393.262 352.247 394.106 349.842 394.352Z" fill="#EFF0F1"/>
<path d="M333.192 383.428C335.167 383.432 337.537 383.664 339.537 383.806C337.097 400.627 335.797 417.827 333.702 434.654C329.502 435.034 322.217 434.944 317.772 435.014L312.417 434.964C315.057 420.392 327.817 399.121 333.192 383.428Z" fill="#FCFCFA"/>
<path d="M188.125 383.338C196.467 384.17 219.953 402.071 225.697 409.068C216.567 406.054 195.223 389.701 188.125 383.338Z" fill="#EFF0F1"/>
<path d="M430.952 382.717L437.712 380.024C428.012 388.173 419.842 394.259 408.957 400.804L406.502 399.295L408.182 397.738L414.862 392.452C420.527 388.419 424.722 385.773 430.952 382.717Z" fill="#FCFCFA"/>
<path d="M310.807 383.06L319.157 382.986C315.192 392.422 313.652 397.563 311.062 407.634L310.587 407.709C310.547 400.267 310.222 390.277 310.807 383.06Z" fill="#FCFCFA"/>
<path d="M289.42 325.367C295.525 335.719 298.822 348.619 301.292 360.279L301.257 361.154C300.182 360.06 299.022 357.294 298.317 355.822C293.493 345.712 290.499 336.507 289.42 325.367Z" fill="#FCFCFA"/>
<path d="M260.11 324.444L261.507 325.242C261.691 335.842 260.135 349.429 256.223 359.323C256.277 347.266 257.014 336.156 260.11 324.444Z" fill="#FCFCFA"/>
<path d="M334.697 329.305C335.567 335.051 321.507 353.328 317.537 358.504C317.037 352.35 330.077 334.174 334.697 329.305Z" fill="#EFF0F1"/>
<path d="M394.837 360.305L395.262 361.138C392.417 369.015 381.462 382.324 375.832 388.653L375.402 388.415C376.087 383.062 390.202 364.845 394.837 360.305Z" fill="#EFF0F1"/>
<path d="M366.682 328.864C368.447 335.701 368.827 345.233 368.757 352.264C365.722 353.447 367.842 352.591 365.977 355.022C364.767 348.589 364.697 334.997 366.682 328.864Z" fill="#FCFCFA"/>
<path d="M275.133 384.57C277.038 384.433 278.653 384.156 280.468 384.72C281.069 386.89 282.649 400.508 281.756 401.794C279.747 397.642 275.703 389.496 274.556 385.399L275.133 384.57Z" fill="#FCFCFA"/>
<path d="M216.447 394.308L224.294 392.698C225.352 395.161 226.554 397.821 227.539 400.292C228.928 402.545 230.037 405.692 231.041 408.203C228.465 405.091 225.779 402.675 222.848 399.926C220.725 398.153 218.346 396.287 216.447 394.308Z" fill="#FCFCFA"/>
<path d="M222.848 399.926C227.121 398.311 225.085 399.951 227.539 400.292C228.928 402.545 230.037 405.692 231.041 408.203C228.465 405.091 225.779 402.675 222.848 399.926Z" fill="#EFF0F1"/>
<path d="M324.597 382.897C325.857 384.035 326.302 384.962 327.357 386.025C325.577 390.177 323.727 394.738 321.682 398.728C320.122 397.748 320.107 397.706 318.907 396.461C320.672 391.641 322.227 387.468 324.597 382.897Z" fill="#FCFCFA"/>
<path d="M427.532 240.141C427.827 240.33 428.452 240.942 428.742 241.206C430.067 245.859 425.472 251.174 422.217 254.081C421.792 254.195 422.077 254.156 421.362 253.956C421.577 248.493 423.337 243.805 427.532 240.141Z" fill="#F4F6F2"/>
<path d="M211.144 259.785C217.852 259.845 221.913 266.138 222.98 272.156L222.349 271.744C218.563 269.226 212.076 264.367 211.144 259.785Z" fill="#FCFCFA"/>
<path d="M211.146 239.526L210.728 239.049C207.869 235.718 206.439 232.845 206.369 228.418L206.973 227.77C210.808 229.163 214.451 237.622 213.277 241.453L212.658 241.712L211.146 239.526Z" fill="#F4F6F2"/>
<path d="M419.177 271.748L420.647 271.931C422.987 275.135 412.252 280.568 409.752 282.042L408.932 282.072L408.822 281.3C411.412 277.092 414.642 273.807 419.177 271.748Z" fill="#EFF0F1"/>
<path d="M197.512 237.486C203.61 236.884 206.265 240.868 209.075 245.735C204.254 244.646 198.949 242.714 197.512 237.486Z" fill="#FCFCFA"/>
<path d="M436.262 251.094C436.547 251.279 436.822 251.811 437.037 252.149L436.812 253.138C434.357 256.005 429.272 258.194 425.542 258.687L425.192 258.321L425.372 257.552C428.922 253.777 431.147 251.569 436.262 251.094Z" fill="#EFF0F1"/>
<path d="M394.352 404.578C396.072 400.996 397.667 395.744 400.377 392.912C401.017 392.244 401.587 392.581 402.912 392.662L406.017 393.62C402.077 397.217 398.187 400.87 394.352 404.578Z" fill="#EFF0F1"/>
<path d="M221.12 227.988C226.32 228.63 221.315 237.428 219.705 239.657L219.052 240.332L218.566 239.798C217.94 234.983 218.716 232.041 221.12 227.988Z" fill="#F4F6F2"/>
<path d="M199.277 208.501C198.657 206.671 197.251 204.111 199.301 203.041C200.754 203.599 201.203 204.492 202.151 205.748C203.42 208.745 204.476 210.693 204.059 213.987L203.278 214.273C201.085 212.797 200.482 210.941 199.277 208.501Z" fill="#F4F6F2"/>
<path d="M199.277 208.501C198.657 206.671 197.251 204.111 199.301 203.041C200.754 203.599 201.203 204.492 202.151 205.748C201.081 206.951 200.625 207.567 199.277 208.501Z" fill="#FCFCFA"/>
<path d="M245.67 293.224L246.448 293.746C248.361 297.949 243.615 302.662 240.668 305.211L240.38 305.23L240.046 304.79C241.181 299.905 241.867 296.506 245.67 293.224Z" fill="#EFF0F1"/>
<path d="M412.842 240.086C417.672 241.731 416.217 249.645 415.882 253.633C412.502 250.412 411.682 244.469 412.842 240.086Z" fill="#F4F6F2"/>
<path d="M445.557 227.99C446.062 228.034 447.127 228.093 447.577 228.202L447.932 229.195C445.037 232.689 443.282 232.839 438.962 233.346C437.792 233.398 437.962 233.369 436.787 233.172L436.717 232.383C438.972 229.654 442.297 228.785 445.557 227.99Z" fill="#F4F6F2"/>
<path d="M187.914 179.075C192.631 180.229 194.414 187.294 194.042 191.555C190.435 187.883 187.885 184.322 187.914 179.075Z" fill="#EFF0F1"/>
<path d="M394.087 297.138L395.247 298.198C396.952 302.418 395.307 306.024 393.617 310.067C390.527 307.234 392.192 300.352 394.087 297.138Z" fill="#FCFCFA"/>
<path d="M256.859 217.535L258.255 218.227C261.105 222.144 261.718 225.971 261.316 230.678C257.356 228.693 256.674 221.45 256.859 217.535Z" fill="#F4F6F2"/>
<path d="M235.41 287.283C239.091 290.864 236.667 296.469 235.382 300.652C233.344 296.047 232.055 291.473 235.41 287.283Z" fill="#FCFCFA"/>
<path d="M314.182 413.729C315.412 407.733 317.047 402.262 318.907 396.461C320.107 397.706 320.122 397.748 321.682 398.728C319.692 402.99 316.657 410.036 314.182 413.729Z" fill="#EFF0F1"/>
<path d="M461.187 175.637C461.787 175.769 461.962 175.912 462.517 176.182C463.332 180.302 460.257 183.673 457.707 186.587L457.097 186.774L456.547 186.183C456.732 182.512 458.547 178.251 461.187 175.637Z" fill="#EFF0F1"/>
<path d="M226.458 252.709C229.804 255.965 227.373 262.173 226.237 266.072C223.178 263.002 224.148 256.269 226.458 252.709Z" fill="#EFF0F1"/>
<path d="M420.912 282.47C421.252 282.515 422.552 282.874 422.927 282.971L423.352 283.716C422.297 286.291 416.612 287.358 414.227 287.714C413.017 287.552 413.052 287.549 411.902 287.221L411.997 286.491C414.172 284.41 418.017 283.1 420.912 282.47Z" fill="#FCFCFA"/>
<path d="M239.162 375.363C239.735 374.352 239.502 374.673 240.354 373.883L242.268 374.096C244.949 379.032 247.347 384.116 249.451 389.324C245.938 384.732 242.508 380.077 239.162 375.363Z" fill="#EFF0F1"/>
<path d="M207.692 270.419C213.215 269.975 215.53 272.533 219.9 275.898C215.755 276.02 208.753 275.434 207.692 270.419Z" fill="#EFF0F1"/>
<path d="M382.777 302.241C387.467 303.779 387.937 310.25 388.052 314.566C384.632 311.331 381.972 307.084 382.777 302.241Z" fill="#EFF0F1"/>
<path d="M178.978 156.049C183.263 158.407 184.713 164.089 184.639 168.654C180.482 165.617 179.046 161.03 178.978 156.049Z" fill="#F4F6F2"/>
<path d="M221.943 293.286C224.658 293.512 225.94 294.761 228.046 296.369C229.177 299.402 229.467 300.432 230.106 303.606C226.636 300.685 222.46 297.899 221.943 293.286Z" fill="#EFF0F1"/>
<path d="M331.312 371.111C330.402 375.969 329.142 381.411 327.357 386.025C326.302 384.962 325.857 384.035 324.597 382.897C326.562 378.966 328.682 374.652 331.312 371.111Z" fill="#EFF0F1"/>
<path d="M235.188 259.567L236.395 260.189C238.033 263.678 234.232 268.86 231.241 270.486L230.847 270.663L230.571 270.16C231.544 266.75 232.742 262.036 235.188 259.567Z" fill="#F4F6F2"/>
<path d="M212.513 203.679C216.929 204.82 211.779 213.253 210.42 215.169C207.633 213.758 211.061 205.667 212.513 203.679Z" fill="#F4F6F2"/>
<path d="M168.828 297.546C166.444 295.304 164.518 293.774 163.173 290.751L163.311 289.532C167.418 288.282 170.731 295.123 170.094 298.157L168.828 297.546Z" fill="#F4F6F2"/>
<path d="M219.477 301.777C223.149 303.366 225.671 305.741 228.465 308.597L227.537 308.742C224.32 308.25 219.004 306.82 217.594 303.567C218.124 302.042 217.658 302.727 219.477 301.777Z" fill="#EFF0F1"/>
<path d="M236.296 364.818C238.304 367.861 240.412 370.968 242.268 374.096L240.354 373.883C239.502 374.673 239.735 374.352 239.162 375.363C237.542 372.873 235.929 370.168 234.362 367.626L236.296 364.818Z" fill="#F4F6F2"/>
<path d="M458.357 292.564L459.832 292.096C460.167 292.326 460.742 292.684 461.012 292.949C458.657 298.515 457.562 298.185 452.887 302.129C452.362 300.507 453.192 299.403 453.907 297.999C455.602 295.26 456.127 294.764 458.357 292.564Z" fill="#EFF0F1"/>
<path d="M189.213 213.217C195.159 213.026 197.461 215.354 200.968 219.529C195.702 219.361 192.289 217.331 189.213 213.217Z" fill="#EFF0F1"/>
<path d="M473.057 273.626L474.657 273.949C476.112 277.015 470.367 281.672 467.937 282.713L467.052 282.446C468.882 277.808 469.572 276.938 473.057 273.626Z" fill="#EFF0F1"/>
<path d="M409.292 312.929C410.252 313.449 409.822 313.071 410.472 314.168C409.232 317.217 402.882 318.6 399.847 319.132L399.337 318.885L399.427 318.27C402.307 315.925 405.587 313.61 409.292 312.929Z" fill="#EFF0F1"/>
<path d="M404.102 304.292C405.297 304.267 405.287 304.211 406.402 304.589L406.537 305.592C405.267 308.398 402.092 310.391 399.582 312.17C399.397 312.289 398.632 312.559 398.392 312.65L398.302 311.802C399.727 308.582 401.052 306.118 404.102 304.292Z" fill="#EFF0F1"/>
<path d="M174.83 320.682C177.012 321.365 178.649 321.889 180.751 322.774C181.829 323.391 182.149 323.577 183.112 324.348L182.699 324.997C179.848 325.688 173.667 324.701 172.079 321.94C172.925 320.76 172.961 321.105 174.83 320.682Z" fill="#EFF0F1"/>
<path d="M406.082 264.05C409.852 265.767 407.307 273.904 406.027 276.632L405.867 276.711L405.387 276.485C404.707 272.268 404.432 268.006 406.082 264.05Z" fill="#F4F6F2"/>
<path d="M275.092 275.062C279.091 277.295 275.444 283.385 273.893 286.313L273.849 286.364L273.479 286.255C273.318 285.527 273.18 284.795 273.063 284.059C272.519 280.417 272.983 277.96 275.092 275.062Z" fill="#F4F6F2"/>
<path d="M252.399 252.338C258.05 252.567 259.438 255.777 262.828 259.985C258.208 259.28 254.306 256.651 252.399 252.338Z" fill="#EFF0F1"/>
<path d="M444.887 188.509C445.817 188.914 445.792 188.994 446.617 189.627C448.002 192.661 446.182 196.804 445.202 200.133L444.532 200.094C443.337 195.948 443.177 192.527 444.887 188.509Z" fill="#EFF0F1"/>
<path d="M458.067 303.991C460.392 303.411 462.712 302.601 464.942 303.42L465.207 304.261C462.887 307.344 458.832 307.074 455.352 306.787L455.237 306.189L458.067 303.991Z" fill="#EFF0F1"/>
<path d="M396.047 270.057L397.737 270.727C400.292 273.558 400.292 278.106 400.337 281.827C397.282 278.481 395.777 274.604 396.047 270.057Z" fill="#F4F6F2"/>
<path d="M447.362 324.959C448.967 324.787 448.947 324.691 450.462 325.149L450.882 325.961C449.522 328.085 447.017 328.424 444.727 328.863C442.997 328.845 442.467 328.959 440.887 328.204L440.947 327.549C443.032 326.082 444.917 325.706 447.362 324.959Z" fill="#EFF0F1"/>
<path d="M202.615 181.707C205.426 184.757 202.589 189.934 200.425 192.616L199.712 192.269C199.423 188.53 200.112 184.601 202.615 181.707Z" fill="#F4F6F2"/>
<path d="M459.757 200.853C461.962 200.972 461.077 200.579 462.637 201.702L462.572 202.596C460.377 204.876 459.452 205.055 456.292 205.643C454.887 205.739 454.862 205.821 453.537 205.433L453.457 204.704C455.242 202.991 457.532 202.009 459.757 200.853Z" fill="#F4F6F2"/>
<path d="M260.013 283.867C264.129 284.66 267.03 287.896 268.134 291.838C264.419 290.487 260.13 288.224 260.013 283.867Z" fill="#EFF0F1"/>
<path d="M182.32 305.758C186.171 308.689 185.99 312.529 186.226 316.97C182.594 313.731 181.122 310.443 182.32 305.758Z" fill="#F4F6F2"/>
<path d="M133.605 251.152C138.189 251.845 139.871 256.871 141.139 260.68C137.603 259.472 134.281 254.788 133.605 251.152Z" fill="#EFF0F1"/>
<path d="M182.42 191.229C185.126 191.329 190.443 193.713 190.928 196.518C187.883 196.472 184.912 195.915 182.547 193.938C181.738 192.236 181.815 193.107 182.42 191.229Z" fill="#EFF0F1"/>
<path d="M444.247 211.223C445.152 211.856 444.742 211.485 445.257 212.634C445.022 215.822 443.172 217.9 441.312 220.448C438.387 215.816 440.952 214.294 444.247 211.223Z" fill="#F4F6F2"/>
<path d="M424.217 219.245C428.807 221.358 428.212 225.759 427.347 230.047C424.907 225.986 423.322 223.88 424.217 219.245Z" fill="#F4F6F2"/>
<path d="M192.542 307.167C195.888 309.283 193.259 315.568 191.957 318.252C190.012 316.298 190.548 309.679 192.542 307.167Z" fill="#F4F6F2"/>
<path d="M247.957 226.416C252.907 227.317 254.259 229.735 256.929 233.6C253.351 232.792 248.056 230.657 247.957 226.416Z" fill="#F4F6F2"/>
<path d="M211.753 336.6C212.87 337.063 212.35 336.735 213.107 337.971C213.235 341.685 212.103 343.317 210.38 346.536C209.961 346.833 210.243 346.705 209.459 346.663C208.785 342.814 209.491 339.762 211.753 336.6Z" fill="#EFF0F1"/>
<path d="M482.962 264.328C481.712 261.687 486.377 255.899 488.992 255.91C489.492 257.683 489.182 257.442 488.447 259.58C486.507 261.392 485.087 262.666 482.962 264.328Z" fill="#F4F6F2"/>
<path d="M175.545 285.293C178.078 288.207 177.221 292.933 175.779 296.151C172.663 293.449 173.941 288.435 175.545 285.293Z" fill="#F4F6F2"/>
<path d="M148.485 269.797C152.442 271.142 154.617 274.588 155.384 278.584C152.129 277.733 148.262 273.428 148.485 269.797Z" fill="#EFF0F1"/>
<path d="M440.182 309.72C440.937 310.334 440.752 310.257 441.287 311.153C441.377 314.441 439.392 316.835 437.602 319.592L436.907 319.457C436.882 319.086 436.867 318.715 436.857 318.344C436.752 314.182 437.437 312.617 440.182 309.72Z" fill="#EFF0F1"/>
<path d="M365.977 355.022C367.842 352.591 365.722 353.447 368.757 352.264L368.717 356.273C368.297 359.928 368.237 365.017 368.107 368.721C367.302 364.187 366.407 359.601 365.977 355.022Z" fill="#EFF0F1"/>
<path d="M201.432 333.117C205.472 335.276 204.183 340.206 203.603 343.86C201.292 339.629 199.666 337.913 201.432 333.117Z" fill="#F4F6F2"/>
<path d="M168.225 302.115L168.119 302.614C165.634 304.216 159.892 302.237 157.897 300.058L158.185 299.456C162.066 298.969 163.275 299.84 166.855 301.411L168.225 302.115Z" fill="#EFF0F1"/>
<path d="M245.661 171.764C249.252 174.024 249.488 179.98 249.218 183.714C246.325 180.341 245.402 176.132 245.661 171.764Z" fill="#F4F6F2"/>
<path d="M430.382 310.734C432.962 313.318 432.517 318.652 431.332 321.788C429.072 318.399 428.012 314.278 430.382 310.734Z" fill="#F4F6F2"/>
<path d="M267.709 242.758C270.403 245.387 269.005 250.101 267.742 253.103C265.184 250.746 265.447 245.497 267.709 242.758Z" fill="#F4F6F2"/>
<path d="M250.956 194.539C255.143 196.308 254.972 201.425 254.778 205.181C251.643 201.626 250.714 199.277 250.956 194.539Z" fill="#F4F6F2"/>
<path d="M283.632 281.812C285.534 285.459 280.234 289.291 277.523 290.896L277.264 290.753C277.564 287.916 281.229 283.313 283.632 281.812Z" fill="#EFF0F1"/>
<path d="M269.316 221.18C270.621 221.847 270.143 221.369 270.82 222.64C270.798 225.788 268.547 228.109 266.635 230.644L266.075 230.76L265.733 229.964C266.226 226.661 267.301 223.847 269.316 221.18Z" fill="#F4F6F2"/>
<path d="M420.882 336.653C424.202 339.517 421.452 343.637 419.917 346.772C417.637 345.18 419.482 338.793 420.882 336.653Z" fill="#F4F6F2"/>
<path d="M229.108 356.381C232.103 359.425 233.676 361.405 236.296 364.818L234.362 367.626C232.091 363.365 230.862 360.853 229.108 356.381Z" fill="#EFF0F1"/>
<path d="M446.987 289.779C450.012 292.675 448.397 297.445 447.632 301.038C445.452 298.509 445.642 292.78 446.987 289.779Z" fill="#EFF0F1"/>
<path d="M357.332 274.235C358.027 272.453 357.687 272.367 358.957 271.789C360.232 272.925 360.337 274.013 360.687 275.705C360.337 277.573 360.242 279.417 358.882 280.511C357.337 279.215 357.367 276.114 357.332 274.235Z" fill="#FCFCFA"/>
<path d="M372.227 283.271C374.097 283.576 373.437 283.113 374.572 284.235L374.112 285.303C371.852 287.113 370.202 287.615 367.552 288.667L365.992 288.834L365.717 288.369C367.127 286.571 370.247 284.65 372.227 283.271Z" fill="#EFF0F1"/>
<path d="M430.027 353.096C431.962 353.063 432.332 352.708 433.652 353.578C433.142 356.683 426.202 356.669 423.787 356.258L423.747 355.827C425.992 354.612 427.667 354.009 430.027 353.096Z" fill="#EFF0F1"/>
<path d="M190.736 341.783C196.595 341.874 197.013 343.167 199.615 347.922C195.024 346.004 193.65 345.802 190.736 341.783Z" fill="#F4F6F2"/>
<path d="M263.557 199.255C266.157 202.285 261.964 206.838 259.875 208.953L259.319 208.17C260.05 205.221 261.43 201.482 263.557 199.255Z" fill="#F4F6F2"/>
<path d="M410.237 340.062C413.547 340.979 412.352 342.627 413.722 344.707C413.847 346.611 414.107 347.861 413.437 349.642L412.732 349.417C410.887 346.14 410.122 343.802 410.237 340.062Z" fill="#EFF0F1"/>
<path d="M190.051 349.992C192.99 350.553 196.365 351.324 198.719 353.249L198.243 353.949C195.524 353.629 190.423 353.634 189.136 351.091L190.051 349.992Z" fill="#EFF0F1"/>
<path d="M173.287 167.289C176.397 167.514 180.307 170.821 181.561 173.543C177.744 172.756 174.099 171.39 173.287 167.289Z" fill="#EFF0F1"/>
<path d="M471.157 286.31C473.327 285.724 476.882 284.51 477.777 287.294L477.437 288.215C475.192 288.522 471.447 289.129 469.422 288.114L469.467 287.414L471.157 286.31Z" fill="#EFF0F1"/>
<path d="M466.652 185.213C467.022 185.237 467.822 185.45 468.212 185.54L468.497 186.436C467.322 188.688 463.807 190.307 461.532 191.433L460.802 191.3L460.867 190.479C462.877 188.115 464.262 187.112 466.652 185.213Z" fill="#F4F6F2"/>
<path d="M364.372 282.085C365.062 279.522 365.377 278.184 367.372 276.463C369.507 275.879 368.522 275.801 370.452 276.49C369.107 278.901 367.552 281.196 365.147 282.637C364.887 282.453 364.627 282.269 364.372 282.085Z" fill="#EFF0F1"/>
<path d="M429.262 344.301L431.342 344.583L431.747 345.337C430.992 347.453 427.682 349.105 425.747 350.224L424.732 350.174C425.092 347.956 427.587 345.903 429.262 344.301Z" fill="#EFF0F1"/>
<path d="M177.166 426.556L178.309 427.116C180.332 430.014 177.548 430.389 177.787 434.204L176.437 434.139C174.67 431.399 175.276 428.884 177.166 426.556Z" fill="#14177C"/>
<path d="M460.467 272.993C461.587 273.159 461.507 273.167 462.402 273.887C463.502 276.637 462.847 278.75 462.297 281.694L461.557 281.697C459.877 279.109 460.352 276.088 460.467 272.993Z" fill="#EFF0F1"/>
<path d="M349.462 277.719C353.297 279.142 353.897 282.943 354.987 286.53C351.587 284.119 349.902 281.914 349.462 277.719Z" fill="#EFF0F1"/>
<path d="M144.733 282.053C149.525 281.583 150.582 281.784 154.251 284.705C149.998 284.976 147.652 285.419 144.733 282.053Z" fill="#EFF0F1"/>
<path d="M161.275 269.027C164.317 270.945 162.658 275.804 161.683 278.525C159.605 275.453 160.194 272.32 161.275 269.027Z" fill="#FCFCFA"/>
<path d="M191.753 160.644L192.631 161.237C192.869 164.743 192.166 166.432 190.411 169.43L190.152 169.623C188.953 165.996 189.548 163.57 191.753 160.644Z" fill="#EFF0F1"/>
<path d="M487.902 266.891C489.587 266.784 489.992 266.655 491.597 267.276L491.772 267.969C490.447 269.345 489.667 269.382 487.827 269.898C486.282 269.979 485.387 270.165 483.947 269.582C484.662 268.428 486.537 267.661 487.902 266.891Z" fill="#EFF0F1"/>
<path d="M243.081 205.375C247.255 205.065 249.395 207.069 251.97 209.991C248.134 209.912 245.432 208.365 243.081 205.375Z" fill="#EFF0F1"/>
<path d="M399.547 406.606C402.097 403.631 403.647 401.962 406.502 399.295L408.957 400.804C407.947 401.759 400.947 405.79 399.547 406.606Z" fill="#EFF0F1"/>
<path d="M430.987 206.251L431.627 206.969C432.157 210.023 432.777 214.418 431.652 217.332L430.647 216.674C429.857 212.983 430.452 209.933 430.987 206.251Z" fill="#EFF0F1"/>
<path d="M388.997 451.829C389.392 452.044 394.617 452.344 395.997 452.604L396.347 453.139C394.552 454.254 395.382 454.024 392.982 453.674C391.162 453.729 387.757 454.024 386.192 453.464L386.212 452.969C387.147 452.554 388.047 452.204 388.997 451.829Z" fill="#151775"/>
<path d="M454.282 194.732C454.497 194.877 455.007 195.464 455.212 195.684L455.087 196.993C453.857 199.024 452.552 199.81 450.682 201.27C450.182 201.208 450.477 201.304 449.942 200.696C450.602 197.904 452.027 196.38 454.282 194.732Z" fill="#EFF0F1"/>
<path d="M238.511 181.727C242.409 182.232 244.387 184.749 245.827 188.186C242.855 187.751 239.936 184.199 238.511 181.727Z" fill="#EFF0F1"/>
<path d="M131.384 262.492C134.213 262.436 138.428 263.429 139.559 266.274C136.906 266.153 132.206 265.359 131.384 262.492Z" fill="#EFF0F1"/>
<path d="M256.773 177.627C257.343 177.872 256.966 177.676 257.777 178.411C258.061 181.129 256.635 182.908 255.212 185.185C254.755 185.242 255.065 185.239 254.318 184.934C254.074 182.089 255.225 179.926 256.773 177.627Z" fill="#EFF0F1"/>
<path d="M435.607 221.765C436.532 222.767 436.207 222.433 436.617 223.929C436.222 226.19 434.927 227.624 433.587 229.55L433.367 229.611L432.807 229.195C432.762 226.632 434.297 223.893 435.607 221.765Z" fill="#EFF0F1"/>
<path d="M145.983 252.117L146.979 252.719C148.188 255.808 147.798 257.245 147.18 260.55C145.106 258.563 144.964 254.717 145.983 252.117Z" fill="#EFF0F1"/>
<path d="M197.935 417.309C199.871 417.989 199.571 417.565 200.637 418.945C199.816 420.72 199.534 420.488 197.704 421.83C197.325 421.55 196.548 420.368 196.221 419.913C196.562 418.003 196.185 418.924 197.935 417.309Z" fill="#151775"/>
<path d="M477.107 255.392C478.657 258.029 478.222 262.058 476.492 264.54C475.417 260.606 475.657 259.181 477.107 255.392Z" fill="#EFF0F1"/>
<path d="M403.022 532.474C403.702 532.439 403.737 532.524 404.417 532.694L404.277 533.704C403.067 535.539 402.952 535.544 400.852 536.429L400.017 536.114L399.857 535.209C400.907 533.664 401.467 533.454 403.022 532.474Z" fill="#14177C"/>
<path d="M379.832 454.134C381.547 454.174 384.097 454.034 385.177 455.134L384.207 455.559C382.212 455.704 381.197 455.719 379.202 455.599L378.807 454.979L379.832 454.134Z" fill="#151775"/>
<path d="M431.382 396.673C433.547 396.681 432.682 396.306 434.167 397.608L433.977 398.645L432.627 399.538L431.417 398.842L430.937 398.012L430.152 397.912C431.227 397.533 430.757 397.855 431.382 396.673Z" fill="#151775"/>
<path d="M190.36 395.511C192.419 395.927 193.932 395.299 195.822 396.185L195.274 397.242C193.427 397.247 191.295 397.492 189.789 396.594L190.36 395.511Z" fill="#151775"/>
<path d="M203.622 419.086C204.438 420.353 204.99 421.262 204.639 422.704L203.373 422.297L202.274 422.322C202.516 420.701 202.797 420.566 203.622 419.086Z" fill="#14177C"/>
<path d="M304.937 370.365C306.567 371.856 305.937 372.521 305.587 374.503C304.222 373.086 304.572 372.089 304.937 370.365Z" fill="#151775"/>
<path d="M260.11 324.444L260.657 323.058L261.121 323.17C261.242 323.791 261.434 324.633 261.507 325.242L260.11 324.444Z" fill="#EFF0F1"/>
<path d="M336.187 160.426C335.672 159.238 331.932 155.131 331.422 153.628C330.337 150.417 328.707 145.269 329.907 142.02C330.627 137.95 339.597 141.084 339.772 140.842C341.347 138.633 346.537 129.619 350.597 132.597C353.947 135.051 353.122 139.853 353.602 143.32C353.862 145.183 357.982 144.517 359.132 145.714C360.912 147.246 360.857 149.132 361.017 151.341C361.837 153.353 361.887 155.632 360.282 157.329C358.652 157.073 359.407 157.368 358.022 156.214C353.932 159.706 351.817 160.806 346.522 162.347C346.462 165.002 346.367 167.273 346.162 169.934C347.812 171.426 355.572 171.641 355.002 175.745C353.842 184.082 344.672 186.505 338.717 187.318C338.752 189.542 338.617 192.537 339.237 194.583C341.597 194.288 345.852 193.501 347.737 195.337C352.532 199.999 347.517 205.091 343.597 207.997C339.657 210.915 337.102 211.895 332.372 212.611C333.137 215.738 333.722 218.343 334.277 221.509C337.042 220.554 338.992 220.084 341.767 221.227C345.652 222.826 344.522 227.89 343.002 230.647C340.017 236.067 333.992 239.229 328.267 240.798C327.042 241.131 325.812 241.441 324.577 241.728C324.122 243.539 323.292 245.746 323.652 247.391L324.352 247.153C336.782 243.022 332.462 253.73 333.742 256.849C336.002 258.109 337.212 258.02 338.547 259.947C339.412 263.506 337.987 266.296 335.807 269.028C335.482 271.804 335.932 271.053 334.452 273.126C332.757 274.132 331.652 273.893 329.782 273.401C329.432 273.309 329.087 273.212 328.747 273.109C324.377 274.123 323.097 274.413 318.567 274.599C318.102 278.508 317.677 282.592 317.052 286.462C320.307 284.648 321.652 283.539 325.337 284.468C326.342 285.354 327.242 286.117 328.182 287.076C328.207 288.088 327.972 292.371 328.307 292.806C329.222 293.98 332.332 293.599 333.167 295.494C338.057 306.6 321.937 311.028 314.437 311.953C314.312 313.292 313.862 318.838 313.477 319.833L312.737 319.811C312.552 321.185 312.697 321.124 312.147 322.325C312.817 323.825 309.677 312.462 309.932 313.786L309.097 313.468C308.747 309.261 287.949 303.072 293.97 291.675C296.328 287.213 298.797 290.718 302.267 289.405C304.607 286.69 301.457 283.035 306.917 280.687C308.682 280.582 309.182 281.015 310.752 281.827L311.297 282.117L312.097 281.597C312.732 279.984 312.837 278.7 312.722 276.969C312.492 273.413 313.182 274.03 311.017 271.909C305.277 271.96 299.582 262.992 297.807 258.168C297.512 255.441 297.482 255.077 298.317 252.48L300.032 250.856C301.952 250.501 304.887 251.182 305.082 251.133C308.527 250.252 305.667 241.317 311.927 241.577C315.502 241.725 315.242 244.127 317.682 244.705L318.472 243.878C318.572 241.804 318.747 241.34 319.322 239.304C315.562 237.035 315.157 236.817 311.312 232.679C307.142 228.187 303.417 214.341 313.517 214.559C315.772 214.607 318.192 217.707 319.512 219.768C321.297 215.764 321.992 214.811 324.732 211.595C306.307 199.3 312.127 178.813 324.997 192.338C326.307 190.11 327.892 187.913 329.362 185.777L326.672 183.341L325.767 183.43C322.922 182.215 322.312 183.268 320.917 180.099C321.132 177.49 320.722 177.877 322.022 176.026C320.732 172.432 319.877 165.497 324.737 164.092C328.152 163.104 330.322 166.19 332.757 167.357C333.862 164.138 334.427 163.302 336.187 160.426Z" fill="#1A1C7E"/>
<path d="M322.022 176.026C323.352 179.322 324.287 180.684 326.672 183.341L325.767 183.43C322.922 182.215 322.312 183.268 320.917 180.099C321.132 177.49 320.722 177.877 322.022 176.026Z" fill="#F4F6F2"/>
<path d="M335.807 269.028C335.482 271.804 335.932 271.053 334.452 273.126C332.757 274.132 331.652 273.893 329.782 273.401C329.432 273.309 329.087 273.212 328.747 273.109C331.232 271.855 333.437 270.474 335.807 269.028Z" fill="#F4F6F2"/>
<path d="M358.022 156.214C359.287 154.843 360.127 153.005 361.017 151.341C361.837 153.353 361.887 155.632 360.282 157.329C358.652 157.073 359.407 157.368 358.022 156.214Z" fill="#F4F6F2"/>
<path d="M327.512 216.16C332.012 219.456 326.552 229.014 324.467 232.543C321.637 228.741 324.427 219.483 327.512 216.16Z" fill="#FCFCFA"/>
<path d="M326.597 251.194L328.547 251.504C330.757 254.939 323.917 260.785 321.517 263.005L319.897 264.019L319.552 262.921C320.612 258.078 323.182 254.613 326.597 251.194Z" fill="#FCFCFA"/>
<path d="M337.472 225.39C338.712 225.235 338.247 225.257 339.537 225.637C340.677 229.266 333.637 233.525 330.982 235.044L329.337 235.338L329.077 234.352C330.742 229.705 333.382 227.529 337.472 225.39Z" fill="#FCFCFA"/>
<path d="M332.562 189.748C336.622 192.511 331.962 199.691 330.272 203.226L329.422 203.142C328.937 201.916 328.832 201.43 328.797 200.066C328.662 196.269 330.012 192.568 332.562 189.748Z" fill="#FCFCFA"/>
<path d="M346.972 138.624C347.902 138.806 347.662 138.765 348.522 139.204C349.597 143.007 346.767 148.049 344.922 151.349L343.672 151.403C341.537 148.488 345.252 141.244 346.972 138.624Z" fill="#F4F6F2"/>
<path d="M316.712 301.284C315.512 297.354 318.077 288.974 322.737 290.544L323.062 291.76C322.192 295.57 320.542 297.11 318.082 300.107L316.712 301.284Z" fill="#FCFCFA"/>
<path d="M303.152 259.572C302.587 258.01 302.162 257.337 302.522 255.724L303.237 255.385C306.917 256.739 310.417 263.399 311.552 267.075C306.822 264.784 306.222 263.735 303.152 259.572Z" fill="#FCFCFA"/>
<path d="M297.282 293.639C303.112 294.059 304.892 300.544 306.092 305.362C301.297 302.281 298.102 299.454 297.282 293.639Z" fill="#FCFCFA"/>
<path d="M336.492 171.401C337.347 167.425 337.722 165.324 341.627 163.689C342.217 167.475 340.887 173.867 337.372 175.71L336.617 175.338C336.277 173.539 336.357 173.168 336.492 171.401Z" fill="#EFF0F1"/>
<path d="M330.772 261.376C332.227 261.281 332.752 261.066 333.992 261.778C335.347 264.915 327.987 268.033 325.607 268.929C324.637 269.272 324.882 269.163 323.802 269.184L323.737 268.391C325.277 265.808 328.117 262.823 330.772 261.376Z" fill="#FCFCFA"/>
<path d="M312.147 219.256C317.692 221.707 317.367 226.902 318.017 232.279C314.047 228.809 310.772 224.843 312.147 219.256Z" fill="#F4F6F2"/>
<path d="M343.422 198.291L343.912 198.55C346.227 202.806 337.117 206.456 334.132 207.283L333.682 207.279L333.857 206.339C337.062 202.28 338.842 200.655 343.422 198.291Z" fill="#F4F6F2"/>
<path d="M307.132 288.806C307.837 286.919 307.477 286.883 308.842 286.1C310.422 287.244 310.077 287.3 311.042 289.332C311.872 293.563 311.252 295.76 310.412 299.901C308.747 296.042 307.237 293.062 307.132 288.806Z" fill="#FCFCFA"/>
<path d="M307.132 288.806C307.837 286.919 307.477 286.883 308.842 286.1C310.422 287.244 310.077 287.3 311.042 289.332C307.812 290.167 309.912 289.406 307.132 288.806Z" fill="#F4F6F2"/>
<path d="M320.957 302.969C323.072 300.897 324.607 298.938 327.642 298.657L328.512 299.174C328.672 303.599 321.942 305.902 318.367 306.161L320.957 302.969Z" fill="#FCFCFA"/>
<path d="M317.457 192.903C318.307 193.127 318.797 193.354 319.617 193.68C322.692 196.976 323.012 200.296 324.057 204.688C319.622 202.967 318.142 197.068 317.457 192.903Z" fill="#EFF0F1"/>
<path d="M325.577 168.987C330.362 169.698 330.882 176.208 331.227 180.086C327.207 178.358 325.912 172.895 325.577 168.987Z" fill="#F4F6F2"/>
<path d="M346.972 175.201C348.872 175.721 348.242 175.178 349.157 176.581C348.572 179.398 344.472 181.175 342.002 181.972L340.532 181.896L340.262 181.178C341.777 179.029 344.827 176.901 346.972 175.201Z" fill="#F4F6F2"/>
<path d="M354.017 149.205L355.532 149.625L355.877 150.596C354.832 153.093 351.532 154.888 349.237 156.356C348.372 156.133 348.722 156.378 348.222 155.563C349.517 153.031 351.572 150.673 354.017 149.205Z" fill="#EFF0F1"/>
<path d="M312.027 255.173C311.147 252.372 310.442 249.962 312.422 247.501L313.382 247.606C314.767 249.199 314.737 249.922 315.227 252.07C314.442 252.828 312.687 254.427 312.027 255.173Z" fill="#FCFCFA"/>
<path d="M334.082 144.501C338.152 145.924 337.982 149.953 338.182 153.626C337.692 153.598 337.357 153.371 336.862 153.15C334.792 150.239 334.572 147.968 334.082 144.501Z" fill="#EFF0F1"/>
<path d="M315.227 252.07C315.367 255.799 315.327 257.994 315.062 261.716C314.002 259.602 312.787 257.395 312.027 255.173C312.687 254.427 314.442 252.828 315.227 252.07Z" fill="#F4F6F2"/>
<path d="M386.777 195.898C388.567 193.116 390.162 190.237 393.742 189.783C400.077 188.98 399.307 195.413 398.497 199.186C412.277 205.387 399.847 213.733 390.762 215.363C390.457 217.498 390.087 219.706 389.937 221.85C392.367 222.539 396.122 223.385 396.842 226.076C398.747 233.243 385.987 236.357 381.647 237.159C381.607 240.098 381.487 241.389 381.077 244.274C384.207 244.456 389.812 244.139 388.882 249.429C388.367 252.338 385.537 255.279 383.277 256.933C380.047 259.363 372.667 257.994 370.882 260.379C370.297 262.701 369.762 264.651 369.047 266.941C368.622 264.203 368.282 261.977 365.472 260.72L366.527 257.347C360.517 252.746 358.922 249.558 357.452 242.249C357.017 239.623 356.437 237.778 356.957 235.181C358.602 234.119 361.532 234.509 363.287 234.399C366.202 234.215 367.267 236.414 369.457 238.835C370.937 236.569 372.642 236.102 373.697 234.275C370.382 229.469 366.447 224.142 366.937 217.927C367.157 215.143 372.082 213.653 374.272 214.741C375.317 215.26 376.987 216.934 377.872 217.786C379.337 215.081 379.897 214.178 381.707 211.707C380.322 209.594 379.482 208.312 378.577 205.898C376.157 199.423 377.972 188.364 386.777 195.898Z" fill="#1A1C7E"/>
<path d="M357.452 242.249C357.017 239.623 356.437 237.778 356.957 235.181C358.602 234.119 361.532 234.509 363.287 234.399C366.202 234.215 367.267 236.414 369.457 238.835L369.092 239.646C366.632 238.651 365.172 235.55 361.362 236.077C358.087 236.53 357.642 239.683 357.452 242.249Z" fill="#FCFCFA"/>
<path d="M366.527 257.347C366.882 259.027 366.607 259.354 367.642 260.066L367.877 259.799L367.282 259.816L367.227 259.759L368.482 258.87C369.317 260.368 369.062 259.516 368.642 261.681L369.832 261.526L369.317 261.106L370.112 261.207C370.372 260.931 370.627 260.655 370.882 260.379C370.297 262.701 369.762 264.651 369.047 266.941C368.622 264.203 368.282 261.977 365.472 260.72L366.527 257.347Z" fill="#151775"/>
<path d="M383.927 216.681C384.922 216.745 384.622 216.727 385.582 217.12C386.587 220.078 383.382 224.432 381.647 226.646C380.942 226.979 381.342 226.913 380.427 226.662C379.682 223.321 381.867 219.187 383.927 216.681Z" fill="#EFF0F1"/>
<path d="M375.672 239.155C378.837 241.566 373.937 247.774 372.192 250.152L371.782 250.255L371.292 249.753C371.417 245.737 372.907 242.079 375.672 239.155Z" fill="#EFF0F1"/>
<path d="M393.582 194.262C394.387 195.067 394.112 194.705 394.472 195.891C393.987 199.755 392.522 201.831 390.472 205.023C388.402 202.011 391.362 196.586 393.582 194.262Z" fill="#EFF0F1"/>
<path d="M362.642 240.168C365.747 241.501 366.637 246.978 365.927 249.983C363.107 247.799 361.652 243.611 362.642 240.168Z" fill="#F4F6F2"/>
<path d="M381.842 249.246L383.497 249.484L383.782 250.363C382.467 252.538 379.777 253.721 377.457 254.514C376.667 254.508 376.537 254.426 375.757 254.254C376.307 252.209 379.952 250.363 381.842 249.246Z" fill="#EFF0F1"/>
<path d="M371.662 218.978L372.837 219.344C375.152 221.374 375.227 225.557 375.597 228.625C372.597 226.846 371.807 222.154 371.662 218.978Z" fill="#EFF0F1"/>
<path d="M390.702 226.843L391.877 227.192L392.252 227.916C391.112 229.808 387.087 230.904 384.952 231.568L383.742 231.249C384.667 229.555 388.867 227.681 390.702 226.843Z" fill="#EFF0F1"/>
<path d="M398.152 204.659C399.427 205.17 398.917 204.798 399.632 205.893C398.972 208.17 396.037 209.201 394.037 210.043L392.952 209.916L392.767 209.403C394.102 207.403 396.182 206.122 398.152 204.659Z" fill="#EFF0F1"/>
<path d="M381.812 198.671C384.987 199.94 384.622 203.735 384.737 206.669L383.772 206.215C382.007 203.778 382.042 201.688 381.812 198.671Z" fill="#EFF0F1"/>
<path d="M493.617 252.159L494.482 251.017L495.312 250.949C496.212 252.786 496.767 255.273 496.637 257.287L496.032 255.478C495.447 255.931 495.012 256.233 494.487 256.753C494.427 254.722 494.187 254.153 493.617 252.159Z" fill="#F4F6F2"/>
<path d="M183.512 473.759C184.166 474.279 184.173 474.514 184.642 475.294C184.776 476.919 184.345 477.339 183.515 478.749L182.627 478.709C182.604 476.394 182.814 476.024 183.512 473.759Z" fill="#F4F6F2"/>
<path d="M451.632 421.281C452.487 422.229 452.292 421.691 452.317 422.852L450.467 424.482C449.822 423.494 450.022 424.014 449.822 422.942L451.632 421.281Z" fill="#F4F6F2"/>
<path d="M427.472 511.219L428.337 511.029L428.517 511.619L427.582 512.799L427.117 512.599L427.472 511.219Z" fill="#F4F6F2"/>
</svg>
