<svg width="624" height="624" viewBox="0 0 624 624" fill="none" xmlns="http://www.w3.org/2000/svg">
<rect width="624" height="624" fill="white"/>
<path d="M178.272 431.618C176.701 427.782 171.684 407.673 173.062 405.302C178.11 396.62 211.705 389.099 219.546 387.275C279.354 373.362 352.66 366.775 411.8 385.773C422.17 388.794 440.755 396.479 450 402.053L450.67 402.448C450.38 410.573 448.5 419.414 446.365 427.296C445.655 431.808 444.295 437.118 443.26 441.628C442.025 447.083 440.84 452.758 439.285 458.113C432.67 491.343 417.205 537.543 389 558.603C388.605 558.898 388.385 559.018 387.985 559.243C384.665 561.653 381.95 563.358 378.435 565.498C374.865 567.593 370.11 570.133 366.89 572.498C369.73 572.403 373.015 571.993 375.25 574.068C380.635 579.063 376.96 588.658 372.545 592.938C370.585 594.808 368.17 596.138 365.545 596.798C359.305 598.448 346.06 597.718 339.185 597.698L278.413 597.688C267.785 597.653 260.373 599.473 253 590.228C249.498 586.303 245.959 578.708 251.321 574.648C254.837 571.988 258.181 572.693 262.241 573.193C238.521 560.878 220.172 546.293 207.673 521.778C199.495 508.473 188.764 471.468 184.661 455.093C183.555 451.888 183.068 450.033 182.335 446.713L181.848 445.243C180.528 440.598 179.321 436.348 178.272 431.618Z" fill="#FAFBF9"/>
<path d="M178.272 431.618C176.701 427.782 171.684 407.673 173.062 405.302C178.11 396.62 211.705 389.099 219.546 387.275C279.354 373.362 352.66 366.775 411.8 385.773C422.17 388.794 440.755 396.479 450 402.053L450.67 402.448C450.38 410.573 448.5 419.414 446.365 427.296C445.655 431.808 444.295 437.118 443.26 441.628C442.025 447.083 440.84 452.758 439.285 458.113L438.695 457.993L438.265 458.363C435.965 458.498 436.34 458.813 434.565 457.913C433.215 455.858 433.24 455.468 432.68 452.998C433.4 449.578 434.07 446.183 434.985 442.808C422.41 448.203 413.275 452.013 400.23 456.273C354.235 469.228 312.465 472.098 264.782 465.248C258.29 464.318 247.806 462.738 241.624 460.923C232.43 458.908 222.397 455.828 213.536 452.698C209.622 451.268 205.757 449.708 201.948 448.018C199.399 446.968 192.221 442.918 189.97 443.203L189.703 444.093C188.496 448.573 191.154 450.278 188.136 452.923C187.652 451.003 186.859 446.508 184.844 445.798C184.633 446.768 184.511 447.388 184.379 448.383L184.28 449.188L183.253 447.018L182.335 446.713L181.848 445.243C180.528 440.598 179.321 436.348 178.272 431.618Z" fill="#1B4D3E"/>
<path d="M182.876 419.378C182.512 417.504 182.169 415.921 181.69 414.074C191.051 418.851 200.657 423.784 210.511 427.499C254.625 444.128 304.135 446.658 350.635 441.618C353.55 441.303 357.16 440.718 360.03 440.638L388.565 435.133L388.64 434.773C397.235 434.333 415.68 425.049 423.405 422.855C430.08 422.941 430.685 419.848 435.665 418.013C437.26 419.65 435.945 419.385 437.705 421.284C438.495 425.445 433.815 431.663 430.765 434.253C427.065 434.808 428.58 434.208 425.885 436.848L424.905 436.568C423.865 437.088 424 437.528 423.405 438.948C419.265 441.338 400.55 447.988 395.38 449.213C394.615 450.428 394.2 450.953 393.77 452.353L392.595 452.708L392.285 453.703C394.385 455.333 398.015 452.008 400.23 456.273C354.235 469.228 312.465 472.098 264.782 465.248C258.29 464.318 247.806 462.738 241.624 460.923C232.43 458.908 222.397 455.828 213.536 452.698C209.622 451.268 205.757 449.708 201.948 448.018C199.399 446.968 192.221 442.918 189.97 443.203L189.703 444.093C188.496 448.573 191.154 450.278 188.136 452.923C187.652 451.003 186.859 446.508 184.844 445.798C184.633 446.768 184.511 447.388 184.379 448.383L184.28 449.188L183.253 447.018L182.335 446.713L181.848 445.243C183.08 440.558 180.085 441.913 183.992 436.888C184.492 434.648 183.118 433.103 183.627 429.734C184.309 430.125 185 430.448 185.728 430.743C184.853 426.937 183.902 423.147 182.876 419.378Z" fill="#FAFBF9"/>
<path d="M341.55 459.723C358.28 458.528 379.355 453.753 395.38 449.213C394.615 450.428 394.2 450.953 393.77 452.353L392.595 452.708L392.285 453.703C394.385 455.333 398.015 452.008 400.23 456.273C354.235 469.228 312.465 472.098 264.782 465.248C258.29 464.318 247.806 462.738 241.624 460.923C240.023 458.753 238.651 457.588 235.895 457.588C237.519 453.898 238.009 454.458 238.882 452.293C250.888 455.313 263.056 457.653 275.327 459.293C276.879 459.383 281.139 459.623 282.4 460.063C293.02 460.783 303.66 461.148 314.305 461.153C320.755 461.103 327.185 460.593 333.435 460.523C335.005 460.088 339.675 459.863 341.55 459.723Z" fill="#1B4D3E"/>
<path d="M333.435 460.523C335.005 460.088 339.675 459.863 341.55 459.723C344.645 461.363 345.89 459.728 348.98 460.168C349.905 460.298 349.49 461.318 350.915 461.918C347.485 463.148 333.445 464.523 330.81 461.688C331.845 461.578 332.63 461.518 333.58 461.078L333.435 460.523Z" fill="#1B4D3E"/>
<path d="M275.327 459.293C276.879 459.383 281.139 459.623 282.4 460.063C283.778 461.263 286.302 461.468 288.204 461.828L288.22 462.633C285.691 464.618 271.826 462.378 269.744 460.273L270.286 459.803C272.464 459.913 273.234 459.898 275.327 459.293Z" fill="#1B4D3E"/>
<path d="M181.848 445.243C183.08 440.558 180.085 441.913 183.992 436.888C184.492 434.648 183.118 433.103 183.627 429.734C184.309 430.125 185 430.448 185.728 430.743C192.225 438.368 228.238 449.623 238.882 452.293C238.009 454.458 237.519 453.898 235.895 457.588C238.651 457.588 240.023 458.753 241.624 460.923C232.43 458.908 222.397 455.828 213.536 452.698C209.622 451.268 205.757 449.708 201.948 448.018C199.399 446.968 192.221 442.918 189.97 443.203L189.703 444.093C188.496 448.573 191.154 450.278 188.136 452.923C187.652 451.003 186.859 446.508 184.844 445.798C184.633 446.768 184.511 447.388 184.379 448.383L184.28 449.188L183.253 447.018L182.335 446.713L181.848 445.243Z" fill="#1B4D3E"/>
<path d="M201.948 448.018C204.169 448.023 209.162 447.443 210.306 448.068L210.597 448.568C211.57 450.213 212.726 451.373 213.536 452.698C209.622 451.268 205.757 449.708 201.948 448.018Z" fill="#1B4D3E"/>
<path d="M360.03 440.638L388.565 435.133C386.33 438.773 363.865 443.508 360.03 440.638Z" fill="#F7F8F8"/>
<path d="M423.405 422.855C427.875 420.18 435.63 416.449 440.455 414.141L440.96 414.675L440.675 417.021C439.79 421.145 438.805 425.247 437.72 429.324L436.14 433.083C432.425 434.878 427.16 437.608 423.405 438.948C424 437.528 423.865 437.088 424.905 436.568L425.885 436.848C428.58 434.208 427.065 434.808 430.765 434.253C433.815 431.663 438.495 425.445 437.705 421.284C435.945 419.385 437.26 419.65 435.665 418.013C430.685 419.848 430.08 422.941 423.405 422.855Z" fill="#F7F8F8"/>
<path d="M178.272 431.618C179.582 432.063 179.269 432.158 180.188 433.693L181.177 433.778C182.146 430.783 179.569 425.859 178.265 422.802L179.484 422.399L180.853 423.167C182.357 422.888 179.906 421.927 182.876 419.378C183.902 423.147 184.853 426.937 185.728 430.743C185 430.448 184.309 430.125 183.627 429.734C183.118 433.103 184.492 434.648 183.992 436.888C180.085 441.913 183.08 440.558 181.848 445.243C180.528 440.598 179.321 436.348 178.272 431.618Z" fill="#1B4D3E"/>
<path d="M440.675 417.021C442.235 421.1 442.635 422.19 443.17 426.439C441.375 427.371 439.51 428.513 437.72 429.324C438.805 425.247 439.79 421.145 440.675 417.021Z" fill="#1B4D3E"/>
<path d="M444.16 430.643L445.42 427.574L446.365 427.296C445.655 431.808 444.295 437.118 443.26 441.628C440.39 439.203 441.725 432.723 444.16 430.643Z" fill="#1B4D3E"/>
<path d="M282.573 384.18C290.608 383.663 298.693 382.815 306.715 382.471C328.14 381.442 349.615 382.325 370.885 385.11C375.18 385.838 379.675 386.53 383.935 387.368C390.33 388.554 398.1 390.211 404.38 392C415.985 395.858 427.98 400.827 439.295 405.595C422.845 415.17 406.695 422.676 387.985 426.886C386.515 427.217 382.9 427.975 381.615 428.5C374.02 430.041 366.405 431.463 358.765 432.768L357.775 432.878C334.74 435.623 317.905 435.878 295.071 435.513C288.679 435.483 284.379 439.013 278.324 434.578C277.363 434.288 267.092 433.308 264.623 432.868C260.787 432.483 256.918 431.698 253.119 430.998C231.641 427.145 202.9 417.547 184.03 406.469C202.983 397.232 242.153 390.486 263.354 386.857L282.573 384.18Z" fill="#F7F8F8"/>
<path d="M253.119 430.998C257.352 429.91 264.058 425.861 264.623 432.868C260.787 432.483 256.918 431.698 253.119 430.998Z" fill="#FAFBF9"/>
<path d="M357.775 432.878C355.805 430.048 352.715 432.398 348.56 430.758L348.44 429.986C350.955 428.674 355.595 428.977 358.17 430.178C359.135 431.673 358.885 430.853 358.765 432.768L357.775 432.878Z" fill="#FAFBF9"/>
<path d="M278.324 434.578C283.206 434.833 290.385 434.998 295.071 435.513C288.679 435.483 284.379 439.013 278.324 434.578Z" fill="#1B4D3E"/>
<path d="M189.703 444.093C191.383 448.518 192.648 454.028 193.903 458.673C199.075 477.803 204.348 495.773 212.648 513.843C227.142 541.778 243.134 558.758 274.186 568.858C292.278 574.748 326.31 574.083 345.195 570.423C354.53 568.613 363.31 565.023 371.68 560.658C372.08 560.448 372.475 560.238 372.87 560.018C375.23 558.678 377.415 557.193 379.675 555.698C400.09 542.038 411.13 520.823 419.395 498.588C421.3 493.438 423.615 487.118 424.725 481.778C426.995 475.838 430.74 460.003 432.68 452.998C433.24 455.468 433.215 455.858 434.565 457.913C436.34 458.813 435.965 458.498 438.265 458.363L438.695 457.993L439.285 458.113C432.67 491.343 417.205 537.543 389 558.603C388.605 558.898 388.385 559.018 387.985 559.243C384.665 561.653 381.95 563.358 378.435 565.498C374.865 567.593 370.11 570.133 366.89 572.498C369.73 572.403 373.015 571.993 375.25 574.068C380.635 579.063 376.96 588.658 372.545 592.938C370.585 594.808 368.17 596.138 365.545 596.798C359.305 598.448 346.06 597.718 339.185 597.698L278.413 597.688C267.785 597.653 260.373 599.473 253 590.228C249.498 586.303 245.959 578.708 251.321 574.648C254.837 571.988 258.181 572.693 262.241 573.193C238.521 560.878 220.172 546.293 207.673 521.778C199.495 508.473 188.764 471.468 184.661 455.093C183.555 451.888 183.068 450.033 182.335 446.713L183.253 447.018L184.28 449.188L184.379 448.383C184.511 447.388 184.633 446.768 184.844 445.798C186.859 446.508 187.652 451.003 188.136 452.923C191.154 450.278 188.496 448.573 189.703 444.093Z" fill="#1B4D3E"/>
<path d="M258.248 581.153C267.388 580.283 364.96 579.738 370.06 581.353C369.5 584.533 366.87 588.978 363.405 589.423C348.69 591.318 333.365 590.348 318.49 590.558C302.95 590.773 287.275 590.763 271.738 590.498C267.559 590.373 258.136 589.178 257.453 582.898C257.34 581.863 257.567 582.023 258.248 581.153Z" fill="#FAFBF9"/>
<path d="M194.392 470.938C194.648 471.338 194.449 471.138 195.148 471.318L195.828 471.068C196.663 472.583 197.44 477.383 196.598 478.938C193.441 477.073 192.393 475.853 192.749 472.243C193.812 471.813 193.646 471.813 194.392 470.938Z" fill="#1B4D3E"/>
<path d="M424.725 481.778C423.615 487.118 421.3 493.438 419.395 498.588L418.805 497.368C420.205 493.263 419.435 486.503 421.265 484.418C422.2 484.818 421.705 484.683 422.745 484.813C423.515 483.253 423.51 483.088 424.725 481.778Z" fill="#F7F8F8"/>
<path d="M308.7 498.963C310.64 496.468 312.955 493.208 316.06 492.253C323.75 489.893 325.055 500.143 326.1 505.038C326.335 504.718 326.58 504.408 326.825 504.098C330.035 500.093 333.81 500.003 337.595 503.268C342.26 508.748 341.06 514.753 335.59 519.093L333.735 520.298L333.745 521.078C336.32 523.078 338.655 523.643 340.355 526.638C348.93 538.183 334.53 547.468 324.33 537.658L323.56 537.523C323.675 541.338 324.775 546.888 322.93 550.378C320.12 555.683 312.035 554.578 309.12 549.928C307.12 546.738 306.605 543.448 305.755 539.908C300.48 542.798 292.695 546.038 288.129 539.888C286.783 538.083 286.296 535.773 286.797 533.578C287.888 528.593 292.253 526.018 296.148 523.433C291.693 522.483 284.68 518.358 283.693 513.903C281.344 507.278 292.769 505.763 293.064 504.388C294.747 496.538 294.738 486.068 308.7 498.963Z" fill="#1B4D3E"/>
<path d="M311.755 513.458C316.54 512.153 321.465 515.003 322.72 519.803C323.975 524.598 321.075 529.493 316.265 530.698C311.525 531.888 306.71 529.038 305.475 524.308C304.24 519.583 307.04 514.738 311.755 513.458Z" fill="#FAFBF9"/>
<path d="M329.705 511.003L331.8 509.943L332.56 510.208C332.15 512.258 331.22 512.808 329.58 513.928C327.505 514.853 328.495 514.828 326.555 514.393L326.945 514.853L326.25 514.698C326.87 513.283 328.49 512.078 329.705 511.003Z" fill="#D3D8F1"/>
<path d="M294.329 512.348C296.895 512.613 300.48 513.008 300.78 516.008C298.471 515.538 295.388 515.018 293.868 513.138L294.329 512.348Z" fill="#F7F8F8"/>
<path d="M326.4 530.143C329.89 530.058 332.665 530.968 334.66 533.908C331.28 533.838 328.905 532.268 326.4 530.143Z" fill="#D3D8F1"/>
<path d="M302.21 530.503L303.16 530.788C302.475 532.858 299.702 533.968 297.707 535.003L296.603 534.908L296.589 534.258C297.978 532.853 300.445 531.553 302.21 530.503Z" fill="#D3D8F1"/>
<path d="M317.545 499.928L318.24 500.458C319.05 502.573 318.96 503.588 319.09 505.898C317.58 504.093 317.89 502.633 317.545 499.928Z" fill="#1B4D3E"/>
<path d="M375.535 518.923C382.515 513.583 388.75 507.748 393.96 500.633C395.955 497.943 397.715 495.088 399.225 492.103C401.79 487.023 408.02 469.408 415.13 469.178C417.605 469.098 419.665 473.378 418.42 475.503C415.54 483.738 407.54 485.413 402.445 491.458C406.77 490.943 416.005 488.268 417.19 493.918C414.775 500.943 405.515 499.793 399.795 499.298C397.67 502.133 396.1 504.318 394.225 507.308C397.725 506.723 406.335 504.963 407.79 509.183C406.5 515.033 399.79 515.768 394.74 515.123C392.45 514.833 391.795 513.238 390.535 511.438C388.295 512.618 382.37 518.673 380.11 520.533C375.37 524.433 358.91 537.363 353.45 538.008C352.04 537.398 351.8 537.168 352.055 535.423C352.655 531.693 361.24 526.883 364.525 524.783C365.01 522.673 361.085 520.048 361.3 517.108C352.615 495.998 370.38 493.938 369.34 514.693C371.225 515.743 370.545 515.023 371.515 516.888C371.27 518.638 371.175 518.608 370.21 520.013L370.695 520.448C373.105 520.013 373.565 519.368 375.535 518.923Z" fill="#1B4D3E"/>
<path d="M361.3 517.108C352.615 495.998 370.38 493.938 369.34 514.693L366.625 524.158C364.905 521.828 363.13 519.333 361.3 517.108Z" fill="#1B4D3E"/>
<path d="M366.625 524.158L369.34 514.693C371.225 515.743 370.545 515.023 371.515 516.888C371.27 518.638 371.175 518.608 370.21 520.013L370.695 520.448C373.105 520.013 373.565 519.368 375.535 518.923C368.4 524.938 359.175 528.783 352.055 535.423C352.655 531.693 361.24 526.883 364.525 524.783C365.01 522.673 361.085 520.048 361.3 517.108C363.13 519.333 364.905 521.828 366.625 524.158Z" fill="#F7F8F8"/>
<path d="M209.203 477.093C204.996 468.768 213.595 464.858 218.286 474.083C220.39 477.568 222.93 485.013 224.741 489.188L226.112 487.973C226.236 486.518 226.339 485.773 226.596 484.378C227.265 482.223 227.461 480.853 229.012 479.288C235.607 476.623 239.017 488.843 234.092 494.988L235.001 496.863L234.698 497.098L234.717 496.863C233.799 497.623 234.285 497.383 233.309 497.673C235.247 500.868 236.507 502.428 239.803 504.288C240.623 504.308 241.465 504.353 242.28 504.298C243.146 507.368 243.734 509.998 245.848 512.503L245.167 512.523C247.178 514.638 251.148 518.273 253.595 519.808C255.535 520.438 254.722 520.558 256.368 520.153L256.951 519.093C256.82 517.668 256.731 516.813 256.864 515.373L256.962 514.398C257.95 517.248 258.687 520.478 260.939 522.398L261.782 522.543L263.117 521.088C262.985 522.448 262.96 522.953 262.373 524.183L262.741 524.598C263.668 525.663 264.213 526.103 264.601 527.458C268.25 530.403 273.282 532.263 275.41 535.733C275.632 537.638 275.785 536.758 274.918 538.483C272.274 538.798 268.093 535.153 265.896 533.733C251.355 524.333 239.576 512.298 228.681 498.953C223.398 500.868 221.221 501.828 215.819 499.758C212.928 498.198 210.396 496.443 211.048 492.913C214.246 488.833 218.926 490.838 222.931 492.493C224.52 487.808 212.299 484.678 209.203 477.093Z" fill="#1B4D3E"/>
<path d="M226.596 484.378C227.265 482.223 227.461 480.853 229.012 479.288C235.607 476.623 239.017 488.843 234.092 494.988L232.853 495.358C230.219 495.218 230.547 496.763 228.424 496.208L228.093 494.493C226.313 492.523 225.911 491.533 224.741 489.188L226.112 487.973C226.236 486.518 226.339 485.773 226.596 484.378Z" fill="#1B4D3E"/>
<path d="M224.741 489.188L226.112 487.973C226.236 486.518 226.339 485.773 226.596 484.378C226.999 487.738 227.347 491.203 228.093 494.493C226.313 492.523 225.911 491.533 224.741 489.188Z" fill="#F7F8F8"/>
<path d="M209.203 477.093C204.996 468.768 213.595 464.858 218.286 474.083C218.088 477.283 219.626 481.448 221.281 484.153C221.129 485.318 221.413 484.993 220.759 485.503C216.368 484.928 212.035 477.723 209.203 477.093Z" fill="#1B4D3E"/>
<path d="M215.819 499.758C212.928 498.198 210.396 496.443 211.048 492.913C214.246 488.833 218.926 490.838 222.931 492.493C224.85 493.508 224.804 493.413 226.115 495.103C226.26 496.848 226.445 496.028 225.341 497.593C220.364 500.308 220.246 498.948 215.819 499.758Z" fill="#1B4D3E"/>
<path d="M232.853 495.358L234.092 494.988L235.001 496.863L234.698 497.098L234.717 496.863C233.799 497.623 234.285 497.383 233.309 497.673C235.247 500.868 236.507 502.428 239.803 504.288C240.623 504.308 241.465 504.353 242.28 504.298C243.146 507.368 243.734 509.998 245.848 512.503L245.167 512.523C243.179 510.983 232.224 499.203 231.607 497.018L232.853 495.358Z" fill="#F7F8F8"/>
<path d="M256.962 514.398C257.95 517.248 258.687 520.478 260.939 522.398L261.782 522.543L263.117 521.088C262.985 522.448 262.96 522.953 262.373 524.183L262.741 524.598C263.668 525.663 264.213 526.103 264.601 527.458C261.753 525.913 256.083 521.843 253.595 519.808C255.535 520.438 254.722 520.558 256.368 520.153L256.951 519.093C256.82 517.668 256.731 516.813 256.864 515.373L256.962 514.398Z" fill="#F7F8F8"/>
<path d="M260.642 499.988C272.527 496.538 264.563 516.898 263.117 521.088L261.782 522.543L260.939 522.398C258.687 520.478 257.95 517.248 256.962 514.398C256.955 510.198 256.706 507.573 258.319 503.628C258.935 502.118 259.676 501.323 260.642 499.988Z" fill="#1B4D3E"/>
<path d="M260.642 499.988C263.909 501.623 267.828 504.118 265.467 508.478C264.54 507.698 263.984 507.163 263.129 506.303L262.671 506.333C261.047 510.088 264.246 513.983 261.5 520.133L261.263 520.208C261.252 518.568 261.195 518.448 261.621 516.798C259.016 514.783 260.088 517.563 258.25 514.928C258.177 512.248 258.583 505.348 258.319 503.628C258.935 502.118 259.676 501.323 260.642 499.988Z" fill="#1B4D3E"/>
<path d="M242.28 504.298C238.84 480.778 256.38 490.968 251.018 505.103C249.91 507.948 248.138 510.483 245.848 512.503C243.734 509.998 243.146 507.368 242.28 504.298Z" fill="#1B4D3E"/>
<path d="M243.723 501.143C243.497 499.393 243.264 498.533 243.751 496.858L244.323 496.718C245.908 497.893 245.818 497.868 246.826 499.603L247.73 500.588C246.723 503.878 247.259 507.448 246.211 509.888C243.428 508.948 243.396 503.578 243.723 501.143Z" fill="#1B4D3E"/>
<path d="M379.28 510.613C378.075 509.963 377.015 509.063 376.175 507.978C372.165 502.728 371.23 488.058 380.19 490.128C384.14 495.493 385.29 505.188 380.55 510.248L379.28 510.613Z" fill="#1B4D3E"/>
<path d="M392.12 477.968C402.07 480.568 397.76 491.608 394.335 497.988C385.26 494.598 387.72 484.258 392.12 477.968Z" fill="#1B4D3E"/>
<path d="M234.676 518.083C238.044 518.348 246.593 519.113 247.191 522.888C246.045 525.358 243.568 526.338 241.157 527.613C239.381 528.128 236.788 528.408 234.89 528.688C231.447 527.438 229.095 526.858 228.99 522.808C230.236 520.023 231.913 519.423 234.676 518.083Z" fill="#1B4D3E"/>
<path d="M374.94 530.663C380.22 530.498 396.765 531.528 387.815 540.133C382.525 541.868 369.105 538.938 374.94 530.663Z" fill="#1B4D3E"/>
<path d="M375.3 531.793C376.89 531.783 378.48 531.783 380.065 531.788C385.33 531.763 384.385 532.833 388.415 535.243L388.075 536.008C386.42 536.633 386.395 536.828 385.455 538.208C383.915 537.843 384.225 537.828 382.965 536.793C379.985 537.448 376.47 537.893 374.665 534.968C374.57 533.253 374.59 533.373 375.3 531.793Z" fill="#1B4D3E"/>
<path d="M384.455 519.808C389.1 519.488 394.66 519.563 398.39 522.648C399.73 525.753 397.19 527.098 394.78 528.678C390.86 528.888 379.295 527.098 380.385 521.653C381.815 520.328 382.58 520.298 384.455 519.808Z" fill="#1B4D3E"/>
<path d="M223.237 506.313C227.098 505.978 236.111 506.768 236.246 511.833C235.207 513.658 234.712 513.758 232.819 514.873C229.14 515.208 218.252 514.653 219.541 509.013C220.982 507.333 221.192 507.318 223.237 506.313Z" fill="#1B4D3E"/>
<path d="M245.605 531.723C255.287 530.818 255.48 538.108 247.118 540.693C243.528 540.708 240.417 540.823 239.045 536.883C239.264 532.873 242.431 532.503 245.605 531.723Z" fill="#1B4D3E"/>
</svg>
