<svg width="624" height="624" viewBox="0 0 624 624" fill="none" xmlns="http://www.w3.org/2000/svg">
<path d="M197.506 433.265C196.206 430.251 192.056 414.453 193.196 412.591C197.372 405.77 225.163 399.862 231.65 398.429C281.125 387.499 341.767 382.324 390.69 397.249C399.269 399.622 414.643 405.66 422.291 410.038L422.845 410.348C422.605 416.731 421.05 423.677 419.284 429.869C418.696 433.414 417.571 437.585 416.715 441.128C415.693 445.414 414.713 449.872 413.427 454.079C407.955 480.184 395.161 516.479 371.829 533.024C371.502 533.255 371.32 533.35 370.989 533.526C368.243 535.42 365.997 536.759 363.089 538.44C360.136 540.086 356.202 542.081 353.539 543.939C355.888 543.865 358.606 543.543 360.454 545.173C364.909 549.097 361.869 556.635 358.217 559.997C356.595 561.466 354.598 562.511 352.426 563.029C347.264 564.326 336.307 563.752 330.62 563.736L280.346 563.729C271.554 563.701 265.423 565.131 259.324 557.868C256.427 554.785 253.499 548.818 257.935 545.628C260.843 543.539 263.61 544.093 266.969 544.485C247.346 534.811 232.167 523.353 221.827 504.094C215.063 493.642 206.185 464.571 202.791 451.707C201.876 449.189 201.473 447.731 200.867 445.123L200.464 443.968C199.372 440.319 198.373 436.981 197.506 433.265Z" fill="white"/>
<path d="M197.506 433.265C196.206 430.251 192.056 414.453 193.196 412.591C197.372 405.77 225.163 399.862 231.65 398.429C281.125 387.499 341.767 382.324 390.69 397.249C399.269 399.622 414.643 405.66 422.291 410.038L422.845 410.348C422.605 416.731 421.05 423.677 419.284 429.869C418.696 433.414 417.571 437.585 416.715 441.128C415.693 445.414 414.713 449.872 413.427 454.079L412.939 453.985L412.583 454.275C410.68 454.381 410.991 454.629 409.522 453.922C408.405 452.308 408.426 452.001 407.963 450.061C408.559 447.374 409.113 444.707 409.87 442.056C399.467 446.294 391.91 449.287 381.119 452.634C343.07 462.811 308.516 465.066 269.071 459.684C263.7 458.954 255.027 457.712 249.913 456.287C242.308 454.704 234.008 452.284 226.678 449.825C223.44 448.702 220.243 447.476 217.092 446.148C214.983 445.324 209.045 442.142 207.183 442.366L206.962 443.065C205.963 446.584 208.162 447.924 205.665 450.002C205.265 448.493 204.61 444.962 202.942 444.404C202.768 445.166 202.667 445.653 202.558 446.435L202.476 447.068L201.626 445.363L200.867 445.123L200.464 443.968C199.372 440.319 198.373 436.981 197.506 433.265Z" fill="black"/>
<path d="M201.315 423.649C201.013 422.176 200.73 420.933 200.333 419.482C208.077 423.235 216.024 427.11 224.175 430.028C260.668 443.092 301.625 445.08 340.092 441.121C342.503 440.873 345.49 440.414 347.864 440.351L371.469 436.026L371.531 435.743C378.641 435.398 393.9 428.104 400.29 426.38C405.812 426.448 406.313 424.018 410.432 422.576C411.752 423.863 410.664 423.654 412.12 425.146C412.773 428.415 408.902 433.3 406.379 435.335C403.318 435.771 404.571 435.299 402.342 437.373L401.531 437.153C400.671 437.562 400.782 437.908 400.29 439.023C396.865 440.901 381.384 446.125 377.107 447.087C376.474 448.042 376.131 448.454 375.775 449.554L374.803 449.833L374.546 450.615C376.284 451.895 379.287 449.283 381.119 452.634C343.07 462.811 308.516 465.066 269.071 459.684C263.7 458.954 255.027 457.712 249.913 456.287C242.308 454.704 234.008 452.284 226.678 449.825C223.44 448.702 220.243 447.476 217.092 446.148C214.983 445.324 209.045 442.142 207.183 442.366L206.962 443.065C205.963 446.584 208.162 447.924 205.665 450.002C205.265 448.493 204.61 444.962 202.942 444.404C202.768 445.166 202.667 445.653 202.558 446.435L202.476 447.068L201.626 445.363L200.867 445.123L200.464 443.968C201.483 440.288 199.006 441.352 202.238 437.405C202.651 435.645 201.515 434.431 201.936 431.784C202.5 432.092 203.072 432.346 203.673 432.577C202.95 429.587 202.163 426.61 201.315 423.649Z" fill="white"/>
<path d="M332.576 455.344C346.416 454.405 363.85 450.654 377.107 447.087C376.474 448.042 376.131 448.454 375.775 449.554L374.803 449.833L374.546 450.615C376.284 451.895 379.287 449.283 381.119 452.634C343.07 462.811 308.516 465.066 269.071 459.684C263.7 458.954 255.027 457.712 249.913 456.287C248.589 454.582 247.454 453.667 245.174 453.667C246.518 450.768 246.922 451.208 247.645 449.507C257.577 451.879 267.642 453.718 277.794 455.006C279.077 455.077 282.601 455.265 283.645 455.611C292.43 456.177 301.232 456.463 310.038 456.467C315.374 456.428 320.693 456.027 325.863 455.972C327.162 455.631 331.025 455.454 332.576 455.344Z" fill="black"/>
<path d="M325.863 455.972C327.162 455.631 331.025 455.454 332.576 455.344C335.137 456.632 336.167 455.348 338.723 455.693C339.488 455.796 339.145 456.597 340.323 457.068C337.486 458.035 325.872 459.115 323.692 456.888C324.548 456.801 325.197 456.754 325.983 456.408L325.863 455.972Z" fill="black"/>
<path d="M277.794 455.006C279.077 455.077 282.601 455.265 283.645 455.611C284.785 456.554 286.873 456.715 288.446 456.997L288.459 457.63C286.367 459.189 274.897 457.43 273.175 455.776L273.623 455.407C275.426 455.493 276.063 455.481 277.794 455.006Z" fill="black"/>
<path d="M200.464 443.968C201.483 440.288 199.006 441.352 202.238 437.405C202.651 435.645 201.515 434.431 201.936 431.784C202.5 432.092 203.072 432.346 203.673 432.577C209.048 438.567 238.84 447.409 247.645 449.507C246.922 451.208 246.518 450.768 245.174 453.667C247.454 453.667 248.589 454.582 249.913 456.287C242.308 454.704 234.008 452.284 226.678 449.825C223.44 448.702 220.243 447.476 217.092 446.148C214.983 445.324 209.045 442.142 207.183 442.366L206.962 443.065C205.963 446.584 208.162 447.924 205.665 450.002C205.265 448.493 204.61 444.962 202.942 444.404C202.768 445.166 202.667 445.653 202.558 446.435L202.476 447.068L201.626 445.363L200.867 445.123L200.464 443.968Z" fill="black"/>
<path d="M217.092 446.148C218.929 446.152 223.059 445.697 224.006 446.188L224.246 446.58C225.051 447.873 226.008 448.784 226.678 449.825C223.44 448.702 220.243 447.476 217.092 446.148Z" fill="black"/>
<path d="M347.864 440.351L371.469 436.026C369.62 438.886 351.036 442.605 347.864 440.351Z" fill="white"/>
<path d="M400.29 426.38C403.988 424.279 410.403 421.348 414.395 419.534L414.812 419.954L414.577 421.797C413.845 425.037 413.03 428.259 412.132 431.462L410.825 434.416C407.752 435.826 403.397 437.97 400.29 439.023C400.782 437.908 400.671 437.562 401.531 437.153L402.342 437.373C404.571 435.299 403.318 435.771 406.379 435.335C408.902 433.3 412.773 428.415 412.12 425.146C410.664 423.654 411.752 423.863 410.432 422.576C406.313 424.018 405.812 426.448 400.29 426.38Z" fill="white"/>
<path d="M197.506 433.265C198.59 433.614 198.331 433.689 199.091 434.895L199.909 434.962C200.71 432.609 198.579 428.74 197.5 426.338L198.508 426.022L199.641 426.626C200.885 426.406 198.857 425.651 201.315 423.649C202.163 426.61 202.95 429.587 203.673 432.577C203.072 432.346 202.5 432.092 201.936 431.784C201.515 434.431 202.651 435.645 202.238 437.405C199.006 441.352 201.483 440.288 200.464 443.968C199.372 440.319 198.373 436.981 197.506 433.265Z" fill="black"/>
<path d="M414.577 421.797C415.867 425.002 416.198 425.858 416.641 429.196C415.156 429.928 413.613 430.825 412.132 431.462C413.03 428.259 413.845 425.037 414.577 421.797Z" fill="black"/>
<path d="M417.46 432.499L418.502 430.087L419.284 429.869C418.696 433.414 417.571 437.585 416.715 441.128C414.341 439.223 415.445 434.133 417.46 432.499Z" fill="black"/>
<path d="M283.788 395.997C290.435 395.591 297.123 394.925 303.759 394.655C321.483 393.847 339.248 394.54 356.844 396.728C360.397 397.3 364.115 397.843 367.639 398.502C372.929 399.434 379.357 400.735 384.552 402.141C394.152 405.171 404.075 409.075 413.435 412.821C399.827 420.343 386.467 426.239 370.989 429.547C369.773 429.807 366.783 430.402 365.72 430.815C359.437 432.025 353.137 433.143 346.817 434.168L345.998 434.255C326.943 436.411 313.016 436.611 294.127 436.325C288.839 436.301 285.282 439.074 280.273 435.59C279.478 435.362 270.981 434.592 268.939 434.247C265.765 433.944 262.565 433.328 259.423 432.778C241.655 429.75 217.879 422.211 202.269 413.507C217.948 406.251 250.351 400.952 267.889 398.1L283.788 395.997Z" fill="white"/>
<path d="M259.423 432.778C262.924 431.922 268.472 428.742 268.939 434.247C265.765 433.944 262.565 433.328 259.423 432.778Z" fill="white"/>
<path d="M345.998 434.255C344.369 432.031 341.813 433.877 338.375 432.589L338.276 431.983C340.357 430.951 344.195 431.19 346.325 432.133C347.123 433.308 346.917 432.664 346.817 434.168L345.998 434.255Z" fill="white"/>
<path d="M280.273 435.59C284.312 435.79 290.25 435.92 294.127 436.325C288.839 436.301 285.282 439.074 280.273 435.59Z" fill="black"/>
<path d="M206.962 443.065C208.352 446.541 209.398 450.87 210.437 454.519C214.715 469.547 219.077 483.665 225.943 497.86C237.933 519.806 251.163 533.145 276.85 541.08C291.816 545.707 319.969 545.185 335.592 542.309C343.314 540.887 350.577 538.067 357.501 534.638C357.832 534.473 358.159 534.308 358.486 534.135C360.438 533.082 362.245 531.916 364.115 530.741C381.003 520.01 390.136 503.344 396.973 485.876C398.549 481.83 400.464 476.865 401.382 472.67C403.26 468.004 406.358 455.564 407.963 450.061C408.426 452.001 408.405 452.308 409.522 453.922C410.991 454.629 410.68 454.381 412.583 454.275L412.939 453.985L413.427 454.079C407.955 480.184 395.161 516.479 371.829 533.024C371.502 533.255 371.32 533.35 370.989 533.526C368.243 535.42 365.997 536.759 363.089 538.44C360.136 540.086 356.202 542.081 353.539 543.939C355.888 543.865 358.606 543.543 360.454 545.173C364.909 549.097 361.869 556.635 358.217 559.997C356.595 561.466 354.598 562.511 352.426 563.029C347.264 564.326 336.307 563.752 330.62 563.736L280.346 563.729C271.554 563.701 265.423 565.131 259.324 557.868C256.427 554.785 253.499 548.818 257.935 545.628C260.843 543.539 263.61 544.093 266.969 544.485C247.346 534.811 232.167 523.353 221.827 504.094C215.063 493.642 206.185 464.571 202.791 451.707C201.876 449.189 201.473 447.731 200.867 445.123L201.626 445.363L202.476 447.068L202.558 446.435C202.667 445.653 202.768 445.166 202.942 444.404C204.61 444.962 205.265 448.493 205.665 450.002C208.162 447.924 205.963 446.584 206.962 443.065Z" fill="black"/>
<path d="M263.665 550.739C271.226 550.055 351.942 549.627 356.161 550.896C355.698 553.394 353.522 556.886 350.656 557.236C338.483 558.724 325.805 557.962 313.5 558.127C300.645 558.296 287.678 558.288 274.825 558.08C271.368 557.982 263.573 557.043 263.007 552.11C262.914 551.296 263.102 551.422 263.665 550.739Z" fill="white"/>
<path d="M210.841 464.154C211.053 464.469 210.888 464.311 211.466 464.453L212.029 464.256C212.72 465.447 213.363 469.217 212.666 470.439C210.054 468.974 209.187 468.016 209.482 465.18C210.361 464.842 210.224 464.842 210.841 464.154Z" fill="black"/>
<path d="M401.382 472.67C400.464 476.865 398.549 481.83 396.973 485.876L396.485 484.918C397.643 481.693 397.006 476.382 398.52 474.744C399.293 475.058 398.884 474.952 399.744 475.054C400.381 473.829 400.377 473.699 401.382 472.67Z" fill="white"/>
<path d="M305.401 486.171C307.006 484.211 308.921 481.65 311.49 480.899C317.851 479.045 318.931 487.098 319.795 490.943C319.99 490.692 320.193 490.448 320.395 490.205C323.051 487.058 326.173 486.988 329.305 489.553C333.164 493.858 332.171 498.575 327.646 501.985L326.111 502.931L326.12 503.544C328.25 505.115 330.181 505.559 331.588 507.912C338.681 516.982 326.769 524.276 318.331 516.569L317.694 516.463C317.789 519.46 318.699 523.82 317.173 526.562C314.849 530.73 308.16 529.862 305.749 526.209C304.094 523.702 303.668 521.118 302.965 518.337C298.602 520.607 292.161 523.153 288.384 518.321C287.27 516.903 286.868 515.088 287.282 513.364C288.184 509.448 291.796 507.425 295.018 505.394C291.333 504.648 285.531 501.407 284.715 497.907C282.771 492.703 292.222 491.513 292.466 490.432C293.859 484.266 293.851 476.04 305.401 486.171Z" fill="black"/>
<path d="M307.929 497.558C311.887 496.533 315.961 498.772 316.999 502.542C318.038 506.309 315.639 510.155 311.66 511.101C307.738 512.036 303.755 509.797 302.734 506.082C301.712 502.37 304.028 498.563 307.929 497.558Z" fill="white"/>
<path d="M322.778 495.629L324.511 494.796L325.139 495.005C324.8 496.615 324.031 497.047 322.674 497.927C320.958 498.654 321.777 498.634 320.172 498.292L320.494 498.654L319.92 498.532C320.432 497.42 321.773 496.474 322.778 495.629Z" fill="black"/>
<path d="M293.513 496.686C295.636 496.894 298.602 497.204 298.85 499.561C296.94 499.192 294.389 498.783 293.132 497.306L293.513 496.686Z" fill="white"/>
<path d="M320.044 510.665C322.931 510.599 325.226 511.314 326.877 513.623C324.081 513.568 322.116 512.335 320.044 510.665Z" fill="black"/>
<path d="M300.033 510.948L300.819 511.172C300.252 512.798 297.958 513.67 296.308 514.483L295.394 514.409L295.383 513.898C296.531 512.794 298.573 511.773 300.033 510.948Z" fill="black"/>
<path d="M312.718 486.929L313.293 487.345C313.963 489.007 313.889 489.804 313.997 491.619C312.747 490.201 313.004 489.054 312.718 486.929Z" fill="black"/>
<path d="M360.69 501.851C366.464 497.656 371.622 493.072 375.932 487.483C377.582 485.369 379.038 483.126 380.288 480.781C382.409 476.791 387.563 462.952 393.445 462.772C395.492 462.709 397.196 466.071 396.166 467.741C393.784 474.21 387.166 475.526 382.951 480.275C386.529 479.87 394.169 477.769 395.149 482.207C393.151 487.726 385.491 486.823 380.759 486.434C379.001 488.661 377.702 490.378 376.151 492.726C379.047 492.267 386.169 490.884 387.373 494.199C386.306 498.795 380.755 499.373 376.577 498.866C374.683 498.638 374.141 497.385 373.099 495.971C371.246 496.898 366.344 501.655 364.475 503.116C360.554 506.18 346.937 516.337 342.421 516.844C341.254 516.365 341.056 516.184 341.267 514.813C341.763 511.883 348.865 508.104 351.582 506.455C351.983 504.797 348.737 502.735 348.914 500.425C341.73 483.841 356.426 482.223 355.565 498.528C357.125 499.353 356.562 498.787 357.365 500.252C357.162 501.627 357.083 501.604 356.285 502.707L356.686 503.049C358.68 502.707 359.061 502.201 360.69 501.851Z" fill="black"/>
<path d="M348.914 500.425C341.73 483.841 356.426 482.223 355.565 498.528L353.319 505.964C351.897 504.133 350.428 502.173 348.914 500.425Z" fill="black"/>
<path d="M353.319 505.964L355.565 498.528C357.125 499.353 356.562 498.787 357.365 500.252C357.162 501.627 357.083 501.604 356.285 502.707L356.686 503.049C358.68 502.707 359.061 502.201 360.69 501.851C354.788 506.576 347.157 509.597 341.267 514.813C341.763 511.883 348.865 508.104 351.582 506.455C351.983 504.797 348.737 502.735 348.914 500.425C350.428 502.173 351.897 504.133 353.319 505.964Z" fill="white"/>
<path d="M223.093 468.99C219.613 462.45 226.726 459.378 230.607 466.625C232.347 469.363 234.449 475.212 235.947 478.491L237.081 477.537C237.183 476.394 237.269 475.809 237.481 474.713C238.035 473.02 238.197 471.943 239.48 470.714C244.936 468.62 247.757 478.22 243.682 483.048L244.435 484.521L244.184 484.705L244.199 484.521C243.44 485.118 243.842 484.929 243.034 485.157C244.638 487.667 245.68 488.893 248.407 490.354C249.085 490.37 249.781 490.405 250.456 490.362C251.172 492.774 251.658 494.84 253.407 496.808L252.844 496.823C254.507 498.485 257.792 501.34 259.816 502.546C261.421 503.041 260.749 503.136 262.11 502.817L262.593 501.985C262.484 500.865 262.411 500.193 262.521 499.062L262.601 498.296C263.419 500.535 264.029 503.073 265.891 504.581L266.589 504.695L267.693 503.552C267.584 504.62 267.563 505.017 267.078 505.983L267.382 506.309C268.149 507.146 268.6 507.492 268.921 508.556C271.94 510.87 276.102 512.331 277.862 515.057C278.046 516.554 278.173 515.862 277.455 517.217C275.268 517.465 271.809 514.601 269.992 513.486C257.963 506.101 248.219 496.647 239.206 486.163C234.836 487.667 233.035 488.421 228.566 486.795C226.174 485.57 224.08 484.191 224.62 481.418C227.265 478.213 231.136 479.788 234.45 481.088C235.764 477.407 225.654 474.948 223.093 468.99Z" fill="black"/>
<path d="M237.481 474.713C238.035 473.02 238.197 471.943 239.48 470.714C244.936 468.62 247.757 478.22 243.682 483.048L242.658 483.339C240.478 483.229 240.75 484.442 238.993 484.006L238.72 482.659C237.247 481.111 236.915 480.334 235.947 478.491L237.081 477.537C237.183 476.394 237.269 475.809 237.481 474.713Z" fill="black"/>
<path d="M235.947 478.491L237.081 477.537C237.183 476.394 237.269 475.809 237.481 474.713C237.815 477.352 238.102 480.074 238.72 482.659C237.247 481.111 236.915 480.334 235.947 478.491Z" fill="white"/>
<path d="M223.093 468.99C219.613 462.45 226.726 459.378 230.607 466.625C230.443 469.139 231.716 472.411 233.085 474.536C232.959 475.451 233.194 475.196 232.653 475.596C229.02 475.145 225.436 469.485 223.093 468.99Z" fill="black"/>
<path d="M228.566 486.795C226.174 485.57 224.08 484.191 224.62 481.418C227.265 478.213 231.136 479.788 234.45 481.088C236.037 481.885 235.999 481.811 237.083 483.138C237.204 484.509 237.356 483.865 236.443 485.094C232.326 487.227 232.229 486.159 228.566 486.795Z" fill="black"/>
<path d="M242.658 483.339L243.682 483.048L244.435 484.521L244.184 484.705L244.199 484.521C243.44 485.118 243.842 484.929 243.034 485.157C244.638 487.667 245.68 488.893 248.407 490.354C249.085 490.37 249.781 490.405 250.456 490.362C251.172 492.774 251.658 494.84 253.407 496.808L252.844 496.823C251.2 495.613 242.137 486.359 241.627 484.643L242.658 483.339Z" fill="white"/>
<path d="M262.601 498.296C263.419 500.535 264.029 503.073 265.891 504.581L266.589 504.695L267.693 503.552C267.584 504.62 267.563 505.017 267.078 505.983L267.382 506.309C268.149 507.146 268.6 507.492 268.921 508.556C266.565 507.342 261.874 504.145 259.816 502.546C261.421 503.041 260.749 503.136 262.11 502.817L262.593 501.985C262.484 500.865 262.411 500.193 262.521 499.062L262.601 498.296Z" fill="white"/>
<path d="M265.646 486.976C275.477 484.266 268.889 500.26 267.693 503.552L266.589 504.695L265.891 504.581C264.029 503.073 263.419 500.535 262.601 498.296C262.595 494.997 262.389 492.935 263.724 489.835C264.233 488.649 264.846 488.025 265.646 486.976Z" fill="black"/>
<path d="M265.646 486.976C268.348 488.26 271.59 490.22 269.637 493.646C268.87 493.033 268.41 492.613 267.703 491.937L267.324 491.96C265.981 494.91 268.627 497.97 266.356 502.802L266.159 502.861C266.151 501.572 266.103 501.478 266.455 500.182C264.301 498.599 265.187 500.783 263.667 498.713C263.607 496.607 263.943 491.187 263.724 489.835C264.233 488.649 264.846 488.025 265.646 486.976Z" fill="black"/>
<path d="M250.456 490.362C247.61 471.885 262.12 479.89 257.684 490.994C256.768 493.229 255.302 495.221 253.407 496.808C251.658 494.84 251.172 492.774 250.456 490.362Z" fill="black"/>
<path d="M251.649 487.883C251.463 486.508 251.27 485.833 251.673 484.517L252.146 484.407C253.457 485.33 253.383 485.31 254.216 486.673L254.964 487.447C254.131 490.032 254.574 492.836 253.708 494.753C251.405 494.015 251.379 489.796 251.649 487.883Z" fill="black"/>
<path d="M363.788 495.323C362.791 494.812 361.914 494.105 361.22 493.253C357.902 489.128 357.129 477.604 364.541 479.23C367.809 483.445 368.76 491.061 364.839 495.036L363.788 495.323Z" fill="black"/>
<path d="M374.41 469.677C382.641 471.72 379.076 480.393 376.242 485.405C368.735 482.742 370.77 474.618 374.41 469.677Z" fill="black"/>
<path d="M244.166 501.191C246.952 501.399 254.024 502 254.519 504.966C253.57 506.906 251.521 507.676 249.527 508.678C248.057 509.083 245.912 509.302 244.343 509.522C241.495 508.54 239.548 508.085 239.462 504.903C240.493 502.715 241.88 502.244 244.166 501.191Z" fill="black"/>
<path d="M360.198 511.074C364.566 510.944 378.253 511.753 370.849 518.514C366.473 519.877 355.371 517.575 360.198 511.074Z" fill="black"/>
<path d="M360.496 511.962C361.811 511.954 363.126 511.954 364.438 511.958C368.793 511.938 368.011 512.779 371.345 514.672L371.064 515.273C369.695 515.764 369.674 515.917 368.896 517.001C367.622 516.715 367.879 516.703 366.837 515.89C364.371 516.404 361.464 516.754 359.97 514.456C359.892 513.109 359.908 513.203 360.496 511.962Z" fill="black"/>
<path d="M368.069 502.546C371.912 502.295 376.511 502.354 379.597 504.777C380.705 507.217 378.604 508.273 376.61 509.515C373.368 509.68 363.801 508.273 364.702 503.996C365.885 502.955 366.518 502.931 368.069 502.546Z" fill="black"/>
<path d="M234.703 491.945C237.896 491.682 245.352 492.302 245.464 496.281C244.605 497.715 244.195 497.793 242.63 498.669C239.586 498.933 230.579 498.497 231.645 494.066C232.837 492.746 233.011 492.734 234.703 491.945Z" fill="black"/>
<path d="M253.206 511.907C261.216 511.196 261.375 516.923 254.458 518.954C251.488 518.965 248.915 519.056 247.78 515.96C247.961 512.81 250.581 512.52 253.206 511.907Z" fill="black"/>
</svg>
