<svg width="260" height="260" viewBox="0 0 260 260" fill="none" xmlns="http://www.w3.org/2000/svg">
<path d="M221.792 73.3274C215.418 108.418 203.652 99.3945 196.298 136.991C190.655 165.843 198.259 201.658 186.493 219.203C174.726 236.748 222.367 175.355 229.636 144.009C235.783 117.5 231.107 104.407 221.792 73.3274Z" fill="#E9EE62"/>
<path d="M63.1188 136.991C55.7648 99.3945 43.9985 108.418 37.6251 73.3274C28.3101 104.407 23.6334 117.5 29.7809 144.009C37.0498 175.355 84.6903 236.748 72.924 219.203C61.1577 201.658 68.7621 165.843 63.1188 136.991Z" fill="#E9EE62"/>
<path d="M126.711 220V114.19C126.711 113.086 127.606 112.19 128.711 112.19C129.815 112.19 130.853 113.085 130.853 114.19L130.711 220C130.711 221.104 129.815 222 128.711 222C127.606 222 126.711 221.104 126.711 220Z" fill="#E9EE62"/>
<path fill-rule="evenodd" clip-rule="evenodd" d="M148.782 52.2994C151.201 49.6222 154.514 46.2756 157.915 43.5144C160.124 41.7211 162.456 40.1044 164.664 39.0985C166.783 38.1331 169.274 37.5098 171.466 38.5058L172.609 39.0254L172.637 40.28C173.136 63.7272 172.4 78.0833 169.827 87.99C167.2 98.1034 162.664 103.551 155.957 109.225C149.862 114.381 140.071 115.54 130.853 109.393V114.19C130.853 115.293 129.959 116.186 128.857 116.186C128.832 116.186 128.808 116.183 128.783 116.182C128.759 116.183 128.735 116.186 128.71 116.186C127.608 116.186 126.714 115.292 126.714 114.19V109.393C117.496 115.539 107.705 114.381 101.61 109.225C94.9031 103.551 90.3669 98.1032 87.7398 87.99C85.1663 78.0833 84.4311 63.7271 84.93 40.28L84.9573 39.0254L86.1009 38.5058C88.2932 37.5096 90.7841 38.1331 92.903 39.0985C95.1104 40.1043 97.4423 41.7212 99.6515 43.5144C103.053 46.2755 106.366 49.6222 108.785 52.2994C112.17 46.7574 121.223 38.3268 128.711 38.3268C136.198 38.3268 145.766 47.3617 148.782 52.2994ZM88.8931 42.0132C88.464 64.485 89.2435 77.8973 91.6044 86.986C93.9688 96.0877 97.919 100.873 104.19 106.178C109.218 110.432 118.135 111.542 126.714 104.414V98.8319C118.236 94.1872 112.794 89.3342 109.462 84.2088C105.954 78.8123 104.897 73.2896 104.897 67.7735C104.897 63.9048 105.356 59.9849 106.866 56.1547C104.527 53.4622 100.86 49.6389 97.1342 46.6143C95.0397 44.9141 93.0106 43.536 91.2476 42.7326C90.2561 42.2808 89.4823 42.0719 88.8931 42.0132ZM168.674 42.0132C168.085 42.072 167.311 42.2808 166.319 42.7326C164.556 43.536 162.527 44.9141 160.433 46.6143C156.706 49.639 153.039 53.4622 150.701 56.1547C152.211 59.9849 152.67 63.9048 152.67 67.7735C152.67 73.2897 151.613 78.8122 148.105 84.2088C144.773 89.3343 139.331 94.1871 130.853 98.8319V104.414C139.432 111.542 148.348 110.432 153.377 106.178C159.648 100.873 163.598 96.0879 165.962 86.986C168.323 77.8973 169.103 64.4851 168.674 42.0132ZM126.714 42.5074C117.734 46.8956 113.233 51.7183 111.001 56.6217C109.403 60.131 108.89 63.8446 108.89 67.7735C108.89 72.7383 109.829 77.4476 112.81 82.033C115.443 86.0829 119.757 90.1669 126.714 94.2425V42.5074ZM130.853 94.2425C137.81 90.1669 142.124 86.083 144.757 82.033C147.738 77.4475 148.677 72.7384 148.677 67.7735C148.677 63.8446 148.164 60.131 146.566 56.6217C144.334 51.7183 139.833 46.8956 130.853 42.5074V94.2425Z" fill="#E9EE62"/>
<path d="M127.575 210.368L156.527 190.404C157.436 189.777 158.682 190.006 159.309 190.915C159.936 191.824 159.707 193.07 158.798 193.697L129.846 213.661C128.937 214.288 127.691 214.059 127.064 213.15C126.437 212.241 126.666 210.995 127.575 210.368Z" fill="#E9EE62"/>
<path d="M129.847 210.368L100.895 190.404C99.9853 189.777 98.7398 190.006 98.1126 190.915C97.4854 191.824 97.7142 193.07 98.6235 193.697L127.575 213.661C128.485 214.288 129.73 214.059 130.357 213.15C130.985 212.241 130.756 210.995 129.847 210.368Z" fill="#E9EE62"/>
<path d="M127.575 192.401L156.527 172.436C157.436 171.809 158.682 172.038 159.309 172.947C159.936 173.856 159.707 175.102 158.798 175.729L129.846 195.693C128.937 196.32 127.691 196.091 127.064 195.182C126.437 194.273 126.666 193.028 127.575 192.401Z" fill="#E9EE62"/>
<path d="M129.847 192.401L100.895 172.436C99.9853 171.809 98.7398 172.038 98.1126 172.947C97.4854 173.856 97.7142 175.102 98.6235 175.729L127.575 195.693C128.485 196.32 129.73 196.091 130.357 195.182C130.985 194.273 130.756 193.028 129.847 192.401Z" fill="#E9EE62"/>
<path d="M127.575 174.433L156.527 154.469C157.436 153.842 158.682 154.07 159.309 154.98C159.936 155.889 159.707 157.134 158.798 157.761L129.846 177.726C128.937 178.352 127.691 178.124 127.064 177.215C126.437 176.305 126.666 175.06 127.575 174.433Z" fill="#E9EE62"/>
<path d="M129.847 174.433L100.895 154.469C99.9853 153.842 98.7398 154.07 98.1126 154.98C97.4854 155.889 97.7142 157.134 98.6235 157.761L127.575 177.726C128.485 178.352 129.73 178.124 130.357 177.215C130.985 176.305 130.756 175.06 129.847 174.433Z" fill="#E9EE62"/>
<path d="M127.575 156.465L156.527 136.501C157.436 135.874 158.682 136.103 159.309 137.012C159.936 137.921 159.707 139.167 158.798 139.794L129.846 159.758C128.937 160.385 127.691 160.156 127.064 159.247C126.437 158.338 126.666 157.092 127.575 156.465Z" fill="#E9EE62"/>
<path d="M129.847 156.465L100.895 136.501C99.9853 135.874 98.7398 136.103 98.1126 137.012C97.4854 137.921 97.7142 139.167 98.6235 139.794L127.575 159.758C128.485 160.385 129.73 160.156 130.357 159.247C130.985 158.338 130.756 157.092 129.847 156.465Z" fill="#E9EE62"/>
<path d="M127.575 138.498L156.527 118.533C157.436 117.906 158.682 118.135 159.309 119.044C159.936 119.953 159.707 121.199 158.798 121.826L129.846 141.79C128.937 142.417 127.691 142.188 127.064 141.279C126.437 140.37 126.666 139.125 127.575 138.498Z" fill="#E9EE62"/>
<path d="M129.847 138.498L100.895 118.533C99.9853 117.906 98.7398 118.135 98.1126 119.044C97.4854 119.953 97.7142 121.199 98.6235 121.826L127.575 141.79C128.485 142.417 129.73 142.188 130.357 141.279C130.985 140.37 130.756 139.125 129.847 138.498Z" fill="#E9EE62"/>
</svg>
