<svg width="624" height="624" viewBox="0 0 624 624" fill="none" xmlns="http://www.w3.org/2000/svg">
<rect width="624" height="624" fill="white"/>
<path d="M174.569 163.421C174.24 159.94 173.272 155.465 176.404 153.022C181.091 149.365 184.996 156.078 186.747 159.07C190.853 156.388 196.296 154.106 197.284 161.4C198.116 167.533 195.629 171.592 192.043 176.184C194.556 178.644 194.978 179.325 196.847 182.235C206.706 172.376 209.717 182.604 207.038 192.095C207.772 194.432 208.109 194.257 207.679 196.326C206.43 197.502 206.486 197.492 204.957 198.244L204.924 199.044L205.973 200.177C207.077 199.869 206.808 199.876 207.797 199.109C208.698 199.563 209.684 200.026 210.545 200.536C218.804 195.088 219.725 207.285 217.566 212.499C215.378 217.782 214.073 219.309 209.97 223.025C212.193 225.38 214.052 228.978 215.476 229.687L215.994 229.506C218.834 220.306 236.324 222.33 223.551 244.306C225.699 244.06 224.809 243.792 226.404 244.725L226.88 246.162L226.294 246.59C225.495 246.448 224.476 246.154 223.765 246.325C224.699 247.525 224.874 247.584 225.495 248.979C232.71 249.21 230.355 253.159 233.292 257.293L233.666 257.084C240.088 253.55 243.133 260.814 241.007 266.026C238.994 270.958 236.307 272.958 233.098 276.811C233.161 279.303 232.137 280.385 232.401 282.171C234.076 283.344 233.686 282.978 235.988 283.237C241.201 286.337 239.288 287.02 242.775 290.917C243.058 291.233 250.333 288.859 251.216 293.604C252.977 303.076 245.306 308.341 238.916 313.409C241.979 326.734 246.454 341.638 249.815 355.376L251.373 355.051C251.897 348.553 254.364 313.213 262.112 313.773C269.252 318.416 265.027 344.55 263.415 351.914C262.449 356.327 256.245 377.157 256.901 379.502C257.574 379.663 257.921 379.774 258.61 379.84C261.707 379.158 263.464 378.974 266.598 378.67C266.132 375.513 264.663 370.851 266.62 368.397L267.817 368.265C268.793 369.48 269.143 371.336 269.577 372.883L271.318 378.082C274.481 377.621 277.093 377.451 280.276 377.249C278.065 351.146 274.857 325.137 270.66 299.279C265.028 296.754 258.102 293.802 255.6 287.665C254.329 284.549 255.174 280.892 259.158 280.517C263.058 280.149 264.821 281.729 267.607 284.125C267.143 278.166 265.775 271.883 264.57 266.008L264.104 265.901L263.329 265.714L262.545 265.534C243.545 261.038 244.549 241.103 261.565 252.5C260.74 248.656 260.322 244.237 259.853 240.294C252.607 238.653 244.075 235.333 243.134 226.88C242.595 222.036 249.467 223.085 252.044 223.788L251.857 217.036C246.944 215.896 234.765 210.327 240.055 203.378C241.692 201.228 243.798 201.441 246.312 201.174C246.533 199.275 246.23 196.143 246.105 194.137C241.665 192.251 231.73 186.716 234.678 180.203C235.531 178.317 238.769 177.963 240.711 177.53C242.051 176.024 240.612 170.728 242.456 169.275C249.266 163.91 250.522 172.267 253.062 175.202C258.3 173.103 262.009 172.913 262.241 180.174C262.388 184.765 258.926 188.645 255.782 191.694C256.984 194.186 257.621 195.74 259.391 197.923C262.327 196.751 265.117 195.153 267.967 197.097C271.672 202.528 267.48 208.79 263.406 212.462C261.929 213.793 261.577 214.164 261.603 215.962C262.667 217.664 263.348 219.025 264.253 220.824C277.67 210.988 277.676 226.424 271.134 233.87C269.304 235.953 267.738 236.481 265.635 238.075L265.627 238.88C268.397 240.685 271.956 237.123 273.206 244.55C275.59 244.939 277.97 242.064 280.67 244.876C286.445 250.891 277.93 260.191 273.028 263.267C272.347 263.626 270.831 264.169 270.705 264.859C270.26 267.308 269.973 270.941 271.746 272.865C273.683 272.067 275.053 271.271 277.114 271.391C280.107 272.881 280.088 274.469 280.991 277.529C282.852 279.244 288.952 276.972 289.034 283.612C289.12 290.462 280.669 295.375 275.737 297.341C276.801 305.989 278.189 314.623 279.424 323.252C281.975 341.069 283.585 359.016 285.435 376.923C288.787 376.706 293.048 376.313 296.334 376.276C298.372 376.19 298.997 376.211 300.937 375.708L301.337 374.501L298.347 367.739C294.429 359.208 290.147 350.554 287.533 341.533C286.448 337.787 282.321 317.31 287.343 316.399C289.185 317.316 291.261 320.63 292.3 322.455C297.657 331.862 301.582 342.181 304.102 352.699C304.672 355.059 305.177 357.59 306.107 359.825C306.742 352.048 306.382 338.538 307.697 331.417C307.742 326.906 308.667 319.213 309.097 314.468L309.932 314.786C309.677 313.462 312.817 324.825 312.147 323.325C312.697 322.124 312.552 322.185 312.737 320.811L313.477 320.833C313.272 325.039 313.022 329.242 312.722 333.442C312.477 337.397 312.317 340.838 312.297 344.796C312.672 348.25 312.192 354.368 313.202 356.396C316.242 348.905 331.032 320.612 340.107 321.833C344.757 326.257 333.257 345.345 330.492 349.757L330.997 350.713C329.137 354.679 324.212 361.876 320.527 363.915C317.497 367.614 315.827 371.368 313.792 375.657C316.652 375.869 319.757 376.035 322.587 376.314L322.497 374.793C326.847 371.544 322.722 370.599 324.437 367.491C325.677 368.085 325.357 368.018 326.677 368.293C328.342 364.497 328.837 363.259 332.812 363.04C334.642 361.866 333.707 362.074 335.602 362.008C339.327 365.217 334.167 373.47 337.417 376.625C339.022 376.823 339.157 376.936 340.767 376.533C341.242 371.332 342.582 363.183 343.437 357.916C345.632 344.412 348.067 329.006 351.357 315.735C351.457 313.024 355.392 297.652 356.207 293.753C349.657 289.428 346.567 287.077 344.862 279.28C343.662 273.15 346.082 272.315 351.317 270.653C353.317 266.462 355.137 267.129 359.177 267.288C360.902 268.496 361.092 269.082 362.827 269.163C364.387 267.49 364.767 264.313 365.472 261.72C368.282 262.977 368.622 265.203 369.047 267.941C368.567 270.279 368.137 270.235 369.027 271.757L369.767 272.024C372.977 273.199 373.662 273.362 374.677 276.773C374.722 278.185 374.377 278.505 375.327 279.439C382.167 286.133 378.187 290.283 370.532 293.422C367.332 299.219 364.827 294.092 360.587 298.024L355.162 321.441C352.947 332.002 350.962 342.61 349.217 353.259C348.027 360.655 346.962 369.581 345.567 376.766C348.087 377.305 363.637 379.283 365.357 378.83L365.707 377.84C363.212 369.674 362.017 359.583 361.077 351.159C360.482 345.813 360.292 320.449 367.477 319.803C370.187 321.547 370.412 324.877 371.112 328.046C372.852 338.981 374.202 354.843 372.822 366.051L372.992 366.428C374.002 365.711 376.132 357.636 376.702 355.762C380.362 344.613 384.782 333.543 388.157 322.385C383.147 318.374 373.017 306.63 380.367 299.892C382.362 298.061 385.197 299.363 387.612 300.117C391.207 297.683 388.387 289.18 398.867 295.604C400.022 294.216 400.602 291.937 401.252 290.121C394.372 285.017 393.032 281.839 390.927 273.921C390.397 271.162 390.032 270.012 391.172 267.513C393.197 265.49 395.517 266.246 396.797 264.168C399.562 259.667 405.907 261.059 408.537 257.213C410.372 257.501 408.492 258.343 410.502 260.298L411.352 259.921C411.947 257.074 410.492 260.137 411.047 256.505C407.457 249.751 404.162 239.131 413.812 235.836C416.577 235.359 418.902 234.208 420.382 236.817L420.157 237.304L420.437 237.641L419.862 237.87L419.577 237.545L420.297 237.328C421.642 237.972 420.937 237.737 423.012 237.08C422.292 235.743 421.932 235.672 420.722 234.653C420.612 233.364 421.007 232.994 421.702 231.89L421.957 231.496C418.422 225.037 416.337 217.893 425.277 215.405C425.527 210.808 425.347 204.072 430.792 202.498C435.742 202.937 436.532 208.924 437.272 212.904L440.377 209.55L441.882 208.485C442.162 207.378 442.532 207.285 441.987 206.428C439.267 202.164 438.237 196.295 439.577 191.369C441.537 184.154 446.517 181.228 451.192 188.605L451.367 188.875C452.587 182.081 454.632 171.54 463.762 171.467C464.712 171.46 465.797 172.479 466.127 173.256C468.087 176.909 465.007 181.638 470.812 182.038C471.887 182.112 472.497 182.598 473.222 183.378C476.637 192.361 463.967 194.219 462.812 196.856C463.962 197.773 467.207 200.17 467.547 201.516C469.387 208.776 459.322 211.217 454.257 211.424C452.937 211.473 451.617 211.496 450.292 211.492C449.492 219.388 447.027 219.817 446.347 223.738C449.872 223.116 454.537 224.011 455.617 227.904C454.902 231.933 451.537 233.631 448.602 236.05C444.597 239.352 439.147 239.453 433.917 239.436C433.807 242.026 433.822 243.384 433.137 245.938C434.627 250.025 440.102 246.417 441.177 250.524C443.147 258.057 435.797 262.374 429.447 263.451C425.407 264.274 420.562 263.81 418.267 266.574L418.157 267.484C421.427 268.401 423.732 267.928 425.572 271.282C427.277 273.886 422.967 277.476 425.312 279.566C427.072 281.133 428.857 283.05 428.167 285.557C425.897 293.744 412.537 293.957 406.187 292.699L402.947 300.805C405.632 300.325 407.997 299.956 410.477 301.367C412.552 304.589 410.087 307.565 411.107 309.09C412.582 311.289 416.362 312.016 414.912 316.613C412.557 324.101 399.462 324.512 393.717 324.424C390.257 331.813 383.292 351.975 380.717 360.442C379.682 364.109 378.382 368.302 377.482 371.954L378.987 373.692C380.487 371.356 382.077 369.079 383.747 366.864C386.877 362.776 394.977 353.552 400.222 352.865C407.572 355.865 390.852 378.175 388.002 382.034L398.707 384.348C401.177 379.422 408.557 364.194 411.722 360.486C412.737 357.905 412.717 358.102 411.877 356.121C407.607 351.702 406.747 349.054 405.557 343.33C406.272 340.92 406.587 340.208 407.737 337.967C409.162 336.924 409.632 336.407 411.402 336.377C420.087 340.938 418.622 326.123 426.282 337.049C427.732 334.668 429.082 331.887 430.377 329.392C426.752 324.731 419.567 310.976 429.412 307.602C431.077 307.031 433.307 308.844 434.822 309.842C436.112 308.644 437.387 307.426 438.647 306.189C439.147 305.071 439.517 304.762 440.282 303.8C439.077 301.761 440.622 297.559 441.537 295.536C442.657 285.014 448.897 281.986 453.597 292.707L458.447 288.072C456.017 282.4 454.312 275.484 457.917 269.902C460.077 266.56 466.082 271.999 467.602 273.695L470.232 271.319L472.357 269.945C472.602 267.366 471.407 263.743 471.387 260.901C471.332 254.324 476.282 248.022 481.897 255.204C484.542 255.523 486.337 249.064 493.617 253.159C494.187 255.153 494.427 255.722 494.487 257.753C493.667 259.321 492.617 261.707 491.452 262.868C493.932 263.388 498.192 265.989 497.002 268.717C494.087 275.389 486.327 275.652 480.677 275.437C479.687 277.587 478.917 279.093 477.742 281.149C479.282 283.929 484.992 284.306 481.792 290.076C476.887 296.692 467.687 292.669 465.432 294.152L465.237 294.884L464.172 298.66C466.067 300.317 469.492 300.416 470.242 302.898C472.722 311.131 458.847 313.275 453.682 312.002C451.092 311.573 451.282 311.188 449.212 312.005C448.522 313.151 448.182 313.667 447.627 314.903C447.722 316.68 447.417 318.138 448.427 319.054C450.452 318.681 450.587 318.816 452.462 319.694L452.512 320.616C450.212 321.061 452.757 318.926 449.762 321.183C464.472 325.534 451.842 337.142 435.272 332.976C432.902 335.775 431.997 337.334 430.112 340.473C442.792 341.543 432.032 346.835 438.327 352.585L439.812 352.435C441.552 354.082 441.487 356.388 439.732 358.009C439.112 357.742 438.532 357.514 437.942 357.195C432.182 363.591 425.292 362.237 417.777 360.714C417.327 361.37 416.712 362.192 416.372 362.882C415.477 365.707 415.582 368.476 414.177 370.767C412.892 371.409 412.062 371.71 410.732 372.192C408.787 375.882 404.497 381.88 405.112 385.28C406.597 386.696 406.817 386.334 409.207 386.855C410.247 387.175 410.912 387.245 411.732 387.883C416.157 388.123 424.412 381.991 429.597 379.375C432.997 377.767 442.342 373.131 445.612 375.677C446.977 380.738 432.932 391.405 429.237 394.394C435.432 397.141 441.082 399.747 447.082 402.972C446.607 413.002 443.627 424.882 441.337 434.809C442.402 441.544 439.507 447.669 440.582 450.064L442.687 451.029C441.732 452.544 439.402 452.844 437.652 452.964L437.087 453.479C428.407 487.859 419.837 525.439 393.947 551.754C385.292 560.369 379.537 563.334 369.057 569.579C370.742 574.144 371.107 570.584 372.392 574.124C374.312 579.094 374.792 583.514 372.522 588.599C372.157 589.414 371.767 590.214 371.362 591.004C368.857 594.854 363.107 598.399 358.557 598.409C325.317 598.504 291.614 599.259 258.438 597.839C251.863 597.554 237.964 579.864 249.315 574.099C252.544 572.834 254.838 574.104 256.592 572.914C256.126 572.509 252.199 570.389 251.402 569.944C249.962 569.309 247.197 567.649 245.715 566.824C242.972 565.239 239.073 562.959 236.787 560.819C234.347 559.419 232.599 557.774 230.462 555.954C217.635 544.504 206.096 528.854 199.395 512.989L199.333 512.574C198.436 511.269 198.167 510.419 197.532 508.969C192.23 495.504 188.443 481.964 184.419 468.099L181.209 456.659C179.654 451.779 178.296 446.489 176.931 441.524C174.523 432.699 172.447 423.783 169.927 414.985C169.154 412.285 168.003 408.591 169.401 405.887C171.523 401.785 176.799 400.167 180.767 398.448C184.518 396.927 188.254 395.559 191.994 394.139C188.485 391.065 177.926 382.791 179.029 378.029L180.205 377.306C187.734 376.818 201.438 385.505 208.258 389.202L220.704 386.23C215.736 376.094 211.206 367.383 205.452 357.741C198.667 359.652 194.546 359.873 187.994 357.12L187.043 358.506L185.859 358.667C184.113 357.482 183.614 355.412 184.428 353.538C184.914 348.011 188.729 348.219 186.28 341.798C184.918 338.227 190.665 337.928 193.207 337.676C191.365 334.604 189.943 332.122 188.338 328.928C167.578 336.027 158.517 314.747 178.833 318.059C178.96 314.969 175.127 309.82 173.385 307.124C167.413 308.459 163.553 308.942 157.665 306.623C153.915 305.146 150.586 303.165 152.91 298.648C154.413 295.728 156.968 296.641 159.472 295.09L157.64 289.994C151.561 290.919 142.338 290.589 139.704 283.765C139.844 280.315 142.826 278.77 145.841 278.011C144.297 275.251 143.864 274.661 143.061 271.596C137.152 271.929 130.42 271.521 126.665 266.238C124.26 262.853 128.968 259.886 131.368 258.763C125.362 247.099 132.522 243.814 141.22 251.623C144.103 247.201 148.292 245.145 150.831 251.487C152.976 256.845 152.279 260.961 150.236 266.093C152.707 267.47 153.957 268.472 156.155 270.174C162.532 257.76 171.552 268.782 164.643 284.453C167.543 285.794 167.832 287.16 169.856 287.598C171.394 284.775 173.407 281.88 176.792 281.444C183.269 283.832 182.181 294.02 180.143 299.263L180.436 300.568C181.42 301.016 181.92 301.133 182.71 301.792C185.122 303.204 185.609 303.449 187.459 305.508L188.91 305.922C190.306 304.762 192.409 302.851 194.197 303.515C204.117 307.198 196.223 321.531 192.513 326.109C193.936 328.335 194.75 329.537 195.798 332.016L196.911 332.69C198.607 331.631 198.01 331.584 199.158 330.372C200.212 327.665 201.888 326.727 204.543 328.151C205.783 330.163 205.687 329.187 205.396 331.093C205.694 332.016 207.365 334.332 208.182 335.08C209.676 333.937 210.368 333.172 212.224 332.895C223.376 335.249 215.025 349.87 210.298 354.989C215.285 365.031 220.857 375.04 225.934 385.186L237.798 382.595C233.996 376.882 220.329 355.527 224.111 349.741C232.618 348.083 246.325 373.104 249.945 379.834C246.565 361.814 239.638 332.387 233.67 314.964C230.533 314.93 228.943 315.023 225.852 314.208C224.5 313.881 223.166 313.482 221.856 313.012C215.83 310.851 211.47 306.851 214.216 300.261C215.63 299.555 216.007 299.436 217.25 298.423C218.232 295.959 217.287 295.526 217.244 292.977C219.433 287.932 222.518 290.443 226.233 289.798C226.687 288.759 224.966 283.277 224.559 281.721C217.834 282.09 208.257 281.488 204.049 275.754C201.649 272.486 203.499 268.235 206.706 266.744C208.83 265.756 205.474 261.117 207.525 257.313C210.053 255.036 212.073 256.004 215.357 256.085L215.892 255.342C214.817 250.265 207.784 251.64 203.829 250.278C199.273 248.708 192.053 243.37 192.689 237.844C193.304 232.493 199.772 234.406 201.7 232.876C202.038 232.067 201.597 227.841 201.81 225.565C184.09 223.381 177.113 207.342 194.098 209.524L193.074 202.654C188.242 202.812 176.683 200.628 176.495 193.547C176.338 187.647 182.301 189.221 184.235 187.188C184.51 186.175 183.383 182.527 183.273 179.899C178.546 178.87 164.917 174.208 168.636 166.105C169.419 164.399 172.81 163.76 174.569 163.421Z" fill="#000000"/>
<path d="M176.931 441.524C179.27 439.459 178.376 436.059 180.852 436.054C183.191 436.054 187.128 438.529 188.876 440.324C189.407 441.934 188.922 442.664 187.605 443.754C190.923 445.424 195.004 447.619 198.397 448.909C204.377 451.709 211.128 453.984 217.405 456.089C234.012 460.929 248.464 464.524 265.773 466.694C267.655 466.944 270.399 467.429 272.205 467.349C292.284 470.829 325.847 469.534 346.032 467.519L359.992 465.579C383.587 462.554 409.582 453.229 431.162 443.439C430.307 448.064 428.877 453.544 427.792 458.199L426.562 462.779C417.892 492.479 413.442 516.279 392.787 541.294L393.967 542.519C393.852 545.604 392.197 549.284 393.947 551.754C385.292 560.369 379.537 563.334 369.057 569.579C370.742 574.144 371.107 570.584 372.392 574.124C374.312 579.094 374.792 583.514 372.522 588.599C372.157 589.414 371.767 590.214 371.362 591.004C368.857 594.854 363.107 598.399 358.557 598.409C325.317 598.504 291.614 599.259 258.438 597.839C251.863 597.554 237.964 579.864 249.315 574.099C252.544 572.834 254.838 574.104 256.592 572.914C256.126 572.509 252.199 570.389 251.402 569.944C249.962 569.309 247.197 567.649 245.715 566.824C242.972 565.239 239.073 562.959 236.787 560.819C234.347 559.419 232.599 557.774 230.462 555.954C217.635 544.504 206.096 528.854 199.395 512.989L199.333 512.574C198.436 511.269 198.167 510.419 197.532 508.969C192.23 495.504 188.443 481.964 184.419 468.099L181.209 456.659C179.654 451.779 178.296 446.489 176.931 441.524Z" fill="white"/>
<path d="M392.787 541.294L393.967 542.519C393.852 545.604 392.197 549.284 393.947 551.754C385.292 560.369 379.537 563.334 369.057 569.579C370.742 574.144 371.107 570.584 372.392 574.124C374.312 579.094 374.792 583.514 372.522 588.599C372.157 589.414 371.767 590.214 371.362 591.004C368.857 594.854 363.107 598.399 358.557 598.409C325.317 598.504 291.614 599.259 258.438 597.839C251.863 597.554 237.964 579.864 249.315 574.099C252.544 572.834 254.838 574.104 256.592 572.914L257.127 571.624C259.684 569.514 263.841 572.174 267.659 571.584L268.401 570.199L270.532 569.624C281.477 573.164 306.982 574.804 318.722 573.654C323.232 573.534 327.632 573.149 332.122 572.789C356.882 568.734 369.877 563.009 388.327 546.124L388.482 545.774L392.787 541.294Z" fill="#000000"/>
<path d="M318.722 573.654C323.232 573.534 327.632 573.149 332.122 572.789L330.822 574.039L331.217 574.769C334.922 575.619 337.057 573.939 339.667 574.709L339.907 575.434C336.602 579.309 323.107 573.934 318.722 573.654Z" fill="#000000"/>
<path d="M369.057 569.579C370.742 574.144 371.107 570.584 372.392 574.124C370.382 573.734 366.152 573.499 364.942 572.499C365.622 571.129 367.597 570.354 369.057 569.579Z" fill="white"/>
<path d="M388.327 546.124L388.482 545.774C390.372 546.849 390.172 546.349 390.912 547.969C390.362 549.624 390.867 549.014 389.367 549.874L388.417 549.584C387.762 547.804 387.997 548.254 388.327 546.124Z" fill="#000000"/>
<path d="M253.325 581.989C278.175 580.574 306.157 581.974 331.277 581.419C336.367 581.304 362.647 581.284 365.677 582.194C367.032 584.524 364.487 586.859 362.877 588.699C362.217 589.829 361.552 590.954 360.872 592.074C360.652 592.169 349.617 591.344 348.337 591.259L296.357 591.399C286.672 591.449 276.725 591.699 267.049 591.259C260.146 590.944 254.958 589.434 253.325 581.989Z" fill="white"/>
<path d="M362.877 588.699C362.217 589.829 361.552 590.954 360.872 592.074C360.652 592.169 349.617 591.344 348.337 591.259C353.762 590.664 358.052 591.414 362.877 588.699Z" fill="#000000"/>
<path d="M279.925 573.594C282.11 573.594 281.659 573.259 283.094 574.319L282.851 574.379L283.501 575.054L284.162 575.139L284.602 575.579L284.478 574.859L284.748 575.409L284.242 575.839C282.441 575.769 280.116 575.954 278.7 575.164L278.646 574.354L279.131 574.409L279.925 573.594Z" fill="#000000"/>
<path d="M176.931 441.524C179.27 439.459 178.376 436.059 180.852 436.054C183.191 436.054 187.128 438.529 188.876 440.324C189.407 441.934 188.922 442.664 187.605 443.754L186.368 443.704C186.013 444.979 186.038 444.349 186.257 445.594C186.999 448.219 188.502 453.044 188.924 455.544C189.441 457.099 190.015 459.434 191.066 460.569L191.022 462.519C191.876 465.264 192.733 467.854 193.349 470.664C195.083 476.364 197.794 484.424 199.112 490.029C200.69 493.394 201.26 496.519 202.493 499.299C209.943 519.944 219.448 535.519 235.389 550.724C233.928 552.939 233.116 551.809 231.771 555.074L230.462 555.954C217.635 544.504 206.096 528.854 199.395 512.989L199.333 512.574C198.436 511.269 198.167 510.419 197.532 508.969C192.23 495.504 188.443 481.964 184.419 468.099L181.209 456.659C179.654 451.779 178.296 446.489 176.931 441.524Z" fill="#000000"/>
<path d="M193.349 470.664C195.083 476.364 197.794 484.424 199.112 490.029C198.256 489.119 197.895 488.254 196.894 487.259C195.063 486.919 193.042 486.614 191.776 485.314C191.061 479.974 193.01 476.614 193.316 471.334L193.349 470.664Z" fill="#000000"/>
<path d="M200.475 501.474C202.032 503.004 201.672 502.139 202.045 503.939C201.112 505.479 200.826 505.749 199.664 507.069C199.188 504.049 199.117 504.064 200.475 501.474Z" fill="#000000"/>
<path d="M228.886 549.214C229.565 549.329 230.365 549.544 231.047 549.709C231.614 551.024 231.369 550.719 230.699 552.524C229.077 551.609 229.253 550.839 228.886 549.214Z" fill="#000000"/>
<path d="M197.81 495.434C199.282 496.284 198.895 495.849 199.868 497.109L199.228 499.039L198.305 498.484C197.36 496.689 197.608 497.654 197.81 495.434Z" fill="#000000"/>
<path d="M235.389 550.724L236.99 551.884C245.901 558.574 251.116 561.589 261.279 566.174C263.542 567.064 268.404 569.109 270.532 569.624L268.401 570.199L267.659 571.584C263.841 572.174 259.684 569.514 257.127 571.624L256.592 572.914C256.126 572.509 252.199 570.389 251.402 569.944C249.962 569.309 247.197 567.649 245.715 566.824C242.972 565.239 239.073 562.959 236.787 560.819C234.347 559.419 232.599 557.774 230.462 555.954L231.771 555.074C233.116 551.809 233.928 552.939 235.389 550.724Z" fill="#000000"/>
<path d="M245.715 566.824C247.3 566.484 247.442 566.399 248.612 565.279C250.324 565.184 250.4 565.074 252.04 565.729C252.3 568.429 250.223 567.089 251.665 569.404C251.839 569.379 252.013 569.359 252.187 569.334C255.207 567.824 258.761 569.344 260.969 568.044L261.279 566.174C263.542 567.064 268.404 569.109 270.532 569.624L268.401 570.199L267.659 571.584C263.841 572.174 259.684 569.514 257.127 571.624L256.592 572.914C256.126 572.509 252.199 570.389 251.402 569.944C249.962 569.309 247.197 567.649 245.715 566.824Z" fill="#000000"/>
<path d="M235.389 550.724L236.99 551.884C236.398 552.974 236.015 553.179 236.394 554.119C236.942 555.479 234.815 557.514 236.257 559.024C236.832 559.624 236.731 559.919 236.787 560.819C234.347 559.419 232.599 557.774 230.462 555.954L231.771 555.074C233.116 551.809 233.928 552.939 235.389 550.724Z" fill="#000000"/>
<path d="M188.924 455.544C190.684 456.129 190.902 456.359 192.762 455.764C193.767 457.189 193.73 457.069 193.949 458.794C193.352 460.474 193.888 459.899 192.384 460.654L191.066 460.569C190.015 459.434 189.441 457.099 188.924 455.544Z" fill="white"/>
<path d="M305.112 499.869C308.852 494.444 314.002 488.409 319.857 495.719L320.597 497.744C321.112 500.349 321.582 502.964 322.012 505.584C326.962 500.359 332.212 499.774 335.877 506.724C338.007 512.534 336.477 516.804 331.307 520.269L330.137 520.984C329.902 521.779 329.817 521.394 330.592 521.999C334.717 525.194 338.447 527.839 339.467 533.354C340.347 538.104 336.582 541.614 332.092 542.149C326.992 542.759 323.212 540.504 319.367 537.489C321.322 545.049 321.062 559.099 307.927 553.094C304.282 551.424 302.972 544.694 302.317 540.794C298.342 542.754 295.147 544.579 290.473 543.974C285.756 543.364 281.873 539.679 282.959 534.649C284.072 529.499 288.474 527.084 292.596 524.489C291.558 524.134 290.533 523.749 289.522 523.324C285.146 521.454 278.078 516.704 280.946 510.989C282.641 507.609 286.42 506.629 289.747 505.489C289.519 491.904 296.066 491.569 305.112 499.869Z" fill="#000000"/>
<path d="M335.877 506.724C338.007 512.534 336.477 516.804 331.307 520.269C333.292 516.964 335.682 510.429 335.877 506.724Z" fill="#000000"/>
<path d="M304.347 516.404C307.937 513.044 313.572 513.239 316.917 516.839C320.027 520.189 320.087 525.349 317.057 528.769C314.022 532.189 308.892 532.744 305.197 530.059C301.502 527.374 300.447 522.319 302.767 518.379C303.197 517.649 303.727 516.984 304.347 516.404Z" fill="white"/>
<path d="M295.076 514.094C300.027 512.389 300.112 516.129 304.347 516.404C303.727 516.984 303.197 517.649 302.767 518.379C302.622 516.654 302.922 516.559 302.007 515.514C300.432 516.569 301.242 519.154 299.137 521.079L298.002 520.959C297.302 519.084 298.962 519.274 298.692 517.104C297.622 517.119 296.547 517.139 295.473 517.164L295.019 516.579L294.139 516.179C292.769 515.549 291.295 515.029 290.838 513.779C292.411 513.244 293.434 513.699 295.076 514.094Z" fill="#000000"/>
<path d="M295.019 516.579L294.139 516.179C292.769 515.549 291.295 515.029 290.838 513.779C292.411 513.244 293.434 513.699 295.076 514.094C296.324 515.054 296.862 515.089 297.192 516.294C295.97 516.804 296.457 516.649 295.019 516.579Z" fill="white"/>
<path d="M310.387 537.119C313.037 538.564 312.462 542.619 312.422 545.294C309.012 542.329 309.377 541.279 310.387 537.119Z" fill="white"/>
<path d="M328.342 510.269C328.942 510.569 328.602 510.329 329.167 511.199C327.977 513.889 325.337 514.689 322.637 515.949C322.237 515.889 322.482 515.969 322.032 515.464C322.942 513.939 326.712 511.464 328.342 510.269Z" fill="white"/>
<path d="M299.212 530.849C299.782 531.379 299.532 531.014 299.712 532.079C298.167 534.289 295.499 534.989 293.015 535.704C292.85 535.494 292.959 535.684 292.735 534.834C294.689 533.319 297.047 532.084 299.212 530.849Z" fill="white"/>
<path d="M322.617 530.829C326.177 531.049 328.752 532.009 331.347 534.439C327.932 534.604 324.867 533.364 322.617 530.829Z" fill="white"/>
<path d="M314.312 500.204C315.072 501.859 315.432 503.974 315.047 505.769L314.422 505.324C314.112 503.074 314.132 502.484 314.312 500.204Z" fill="#000000"/>
<path d="M284.507 516.569L285.327 516.249C286.331 517.134 285.998 517.149 286.157 518.959L284.16 517.244L284.507 516.569Z" fill="#000000"/>
<path d="M375.212 522.354C369.847 527.254 361.312 532.534 355.347 536.749C353.682 537.929 350.462 538.609 348.317 538.114L347.977 537.364C350.512 531.959 363.832 526.109 368.862 522.144C379.117 514.059 389.807 504.744 395.827 492.749C399.777 485.179 402.167 474.769 409.867 470.034C412.027 468.704 414.362 471.144 414.892 473.419L414.082 477.149C411.322 483.224 410.202 484.139 404.292 487.369C404.232 489.164 404.157 489.894 402.787 491.334L402.942 491.554C406.452 491.054 413.037 489.864 413.387 495.164C410.432 501.539 402.267 500.579 396.532 499.949C393.902 502.734 392.572 504.939 390.477 508.139C394.657 507.434 399.417 506.374 403.287 508.484C404.367 510.319 404.157 509.374 404.077 511.384C401.247 515.999 393.967 517.239 389.032 515.569C387.612 515.089 387.507 513.034 387.147 511.619C384.957 513.029 381.802 516.284 379.837 518.214L375.212 522.354Z" fill="#000000"/>
<path d="M402.942 491.554C400.907 491.954 401.597 492.229 400.212 491.539C400.417 489.454 402.642 488.254 404.292 487.369C404.232 489.164 404.157 489.894 402.787 491.334L402.942 491.554Z" fill="white"/>
<path d="M238.53 504.819C235.879 483.844 251.312 489.249 247.73 504.934L247.431 505.614C245.87 509.069 244.538 510.454 242.171 513.409C245.098 518.849 258.87 526.559 264.301 530.464C267.374 532.669 272.248 533.909 271.639 538.634C268.147 540.389 250.439 526.094 247.261 523.204C246.222 523.164 245.313 523.144 244.277 523.034C243.021 521.224 243.133 521.264 241.145 520.389C241.021 519.589 241.055 518.144 241.044 517.279C235.384 511.724 230.379 505.284 224.518 500.009C223.97 499.949 223.423 499.894 222.875 499.834C223 499.454 223.33 499.169 223.63 498.824C225.372 498.649 225.91 498.544 227.538 497.919C229.168 500.074 232.166 503.649 234.231 505.374L234.923 505.244C236.021 506.114 236.124 506.444 237.455 506.489C238.35 505.629 238.066 506.004 238.53 504.819Z" fill="#000000"/>
<path d="M238.53 504.819C235.879 483.844 251.312 489.249 247.73 504.934C244.354 504.114 244.788 504.109 242.462 507.109L241.548 506.824C240.317 504.169 242.262 503.209 240.77 500.524L240.395 500.964C240.733 504.554 240.101 502.344 238.804 505.424L238.53 504.819Z" fill="#000000"/>
<path d="M238.53 504.819L238.804 505.424C239.428 508.274 240.424 510.444 241.519 513.129C239.28 510.864 235.958 507.874 234.231 505.374L234.923 505.244C236.021 506.114 236.124 506.444 237.455 506.489C238.35 505.629 238.066 506.004 238.53 504.819Z" fill="white"/>
<path d="M241.044 517.279L247.261 523.204C246.222 523.164 245.313 523.144 244.277 523.034C243.021 521.224 243.133 521.264 241.145 520.389C241.021 519.589 241.055 518.144 241.044 517.279Z" fill="white"/>
<path d="M216.491 478.179L218.872 484.554L221.688 484.504C222.172 483.284 222.549 483.059 223.539 482.204C224.487 480.989 225.086 479.684 226.547 479.474C231.585 478.759 232.89 485.179 232.79 488.874C232.666 493.444 231.326 495.619 227.538 497.919C225.91 498.544 225.372 498.649 223.63 498.824C223.33 499.169 223 499.454 222.875 499.834C217.005 504.994 205.944 499.634 207.726 492.954C211.25 489.039 216.52 492.124 220.601 493.794C217.851 489.009 217.553 488.519 212.87 485.679C214.418 485.714 213.931 485.839 215.342 485.389C215.704 484.354 215.902 480.374 216.491 478.179Z" fill="#000000"/>
<path d="M216.491 478.179L218.872 484.554C220.442 488.404 221.632 491.889 224.606 494.874C223.322 494.944 221.619 494.644 220.601 493.794C217.851 489.009 217.553 488.519 212.87 485.679C214.418 485.714 213.931 485.839 215.342 485.389C215.704 484.354 215.902 480.374 216.491 478.179Z" fill="#000000"/>
<path d="M218.872 484.554L221.688 484.504C222.172 483.284 222.549 483.059 223.539 482.204C222.783 489.794 223.861 488.654 224.606 494.874C221.632 491.889 220.442 488.404 218.872 484.554Z" fill="white"/>
<path d="M358.562 518.924C358.272 518.494 357.987 518.059 357.712 517.614C355.247 513.589 353.102 503.384 358.227 500.694C360.152 500.404 360.717 500.979 362.422 501.964C367.092 508.839 366.487 514.659 363.692 522.044C363.012 523.319 363.522 522.904 362.342 523.534C360.827 522.849 359.957 521.059 359.007 519.589L358.562 518.924Z" fill="#000000"/>
<path d="M358.562 518.924C358.272 518.494 357.987 518.059 357.712 517.614C355.247 513.589 353.102 503.384 358.227 500.694C360.152 500.404 360.717 500.979 362.422 501.964L359.922 503.154C360.097 508.774 361.302 511.154 358.482 516.139L358.562 518.924Z" fill="#000000"/>
<path d="M359.007 519.589C361.777 519.994 361.172 519.769 363.692 522.044C363.012 523.319 363.522 522.904 362.342 523.534C360.827 522.849 359.957 521.059 359.007 519.589Z" fill="#000000"/>
<path d="M255.017 503.704C256.289 501.364 256.36 500.869 259.042 500.464C260.81 501.004 261.182 501.544 262.517 502.799C264.708 508.044 263.038 511.909 261.423 517.159C260.264 519.654 259.137 521.834 257.855 524.259C254.039 518.809 253.341 517.179 253.355 510.409C253.505 507.769 253.964 506.079 255.017 503.704Z" fill="#000000"/>
<path d="M370.382 494.939C373.087 484.374 383.512 493.779 378.502 508.294L377.147 510.594C375.392 511.354 376.282 511.254 374.367 510.844C369.802 507.334 368.717 500.239 370.382 494.939Z" fill="#000000"/>
<path d="M370.382 494.939L370.837 495.834C371.042 495.334 371.247 494.834 371.452 494.334C372.687 495.974 372.032 497.699 372.352 498.129C375.182 501.884 376.737 503.784 378.502 508.294L377.147 510.594C375.392 511.354 376.282 511.254 374.367 510.844C369.802 507.334 368.717 500.239 370.382 494.939Z" fill="#000000"/>
<path d="M375.212 522.354L379.837 518.214C383.352 520.459 382.367 517.764 385.247 520.199C388.862 520.744 395.967 521.109 394.722 526.479C389.927 532.349 381.647 528.449 376.882 524.659L375.567 522.974L375.212 522.354Z" fill="#000000"/>
<path d="M375.212 522.354L379.837 518.214C383.352 520.459 382.367 517.764 385.247 520.199L383.207 520.559C379.727 520.224 378.552 521.079 375.567 522.974L375.212 522.354Z" fill="white"/>
<path d="M244.277 523.034C240.686 527.589 235.215 530.714 229.344 528.579C226.414 527.514 224.047 523.879 226.558 521.119C227.574 519.944 230.644 518.799 232.167 518.974C235.349 519.339 237.758 520.504 241.145 520.389C243.133 521.264 243.021 521.224 244.277 523.034Z" fill="#000000"/>
<path d="M387.962 479.154C398.707 479.649 393.667 492.364 390.877 498.269C388.207 498.919 385.867 496.219 385.382 493.754C384.247 487.954 384.977 484.169 387.962 479.154Z" fill="#000000"/>
<path d="M373.652 539.834C371.382 538.419 369.942 537.624 369.317 534.974C371.477 528.264 393.257 531.364 384.452 540.714C381.032 542.369 377.057 540.889 373.652 539.834Z" fill="#000000"/>
<path d="M373.652 539.834C377.407 537.874 375.047 538.944 376.967 536.864C378.592 535.094 379.457 539.389 381.207 534.604C381.917 535.934 382.287 538.644 381.792 540.084L384.452 540.714C381.032 542.369 377.057 540.889 373.652 539.834Z" fill="#000000"/>
<path d="M212.87 485.679C207.885 483.204 200.883 474.554 207.05 470.069C212.19 468.749 214.696 474.419 216.491 478.179C215.902 480.374 215.704 484.354 215.342 485.389C213.931 485.839 214.418 485.714 212.87 485.679Z" fill="#000000"/>
<path d="M219.807 506.959C223.386 506.899 233.492 507.754 232.247 513.124C230.768 514.839 230.592 514.854 228.503 515.869C222.71 515.944 208.797 513.709 219.807 506.959Z" fill="#000000"/>
<path d="M241.38 532.649C244.88 532.334 247.891 531.889 249.307 535.869C249.214 539.584 246.376 540.634 243.273 541.449C239.591 541.439 236.773 541.434 235.378 537.454C235.879 533.669 237.987 533.324 241.38 532.649Z" fill="#000000"/>
<path d="M240.969 534.159C242.564 534.259 244.675 533.609 245.725 535.189C244.344 536.454 242.069 536.344 240.089 536.524L238.497 536.764C238.031 538.074 238.261 537.599 237.285 538.684L236.653 538.144C236.327 536.489 236.238 537.259 236.868 535.739C238.177 534.604 239.27 534.539 240.969 534.159Z" fill="#000000"/>
<path d="M414.892 473.419C416.722 472.884 415.887 472.804 417.502 473.464C418.217 475.494 418.127 476.554 416.677 478.204C415.127 478.349 415.167 478.544 414.082 477.149L414.892 473.419Z" fill="white"/>
<path d="M275.868 470.554L276.323 471.414C275.18 472.284 274.128 472.109 272.45 472.324L272.041 471.374C273.286 470.369 273.901 470.694 275.868 470.554Z" fill="white"/>
<path d="M431.097 417.774C433.637 416.698 435.372 415.739 437.757 414.425C436.427 421.156 434.842 426.747 432.977 433.364L426.242 436.879L425.992 437.174C420.812 439.444 411.797 442.854 407.212 445.129L406.267 445.114C392.112 450.399 378.757 453.739 363.902 456.654C360.712 457.259 351.412 458.564 348.987 459.219C343.547 459.769 338.117 460.384 332.692 461.069C332.207 461.109 331.317 461.124 330.927 461.289C318.787 461.519 308.872 462.114 296.346 461.819C274.331 461.189 252.474 457.894 231.255 451.999C226.718 451.459 208.31 444.504 203.469 442.709L192.669 438.124C190.792 436.884 185.271 434.294 182.597 432.749C180.91 427.53 179.246 420.258 177.849 414.798C186.551 419.481 192.622 422.443 201.791 426.086C204.603 427.286 207.436 428.441 210.287 429.548L216.261 431.669L217.223 431.194C218.561 430.735 219.515 430.484 220.726 429.724L219.778 428.329L221.412 427.404C223.063 427.067 224.378 426.651 225.979 426.164C228.095 426.786 231.09 427.766 233.181 428.177C232.801 426.974 232.819 427.307 232.771 426.078C234.432 426.164 234.533 426.131 235.944 425.251C236.84 426.369 238.54 428.448 238.676 429.907L239.492 430.057C242.429 428.761 240.341 428.934 243.923 428.673C246.549 433.209 255.725 432.814 260.862 433.854C261.862 435.234 266.526 435.344 268.054 434.714C271.329 434.364 272.755 434.934 275.864 434.954C275.391 437.354 275.962 436.439 274.427 437.974C272.172 438.359 270.095 437.919 269.182 440.084L270.817 441.179C270.916 442.154 270.994 441.779 270.825 442.329C282.735 441.534 293.254 443.659 305.747 443.674C313.067 443.684 334.632 441.999 339.872 443.214C356.552 441.399 377.502 438.689 393.382 433.304C398.992 432.354 416.967 424.761 422.252 422.199L424.442 421.227C427.002 420.082 428.697 419.14 431.097 417.774Z" fill="white"/>
<path d="M235.944 425.251C236.84 426.369 238.54 428.448 238.676 429.907L239.492 430.057C242.429 428.761 240.341 428.934 243.923 428.673C246.549 433.209 255.725 432.814 260.862 433.854C261.862 435.234 266.526 435.344 268.054 434.714C271.329 434.364 272.755 434.934 275.864 434.954C275.391 437.354 275.962 436.439 274.427 437.974C272.172 438.359 270.095 437.919 269.182 440.084L270.817 441.179C270.916 442.154 270.994 441.779 270.825 442.329L270.673 442.784C252.575 440.734 239.701 438.209 222.264 433.529C220.393 432.844 218.193 432.244 216.261 431.669L217.223 431.194C218.561 430.735 219.515 430.484 220.726 429.724L219.778 428.329L221.412 427.404C223.063 427.067 224.378 426.651 225.979 426.164C228.095 426.786 231.09 427.766 233.181 428.177C232.801 426.974 232.819 427.307 232.771 426.078C234.432 426.164 234.533 426.131 235.944 425.251Z" fill="#000000"/>
<path d="M221.412 427.404C223.041 427.831 223.419 427.599 224.174 428.649L222.097 430.319C222.607 430.635 223.117 430.949 223.626 431.264C223.242 432.664 223.279 432.279 222.264 433.529C220.393 432.844 218.193 432.244 216.261 431.669L217.223 431.194C218.561 430.735 219.515 430.484 220.726 429.724L219.778 428.329L221.412 427.404Z" fill="#000000"/>
<path d="M235.944 425.251C236.84 426.369 238.54 428.448 238.676 429.907L233.181 428.177C232.801 426.974 232.819 427.307 232.771 426.078C234.432 426.164 234.533 426.131 235.944 425.251Z" fill="white"/>
<path d="M270.825 442.329C282.735 441.534 293.254 443.659 305.747 443.674C313.067 443.684 334.632 441.999 339.872 443.214C319.457 445.204 290.997 445.034 270.673 442.784L270.825 442.329Z" fill="#000000"/>
<path d="M252.442 452.909C255.209 452.664 258.734 451.964 260.922 453.429L260.576 454.789C255.89 454.139 256.948 456.269 252.442 452.909Z" fill="white"/>
<path d="M363.732 452.664C364.227 452.859 363.947 452.684 364.387 453.409C363.342 454.289 360.447 454.529 358.837 454.824C358.112 453.634 358.157 454.234 358.417 453.019C359.767 452.379 362.117 452.624 363.732 452.664Z" fill="white"/>
<path d="M257.979 392.424C257.784 390.794 257.705 390.607 257.905 388.928C259.958 386.612 265.406 386.906 269.352 386.285C270.277 389.592 273.325 396.044 274.952 399.355C281.496 412.676 284.405 421.15 284.38 435.959L275.864 434.954C272.755 434.934 271.329 434.364 268.054 434.714C266.017 432.924 265.101 426.02 264.315 422.81C264.184 419.896 258.778 394.68 257.979 392.424Z" fill="white"/>
<path d="M229.405 392.173C234.115 391.407 238.838 390.716 243.57 390.101C246.232 393.144 249.621 398.478 251.977 401.957L253.543 404.763C258.803 414.429 257.842 420.733 260.601 428.895C260.915 430.555 261.509 432.399 260.862 433.854C255.725 432.814 246.549 433.209 243.923 428.673C242.196 423.359 240.549 418.956 238.518 413.771C238.095 412.312 235.828 407.351 235.117 405.698C233.216 401.401 230.935 396.559 229.405 392.173Z" fill="white"/>
<path d="M382.012 389.73C386.537 390.099 390.432 390.758 394.892 391.49C391.747 398.786 387.722 407.465 384.967 414.774C383.852 417.63 380.267 427.264 378.892 429.385L361.137 432.724C363.207 422.634 364.357 415.23 369.167 406.027C370.757 404.098 371.427 403.104 372.742 400.967C375.097 398.822 379.592 392.567 382.012 389.73Z" fill="white"/>
<path d="M199.72 399.827C208.513 405.433 230.571 418.379 235.944 425.251C234.533 426.131 234.432 426.164 232.771 426.078C232.819 427.307 232.801 426.974 233.181 428.177C231.09 427.766 228.095 426.786 225.979 426.164C213.382 421.687 205.028 419.062 192.855 413.451L189.985 412.123C187.167 410.688 183.348 408.866 180.73 407.271C187.647 403.888 192.359 402.133 199.72 399.827Z" fill="white"/>
<path d="M384.967 414.774L387.037 414.312C387.132 414.16 387.227 414.008 387.322 413.856C390.077 412.344 393.827 404.044 397.122 406.689C397.732 408.427 397.897 408.677 397.852 410.579C396.822 411.378 396.712 411.238 395.372 411.346C394.457 413.318 395.497 414.678 395.002 417.288C397.157 415.749 399.287 414.177 401.397 412.571C400.587 415.593 400.937 414.152 398.372 416.37C396.232 418.222 393.682 420.382 392.387 422.89L392.417 423.664C394.077 424.875 395.027 423.471 397.512 423.781C402.112 422.977 417.302 416.078 421.847 413.958C424.662 413.76 425.517 413.585 428.227 414.524L428.652 412.911L429.367 412.774L430.372 413.856L431.317 413.699C431.047 417.273 429.942 415.232 431.097 417.774C428.697 419.14 427.002 420.082 424.442 421.227L422.252 422.199C416.967 424.761 398.992 432.354 393.382 433.304C391.602 433.449 390.262 433.294 388.497 433.154L388.147 431.934L387.137 431.919C386.372 433.429 386.792 432.999 385.577 434.019C385.262 432.419 383.817 431.974 383.002 429.737C381.442 430.929 380.932 431.679 379.242 430.735L378.892 429.385C380.267 427.264 383.852 417.63 384.967 414.774Z" fill="#000000"/>
<path d="M401.397 412.571C400.587 415.593 400.937 414.152 398.372 416.37C396.232 418.222 393.682 420.382 392.387 422.89L392.417 423.664C394.077 424.875 395.027 423.471 397.512 423.781C393.577 425.518 389.407 426.508 385.257 427.585C388.717 422.675 390.357 421.167 395.002 417.288C397.157 415.749 399.287 414.177 401.397 412.571Z" fill="white"/>
<path d="M391.102 428.655C392.392 429.298 392.802 429.673 392.702 431.054L391.832 431.264C389.882 431.059 389.982 431.379 388.707 430.359C389.302 429.094 389.432 429.399 391.102 428.655Z" fill="#000000"/>
<path d="M401.397 412.571C405.177 409.639 415.857 402.51 420.202 400.352C425.547 402.167 430.517 404.19 435.747 406.291C431.152 408.957 426.192 411.407 421.847 413.958C417.302 416.078 402.112 422.977 397.512 423.781C395.027 423.471 394.077 424.875 392.417 423.664L392.387 422.89C393.682 420.382 396.232 418.222 398.372 416.37C400.937 414.152 400.587 415.593 401.397 412.571Z" fill="white"/>
<path d="M203.469 442.709C208.31 444.504 226.718 451.459 231.255 451.999C230.469 454.384 229.049 456.279 226.32 456.319L225.772 455.564C226.622 454.829 226.399 454.974 227.405 454.419C224.705 453.689 221.187 454.059 218.457 454.624L217.405 456.089C211.128 453.984 204.377 451.709 198.397 448.909L197.859 447.774C198.859 446.944 200.108 446.839 201.418 446.554C200.822 445.209 201.032 445.679 199.782 444.619C201.172 442.924 200.894 443.434 203.469 442.709Z" fill="#000000"/>
<path d="M205.034 444.644C208.213 447.854 205.635 444.219 210.472 446.824C208.883 448.154 206.59 447.709 205.032 446.469L205.034 444.644Z" fill="#000000"/>
<path d="M273.206 244.55C275.59 244.939 277.97 242.064 280.67 244.876C286.445 250.891 277.93 260.191 273.028 263.267C272.27 256.942 274.346 262.193 275.109 255.863C273.939 256.72 273.494 257.367 272.276 257.479C272.607 255.846 272.955 254.589 273.412 252.984L273.182 250.901C270.716 248.668 272.356 246.995 273.206 244.55Z" fill="#000000"/>
<path d="M273.412 252.984C274.313 251.015 274.484 250.134 276.154 248.909L277.161 248.958C278.221 251.637 276.978 253.83 275.109 255.863C273.939 256.72 273.494 257.367 272.276 257.479C272.607 255.846 272.955 254.589 273.412 252.984Z" fill="white"/>
<path d="M411.047 256.505C412.402 257.937 413.872 259.56 415.252 260.936C414.317 262.712 413.272 264.601 412.457 266.421C411.517 263.544 410.687 261.523 407.972 259.97C404.177 259.847 402.012 264.156 399.952 267.053C399.757 266.996 399.557 266.938 399.357 266.88L398.502 266.649C392.917 265.012 391.622 269.514 390.927 273.921C390.397 271.162 390.032 270.012 391.172 267.513C393.197 265.49 395.517 266.246 396.797 264.168C399.562 259.667 405.907 261.059 408.537 257.213C410.372 257.501 408.492 258.343 410.502 260.298L411.352 259.921C411.947 257.074 410.492 260.137 411.047 256.505Z" fill="white"/>
<path d="M330.927 461.289C331.317 461.124 332.207 461.109 332.692 461.069C335.082 461.374 336.667 461.374 338.767 462.554C338.367 463.069 331.707 465.594 331.182 465.524C328.502 465.169 315.112 464.519 313.652 463.704C315.367 462.114 325.642 462.924 330.927 461.289Z" fill="#000000"/>
<path d="M309.097 314.468L309.932 314.786C309.677 313.462 312.817 324.825 312.147 323.325C312.697 322.124 312.552 322.185 312.737 320.811L313.477 320.833C313.272 325.039 313.022 329.242 312.722 333.442C311.862 330.48 312.412 328.374 311.732 325.552C310.377 326.319 308.672 329.775 308.412 331.482L307.697 331.417C307.742 326.906 308.667 319.213 309.097 314.468Z" fill="#000000"/>
<path d="M421.957 231.496L425.592 236.556C423.567 238.547 421.877 240.113 420.132 242.38C418.372 238.911 417.427 237.532 413.812 235.836C416.577 235.359 418.902 234.208 420.382 236.817L420.157 237.304L420.437 237.641L419.862 237.87L419.577 237.545L420.297 237.328C421.642 237.972 420.937 237.737 423.012 237.08C422.292 235.743 421.932 235.672 420.722 234.653C420.612 233.364 421.007 232.994 421.702 231.89L421.957 231.496Z" fill="white"/>
<path d="M202.156 198.91C204.558 196.115 205.204 195.299 207.038 192.095C207.772 194.432 208.109 194.257 207.679 196.326C206.43 197.502 206.486 197.492 204.957 198.244L204.924 199.044L205.973 200.177C207.077 199.869 206.808 199.876 207.797 199.109C208.698 199.563 209.684 200.026 210.545 200.536C209.182 201.819 207.7 203.437 206.381 204.803C204.952 201.991 204.176 201.218 202.156 198.91Z" fill="white"/>
<path d="M344.862 279.28C343.662 273.15 346.082 272.315 351.317 270.653C353.317 266.462 355.137 267.129 359.177 267.288C356.367 268.017 354.617 268.183 353.867 271.345C353.592 272.133 353.317 273.713 352.607 273.859C347.472 274.912 346.112 272.814 344.862 279.28Z" fill="white"/>
<path d="M441.337 434.809C442.402 441.544 439.507 447.669 440.582 450.064L442.687 451.029C441.732 452.544 439.402 452.844 437.652 452.964L437.087 453.479C438.317 447.319 439.897 440.949 441.337 434.809Z" fill="white"/>
<path d="M223.551 244.306C225.699 244.06 224.809 243.792 226.404 244.725L226.88 246.162L226.294 246.59C225.495 246.448 224.476 246.154 223.765 246.325C224.699 247.525 224.874 247.584 225.495 248.979C222.147 250.396 223.36 250.712 220.719 253.162C219.546 252.238 219.319 250.602 218.861 249.07L223.551 244.306Z" fill="white"/>
<path d="M438.647 306.189C439.147 305.071 439.517 304.762 440.282 303.8C439.077 301.761 440.622 297.559 441.537 295.536C442.167 301.518 443.072 303.076 446.207 308.147C443.052 306.987 442.052 306.498 438.647 306.189Z" fill="white"/>
<path d="M322.587 376.314L322.497 374.793C326.847 371.544 322.722 370.599 324.437 367.491C325.677 368.085 325.357 368.018 326.677 368.293C328.342 364.497 328.837 363.259 332.812 363.04C330.057 366.063 324.197 375.423 322.587 376.314Z" fill="white"/>
<path d="M201.791 426.086C203.611 425.831 203.486 425.802 205.233 426.347C205.733 424.938 205.599 425.339 205.701 423.794C206.783 422.621 206.146 422.973 207.635 422.626C210.406 425.202 208.219 425.587 212.272 425.968L212.416 426.525L212.033 426.9C211.06 427.87 210.469 428.22 210.287 429.548C207.436 428.441 204.603 427.286 201.791 426.086Z" fill="#000000"/>
<path d="M348.987 459.219C351.412 458.564 360.712 457.259 363.902 456.654C362.722 458.584 363.032 458.844 360.617 458.979C357.562 459.149 354.302 460.219 351.287 460.799C350.312 460.999 350.762 462.764 348.507 462.019C347.957 460.434 348.067 461.289 348.987 459.219Z" fill="#000000"/>
<path d="M192.669 438.124L203.469 442.709C200.894 443.434 201.172 442.924 199.782 444.619C197.422 444.939 196.906 444.619 195.265 445.834L195.411 444.959L195.813 445.144L195.436 444.819C195.834 442.654 195.376 443.584 196.892 441.949C196.225 441.044 195.583 441.199 194.143 440.854C193.029 440.034 193.068 439.494 192.669 438.124Z" fill="#000000"/>
<path d="M265.773 466.694C267.235 466.164 269.896 466.239 272.61 465.404L272.752 464.739C271.265 463.779 271.644 464.294 270.846 462.894C271.844 462.399 273.749 462.454 274.908 462.449L276.016 463.214C276.454 463.744 276.848 464.214 277.305 464.734L277.069 466.274L277.323 466.324C275.01 467.194 274.331 466.849 272.205 467.349C270.399 467.429 267.655 466.944 265.773 466.694Z" fill="#000000"/>
<path d="M257.979 392.424C256.77 390.711 256.688 390.068 256.501 388.084C258.876 382.66 263.933 385.8 268.526 385.651L269.353 385.62L269.352 386.285C265.406 386.906 259.958 386.612 257.905 388.928C257.705 390.607 257.784 390.794 257.979 392.424Z" fill="#000000"/>
<path d="M426.562 462.779L427.792 458.199C429.512 460.979 431.487 464.264 430.312 467.479L429.442 467.879C427.647 466.864 427.552 466.379 426.917 464.129C426.787 463.684 426.672 463.229 426.562 462.779Z" fill="#000000"/>
<path d="M447.627 314.903C447.722 316.68 447.417 318.138 448.427 319.054C450.452 318.681 450.587 318.816 452.462 319.694L452.512 320.616C450.212 321.061 452.757 318.926 449.762 321.183C447.832 321.433 445.332 322.179 444.017 321.424C444.107 319.734 446.567 316.516 447.627 314.903Z" fill="white"/>
<path d="M330.492 349.757L330.997 350.713C329.137 354.679 324.212 361.876 320.527 363.915C322.412 360.66 328.112 352.818 330.492 349.757Z" fill="white"/>
<path d="M251.977 401.957C252.007 399.465 252.93 396.644 255.622 395.774L256.663 396.371L256.515 396.039C257.543 399.982 254.143 400.552 253.543 404.763L251.977 401.957Z" fill="#000000"/>
<path d="M233.098 276.811C233.161 279.303 232.137 280.385 232.401 282.171C234.076 283.344 233.686 282.978 235.988 283.237C234.36 283.72 232.773 284.754 231.28 285.618L230.44 284.954C228.955 281.026 229.741 278.715 233.098 276.811Z" fill="white"/>
<path d="M407.212 445.129C409.687 444.989 411.002 444.474 413.282 445.624L413.577 446.364C411.672 448.264 409.142 448.214 406.912 446.884L406.267 445.114L407.212 445.129Z" fill="#000000"/>
<path d="M416.012 362.823L416.372 362.882C415.477 365.707 415.582 368.476 414.177 370.767C412.892 371.409 412.062 371.71 410.732 372.192C412.422 369.078 414.262 365.917 416.012 362.823Z" fill="white"/>
<path d="M370.532 293.422C367.332 299.219 364.827 294.092 360.587 298.024C361.757 293.796 366.117 294.696 370.532 293.422Z" fill="white"/>
<path d="M346.032 467.519L346.777 465.949C349.187 464.574 357.032 465.279 359.992 465.579L346.032 467.519Z" fill="#000000"/>
<path d="M274.908 462.449C276.694 460.649 282.051 461.729 284.279 462.599L284.706 463.154C280.464 464.279 279.687 462.744 276.016 463.214L274.908 462.449Z" fill="#000000"/>
<path d="M199.158 330.372C200.212 327.665 201.888 326.727 204.543 328.151C205.783 330.163 205.687 329.187 205.396 331.093C202.556 329.715 202.132 329.751 199.158 330.372Z" fill="white"/>
<path d="M438.327 352.585L439.812 352.435C441.552 354.082 441.487 356.388 439.732 358.009C439.112 357.742 438.532 357.514 437.942 357.195C438.452 355.659 438.322 354.218 438.327 352.585Z" fill="white"/>
<path d="M312.297 344.796C312.672 348.25 312.192 354.368 313.202 356.396C313.112 357.083 312.557 358.549 312.312 359.277C312.152 359.226 311.997 359.174 311.837 359.123C311.497 355.368 311.782 348.539 312.297 344.796Z" fill="white"/>
<path d="M217.223 431.194C216.332 430.64 216.157 430.48 215.345 429.822L215.24 428.777L216.324 428.056C217.828 427.876 218.43 427.649 219.778 428.329L220.726 429.724C219.515 430.484 218.561 430.735 217.223 431.194Z" fill="#000000"/>
<path d="M187.994 357.12L187.043 358.506L185.859 358.667C184.113 357.482 183.614 355.412 184.428 353.538C185.481 354.656 186.842 356.195 187.994 357.12Z" fill="white"/>
<path d="M425.992 437.174L426.242 436.879L428.732 437.234C429.452 438.209 429.257 437.879 429.687 439.004L429.392 440.099L428.332 440.094C426.462 439.684 425.787 439.944 425.042 438.784L425.992 437.174Z" fill="#000000"/>
<path d="M180.143 299.263L180.436 300.568C181.42 301.016 181.92 301.133 182.71 301.792C181.215 302.553 179.989 303.37 178.345 303.475C178.103 301.932 178.879 301.289 179.801 299.544L180.143 299.263Z" fill="white"/>
<path d="M189.985 412.123L192.855 413.451C191.563 413.838 191.25 414.547 190.405 415.655L190.06 416.114C188.61 416.201 188.544 416.35 187.299 415.694C189.069 413.427 188.138 416.144 190.596 413.622L189.985 412.123Z" fill="#000000"/>
<path d="M375.697 378.749C375.872 376.821 376.892 373.897 377.482 371.954L378.987 373.692C377.937 375.32 376.797 377.181 375.697 378.749Z" fill="white"/>
<path d="M423.867 441.279L424.327 440.204C426.027 439.959 426.662 440.019 428.332 440.094L428.342 441.374C426.802 442.069 425.877 441.564 423.867 441.279Z" fill="#000000"/>
<path d="M249.815 355.376L251.373 355.051C251.421 356.874 251.492 357.005 251.039 358.836C250.148 357.904 250.173 356.854 249.815 355.376Z" fill="white"/>
<path d="M296.337 384.191C298.877 383.946 302.722 383.96 305.357 383.903C305.212 401.3 305.417 418.698 305.967 436.089C302.592 436.194 298.527 436.019 295.097 435.954L289.511 435.814C288.958 421.253 287.458 399.295 285.789 384.925C288.897 384.489 293.114 384.37 296.337 384.191Z" fill="white"/>
<path d="M344.432 384.857C351.842 385.729 359.242 386.657 366.642 387.644C363.837 400.509 360.317 413.224 357.237 426.026C356.662 428.423 356.172 430.857 355.377 433.194C350.182 434.249 344.912 434.904 339.617 435.154C341.502 429.996 343.157 426.634 345.652 421.721C343.092 421.697 340.312 421.245 339.037 418.704C339.087 417 339.057 415.735 340.937 415.473C343.302 409.804 343.617 392.234 344.432 384.857Z" fill="white"/>
<path d="M354.452 392.512C354.132 399.499 353.067 405.515 350.412 411.995C347.372 407.83 349.862 411.785 346.347 408.993C348.817 402.726 348.222 400.695 349.842 395.352C352.247 395.106 352.857 394.262 354.452 392.512Z" fill="#000000"/>
<path d="M346.347 408.993C349.862 411.785 347.372 407.83 350.412 411.995C348.952 415.148 347.382 418.743 345.652 421.721C343.092 421.697 340.312 421.245 339.037 418.704C339.087 417 339.057 415.735 340.937 415.473C341.102 416.702 341.092 416.729 341.557 417.871C343.507 417.023 345.377 411.329 346.347 408.993Z" fill="#000000"/>
<path d="M349.842 395.352L349.267 394.777C347.667 395.555 346.212 398.565 344.867 400.407L344.387 400.203C345.907 396.414 347.702 393.391 351.587 391.627C353.092 391.688 353.077 391.811 354.452 392.512C352.857 394.262 352.247 395.106 349.842 395.352Z" fill="white"/>
<path d="M333.192 384.428C335.167 384.432 337.537 384.664 339.537 384.806C337.097 401.627 335.797 418.827 333.702 435.654C329.502 436.034 322.217 435.944 317.772 436.014L312.417 435.964C315.057 421.392 327.817 400.121 333.192 384.428Z" fill="white"/>
<path d="M188.125 384.338C196.467 385.17 219.953 403.071 225.697 410.068C216.567 407.054 195.223 390.701 188.125 384.338Z" fill="white"/>
<path d="M430.952 383.717L437.712 381.024C428.012 389.173 419.842 395.259 408.957 401.804L406.502 400.295L408.182 398.738L414.862 393.452C420.527 389.419 424.722 386.773 430.952 383.717Z" fill="white"/>
<path d="M310.807 384.06L319.157 383.986C315.192 393.422 313.652 398.563 311.062 408.634L310.587 408.709C310.547 401.267 310.222 391.277 310.807 384.06Z" fill="white"/>
<path d="M289.42 326.367C295.525 336.719 298.822 349.619 301.292 361.279L301.257 362.154C300.182 361.06 299.022 358.294 298.317 356.822C293.493 346.712 290.499 337.507 289.42 326.367Z" fill="white"/>
<path d="M260.11 325.444L261.507 326.242C261.691 336.842 260.135 350.429 256.223 360.323C256.277 348.266 257.014 337.156 260.11 325.444Z" fill="white"/>
<path d="M334.697 330.305C335.567 336.051 321.507 354.328 317.537 359.504C317.037 353.35 330.077 335.174 334.697 330.305Z" fill="white"/>
<path d="M394.837 361.305L395.262 362.138C392.417 370.015 381.462 383.324 375.832 389.653L375.402 389.415C376.087 384.062 390.202 365.845 394.837 361.305Z" fill="white"/>
<path d="M366.682 329.864C368.447 336.701 368.827 346.233 368.757 353.264C365.722 354.447 367.842 353.591 365.977 356.022C364.767 349.589 364.697 335.997 366.682 329.864Z" fill="white"/>
<path d="M275.133 385.57C277.038 385.433 278.653 385.156 280.468 385.72C281.069 387.89 282.649 401.508 281.756 402.794C279.747 398.642 275.703 390.496 274.556 386.399L275.133 385.57Z" fill="white"/>
<path d="M216.447 395.308L224.294 393.698C225.352 396.161 226.554 398.821 227.539 401.292C228.928 403.545 230.037 406.692 231.041 409.203C228.465 406.091 225.779 403.675 222.848 400.926C220.725 399.153 218.346 397.287 216.447 395.308Z" fill="white"/>
<path d="M222.848 400.926C227.121 399.311 225.085 400.951 227.539 401.292C228.928 403.545 230.037 406.692 231.041 409.203C228.465 406.091 225.779 403.675 222.848 400.926Z" fill="white"/>
<path d="M324.597 383.897C325.857 385.035 326.302 385.962 327.357 387.025C325.577 391.177 323.727 395.738 321.682 399.728C320.122 398.748 320.107 398.706 318.907 397.461C320.672 392.641 322.227 388.468 324.597 383.897Z" fill="white"/>
<path d="M427.532 241.141C427.827 241.33 428.452 241.942 428.742 242.206C430.067 246.859 425.472 252.174 422.217 255.081C421.792 255.195 422.077 255.156 421.362 254.956C421.577 249.493 423.337 244.805 427.532 241.141Z" fill="white"/>
<path d="M211.144 260.785C217.852 260.845 221.913 267.138 222.98 273.156L222.349 272.744C218.563 270.226 212.076 265.367 211.144 260.785Z" fill="white"/>
<path d="M211.146 240.526L210.728 240.049C207.869 236.718 206.439 233.845 206.369 229.418L206.973 228.77C210.808 230.163 214.451 238.622 213.277 242.453L212.658 242.712L211.146 240.526Z" fill="white"/>
<path d="M419.177 272.748L420.647 272.931C422.987 276.135 412.252 281.568 409.752 283.042L408.932 283.072L408.822 282.3C411.412 278.092 414.642 274.807 419.177 272.748Z" fill="white"/>
<path d="M197.512 238.486C203.61 237.884 206.265 241.868 209.075 246.735C204.254 245.646 198.949 243.714 197.512 238.486Z" fill="white"/>
<path d="M436.262 252.094C436.547 252.279 436.822 252.811 437.037 253.149L436.812 254.138C434.357 257.005 429.272 259.194 425.542 259.687L425.192 259.321L425.372 258.552C428.922 254.777 431.147 252.569 436.262 252.094Z" fill="white"/>
<path d="M394.352 405.578C396.072 401.996 397.667 396.744 400.377 393.912C401.017 393.244 401.587 393.581 402.912 393.662L406.017 394.62C402.077 398.217 398.187 401.87 394.352 405.578Z" fill="white"/>
<path d="M221.12 228.988C226.32 229.63 221.315 238.428 219.705 240.657L219.052 241.332L218.566 240.798C217.94 235.983 218.716 233.041 221.12 228.988Z" fill="white"/>
<path d="M199.277 209.501C198.657 207.671 197.251 205.111 199.301 204.041C200.754 204.599 201.203 205.492 202.151 206.748C203.42 209.745 204.476 211.693 204.059 214.987L203.278 215.273C201.085 213.797 200.482 211.941 199.277 209.501Z" fill="white"/>
<path d="M199.277 209.501C198.657 207.671 197.251 205.111 199.301 204.041C200.754 204.599 201.203 205.492 202.151 206.748C201.081 207.951 200.625 208.567 199.277 209.501Z" fill="white"/>
<path d="M245.67 294.224L246.448 294.746C248.361 298.949 243.615 303.662 240.668 306.211L240.38 306.23L240.046 305.79C241.181 300.905 241.867 297.506 245.67 294.224Z" fill="white"/>
<path d="M412.842 241.086C417.672 242.731 416.217 250.645 415.882 254.633C412.502 251.412 411.682 245.469 412.842 241.086Z" fill="white"/>
<path d="M445.557 228.99C446.062 229.034 447.127 229.093 447.577 229.202L447.932 230.195C445.037 233.689 443.282 233.839 438.962 234.346C437.792 234.398 437.962 234.369 436.787 234.172L436.717 233.383C438.972 230.654 442.297 229.785 445.557 228.99Z" fill="white"/>
<path d="M187.914 180.075C192.631 181.229 194.414 188.294 194.042 192.555C190.435 188.883 187.885 185.322 187.914 180.075Z" fill="white"/>
<path d="M394.087 298.138L395.247 299.198C396.952 303.418 395.307 307.024 393.617 311.067C390.527 308.234 392.192 301.352 394.087 298.138Z" fill="white"/>
<path d="M256.859 218.535L258.255 219.227C261.105 223.144 261.718 226.971 261.316 231.678C257.356 229.693 256.674 222.45 256.859 218.535Z" fill="white"/>
<path d="M235.41 288.283C239.091 291.864 236.667 297.469 235.382 301.652C233.344 297.047 232.055 292.473 235.41 288.283Z" fill="white"/>
<path d="M314.182 414.729C315.412 408.733 317.047 403.262 318.907 397.461C320.107 398.706 320.122 398.748 321.682 399.728C319.692 403.99 316.657 411.036 314.182 414.729Z" fill="white"/>
<path d="M461.187 176.637C461.787 176.769 461.962 176.912 462.517 177.182C463.332 181.302 460.257 184.673 457.707 187.587L457.097 187.774L456.547 187.183C456.732 183.512 458.547 179.251 461.187 176.637Z" fill="white"/>
<path d="M226.458 253.709C229.804 256.965 227.373 263.173 226.237 267.072C223.178 264.002 224.148 257.269 226.458 253.709Z" fill="white"/>
<path d="M420.912 283.47C421.252 283.515 422.552 283.874 422.927 283.971L423.352 284.716C422.297 287.291 416.612 288.358 414.227 288.714C413.017 288.552 413.052 288.549 411.902 288.221L411.997 287.491C414.172 285.41 418.017 284.1 420.912 283.47Z" fill="white"/>
<path d="M239.162 376.363C239.735 375.352 239.502 375.673 240.354 374.883L242.268 375.096C244.949 380.032 247.347 385.116 249.451 390.324C245.938 385.732 242.508 381.077 239.162 376.363Z" fill="white"/>
<path d="M207.692 271.419C213.215 270.975 215.53 273.533 219.9 276.898C215.755 277.02 208.753 276.434 207.692 271.419Z" fill="white"/>
<path d="M382.777 303.241C387.467 304.779 387.937 311.25 388.052 315.566C384.632 312.331 381.972 308.084 382.777 303.241Z" fill="white"/>
<path d="M178.978 157.049C183.263 159.407 184.713 165.089 184.639 169.654C180.482 166.617 179.046 162.03 178.978 157.049Z" fill="white"/>
<path d="M221.943 294.286C224.658 294.512 225.94 295.761 228.046 297.369C229.177 300.402 229.467 301.432 230.106 304.606C226.636 301.685 222.46 298.899 221.943 294.286Z" fill="white"/>
<path d="M331.312 372.111C330.402 376.969 329.142 382.411 327.357 387.025C326.302 385.962 325.857 385.035 324.597 383.897C326.562 379.966 328.682 375.652 331.312 372.111Z" fill="white"/>
<path d="M235.188 260.567L236.395 261.189C238.033 264.678 234.232 269.86 231.241 271.486L230.847 271.663L230.571 271.16C231.544 267.75 232.742 263.036 235.188 260.567Z" fill="white"/>
<path d="M212.513 204.679C216.929 205.82 211.779 214.253 210.42 216.169C207.633 214.758 211.061 206.667 212.513 204.679Z" fill="white"/>
<path d="M168.828 298.546C166.444 296.304 164.518 294.774 163.173 291.751L163.311 290.532C167.418 289.282 170.731 296.123 170.094 299.157L168.828 298.546Z" fill="white"/>
<path d="M219.477 302.777C223.149 304.366 225.671 306.741 228.465 309.597L227.537 309.742C224.32 309.25 219.004 307.82 217.594 304.567C218.124 303.042 217.658 303.727 219.477 302.777Z" fill="white"/>
<path d="M236.296 365.818C238.304 368.861 240.412 371.968 242.268 375.096L240.354 374.883C239.502 375.673 239.735 375.352 239.162 376.363C237.542 373.873 235.929 371.168 234.362 368.626L236.296 365.818Z" fill="white"/>
<path d="M458.357 293.564L459.832 293.096C460.167 293.326 460.742 293.684 461.012 293.949C458.657 299.515 457.562 299.185 452.887 303.129C452.362 301.507 453.192 300.403 453.907 298.999C455.602 296.26 456.127 295.764 458.357 293.564Z" fill="white"/>
<path d="M189.213 214.217C195.159 214.026 197.461 216.354 200.968 220.529C195.702 220.361 192.289 218.331 189.213 214.217Z" fill="white"/>
<path d="M473.057 274.626L474.657 274.949C476.112 278.015 470.367 282.672 467.937 283.713L467.052 283.446C468.882 278.808 469.572 277.938 473.057 274.626Z" fill="white"/>
<path d="M409.292 313.929C410.252 314.449 409.822 314.071 410.472 315.168C409.232 318.217 402.882 319.6 399.847 320.132L399.337 319.885L399.427 319.27C402.307 316.925 405.587 314.61 409.292 313.929Z" fill="white"/>
<path d="M404.102 305.292C405.297 305.267 405.287 305.211 406.402 305.589L406.537 306.592C405.267 309.398 402.092 311.391 399.582 313.17C399.397 313.289 398.632 313.559 398.392 313.65L398.302 312.802C399.727 309.582 401.052 307.118 404.102 305.292Z" fill="white"/>
<path d="M174.83 321.682C177.012 322.365 178.649 322.889 180.751 323.774C181.829 324.391 182.149 324.577 183.112 325.348L182.699 325.997C179.848 326.688 173.667 325.701 172.079 322.94C172.925 321.76 172.961 322.105 174.83 321.682Z" fill="white"/>
<path d="M406.082 265.05C409.852 266.767 407.307 274.904 406.027 277.632L405.867 277.711L405.387 277.485C404.707 273.268 404.432 269.006 406.082 265.05Z" fill="white"/>
<path d="M275.092 276.062C279.091 278.295 275.444 284.385 273.893 287.313L273.849 287.364L273.479 287.255C273.318 286.527 273.18 285.795 273.063 285.059C272.519 281.417 272.983 278.96 275.092 276.062Z" fill="white"/>
<path d="M252.399 253.338C258.05 253.567 259.438 256.777 262.828 260.985C258.208 260.28 254.306 257.651 252.399 253.338Z" fill="white"/>
<path d="M444.887 189.509C445.817 189.914 445.792 189.994 446.617 190.627C448.002 193.661 446.182 197.804 445.202 201.133L444.532 201.094C443.337 196.948 443.177 193.527 444.887 189.509Z" fill="white"/>
<path d="M458.067 304.991C460.392 304.411 462.712 303.601 464.942 304.42L465.207 305.261C462.887 308.344 458.832 308.074 455.352 307.787L455.237 307.189L458.067 304.991Z" fill="white"/>
<path d="M396.047 271.057L397.737 271.727C400.292 274.558 400.292 279.106 400.337 282.827C397.282 279.481 395.777 275.604 396.047 271.057Z" fill="white"/>
<path d="M447.362 325.959C448.967 325.787 448.947 325.691 450.462 326.149L450.882 326.961C449.522 329.085 447.017 329.424 444.727 329.863C442.997 329.845 442.467 329.959 440.887 329.204L440.947 328.549C443.032 327.082 444.917 326.706 447.362 325.959Z" fill="white"/>
<path d="M202.615 182.707C205.426 185.757 202.589 190.934 200.425 193.616L199.712 193.269C199.423 189.53 200.112 185.601 202.615 182.707Z" fill="white"/>
<path d="M459.757 201.853C461.962 201.972 461.077 201.579 462.637 202.702L462.572 203.596C460.377 205.876 459.452 206.055 456.292 206.643C454.887 206.739 454.862 206.821 453.537 206.433L453.457 205.704C455.242 203.991 457.532 203.009 459.757 201.853Z" fill="white"/>
<path d="M260.013 284.867C264.129 285.66 267.03 288.896 268.134 292.838C264.419 291.487 260.13 289.224 260.013 284.867Z" fill="white"/>
<path d="M182.32 306.758C186.171 309.689 185.99 313.529 186.226 317.97C182.594 314.731 181.122 311.443 182.32 306.758Z" fill="white"/>
<path d="M133.605 252.152C138.189 252.845 139.871 257.871 141.139 261.68C137.603 260.472 134.281 255.788 133.605 252.152Z" fill="white"/>
<path d="M182.42 192.229C185.126 192.329 190.443 194.713 190.928 197.518C187.883 197.472 184.912 196.915 182.547 194.938C181.738 193.236 181.815 194.107 182.42 192.229Z" fill="white"/>
<path d="M444.247 212.223C445.152 212.856 444.742 212.485 445.257 213.634C445.022 216.822 443.172 218.9 441.312 221.448C438.387 216.816 440.952 215.294 444.247 212.223Z" fill="white"/>
<path d="M424.217 220.245C428.807 222.358 428.212 226.759 427.347 231.047C424.907 226.986 423.322 224.88 424.217 220.245Z" fill="white"/>
<path d="M192.542 308.167C195.888 310.283 193.259 316.568 191.957 319.252C190.012 317.298 190.548 310.679 192.542 308.167Z" fill="white"/>
<path d="M247.957 227.416C252.907 228.317 254.259 230.735 256.929 234.6C253.351 233.792 248.056 231.657 247.957 227.416Z" fill="white"/>
<path d="M211.753 337.6C212.87 338.063 212.35 337.735 213.107 338.971C213.235 342.685 212.103 344.317 210.38 347.536C209.961 347.833 210.243 347.705 209.459 347.663C208.785 343.814 209.491 340.762 211.753 337.6Z" fill="white"/>
<path d="M482.962 265.328C481.712 262.687 486.377 256.899 488.992 256.91C489.492 258.683 489.182 258.442 488.447 260.58C486.507 262.392 485.087 263.666 482.962 265.328Z" fill="white"/>
<path d="M175.545 286.293C178.078 289.207 177.221 293.933 175.779 297.151C172.663 294.449 173.941 289.435 175.545 286.293Z" fill="white"/>
<path d="M148.485 270.797C152.442 272.142 154.617 275.588 155.384 279.584C152.129 278.733 148.262 274.428 148.485 270.797Z" fill="white"/>
<path d="M440.182 310.72C440.937 311.334 440.752 311.257 441.287 312.153C441.377 315.441 439.392 317.835 437.602 320.592L436.907 320.457C436.882 320.086 436.867 319.715 436.857 319.344C436.752 315.182 437.437 313.617 440.182 310.72Z" fill="white"/>
<path d="M365.977 356.022C367.842 353.591 365.722 354.447 368.757 353.264L368.717 357.273C368.297 360.928 368.237 366.017 368.107 369.721C367.302 365.187 366.407 360.601 365.977 356.022Z" fill="white"/>
<path d="M201.432 334.117C205.472 336.276 204.183 341.206 203.603 344.86C201.292 340.629 199.666 338.913 201.432 334.117Z" fill="white"/>
<path d="M168.225 303.115L168.119 303.614C165.634 305.216 159.892 303.237 157.897 301.058L158.185 300.456C162.066 299.969 163.275 300.84 166.855 302.411L168.225 303.115Z" fill="white"/>
<path d="M245.661 172.764C249.252 175.024 249.488 180.98 249.218 184.714C246.325 181.341 245.402 177.132 245.661 172.764Z" fill="white"/>
<path d="M430.382 311.734C432.962 314.318 432.517 319.652 431.332 322.788C429.072 319.399 428.012 315.278 430.382 311.734Z" fill="white"/>
<path d="M267.709 243.758C270.403 246.387 269.005 251.101 267.742 254.103C265.184 251.746 265.447 246.497 267.709 243.758Z" fill="white"/>
<path d="M250.956 195.539C255.143 197.308 254.972 202.425 254.778 206.181C251.643 202.626 250.714 200.277 250.956 195.539Z" fill="white"/>
<path d="M283.632 282.812C285.534 286.459 280.234 290.291 277.523 291.896L277.264 291.753C277.564 288.916 281.229 284.313 283.632 282.812Z" fill="white"/>
<path d="M269.316 222.18C270.621 222.847 270.143 222.369 270.82 223.64C270.798 226.788 268.547 229.109 266.635 231.644L266.075 231.76L265.733 230.964C266.226 227.661 267.301 224.847 269.316 222.18Z" fill="white"/>
<path d="M420.882 337.653C424.202 340.517 421.452 344.637 419.917 347.772C417.637 346.18 419.482 339.793 420.882 337.653Z" fill="white"/>
<path d="M229.108 357.381C232.103 360.425 233.676 362.405 236.296 365.818L234.362 368.626C232.091 364.365 230.862 361.853 229.108 357.381Z" fill="white"/>
<path d="M446.987 290.779C450.012 293.675 448.397 298.445 447.632 302.038C445.452 299.509 445.642 293.78 446.987 290.779Z" fill="white"/>
<path d="M357.332 275.235C358.027 273.453 357.687 273.367 358.957 272.789C360.232 273.925 360.337 275.013 360.687 276.705C360.337 278.573 360.242 280.417 358.882 281.511C357.337 280.215 357.367 277.114 357.332 275.235Z" fill="white"/>
<path d="M372.227 284.271C374.097 284.576 373.437 284.113 374.572 285.235L374.112 286.303C371.852 288.113 370.202 288.615 367.552 289.667L365.992 289.834L365.717 289.369C367.127 287.571 370.247 285.65 372.227 284.271Z" fill="white"/>
<path d="M430.027 354.096C431.962 354.063 432.332 353.708 433.652 354.578C433.142 357.683 426.202 357.669 423.787 357.258L423.747 356.827C425.992 355.612 427.667 355.009 430.027 354.096Z" fill="white"/>
<path d="M190.736 342.783C196.595 342.874 197.013 344.167 199.615 348.922C195.024 347.004 193.65 346.802 190.736 342.783Z" fill="white"/>
<path d="M263.557 200.255C266.157 203.285 261.964 207.838 259.875 209.953L259.319 209.17C260.05 206.221 261.43 202.482 263.557 200.255Z" fill="white"/>
<path d="M410.237 341.062C413.547 341.979 412.352 343.627 413.722 345.707C413.847 347.611 414.107 348.861 413.437 350.642L412.732 350.417C410.887 347.14 410.122 344.802 410.237 341.062Z" fill="white"/>
<path d="M190.051 350.992C192.99 351.553 196.365 352.324 198.719 354.249L198.243 354.949C195.524 354.629 190.423 354.634 189.136 352.091L190.051 350.992Z" fill="white"/>
<path d="M173.287 168.289C176.397 168.514 180.307 171.821 181.561 174.543C177.744 173.756 174.099 172.39 173.287 168.289Z" fill="white"/>
<path d="M471.157 287.31C473.327 286.724 476.882 285.51 477.777 288.294L477.437 289.215C475.192 289.522 471.447 290.129 469.422 289.114L469.467 288.414L471.157 287.31Z" fill="white"/>
<path d="M466.652 186.213C467.022 186.237 467.822 186.45 468.212 186.54L468.497 187.436C467.322 189.688 463.807 191.307 461.532 192.433L460.802 192.3L460.867 191.479C462.877 189.115 464.262 188.112 466.652 186.213Z" fill="white"/>
<path d="M364.372 283.085C365.062 280.522 365.377 279.184 367.372 277.463C369.507 276.879 368.522 276.801 370.452 277.49C369.107 279.901 367.552 282.196 365.147 283.637C364.887 283.453 364.627 283.269 364.372 283.085Z" fill="white"/>
<path d="M429.262 345.301L431.342 345.583L431.747 346.337C430.992 348.453 427.682 350.105 425.747 351.224L424.732 351.174C425.092 348.956 427.587 346.903 429.262 345.301Z" fill="white"/>
<path d="M177.166 427.556L178.309 428.116C180.332 431.014 177.548 431.389 177.787 435.204L176.437 435.139C174.67 432.399 175.276 429.884 177.166 427.556Z" fill="#000000"/>
<path d="M460.467 273.993C461.587 274.159 461.507 274.167 462.402 274.887C463.502 277.637 462.847 279.75 462.297 282.694L461.557 282.697C459.877 280.109 460.352 277.088 460.467 273.993Z" fill="white"/>
<path d="M349.462 278.719C353.297 280.142 353.897 283.943 354.987 287.53C351.587 285.119 349.902 282.914 349.462 278.719Z" fill="white"/>
<path d="M144.733 283.053C149.525 282.583 150.582 282.784 154.251 285.705C149.998 285.976 147.652 286.419 144.733 283.053Z" fill="white"/>
<path d="M161.275 270.027C164.317 271.945 162.658 276.804 161.683 279.525C159.605 276.453 160.194 273.32 161.275 270.027Z" fill="white"/>
<path d="M191.753 161.644L192.631 162.237C192.869 165.743 192.166 167.432 190.411 170.43L190.152 170.623C188.953 166.996 189.548 164.57 191.753 161.644Z" fill="white"/>
<path d="M487.902 267.891C489.587 267.784 489.992 267.655 491.597 268.276L491.772 268.969C490.447 270.345 489.667 270.382 487.827 270.898C486.282 270.979 485.387 271.165 483.947 270.582C484.662 269.428 486.537 268.661 487.902 267.891Z" fill="white"/>
<path d="M243.081 206.375C247.255 206.065 249.395 208.069 251.97 210.991C248.134 210.912 245.432 209.365 243.081 206.375Z" fill="white"/>
<path d="M399.547 407.606C402.097 404.631 403.647 402.962 406.502 400.295L408.957 401.804C407.947 402.759 400.947 406.79 399.547 407.606Z" fill="white"/>
<path d="M430.987 207.251L431.627 207.969C432.157 211.023 432.777 215.418 431.652 218.332L430.647 217.674C429.857 213.983 430.452 210.933 430.987 207.251Z" fill="white"/>
<path d="M388.997 452.829C389.392 453.044 394.617 453.344 395.997 453.604L396.347 454.139C394.552 455.254 395.382 455.024 392.982 454.674C391.162 454.729 387.757 455.024 386.192 454.464L386.212 453.969C387.147 453.554 388.047 453.204 388.997 452.829Z" fill="#000000"/>
<path d="M454.282 195.732C454.497 195.877 455.007 196.464 455.212 196.684L455.087 197.993C453.857 200.024 452.552 200.81 450.682 202.27C450.182 202.208 450.477 202.304 449.942 201.696C450.602 198.904 452.027 197.38 454.282 195.732Z" fill="white"/>
<path d="M238.511 182.727C242.409 183.232 244.387 185.749 245.827 189.186C242.855 188.751 239.936 185.199 238.511 182.727Z" fill="white"/>
<path d="M131.384 263.492C134.213 263.436 138.428 264.429 139.559 267.274C136.906 267.153 132.206 266.359 131.384 263.492Z" fill="white"/>
<path d="M256.773 178.627C257.343 178.872 256.966 178.676 257.777 179.411C258.061 182.129 256.635 183.908 255.212 186.185C254.755 186.242 255.065 186.239 254.318 185.934C254.074 183.089 255.225 180.926 256.773 178.627Z" fill="white"/>
<path d="M435.607 222.765C436.532 223.767 436.207 223.433 436.617 224.929C436.222 227.19 434.927 228.624 433.587 230.55L433.367 230.611L432.807 230.195C432.762 227.632 434.297 224.893 435.607 222.765Z" fill="white"/>
<path d="M145.983 253.117L146.979 253.719C148.188 256.808 147.798 258.245 147.18 261.55C145.106 259.563 144.964 255.717 145.983 253.117Z" fill="white"/>
<path d="M197.935 418.309C199.871 418.989 199.571 418.565 200.637 419.945C199.816 421.72 199.534 421.488 197.704 422.83C197.325 422.55 196.548 421.368 196.221 420.913C196.562 419.003 196.185 419.924 197.935 418.309Z" fill="#000000"/>
<path d="M477.107 256.392C478.657 259.029 478.222 263.058 476.492 265.54C475.417 261.606 475.657 260.181 477.107 256.392Z" fill="white"/>
<path d="M403.022 533.474C403.702 533.439 403.737 533.524 404.417 533.694L404.277 534.704C403.067 536.539 402.952 536.544 400.852 537.429L400.017 537.114L399.857 536.209C400.907 534.664 401.467 534.454 403.022 533.474Z" fill="#000000"/>
<path d="M379.832 455.134C381.547 455.174 384.097 455.034 385.177 456.134L384.207 456.559C382.212 456.704 381.197 456.719 379.202 456.599L378.807 455.979L379.832 455.134Z" fill="#000000"/>
<path d="M431.382 397.673C433.547 397.681 432.682 397.306 434.167 398.608L433.977 399.645L432.627 400.538L431.417 399.842L430.937 399.012L430.152 398.912C431.227 398.533 430.757 398.855 431.382 397.673Z" fill="#000000"/>
<path d="M190.36 396.511C192.419 396.927 193.932 396.299 195.822 397.185L195.274 398.242C193.427 398.247 191.295 398.492 189.789 397.594L190.36 396.511Z" fill="#000000"/>
<path d="M203.622 420.086C204.438 421.353 204.99 422.262 204.639 423.704L203.373 423.297L202.274 423.322C202.516 421.701 202.797 421.566 203.622 420.086Z" fill="#000000"/>
<path d="M304.937 371.365C306.567 372.856 305.937 373.521 305.587 375.503C304.222 374.086 304.572 373.089 304.937 371.365Z" fill="#000000"/>
<path d="M260.11 325.444L260.657 324.058L261.121 324.17C261.242 324.791 261.434 325.633 261.507 326.242L260.11 325.444Z" fill="white"/>
<path d="M336.187 161.426C335.672 160.238 331.932 156.131 331.422 154.628C330.337 151.417 328.707 146.269 329.907 143.02C330.627 138.95 339.597 142.084 339.772 141.842C341.347 139.633 346.537 130.619 350.597 133.597C353.947 136.051 353.122 140.853 353.602 144.32C353.862 146.183 357.982 145.517 359.132 146.714C360.912 148.246 360.857 150.132 361.017 152.341C361.837 154.353 361.887 156.632 360.282 158.329C358.652 158.073 359.407 158.368 358.022 157.214C353.932 160.706 351.817 161.806 346.522 163.347C346.462 166.002 346.367 168.273 346.162 170.934C347.812 172.426 355.572 172.641 355.002 176.745C353.842 185.082 344.672 187.505 338.717 188.318C338.752 190.542 338.617 193.537 339.237 195.583C341.597 195.288 345.852 194.501 347.737 196.337C352.532 200.999 347.517 206.091 343.597 208.997C339.657 211.915 337.102 212.895 332.372 213.611C333.137 216.738 333.722 219.343 334.277 222.509C337.042 221.554 338.992 221.084 341.767 222.227C345.652 223.826 344.522 228.89 343.002 231.647C340.017 237.067 333.992 240.229 328.267 241.798C327.042 242.131 325.812 242.441 324.577 242.728C324.122 244.539 323.292 246.746 323.652 248.391L324.352 248.153C336.782 244.022 332.462 254.73 333.742 257.849C336.002 259.109 337.212 259.02 338.547 260.947C339.412 264.506 337.987 267.296 335.807 270.028C335.482 272.804 335.932 272.053 334.452 274.126C332.757 275.132 331.652 274.893 329.782 274.401C329.432 274.309 329.087 274.212 328.747 274.109C324.377 275.123 323.097 275.413 318.567 275.599C318.102 279.508 317.677 283.592 317.052 287.462C320.307 285.648 321.652 284.539 325.337 285.468C326.342 286.354 327.242 287.117 328.182 288.076C328.207 289.088 327.972 293.371 328.307 293.806C329.222 294.98 332.332 294.599 333.167 296.494C338.057 307.6 321.937 312.028 314.437 312.953C314.312 314.292 313.862 319.838 313.477 320.833L312.737 320.811C312.552 322.185 312.697 322.124 312.147 323.325C312.817 324.825 309.677 313.462 309.932 314.786L309.097 314.468C308.747 310.261 287.949 304.072 293.97 292.675C296.328 288.213 298.797 291.718 302.267 290.405C304.607 287.69 301.457 284.035 306.917 281.687C308.682 281.582 309.182 282.015 310.752 282.827L311.297 283.117L312.097 282.597C312.732 280.984 312.837 279.7 312.722 277.969C312.492 274.413 313.182 275.03 311.017 272.909C305.277 272.96 299.582 263.992 297.807 259.168C297.512 256.441 297.482 256.077 298.317 253.48L300.032 251.856C301.952 251.501 304.887 252.182 305.082 252.133C308.527 251.252 305.667 242.317 311.927 242.577C315.502 242.725 315.242 245.127 317.682 245.705L318.472 244.878C318.572 242.804 318.747 242.34 319.322 240.304C315.562 238.035 315.157 237.817 311.312 233.679C307.142 229.187 303.417 215.341 313.517 215.559C315.772 215.607 318.192 218.707 319.512 220.768C321.297 216.764 321.992 215.811 324.732 212.595C306.307 200.3 312.127 179.813 324.997 193.338C326.307 191.11 327.892 188.913 329.362 186.777L326.672 184.341L325.767 184.43C322.922 183.215 322.312 184.268 320.917 181.099C321.132 178.49 320.722 178.877 322.022 177.026C320.732 173.432 319.877 166.497 324.737 165.092C328.152 164.104 330.322 167.19 332.757 168.357C333.862 165.138 334.427 164.302 336.187 161.426Z" fill="#000000"/>
<path d="M322.022 177.026C323.352 180.322 324.287 181.684 326.672 184.341L325.767 184.43C322.922 183.215 322.312 184.268 320.917 181.099C321.132 178.49 320.722 178.877 322.022 177.026Z" fill="white"/>
<path d="M335.807 270.028C335.482 272.804 335.932 272.053 334.452 274.126C332.757 275.132 331.652 274.893 329.782 274.401C329.432 274.309 329.087 274.212 328.747 274.109C331.232 272.855 333.437 271.474 335.807 270.028Z" fill="white"/>
<path d="M358.022 157.214C359.287 155.843 360.127 154.005 361.017 152.341C361.837 154.353 361.887 156.632 360.282 158.329C358.652 158.073 359.407 158.368 358.022 157.214Z" fill="white"/>
<path d="M327.512 217.16C332.012 220.456 326.552 230.014 324.467 233.543C321.637 229.741 324.427 220.483 327.512 217.16Z" fill="white"/>
<path d="M326.597 252.194L328.547 252.504C330.757 255.939 323.917 261.785 321.517 264.005L319.897 265.019L319.552 263.921C320.612 259.078 323.182 255.613 326.597 252.194Z" fill="white"/>
<path d="M337.472 226.39C338.712 226.235 338.247 226.257 339.537 226.637C340.677 230.266 333.637 234.525 330.982 236.044L329.337 236.338L329.077 235.352C330.742 230.705 333.382 228.529 337.472 226.39Z" fill="white"/>
<path d="M332.562 190.748C336.622 193.511 331.962 200.691 330.272 204.226L329.422 204.142C328.937 202.916 328.832 202.43 328.797 201.066C328.662 197.269 330.012 193.568 332.562 190.748Z" fill="white"/>
<path d="M346.972 139.624C347.902 139.806 347.662 139.765 348.522 140.204C349.597 144.007 346.767 149.049 344.922 152.349L343.672 152.403C341.537 149.488 345.252 142.244 346.972 139.624Z" fill="white"/>
<path d="M316.712 302.284C315.512 298.354 318.077 289.974 322.737 291.544L323.062 292.76C322.192 296.57 320.542 298.11 318.082 301.107L316.712 302.284Z" fill="white"/>
<path d="M303.152 260.572C302.587 259.01 302.162 258.337 302.522 256.724L303.237 256.385C306.917 257.739 310.417 264.399 311.552 268.075C306.822 265.784 306.222 264.735 303.152 260.572Z" fill="white"/>
<path d="M297.282 294.639C303.112 295.059 304.892 301.544 306.092 306.362C301.297 303.281 298.102 300.454 297.282 294.639Z" fill="white"/>
<path d="M336.492 172.401C337.347 168.425 337.722 166.324 341.627 164.689C342.217 168.475 340.887 174.867 337.372 176.71L336.617 176.338C336.277 174.539 336.357 174.168 336.492 172.401Z" fill="white"/>
<path d="M330.772 262.376C332.227 262.281 332.752 262.066 333.992 262.778C335.347 265.915 327.987 269.033 325.607 269.929C324.637 270.272 324.882 270.163 323.802 270.184L323.737 269.391C325.277 266.808 328.117 263.823 330.772 262.376Z" fill="white"/>
<path d="M312.147 220.256C317.692 222.707 317.367 227.902 318.017 233.279C314.047 229.809 310.772 225.843 312.147 220.256Z" fill="white"/>
<path d="M343.422 199.291L343.912 199.55C346.227 203.806 337.117 207.456 334.132 208.283L333.682 208.279L333.857 207.339C337.062 203.28 338.842 201.655 343.422 199.291Z" fill="white"/>
<path d="M307.132 289.806C307.837 287.919 307.477 287.883 308.842 287.1C310.422 288.244 310.077 288.3 311.042 290.332C311.872 294.563 311.252 296.76 310.412 300.901C308.747 297.042 307.237 294.062 307.132 289.806Z" fill="white"/>
<path d="M307.132 289.806C307.837 287.919 307.477 287.883 308.842 287.1C310.422 288.244 310.077 288.3 311.042 290.332C307.812 291.167 309.912 290.406 307.132 289.806Z" fill="white"/>
<path d="M320.957 303.969C323.072 301.897 324.607 299.938 327.642 299.657L328.512 300.174C328.672 304.599 321.942 306.902 318.367 307.161L320.957 303.969Z" fill="white"/>
<path d="M317.457 193.903C318.307 194.127 318.797 194.354 319.617 194.68C322.692 197.976 323.012 201.296 324.057 205.688C319.622 203.967 318.142 198.068 317.457 193.903Z" fill="white"/>
<path d="M325.577 169.987C330.362 170.698 330.882 177.208 331.227 181.086C327.207 179.358 325.912 173.895 325.577 169.987Z" fill="white"/>
<path d="M346.972 176.201C348.872 176.721 348.242 176.178 349.157 177.581C348.572 180.398 344.472 182.175 342.002 182.972L340.532 182.896L340.262 182.178C341.777 180.029 344.827 177.901 346.972 176.201Z" fill="white"/>
<path d="M354.017 150.205L355.532 150.625L355.877 151.596C354.832 154.093 351.532 155.888 349.237 157.356C348.372 157.133 348.722 157.378 348.222 156.563C349.517 154.031 351.572 151.673 354.017 150.205Z" fill="white"/>
<path d="M312.027 256.173C311.147 253.372 310.442 250.962 312.422 248.501L313.382 248.606C314.767 250.199 314.737 250.922 315.227 253.07C314.442 253.828 312.687 255.427 312.027 256.173Z" fill="white"/>
<path d="M334.082 145.501C338.152 146.924 337.982 150.953 338.182 154.626C337.692 154.598 337.357 154.371 336.862 154.15C334.792 151.239 334.572 148.968 334.082 145.501Z" fill="white"/>
<path d="M315.227 253.07C315.367 256.799 315.327 258.994 315.062 262.716C314.002 260.602 312.787 258.395 312.027 256.173C312.687 255.427 314.442 253.828 315.227 253.07Z" fill="white"/>
<path d="M386.777 196.898C388.567 194.116 390.162 191.237 393.742 190.783C400.077 189.98 399.307 196.413 398.497 200.186C412.277 206.387 399.847 214.733 390.762 216.363C390.457 218.498 390.087 220.706 389.937 222.85C392.367 223.539 396.122 224.385 396.842 227.076C398.747 234.243 385.987 237.357 381.647 238.159C381.607 241.098 381.487 242.389 381.077 245.274C384.207 245.456 389.812 245.139 388.882 250.429C388.367 253.338 385.537 256.279 383.277 257.933C380.047 260.363 372.667 258.994 370.882 261.379C370.297 263.701 369.762 265.651 369.047 267.941C368.622 265.203 368.282 262.977 365.472 261.72L366.527 258.347C360.517 253.746 358.922 250.558 357.452 243.249C357.017 240.623 356.437 238.778 356.957 236.181C358.602 235.119 361.532 235.509 363.287 235.399C366.202 235.215 367.267 237.414 369.457 239.835C370.937 237.569 372.642 237.102 373.697 235.275C370.382 230.469 366.447 225.142 366.937 218.927C367.157 216.143 372.082 214.653 374.272 215.741C375.317 216.26 376.987 217.934 377.872 218.786C379.337 216.081 379.897 215.178 381.707 212.707C380.322 210.594 379.482 209.312 378.577 206.898C376.157 200.423 377.972 189.364 386.777 196.898Z" fill="#000000"/>
<path d="M357.452 243.249C357.017 240.623 356.437 238.778 356.957 236.181C358.602 235.119 361.532 235.509 363.287 235.399C366.202 235.215 367.267 237.414 369.457 239.835L369.092 240.646C366.632 239.651 365.172 236.55 361.362 237.077C358.087 237.53 357.642 240.683 357.452 243.249Z" fill="white"/>
<path d="M366.527 258.347C366.882 260.027 366.607 260.354 367.642 261.066L367.877 260.799L367.282 260.816L367.227 260.759L368.482 259.87C369.317 261.368 369.062 260.516 368.642 262.681L369.832 262.526L369.317 262.106L370.112 262.207C370.372 261.931 370.627 261.655 370.882 261.379C370.297 263.701 369.762 265.651 369.047 267.941C368.622 265.203 368.282 262.977 365.472 261.72L366.527 258.347Z" fill="#000000"/>
<path d="M383.927 217.681C384.922 217.745 384.622 217.727 385.582 218.12C386.587 221.078 383.382 225.432 381.647 227.646C380.942 227.979 381.342 227.913 380.427 227.662C379.682 224.321 381.867 220.187 383.927 217.681Z" fill="white"/>
<path d="M375.672 240.155C378.837 242.566 373.937 248.774 372.192 251.152L371.782 251.255L371.292 250.753C371.417 246.737 372.907 243.079 375.672 240.155Z" fill="white"/>
<path d="M393.582 195.262C394.387 196.067 394.112 195.705 394.472 196.891C393.987 200.755 392.522 202.831 390.472 206.023C388.402 203.011 391.362 197.586 393.582 195.262Z" fill="white"/>
<path d="M362.642 241.168C365.747 242.501 366.637 247.978 365.927 250.983C363.107 248.799 361.652 244.611 362.642 241.168Z" fill="white"/>
<path d="M381.842 250.246L383.497 250.484L383.782 251.363C382.467 253.538 379.777 254.721 377.457 255.514C376.667 255.508 376.537 255.426 375.757 255.254C376.307 253.209 379.952 251.363 381.842 250.246Z" fill="white"/>
<path d="M371.662 219.978L372.837 220.344C375.152 222.374 375.227 226.557 375.597 229.625C372.597 227.846 371.807 223.154 371.662 219.978Z" fill="white"/>
<path d="M390.702 227.843L391.877 228.192L392.252 228.916C391.112 230.808 387.087 231.904 384.952 232.568L383.742 232.249C384.667 230.555 388.867 228.681 390.702 227.843Z" fill="white"/>
<path d="M398.152 205.659C399.427 206.17 398.917 205.798 399.632 206.893C398.972 209.17 396.037 210.201 394.037 211.043L392.952 210.916L392.767 210.403C394.102 208.403 396.182 207.122 398.152 205.659Z" fill="white"/>
<path d="M381.812 199.671C384.987 200.94 384.622 204.735 384.737 207.669L383.772 207.215C382.007 204.778 382.042 202.688 381.812 199.671Z" fill="white"/>
<path d="M493.617 253.159L494.482 252.017L495.312 251.949C496.212 253.786 496.767 256.273 496.637 258.287L496.032 256.478C495.447 256.931 495.012 257.233 494.487 257.753C494.427 255.722 494.187 255.153 493.617 253.159Z" fill="white"/>
<path d="M183.512 474.759C184.166 475.279 184.173 475.514 184.642 476.294C184.776 477.919 184.345 478.339 183.515 479.749L182.627 479.709C182.604 477.394 182.814 477.024 183.512 474.759Z" fill="white"/>
<path d="M451.632 422.281C452.487 423.229 452.292 422.691 452.317 423.852L450.467 425.482C449.822 424.494 450.022 425.014 449.822 423.942L451.632 422.281Z" fill="white"/>
<path d="M427.472 512.219L428.337 512.029L428.517 512.619L427.582 513.799L427.117 513.599L427.472 512.219Z" fill="white"/>
</svg>
