<svg width="624" height="624" viewBox="0 0 624 624" fill="none" xmlns="http://www.w3.org/2000/svg">
<rect width="624" height="624" fill="white"/>
<path d="M178.446 432.618C176.876 428.782 171.858 408.673 173.237 406.302C178.284 397.62 211.879 390.099 219.721 388.275C279.528 374.362 352.835 367.775 411.975 386.773C422.345 389.794 440.93 397.479 450.175 403.053L450.845 403.448C450.555 411.573 448.675 420.414 446.54 428.296C445.83 432.808 444.47 438.118 443.435 442.628C442.2 448.083 441.015 453.758 439.46 459.113C432.845 492.343 417.38 538.543 389.175 559.603C388.78 559.898 388.56 560.018 388.16 560.243C384.84 562.653 382.125 564.358 378.61 566.498C375.04 568.593 370.285 571.133 367.065 573.498C369.905 573.403 373.19 572.993 375.425 575.068C380.81 580.063 377.135 589.658 372.72 593.938C370.76 595.808 368.345 597.138 365.72 597.798C359.48 599.448 346.235 598.718 339.36 598.698L278.587 598.688C267.959 598.653 260.548 600.473 253.175 591.228C249.672 587.303 246.133 579.708 251.495 575.648C255.011 572.988 258.355 573.693 262.416 574.193C238.695 561.878 220.346 547.293 207.847 522.778C199.67 509.473 188.938 472.468 184.835 456.093C183.729 452.888 183.242 451.033 182.509 447.713L182.023 446.243C180.702 441.598 179.495 437.348 178.446 432.618Z" fill="white"/>
<path d="M178.446 432.618C176.876 428.782 171.858 408.673 173.237 406.302C178.284 397.62 211.879 390.099 219.721 388.275C279.528 374.362 352.835 367.775 411.975 386.773C422.345 389.794 440.93 397.479 450.175 403.053L450.845 403.448C450.555 411.573 448.675 420.414 446.54 428.296C445.83 432.808 444.47 438.118 443.435 442.628C442.2 448.083 441.015 453.758 439.46 459.113L438.87 458.993L438.44 459.363C436.14 459.498 436.515 459.813 434.74 458.913C433.39 456.858 433.415 456.468 432.855 453.998C433.575 450.578 434.245 447.183 435.16 443.808C422.585 449.203 413.45 453.013 400.405 457.273C354.41 470.228 312.64 473.098 264.957 466.248C258.465 465.318 247.981 463.738 241.798 461.923C232.605 459.908 222.571 456.828 213.711 453.698C209.796 452.268 205.932 450.708 202.123 449.018C199.574 447.968 192.395 443.918 190.145 444.203L189.878 445.093C188.67 449.573 191.329 451.278 188.31 453.923C187.827 452.003 187.034 447.508 185.018 446.798C184.807 447.768 184.685 448.388 184.554 449.383L184.454 450.188L183.427 448.018L182.509 447.713L182.023 446.243C180.702 441.598 179.495 437.348 178.446 432.618Z" fill="#000000"/>
<path d="M183.051 420.378C182.687 418.504 182.344 416.921 181.865 415.074C191.226 419.851 200.832 424.784 210.685 428.499C254.8 445.128 304.31 447.658 350.81 442.618C353.725 442.303 357.335 441.718 360.205 441.638L388.74 436.133L388.815 435.773C397.41 435.333 415.855 426.049 423.58 423.855C430.255 423.941 430.86 420.848 435.84 419.013C437.435 420.65 436.12 420.385 437.88 422.284C438.67 426.445 433.99 432.663 430.94 435.253C427.24 435.808 428.755 435.208 426.06 437.848L425.08 437.568C424.04 438.088 424.175 438.528 423.58 439.948C419.44 442.338 400.725 448.988 395.555 450.213C394.79 451.428 394.375 451.953 393.945 453.353L392.77 453.708L392.46 454.703C394.56 456.333 398.19 453.008 400.405 457.273C354.41 470.228 312.64 473.098 264.957 466.248C258.465 465.318 247.981 463.738 241.798 461.923C232.605 459.908 222.571 456.828 213.711 453.698C209.796 452.268 205.932 450.708 202.123 449.018C199.574 447.968 192.395 443.918 190.145 444.203L189.878 445.093C188.67 449.573 191.329 451.278 188.31 453.923C187.827 452.003 187.034 447.508 185.018 446.798C184.807 447.768 184.685 448.388 184.554 449.383L184.454 450.188L183.427 448.018L182.509 447.713L182.023 446.243C183.254 441.558 180.26 442.913 184.167 437.888C184.666 435.648 183.293 434.103 183.802 430.734C184.484 431.125 185.175 431.448 185.902 431.743C185.028 427.937 184.077 424.147 183.051 420.378Z" fill="white"/>
<path d="M341.725 460.723C358.455 459.528 379.53 454.753 395.555 450.213C394.79 451.428 394.375 451.953 393.945 453.353L392.77 453.708L392.46 454.703C394.56 456.333 398.19 453.008 400.405 457.273C354.41 470.228 312.64 473.098 264.957 466.248C258.465 465.318 247.981 463.738 241.798 461.923C240.198 459.753 238.825 458.588 236.07 458.588C237.694 454.898 238.183 455.458 239.057 453.293C251.062 456.313 263.23 458.653 275.501 460.293C277.053 460.383 281.313 460.623 282.574 461.063C293.195 461.783 303.835 462.148 314.48 462.153C320.93 462.103 327.36 461.593 333.61 461.523C335.18 461.088 339.85 460.863 341.725 460.723Z" fill="#000000"/>
<path d="M333.61 461.523C335.18 461.088 339.85 460.863 341.725 460.723C344.82 462.363 346.065 460.728 349.155 461.168C350.08 461.298 349.665 462.318 351.09 462.918C347.66 464.148 333.62 465.523 330.985 462.688C332.02 462.578 332.805 462.518 333.755 462.078L333.61 461.523Z" fill="#000000"/>
<path d="M275.501 460.293C277.053 460.383 281.313 460.623 282.574 461.063C283.952 462.263 286.477 462.468 288.379 462.828L288.395 463.633C285.866 465.618 272 463.378 269.919 461.273L270.46 460.803C272.639 460.913 273.409 460.898 275.501 460.293Z" fill="#000000"/>
<path d="M182.023 446.243C183.254 441.558 180.26 442.913 184.167 437.888C184.666 435.648 183.293 434.103 183.802 430.734C184.484 431.125 185.175 431.448 185.902 431.743C192.399 439.368 228.412 450.623 239.057 453.293C238.183 455.458 237.694 454.898 236.07 458.588C238.825 458.588 240.198 459.753 241.798 461.923C232.605 459.908 222.571 456.828 213.711 453.698C209.796 452.268 205.932 450.708 202.123 449.018C199.574 447.968 192.395 443.918 190.145 444.203L189.878 445.093C188.67 449.573 191.329 451.278 188.31 453.923C187.827 452.003 187.034 447.508 185.018 446.798C184.807 447.768 184.685 448.388 184.554 449.383L184.454 450.188L183.427 448.018L182.509 447.713L182.023 446.243Z" fill="#000000"/>
<path d="M202.123 449.018C204.344 449.023 209.337 448.443 210.481 449.068L210.771 449.568C211.745 451.213 212.901 452.373 213.711 453.698C209.796 452.268 205.932 450.708 202.123 449.018Z" fill="#000000"/>
<path d="M360.205 441.638L388.74 436.133C386.505 439.773 364.04 444.508 360.205 441.638Z" fill="white"/>
<path d="M423.58 423.855C428.05 421.18 435.805 417.449 440.63 415.141L441.135 415.675L440.85 418.021C439.965 422.145 438.98 426.247 437.895 430.324L436.315 434.083C432.6 435.878 427.335 438.608 423.58 439.948C424.175 438.528 424.04 438.088 425.08 437.568L426.06 437.848C428.755 435.208 427.24 435.808 430.94 435.253C433.99 432.663 438.67 426.445 437.88 422.284C436.12 420.385 437.435 420.65 435.84 419.013C430.86 420.848 430.255 423.941 423.58 423.855Z" fill="white"/>
<path d="M178.446 432.618C179.757 433.063 179.444 433.158 180.362 434.693L181.352 434.778C182.32 431.783 179.744 426.859 178.44 423.802L179.658 423.399L181.027 424.167C182.531 423.888 180.08 422.927 183.051 420.378C184.077 424.147 185.028 427.937 185.902 431.743C185.175 431.448 184.484 431.125 183.802 430.734C183.293 434.103 184.666 435.648 184.167 437.888C180.26 442.913 183.254 441.558 182.023 446.243C180.702 441.598 179.495 437.348 178.446 432.618Z" fill="#000000"/>
<path d="M440.85 418.021C442.41 422.1 442.81 423.19 443.345 427.439C441.55 428.371 439.685 429.513 437.895 430.324C438.98 426.247 439.965 422.145 440.85 418.021Z" fill="#000000"/>
<path d="M444.335 431.643L445.595 428.574L446.54 428.296C445.83 432.808 444.47 438.118 443.435 442.628C440.565 440.203 441.9 433.723 444.335 431.643Z" fill="#000000"/>
<path d="M282.747 385.18C290.783 384.663 298.867 383.815 306.89 383.471C328.315 382.442 349.79 383.325 371.06 386.11C375.355 386.838 379.85 387.53 384.11 388.368C390.505 389.554 398.275 391.211 404.555 393C416.16 396.858 428.155 401.827 439.47 406.595C423.02 416.17 406.87 423.676 388.16 427.886C386.69 428.217 383.075 428.975 381.79 429.5C374.195 431.041 366.58 432.463 358.94 433.768L357.95 433.878C334.915 436.623 318.08 436.878 295.245 436.513C288.853 436.483 284.553 440.013 278.498 435.578C277.537 435.288 267.266 434.308 264.797 433.868C260.961 433.483 257.093 432.698 253.294 431.998C231.816 428.145 203.074 418.547 184.204 407.469C203.157 398.232 242.327 391.486 263.528 387.857L282.747 385.18Z" fill="white"/>
<path d="M253.294 431.998C257.527 430.91 264.233 426.861 264.797 433.868C260.961 433.483 257.093 432.698 253.294 431.998Z" fill="white"/>
<path d="M357.95 433.878C355.98 431.048 352.89 433.398 348.735 431.758L348.615 430.986C351.13 429.674 355.77 429.977 358.345 431.178C359.31 432.673 359.06 431.853 358.94 433.768L357.95 433.878Z" fill="white"/>
<path d="M278.498 435.578C283.381 435.833 290.559 435.998 295.245 436.513C288.853 436.483 284.553 440.013 278.498 435.578Z" fill="#000000"/>
<path d="M189.878 445.093C191.558 449.518 192.823 455.028 194.078 459.673C199.25 478.803 204.522 496.773 212.823 514.843C227.317 542.778 243.309 559.758 274.36 569.858C292.453 575.748 326.485 575.083 345.37 571.423C354.705 569.613 363.485 566.023 371.855 561.658C372.255 561.448 372.65 561.238 373.045 561.018C375.405 559.678 377.59 558.193 379.85 556.698C400.265 543.038 411.305 521.823 419.57 499.588C421.475 494.438 423.79 488.118 424.9 482.778C427.17 476.838 430.915 461.003 432.855 453.998C433.415 456.468 433.39 456.858 434.74 458.913C436.515 459.813 436.14 459.498 438.44 459.363L438.87 458.993L439.46 459.113C432.845 492.343 417.38 538.543 389.175 559.603C388.78 559.898 388.56 560.018 388.16 560.243C384.84 562.653 382.125 564.358 378.61 566.498C375.04 568.593 370.285 571.133 367.065 573.498C369.905 573.403 373.19 572.993 375.425 575.068C380.81 580.063 377.135 589.658 372.72 593.938C370.76 595.808 368.345 597.138 365.72 597.798C359.48 599.448 346.235 598.718 339.36 598.698L278.587 598.688C267.959 598.653 260.548 600.473 253.175 591.228C249.672 587.303 246.133 579.708 251.495 575.648C255.011 572.988 258.355 573.693 262.416 574.193C238.695 561.878 220.346 547.293 207.847 522.778C199.67 509.473 188.938 472.468 184.835 456.093C183.729 452.888 183.242 451.033 182.509 447.713L183.427 448.018L184.454 450.188L184.554 449.383C184.685 448.388 184.807 447.768 185.018 446.798C187.034 447.508 187.827 452.003 188.31 453.923C191.329 451.278 188.67 449.573 189.878 445.093Z" fill="#000000"/>
<path d="M258.423 582.153C267.563 581.283 365.135 580.738 370.235 582.353C369.675 585.533 367.045 589.978 363.58 590.423C348.865 592.318 333.54 591.348 318.665 591.558C303.125 591.773 287.45 591.763 271.913 591.498C267.734 591.373 258.311 590.178 257.628 583.898C257.515 582.863 257.742 583.023 258.423 582.153Z" fill="white"/>
<path d="M194.566 471.938C194.823 472.338 194.623 472.138 195.322 472.318L196.003 472.068C196.838 473.583 197.615 478.383 196.772 479.938C193.616 478.073 192.567 476.853 192.923 473.243C193.987 472.813 193.821 472.813 194.566 471.938Z" fill="#000000"/>
<path d="M424.9 482.778C423.79 488.118 421.475 494.438 419.57 499.588L418.98 498.368C420.38 494.263 419.61 487.503 421.44 485.418C422.375 485.818 421.88 485.683 422.92 485.813C423.69 484.253 423.685 484.088 424.9 482.778Z" fill="white"/>
<path d="M308.875 499.963C310.815 497.468 313.13 494.208 316.235 493.253C323.925 490.893 325.23 501.143 326.275 506.038C326.51 505.718 326.755 505.408 327 505.098C330.21 501.093 333.985 501.003 337.77 504.268C342.435 509.748 341.235 515.753 335.765 520.093L333.91 521.298L333.92 522.078C336.495 524.078 338.83 524.643 340.53 527.638C349.105 539.183 334.705 548.468 324.505 538.658L323.735 538.523C323.85 542.338 324.95 547.888 323.105 551.378C320.295 556.683 312.21 555.578 309.295 550.928C307.295 547.738 306.78 544.448 305.93 540.908C300.655 543.798 292.87 547.038 288.303 540.888C286.957 539.083 286.471 536.773 286.972 534.578C288.062 529.593 292.428 527.018 296.322 524.433C291.868 523.483 284.854 519.358 283.868 514.903C281.518 508.278 292.943 506.763 293.238 505.388C294.921 497.538 294.912 487.068 308.875 499.963Z" fill="#000000"/>
<path d="M311.93 514.458C316.715 513.153 321.64 516.003 322.895 520.803C324.15 525.598 321.25 530.493 316.44 531.698C311.7 532.888 306.885 530.038 305.65 525.308C304.415 520.583 307.215 515.738 311.93 514.458Z" fill="white"/>
<path d="M329.88 512.003L331.975 510.943L332.735 511.208C332.325 513.258 331.395 513.808 329.755 514.928C327.68 515.853 328.67 515.828 326.73 515.393L327.12 515.853L326.425 515.698C327.045 514.283 328.665 513.078 329.88 512.003Z" fill="#000000"/>
<path d="M294.503 513.348C297.07 513.613 300.655 514.008 300.955 517.008C298.646 516.538 295.563 516.018 294.043 514.138L294.503 513.348Z" fill="white"/>
<path d="M326.575 531.143C330.065 531.058 332.84 531.968 334.835 534.908C331.455 534.838 329.08 533.268 326.575 531.143Z" fill="#000000"/>
<path d="M302.385 531.503L303.335 531.788C302.65 533.858 299.876 534.968 297.882 536.003L296.778 535.908L296.764 535.258C298.152 533.853 300.62 532.553 302.385 531.503Z" fill="#000000"/>
<path d="M317.72 500.928L318.415 501.458C319.225 503.573 319.135 504.588 319.265 506.898C317.755 505.093 318.065 503.633 317.72 500.928Z" fill="#000000"/>
<path d="M375.71 519.923C382.69 514.583 388.925 508.748 394.135 501.633C396.13 498.943 397.89 496.088 399.4 493.103C401.965 488.023 408.195 470.408 415.305 470.178C417.78 470.098 419.84 474.378 418.595 476.503C415.715 484.738 407.715 486.413 402.62 492.458C406.945 491.943 416.18 489.268 417.365 494.918C414.95 501.943 405.69 500.793 399.97 500.298C397.845 503.133 396.275 505.318 394.4 508.308C397.9 507.723 406.51 505.963 407.965 510.183C406.675 516.033 399.965 516.768 394.915 516.123C392.625 515.833 391.97 514.238 390.71 512.438C388.47 513.618 382.545 519.673 380.285 521.533C375.545 525.433 359.085 538.363 353.625 539.008C352.215 538.398 351.975 538.168 352.23 536.423C352.83 532.693 361.415 527.883 364.7 525.783C365.185 523.673 361.26 521.048 361.475 518.108C352.79 496.998 370.555 494.938 369.515 515.693C371.4 516.743 370.72 516.023 371.69 517.888C371.445 519.638 371.35 519.608 370.385 521.013L370.87 521.448C373.28 521.013 373.74 520.368 375.71 519.923Z" fill="#000000"/>
<path d="M361.475 518.108C352.79 496.998 370.555 494.938 369.515 515.693L366.8 525.158C365.08 522.828 363.305 520.333 361.475 518.108Z" fill="#000000"/>
<path d="M366.8 525.158L369.515 515.693C371.4 516.743 370.72 516.023 371.69 517.888C371.445 519.638 371.35 519.608 370.385 521.013L370.87 521.448C373.28 521.013 373.74 520.368 375.71 519.923C368.575 525.938 359.35 529.783 352.23 536.423C352.83 532.693 361.415 527.883 364.7 525.783C365.185 523.673 361.26 521.048 361.475 518.108C363.305 520.333 365.08 522.828 366.8 525.158Z" fill="white"/>
<path d="M209.378 478.093C205.171 469.768 213.77 465.858 218.461 475.083C220.565 478.568 223.104 486.013 224.916 490.188L226.287 488.973C226.411 487.518 226.513 486.773 226.77 485.378C227.44 483.223 227.635 481.853 229.187 480.288C235.782 477.623 239.192 489.843 234.266 495.988L235.176 497.863L234.873 498.098L234.891 497.863C233.973 498.623 234.459 498.383 233.483 498.673C235.422 501.868 236.682 503.428 239.978 505.288C240.798 505.308 241.64 505.353 242.455 505.298C243.321 508.368 243.908 510.998 246.022 513.503L245.341 513.523C247.352 515.638 251.323 519.273 253.77 520.808C255.71 521.438 254.897 521.558 256.543 521.153L257.126 520.093C256.994 518.668 256.906 517.813 257.039 516.373L257.136 515.398C258.125 518.248 258.862 521.478 261.114 523.398L261.956 523.543L263.292 522.088C263.16 523.448 263.134 523.953 262.548 525.183L262.916 525.598C263.843 526.663 264.388 527.103 264.775 528.458C268.425 531.403 273.456 533.263 275.584 536.733C275.807 538.638 275.96 537.758 275.093 539.483C272.449 539.798 268.267 536.153 266.071 534.733C251.53 525.333 239.751 513.298 228.856 499.953C223.573 501.868 221.396 502.828 215.994 500.758C213.103 499.198 210.571 497.443 211.223 493.913C214.421 489.833 219.1 491.838 223.106 493.493C224.695 488.808 212.474 485.678 209.378 478.093Z" fill="#000000"/>
<path d="M226.77 485.378C227.44 483.223 227.635 481.853 229.187 480.288C235.782 477.623 239.192 489.843 234.266 495.988L233.028 496.358C230.393 496.218 230.722 497.763 228.598 497.208L228.267 495.493C226.487 493.523 226.086 492.533 224.916 490.188L226.287 488.973C226.411 487.518 226.513 486.773 226.77 485.378Z" fill="#000000"/>
<path d="M224.916 490.188L226.287 488.973C226.411 487.518 226.513 486.773 226.77 485.378C227.174 488.738 227.521 492.203 228.267 495.493C226.487 493.523 226.086 492.533 224.916 490.188Z" fill="white"/>
<path d="M209.378 478.093C205.171 469.768 213.77 465.858 218.461 475.083C218.263 478.283 219.801 482.448 221.456 485.153C221.304 486.318 221.587 485.993 220.934 486.503C216.542 485.928 212.21 478.723 209.378 478.093Z" fill="#000000"/>
<path d="M215.994 500.758C213.103 499.198 210.571 497.443 211.223 493.913C214.421 489.833 219.1 491.838 223.106 493.493C225.024 494.508 224.978 494.413 226.289 496.103C226.435 497.848 226.619 497.028 225.515 498.593C220.538 501.308 220.421 499.948 215.994 500.758Z" fill="#000000"/>
<path d="M233.028 496.358L234.266 495.988L235.176 497.863L234.873 498.098L234.891 497.863C233.973 498.623 234.459 498.383 233.483 498.673C235.422 501.868 236.682 503.428 239.978 505.288C240.798 505.308 241.64 505.353 242.455 505.298C243.321 508.368 243.908 510.998 246.022 513.503L245.341 513.523C243.354 511.983 232.398 500.203 231.782 498.018L233.028 496.358Z" fill="white"/>
<path d="M257.136 515.398C258.125 518.248 258.862 521.478 261.114 523.398L261.956 523.543L263.292 522.088C263.16 523.448 263.134 523.953 262.548 525.183L262.916 525.598C263.843 526.663 264.388 527.103 264.775 528.458C261.927 526.913 256.258 522.843 253.77 520.808C255.71 521.438 254.897 521.558 256.543 521.153L257.126 520.093C256.994 518.668 256.906 517.813 257.039 516.373L257.136 515.398Z" fill="white"/>
<path d="M260.817 500.988C272.702 497.538 264.737 517.898 263.292 522.088L261.956 523.543L261.114 523.398C258.862 521.478 258.125 518.248 257.136 515.398C257.129 511.198 256.881 508.573 258.494 504.628C259.11 503.118 259.851 502.323 260.817 500.988Z" fill="#000000"/>
<path d="M260.817 500.988C264.084 502.623 268.003 505.118 265.641 509.478C264.714 508.698 264.158 508.163 263.304 507.303L262.845 507.333C261.222 511.088 264.421 514.983 261.675 521.133L261.438 521.208C261.427 519.568 261.37 519.448 261.796 517.798C259.191 515.783 260.262 518.563 258.425 515.928C258.352 513.248 258.758 506.348 258.494 504.628C259.11 503.118 259.851 502.323 260.817 500.988Z" fill="#000000"/>
<path d="M242.455 505.298C239.015 481.778 256.555 491.968 251.192 506.103C250.085 508.948 248.312 511.483 246.022 513.503C243.908 510.998 243.321 508.368 242.455 505.298Z" fill="#000000"/>
<path d="M243.897 502.143C243.672 500.393 243.438 499.533 243.925 497.858L244.498 497.718C246.082 498.893 245.993 498.868 247 500.603L247.904 501.588C246.897 504.878 247.433 508.448 246.386 510.888C243.602 509.948 243.57 504.578 243.897 502.143Z" fill="#000000"/>
<path d="M379.455 511.613C378.25 510.963 377.19 510.063 376.35 508.978C372.34 503.728 371.405 489.058 380.365 491.128C384.315 496.493 385.465 506.188 380.725 511.248L379.455 511.613Z" fill="#000000"/>
<path d="M392.295 478.968C402.245 481.568 397.935 492.608 394.51 498.988C385.435 495.598 387.895 485.258 392.295 478.968Z" fill="#000000"/>
<path d="M234.851 519.083C238.219 519.348 246.767 520.113 247.366 523.888C246.219 526.358 243.743 527.338 241.332 528.613C239.556 529.128 236.963 529.408 235.065 529.688C231.622 528.438 229.269 527.858 229.164 523.808C230.411 521.023 232.087 520.423 234.851 519.083Z" fill="#000000"/>
<path d="M375.115 531.663C380.395 531.498 396.94 532.528 387.99 541.133C382.7 542.868 369.28 539.938 375.115 531.663Z" fill="#000000"/>
<path d="M375.475 532.793C377.065 532.783 378.655 532.783 380.24 532.788C385.505 532.763 384.56 533.833 388.59 536.243L388.25 537.008C386.595 537.633 386.57 537.828 385.63 539.208C384.09 538.843 384.4 538.828 383.14 537.793C380.16 538.448 376.645 538.893 374.84 535.968C374.745 534.253 374.765 534.373 375.475 532.793Z" fill="#000000"/>
<path d="M384.63 520.808C389.275 520.488 394.835 520.563 398.565 523.648C399.905 526.753 397.365 528.098 394.955 529.678C391.035 529.888 379.47 528.098 380.56 522.653C381.99 521.328 382.755 521.298 384.63 520.808Z" fill="#000000"/>
<path d="M223.412 507.313C227.272 506.978 236.285 507.768 236.42 512.833C235.381 514.658 234.886 514.758 232.994 515.873C229.314 516.208 218.427 515.653 219.715 510.013C221.157 508.333 221.367 508.318 223.412 507.313Z" fill="#000000"/>
<path d="M245.779 532.723C255.461 531.818 255.654 539.108 247.293 541.693C243.703 541.708 240.592 541.823 239.22 537.883C239.439 533.873 242.605 533.503 245.779 532.723Z" fill="#000000"/>
</svg>
