<svg width="624" height="624" viewBox="0 0 624 624" fill="none" xmlns="http://www.w3.org/2000/svg">
<path d="M178.446 257.618C176.876 253.782 171.858 233.673 173.237 231.302C178.284 222.62 211.879 215.099 219.721 213.275C279.528 199.362 352.835 192.775 411.975 211.773C422.345 214.794 440.93 222.479 450.175 228.053L450.845 228.448C450.555 236.573 448.675 245.414 446.54 253.296C445.83 257.808 444.47 263.118 443.435 267.628C442.2 273.083 441.015 278.758 439.46 284.113C432.845 317.343 417.38 363.543 389.175 384.603C388.78 384.898 388.56 385.018 388.16 385.243C384.84 387.653 382.125 389.358 378.61 391.498C375.04 393.593 370.285 396.133 367.065 398.498C369.905 398.403 373.19 397.993 375.425 400.068C380.81 405.063 377.135 414.658 372.72 418.938C370.76 420.808 368.345 422.138 365.72 422.798C359.48 424.448 346.235 423.718 339.36 423.698L278.587 423.688C267.959 423.653 260.548 425.473 253.175 416.228C249.672 412.303 246.133 404.708 251.495 400.648C255.011 397.988 258.355 398.693 262.416 399.193C238.695 386.878 220.346 372.293 207.847 347.778C199.67 334.473 188.938 297.468 184.835 281.093C183.729 277.888 183.242 276.033 182.509 272.713L182.023 271.243C180.702 266.598 179.495 262.348 178.446 257.618Z" fill="white"/>
<path d="M178.446 257.618C176.876 253.782 171.858 233.673 173.237 231.302C178.284 222.62 211.879 215.099 219.721 213.275C279.528 199.362 352.835 192.775 411.975 211.773C422.345 214.794 440.93 222.479 450.175 228.053L450.845 228.448C450.555 236.573 448.675 245.414 446.54 253.296C445.83 257.808 444.47 263.118 443.435 267.628C442.2 273.083 441.015 278.758 439.46 284.113L438.87 283.993L438.44 284.363C436.14 284.498 436.515 284.813 434.74 283.913C433.39 281.858 433.415 281.468 432.855 278.998C433.575 275.578 434.245 272.183 435.16 268.808C422.585 274.203 413.45 278.013 400.405 282.273C354.41 295.228 312.64 298.098 264.957 291.248C258.465 290.318 247.981 288.738 241.798 286.923C232.605 284.908 222.571 281.828 213.711 278.698C209.796 277.268 205.932 275.708 202.123 274.018C199.574 272.968 192.395 268.918 190.145 269.203L189.878 270.093C188.67 274.573 191.329 276.278 188.31 278.923C187.827 277.003 187.034 272.508 185.018 271.798C184.807 272.768 184.685 273.388 184.554 274.383L184.454 275.188L183.427 273.018L182.509 272.713L182.023 271.243C180.702 266.598 179.495 262.348 178.446 257.618Z" fill="#111827"/>
<path d="M183.051 245.378C182.687 243.504 182.344 241.921 181.865 240.074C191.226 244.851 200.832 249.784 210.685 253.499C254.8 270.128 304.31 272.658 350.81 267.618C353.725 267.303 357.335 266.718 360.205 266.638L388.74 261.133L388.815 260.773C397.41 260.333 415.855 251.049 423.58 248.855C430.255 248.941 430.86 245.848 435.84 244.013C437.435 245.65 436.12 245.385 437.88 247.284C438.67 251.445 433.99 257.663 430.94 260.253C427.24 260.808 428.755 260.208 426.06 262.848L425.08 262.568C424.04 263.088 424.175 263.528 423.58 264.948C419.44 267.338 400.725 273.988 395.555 275.213C394.79 276.428 394.375 276.953 393.945 278.353L392.77 278.708L392.46 279.703C394.56 281.333 398.19 278.008 400.405 282.273C354.41 295.228 312.64 298.098 264.957 291.248C258.465 290.318 247.981 288.738 241.798 286.923C232.605 284.908 222.571 281.828 213.711 278.698C209.796 277.268 205.932 275.708 202.123 274.018C199.574 272.968 192.395 268.918 190.145 269.203L189.878 270.093C188.67 274.573 191.329 276.278 188.31 278.923C187.827 277.003 187.034 272.508 185.018 271.798C184.807 272.768 184.685 273.388 184.554 274.383L184.454 275.188L183.427 273.018L182.509 272.713L182.023 271.243C183.254 266.558 180.26 267.913 184.167 262.888C184.666 260.648 183.293 259.103 183.802 255.734C184.484 256.125 185.175 256.448 185.902 256.743C185.028 252.937 184.077 249.147 183.051 245.378Z" fill="white"/>
<path d="M341.725 285.723C358.455 284.528 379.53 279.753 395.555 275.213C394.79 276.428 394.375 276.953 393.945 278.353L392.77 278.708L392.46 279.703C394.56 281.333 398.19 278.008 400.405 282.273C354.41 295.228 312.64 298.098 264.957 291.248C258.465 290.318 247.981 288.738 241.798 286.923C240.198 284.753 238.825 283.588 236.07 283.588C237.694 279.898 238.183 280.458 239.057 278.293C251.062 281.313 263.23 283.653 275.501 285.293C277.053 285.383 281.313 285.623 282.574 286.063C293.195 286.783 303.835 287.148 314.48 287.153C320.93 287.103 327.36 286.593 333.61 286.523C335.18 286.088 339.85 285.863 341.725 285.723Z" fill="#111827"/>
<path d="M333.61 286.523C335.18 286.088 339.85 285.863 341.725 285.723C344.82 287.363 346.065 285.728 349.155 286.168C350.08 286.298 349.665 287.318 351.09 287.918C347.66 289.148 333.62 290.523 330.985 287.688C332.02 287.578 332.805 287.518 333.755 287.078L333.61 286.523Z" fill="#111827"/>
<path d="M275.501 285.293C277.053 285.383 281.313 285.623 282.574 286.063C283.952 287.263 286.477 287.468 288.379 287.828L288.395 288.633C285.866 290.618 272 288.378 269.919 286.273L270.46 285.803C272.639 285.913 273.409 285.898 275.501 285.293Z" fill="#111827"/>
<path d="M182.023 271.243C183.254 266.558 180.26 267.913 184.167 262.888C184.666 260.648 183.293 259.103 183.802 255.734C184.484 256.125 185.175 256.448 185.902 256.743C192.399 264.368 228.412 275.623 239.057 278.293C238.183 280.458 237.694 279.898 236.07 283.588C238.825 283.588 240.198 284.753 241.798 286.923C232.605 284.908 222.571 281.828 213.711 278.698C209.796 277.268 205.932 275.708 202.123 274.018C199.574 272.968 192.395 268.918 190.145 269.203L189.878 270.093C188.67 274.573 191.329 276.278 188.31 278.923C187.827 277.003 187.034 272.508 185.018 271.798C184.807 272.768 184.685 273.388 184.554 274.383L184.454 275.188L183.427 273.018L182.509 272.713L182.023 271.243Z" fill="#111827"/>
<path d="M202.123 274.018C204.344 274.023 209.337 273.443 210.481 274.068L210.771 274.568C211.745 276.213 212.901 277.373 213.711 278.698C209.796 277.268 205.932 275.708 202.123 274.018Z" fill="#111827"/>
<path d="M360.205 266.638L388.74 261.133C386.505 264.773 364.04 269.508 360.205 266.638Z" fill="white"/>
<path d="M423.58 248.855C428.05 246.18 435.805 242.449 440.63 240.141L441.135 240.675L440.85 243.021C439.965 247.145 438.98 251.247 437.895 255.324L436.315 259.083C432.6 260.878 427.335 263.608 423.58 264.948C424.175 263.528 424.04 263.088 425.08 262.568L426.06 262.848C428.755 260.208 427.24 260.808 430.94 260.253C433.99 257.663 438.67 251.445 437.88 247.284C436.12 245.385 437.435 245.65 435.84 244.013C430.86 245.848 430.255 248.941 423.58 248.855Z" fill="white"/>
<path d="M178.446 257.618C179.757 258.063 179.444 258.158 180.362 259.693L181.352 259.778C182.32 256.783 179.744 251.859 178.44 248.802L179.658 248.399L181.027 249.167C182.531 248.888 180.08 247.927 183.051 245.378C184.077 249.147 185.028 252.937 185.902 256.743C185.175 256.448 184.484 256.125 183.802 255.734C183.293 259.103 184.666 260.648 184.167 262.888C180.26 267.913 183.254 266.558 182.023 271.243C180.702 266.598 179.495 262.348 178.446 257.618Z" fill="#111827"/>
<path d="M440.85 243.021C442.41 247.1 442.81 248.19 443.345 252.439C441.55 253.371 439.685 254.513 437.895 255.324C438.98 251.247 439.965 247.145 440.85 243.021Z" fill="#111827"/>
<path d="M444.335 256.643L445.595 253.574L446.54 253.296C445.83 257.808 444.47 263.118 443.435 267.628C440.565 265.203 441.9 258.723 444.335 256.643Z" fill="#111827"/>
<path d="M282.747 210.18C290.783 209.663 298.867 208.815 306.89 208.471C328.315 207.442 349.79 208.325 371.06 211.11C375.355 211.838 379.85 212.53 384.11 213.368C390.505 214.554 398.275 216.211 404.555 218C416.16 221.858 428.155 226.827 439.47 231.595C423.02 241.17 406.87 248.676 388.16 252.886C386.69 253.217 383.075 253.975 381.79 254.5C374.195 256.041 366.58 257.463 358.94 258.768L357.95 258.878C334.915 261.623 318.08 261.878 295.245 261.513C288.853 261.483 284.553 265.013 278.498 260.578C277.537 260.288 267.266 259.308 264.797 258.868C260.961 258.483 257.093 257.698 253.294 256.998C231.816 253.145 203.074 243.547 184.204 232.469C203.157 223.232 242.327 216.486 263.528 212.857L282.747 210.18Z" fill="white"/>
<path d="M253.294 256.998C257.527 255.91 264.233 251.861 264.797 258.868C260.961 258.483 257.093 257.698 253.294 256.998Z" fill="white"/>
<path d="M357.95 258.878C355.98 256.048 352.89 258.398 348.735 256.758L348.615 255.986C351.13 254.674 355.77 254.977 358.345 256.178C359.31 257.673 359.06 256.853 358.94 258.768L357.95 258.878Z" fill="white"/>
<path d="M278.498 260.578C283.381 260.833 290.559 260.998 295.245 261.513C288.853 261.483 284.553 265.013 278.498 260.578Z" fill="#111827"/>
<path d="M189.878 270.093C191.558 274.518 192.823 280.028 194.078 284.673C199.25 303.803 204.522 321.773 212.823 339.843C227.317 367.778 243.309 384.758 274.36 394.858C292.453 400.748 326.485 400.083 345.37 396.423C354.705 394.613 363.485 391.023 371.855 386.658C372.255 386.448 372.65 386.238 373.045 386.018C375.405 384.678 377.59 383.193 379.85 381.698C400.265 368.038 411.305 346.823 419.57 324.588C421.475 319.438 423.79 313.118 424.9 307.778C427.17 301.838 430.915 286.003 432.855 278.998C433.415 281.468 433.39 281.858 434.74 283.913C436.515 284.813 436.14 284.498 438.44 284.363L438.87 283.993L439.46 284.113C432.845 317.343 417.38 363.543 389.175 384.603C388.78 384.898 388.56 385.018 388.16 385.243C384.84 387.653 382.125 389.358 378.61 391.498C375.04 393.593 370.285 396.133 367.065 398.498C369.905 398.403 373.19 397.993 375.425 400.068C380.81 405.063 377.135 414.658 372.72 418.938C370.76 420.808 368.345 422.138 365.72 422.798C359.48 424.448 346.235 423.718 339.36 423.698L278.587 423.688C267.959 423.653 260.548 425.473 253.175 416.228C249.672 412.303 246.133 404.708 251.495 400.648C255.011 397.988 258.355 398.693 262.416 399.193C238.695 386.878 220.346 372.293 207.847 347.778C199.67 334.473 188.938 297.468 184.835 281.093C183.729 277.888 183.242 276.033 182.509 272.713L183.427 273.018L184.454 275.188L184.554 274.383C184.685 273.388 184.807 272.768 185.018 271.798C187.034 272.508 187.827 277.003 188.31 278.923C191.329 276.278 188.67 274.573 189.878 270.093Z" fill="#111827"/>
<path d="M258.423 407.153C267.563 406.283 365.135 405.738 370.235 407.353C369.675 410.533 367.045 414.978 363.58 415.423C348.865 417.318 333.54 416.348 318.665 416.558C303.125 416.773 287.45 416.763 271.913 416.498C267.734 416.373 258.311 415.178 257.628 408.898C257.515 407.863 257.742 408.023 258.423 407.153Z" fill="white"/>
<path d="M194.566 296.938C194.823 297.338 194.623 297.138 195.322 297.318L196.003 297.068C196.838 298.583 197.615 303.383 196.772 304.938C193.616 303.073 192.567 301.853 192.923 298.243C193.987 297.813 193.821 297.813 194.566 296.938Z" fill="#111827"/>
<path d="M424.9 307.778C423.79 313.118 421.475 319.438 419.57 324.588L418.98 323.368C420.38 319.263 419.61 312.503 421.44 310.418C422.375 310.818 421.88 310.683 422.92 310.813C423.69 309.253 423.685 309.088 424.9 307.778Z" fill="white"/>
<path d="M308.875 324.963C310.815 322.468 313.13 319.208 316.235 318.253C323.925 315.893 325.23 326.143 326.275 331.038C326.51 330.718 326.755 330.408 327 330.098C330.21 326.093 333.985 326.003 337.77 329.268C342.435 334.748 341.235 340.753 335.765 345.093L333.91 346.298L333.92 347.078C336.495 349.078 338.83 349.643 340.53 352.638C349.105 364.183 334.705 373.468 324.505 363.658L323.735 363.523C323.85 367.338 324.95 372.888 323.105 376.378C320.295 381.683 312.21 380.578 309.295 375.928C307.295 372.738 306.78 369.448 305.93 365.908C300.655 368.798 292.87 372.038 288.303 365.888C286.957 364.083 286.471 361.773 286.972 359.578C288.062 354.593 292.428 352.018 296.322 349.433C291.868 348.483 284.854 344.358 283.868 339.903C281.518 333.278 292.943 331.763 293.238 330.388C294.921 322.538 294.912 312.068 308.875 324.963Z" fill="#111827"/>
<path d="M311.93 339.458C316.715 338.153 321.64 341.003 322.895 345.803C324.15 350.598 321.25 355.493 316.44 356.698C311.7 357.888 306.885 355.038 305.65 350.308C304.415 345.583 307.215 340.738 311.93 339.458Z" fill="white"/>
<path d="M329.88 337.003L331.975 335.943L332.735 336.208C332.325 338.258 331.395 338.808 329.755 339.928C327.68 340.853 328.67 340.828 326.73 340.393L327.12 340.853L326.425 340.698C327.045 339.283 328.665 338.078 329.88 337.003Z" fill="#111827"/>
<path d="M294.503 338.348C297.07 338.613 300.655 339.008 300.955 342.008C298.646 341.538 295.563 341.018 294.043 339.138L294.503 338.348Z" fill="white"/>
<path d="M326.575 356.143C330.065 356.058 332.84 356.968 334.835 359.908C331.455 359.838 329.08 358.268 326.575 356.143Z" fill="#111827"/>
<path d="M302.385 356.503L303.335 356.788C302.65 358.858 299.876 359.968 297.882 361.003L296.778 360.908L296.764 360.258C298.152 358.853 300.62 357.553 302.385 356.503Z" fill="#111827"/>
<path d="M317.72 325.928L318.415 326.458C319.225 328.573 319.135 329.588 319.265 331.898C317.755 330.093 318.065 328.633 317.72 325.928Z" fill="#111827"/>
<path d="M375.71 344.923C382.69 339.583 388.925 333.748 394.135 326.633C396.13 323.943 397.89 321.088 399.4 318.103C401.965 313.023 408.195 295.408 415.305 295.178C417.78 295.098 419.84 299.378 418.595 301.503C415.715 309.738 407.715 311.413 402.62 317.458C406.945 316.943 416.18 314.268 417.365 319.918C414.95 326.943 405.69 325.793 399.97 325.298C397.845 328.133 396.275 330.318 394.4 333.308C397.9 332.723 406.51 330.963 407.965 335.183C406.675 341.033 399.965 341.768 394.915 341.123C392.625 340.833 391.97 339.238 390.71 337.438C388.47 338.618 382.545 344.673 380.285 346.533C375.545 350.433 359.085 363.363 353.625 364.008C352.215 363.398 351.975 363.168 352.23 361.423C352.83 357.693 361.415 352.883 364.7 350.783C365.185 348.673 361.26 346.048 361.475 343.108C352.79 321.998 370.555 319.938 369.515 340.693C371.4 341.743 370.72 341.023 371.69 342.888C371.445 344.638 371.35 344.608 370.385 346.013L370.87 346.448C373.28 346.013 373.74 345.368 375.71 344.923Z" fill="#111827"/>
<path d="M361.475 343.108C352.79 321.998 370.555 319.938 369.515 340.693L366.8 350.158C365.08 347.828 363.305 345.333 361.475 343.108Z" fill="#111827"/>
<path d="M366.8 350.158L369.515 340.693C371.4 341.743 370.72 341.023 371.69 342.888C371.445 344.638 371.35 344.608 370.385 346.013L370.87 346.448C373.28 346.013 373.74 345.368 375.71 344.923C368.575 350.938 359.35 354.783 352.23 361.423C352.83 357.693 361.415 352.883 364.7 350.783C365.185 348.673 361.26 346.048 361.475 343.108C363.305 345.333 365.08 347.828 366.8 350.158Z" fill="white"/>
<path d="M209.378 303.093C205.171 294.768 213.77 290.858 218.461 300.083C220.565 303.568 223.104 311.013 224.916 315.188L226.287 313.973C226.411 312.518 226.513 311.773 226.77 310.378C227.44 308.223 227.635 306.853 229.187 305.288C235.782 302.623 239.192 314.843 234.266 320.988L235.176 322.863L234.873 323.098L234.891 322.863C233.973 323.623 234.459 323.383 233.483 323.673C235.422 326.868 236.682 328.428 239.978 330.288C240.798 330.308 241.64 330.353 242.455 330.298C243.321 333.368 243.908 335.998 246.022 338.503L245.341 338.523C247.352 340.638 251.323 344.273 253.77 345.808C255.71 346.438 254.897 346.558 256.543 346.153L257.126 345.093C256.994 343.668 256.906 342.813 257.039 341.373L257.136 340.398C258.125 343.248 258.862 346.478 261.114 348.398L261.956 348.543L263.292 347.088C263.16 348.448 263.134 348.953 262.548 350.183L262.916 350.598C263.843 351.663 264.388 352.103 264.775 353.458C268.425 356.403 273.456 358.263 275.584 361.733C275.807 363.638 275.96 362.758 275.093 364.483C272.449 364.798 268.267 361.153 266.071 359.733C251.53 350.333 239.751 338.298 228.856 324.953C223.573 326.868 221.396 327.828 215.994 325.758C213.103 324.198 210.571 322.443 211.223 318.913C214.421 314.833 219.1 316.838 223.106 318.493C224.695 313.808 212.474 310.678 209.378 303.093Z" fill="#111827"/>
<path d="M226.77 310.378C227.44 308.223 227.635 306.853 229.187 305.288C235.782 302.623 239.192 314.843 234.266 320.988L233.028 321.358C230.393 321.218 230.722 322.763 228.598 322.208L228.267 320.493C226.487 318.523 226.086 317.533 224.916 315.188L226.287 313.973C226.411 312.518 226.513 311.773 226.77 310.378Z" fill="#111827"/>
<path d="M224.916 315.188L226.287 313.973C226.411 312.518 226.513 311.773 226.77 310.378C227.174 313.738 227.521 317.203 228.267 320.493C226.487 318.523 226.086 317.533 224.916 315.188Z" fill="white"/>
<path d="M209.378 303.093C205.171 294.768 213.77 290.858 218.461 300.083C218.263 303.283 219.801 307.448 221.456 310.153C221.304 311.318 221.587 310.993 220.934 311.503C216.542 310.928 212.21 303.723 209.378 303.093Z" fill="#111827"/>
<path d="M215.994 325.758C213.103 324.198 210.571 322.443 211.223 318.913C214.421 314.833 219.1 316.838 223.106 318.493C225.024 319.508 224.978 319.413 226.289 321.103C226.435 322.848 226.619 322.028 225.515 323.593C220.538 326.308 220.421 324.948 215.994 325.758Z" fill="#111827"/>
<path d="M233.028 321.358L234.266 320.988L235.176 322.863L234.873 323.098L234.891 322.863C233.973 323.623 234.459 323.383 233.483 323.673C235.422 326.868 236.682 328.428 239.978 330.288C240.798 330.308 241.64 330.353 242.455 330.298C243.321 333.368 243.908 335.998 246.022 338.503L245.341 338.523C243.354 336.983 232.398 325.203 231.782 323.018L233.028 321.358Z" fill="white"/>
<path d="M257.136 340.398C258.125 343.248 258.862 346.478 261.114 348.398L261.956 348.543L263.292 347.088C263.16 348.448 263.134 348.953 262.548 350.183L262.916 350.598C263.843 351.663 264.388 352.103 264.775 353.458C261.927 351.913 256.258 347.843 253.77 345.808C255.71 346.438 254.897 346.558 256.543 346.153L257.126 345.093C256.994 343.668 256.906 342.813 257.039 341.373L257.136 340.398Z" fill="white"/>
<path d="M260.817 325.988C272.702 322.538 264.737 342.898 263.292 347.088L261.956 348.543L261.114 348.398C258.862 346.478 258.125 343.248 257.136 340.398C257.129 336.198 256.881 333.573 258.494 329.628C259.11 328.118 259.851 327.323 260.817 325.988Z" fill="#111827"/>
<path d="M260.817 325.988C264.084 327.623 268.003 330.118 265.641 334.478C264.714 333.698 264.158 333.163 263.304 332.303L262.845 332.333C261.222 336.088 264.421 339.983 261.675 346.133L261.438 346.208C261.427 344.568 261.37 344.448 261.796 342.798C259.191 340.783 260.262 343.563 258.425 340.928C258.352 338.248 258.758 331.348 258.494 329.628C259.11 328.118 259.851 327.323 260.817 325.988Z" fill="#111827"/>
<path d="M242.455 330.298C239.015 306.778 256.555 316.968 251.192 331.103C250.085 333.948 248.312 336.483 246.022 338.503C243.908 335.998 243.321 333.368 242.455 330.298Z" fill="#111827"/>
<path d="M243.897 327.143C243.672 325.393 243.438 324.533 243.925 322.858L244.498 322.718C246.082 323.893 245.993 323.868 247 325.603L247.904 326.588C246.897 329.878 247.433 333.448 246.386 335.888C243.602 334.948 243.57 329.578 243.897 327.143Z" fill="#111827"/>
<path d="M379.455 336.613C378.25 335.963 377.19 335.063 376.35 333.978C372.34 328.728 371.405 314.058 380.365 316.128C384.315 321.493 385.465 331.188 380.725 336.248L379.455 336.613Z" fill="#111827"/>
<path d="M392.295 303.968C402.245 306.568 397.935 317.608 394.51 323.988C385.435 320.598 387.895 310.258 392.295 303.968Z" fill="#111827"/>
<path d="M234.851 344.083C238.219 344.348 246.767 345.113 247.366 348.888C246.219 351.358 243.743 352.338 241.332 353.613C239.556 354.128 236.963 354.408 235.065 354.688C231.622 353.438 229.269 352.858 229.164 348.808C230.411 346.023 232.087 345.423 234.851 344.083Z" fill="#111827"/>
<path d="M375.115 356.663C380.395 356.498 396.94 357.528 387.99 366.133C382.7 367.868 369.28 364.938 375.115 356.663Z" fill="#111827"/>
<path d="M375.475 357.793C377.065 357.783 378.655 357.783 380.24 357.788C385.505 357.763 384.56 358.833 388.59 361.243L388.25 362.008C386.595 362.633 386.57 362.828 385.63 364.208C384.09 363.843 384.4 363.828 383.14 362.793C380.16 363.448 376.645 363.893 374.84 360.968C374.745 359.253 374.765 359.373 375.475 357.793Z" fill="#111827"/>
<path d="M384.63 345.808C389.275 345.488 394.835 345.563 398.565 348.648C399.905 351.753 397.365 353.098 394.955 354.678C391.035 354.888 379.47 353.098 380.56 347.653C381.99 346.328 382.755 346.298 384.63 345.808Z" fill="#111827"/>
<path d="M223.412 332.313C227.272 331.978 236.285 332.768 236.42 337.833C235.381 339.658 234.886 339.758 232.994 340.873C229.314 341.208 218.427 340.653 219.715 335.013C221.157 333.333 221.367 333.318 223.412 332.313Z" fill="#111827"/>
<path d="M245.779 357.723C255.461 356.818 255.654 364.108 247.293 366.693C243.703 366.708 240.592 366.823 239.22 362.883C239.439 358.873 242.605 358.503 245.779 357.723Z" fill="#111827"/>
</svg>
