<?xml version="1.0" encoding="utf-8" ?><svg xmlns="http://www.w3.org/2000/svg" xmlns:xlink="http://www.w3.org/1999/xlink" viewBox="380 340 265 340"><path fill="#1B4D3E" d="M503.207 348.65C515.085 354.349 522.036 370.266 521.81 382.971C521.762 387.298 520.028 392.929 520.611 397.149C521.646 404.636 523.537 411.809 524.502 419.377C526.308 413.388 526.809 406.174 528.94 400.048C533.456 387.072 540.622 380.871 552.469 374.948C553.306 378.669 553.696 382.476 553.631 386.289C553.459 405.598 542.625 408.113 531.011 418.711C521.62 427.28 521.032 462.233 521.29 474.7C526.526 475.16 533.133 475.005 538.486 475.019C539.134 473.408 540.282 470.583 541.219 469.161C543.487 465.718 546.97 462.654 548.448 458.759C547.944 454.724 537.862 452.708 537.441 449.558C536.637 443.54 546.384 417.759 551.758 416.262C556.166 421.761 543.279 438.441 544.254 446.499C545.366 448.229 544.63 447.639 546.507 448.372C550.574 446.154 556.173 422.58 562.515 420.481L563.585 421.137C566.384 426.79 553.685 444.021 554.096 451.026C555.057 452.422 554.411 451.968 556.166 452.328C563.464 450.147 565.969 425.329 573.496 425.662C578.544 430.258 563.509 448.156 564.063 455.473C565.16 456.551 564.513 456.194 566.127 456.464C572.945 454.425 577.428 430.782 583.344 430.059L584.138 430.962C585.398 437.533 577.276 451.536 574.489 458.04C570.822 466.597 562.563 462.227 556.242 459.527C552.025 466.067 553.484 468.79 552.645 476.366C558.301 476.522 567.195 477.622 572.783 478.472C576.113 473.01 573.935 474.04 575.191 469.466C577.014 462.827 585.592 453.328 589.264 447.11C594.784 437.761 599.927 429.664 605.551 420.515C606.81 418.466 609.108 415.453 610.965 413.887C612.377 412.977 615.309 412.882 617.009 413.297C619.539 413.915 621.086 415.293 622.55 417.35C623.432 418.506 624.068 421.642 623.493 422.975C620.893 429.004 616.854 434.567 613.261 440.079C609.041 446.553 604.554 452.956 600.427 459.501C596.698 465.414 593.365 471.643 589.511 477.471C589.071 478.136 585.502 479.914 584.661 480.347C596.171 482.704 617.358 484.613 625.116 493.934C631.312 501.375 617.876 519.659 615.242 528.043C610.177 544.164 607.393 560.536 604.112 577.118C597.651 606.741 586.943 620.108 562.962 638.914C563.429 642.525 563.901 646.266 563.507 649.856C563.097 653.589 560.694 657.798 557.523 659.904C540.683 671.094 511.144 672.754 491.744 669.882C481.623 668.383 465.188 664.483 459.123 655.749C455.454 650.467 456.573 644.924 457.707 639.201C445.903 629.455 432.057 618.049 425.307 604.001C413.553 579.54 413.644 550.061 403.911 524.662C401.304 517.857 394.891 508.185 393.633 501.632C393.209 499.349 393.717 496.991 395.043 495.085C403.135 483.362 431.505 480.764 445.498 478.518C439.54 471.717 431.651 455.608 429.334 446.829C425.738 433.208 426.94 420.549 433.907 408.326C436.113 408.358 438.316 408.502 440.508 408.757C453.459 410.267 464.326 417.002 472.245 427.442C476.039 432.443 488.596 450.585 487.922 457.281C487.605 460.425 478.565 465.971 475.425 468.09C476.776 471.337 477.806 472.865 479.69 475.829C485.312 475.725 510.516 474.983 514.768 473.745L514.999 473.048C512.33 468.04 490.982 450.574 500.261 443.725C507.306 442.179 514.684 457.621 516.664 462.631C517.47 454.523 518.01 449.237 517.386 441.024C512.891 433.366 504.053 431.525 497.83 425.017C490.047 416.879 488.45 408.284 488.375 397.532C508.005 403.139 515.403 415.615 519.304 434.62C519.867 422.686 520.202 404.129 512.338 394.577C499.956 379.537 495.126 367.752 503.207 348.65Z"/><path fill="#FDFDFC" d="M412.731 529.846C465.644 543.679 524.861 543.744 579.122 536.332C588.477 535.055 598.349 532.314 607.487 529.965C605.8 536.93 604.048 543.878 602.23 550.81C594.928 552.132 593.89 552.99 588.601 558.242C587.978 557.619 587.332 557.02 586.665 556.445C584.774 554.816 584.167 554.527 581.739 554.73C575.288 557.976 578.206 577.334 582.423 579.387C585.159 578.818 587.247 572.838 590.88 574.164C595.779 575.954 593.931 579.914 593.173 583.39C593.743 584.104 594.022 584.428 594.677 585.093L595.224 585.637C595.626 591.681 584.829 607.75 581.121 612.637C577.141 617.506 572.772 622.042 568.054 626.2C550.302 641.664 527.13 649.433 503.644 647.797C479.932 645.834 457.928 634.673 442.337 616.699C437.372 610.881 426.223 594.942 425.63 586.08C425.596 585.566 427.026 584.725 427.632 584.275C428.02 581.718 424.101 576.486 429.37 573.476C434.166 573.042 436.819 577.088 438.2 581.063L438.439 581.77C439.525 580.039 440.442 578.208 441.179 576.301C444.084 568.602 446.924 547.316 432.336 558.254C430.004 554.948 428.623 553.994 425.306 551.953C423.33 551.858 420.71 552.013 418.684 552.073C416.506 545.661 414.448 536.588 412.731 529.846Z"/><path fill="#1B4D3E" d="M507.76 551.543C516.356 550.523 517.615 555.861 520.257 562.898C541.105 552.956 532.373 581.328 516.942 588.66C516.964 583.913 517.05 582.428 513.343 579.4C502.521 576.989 505.829 585.182 502.927 587.846C491.355 584.371 478.75 552.943 500.907 562.649C503.125 557.038 503.344 555.665 507.76 551.543Z"/><path fill="#1B4D3E" d="M555.942 568.305C560.552 570.344 560.13 583.077 559.535 587.46C557.769 600.466 550.879 609.02 540.686 616.724L538.735 617.596L537.976 617.158C536.721 613.958 537.344 611.084 537.599 607.77C538.765 592.634 543.939 578.33 555.942 568.305Z"/><path fill="#1B4D3E" d="M464.145 568.276C471.628 572.405 477.882 586.24 480.387 594.062C481.912 598.827 484.654 612.619 482.846 617.306L481.697 617.677C465.054 609.045 455.549 585.625 464.145 568.276Z"/><path fill="#1B4D3E" d="M509.643 592.679C514.257 594.111 512.656 607.658 512.547 611.861C515.566 606.954 520.897 597.86 527.735 599.447C530.39 601.513 530.354 603.839 528.753 606.69C525.283 612.868 518.926 615.408 512.519 617.469C512.534 620.778 512.706 624.741 512.109 627.909C510.316 627.662 510.067 627.797 508.693 626.611C507.315 623.875 507.896 620.653 508.046 617.452C502.657 614.595 490.358 609.075 490.908 601.075C491.174 600.362 491.373 599.575 492.118 599.268C499.218 596.346 505.703 606.73 508.43 611.273C508.118 605.848 507.083 597.245 509.643 592.679Z"/><path fill="#1B4D3E" d="M570.512 586.159C576.996 588.32 577.24 595.375 577.806 601.148C579.414 597.359 582.352 589.308 585.67 587.157L586.364 587.429C586.811 592.119 583.551 597.634 581.367 601.622C579.169 605.037 573.502 614.012 569.211 614.051L569.061 612.763C569.895 610.021 571.202 608.84 573.049 606.643C568.404 599.644 566.554 594.147 570.512 586.159Z"/><path fill="#1B4D3E" d="M435.386 586.247C438.221 587.997 441.739 597.258 443.246 600.707C444.074 596.585 445.26 588.93 450.015 587.914C455.36 589.917 452.834 598.125 451.249 602.053L448.598 606.152C449.875 608.362 451.755 610.598 450.864 613.116L449.785 613.204C443.491 609.697 433.772 593.397 435.386 586.247Z"/><path fill="#FDFDFC" d="M404.363 508.925C413.01 510.866 420.65 513.547 429.775 514.769C487.198 522.457 560.754 523.731 616.413 508.94C615.108 512.167 613.222 515.932 611.715 519.134L609.529 523.703C562.054 539.379 458.354 539.239 410.604 523.664C408.926 520.107 405.229 512.52 404.363 508.925Z"/><path fill="#FDFDFC" d="M436.475 413.103C462.5 415.279 474.196 434.514 484.045 456.59C480.129 459.49 477.199 461.132 472.995 463.513C470.077 459.462 466.61 454.212 462.608 451.352C460.929 450.957 460.949 450.979 459.215 451.052C454.065 454.258 459.462 465.391 461.086 470.105C458.926 471.561 452.428 476.343 450.093 475.163C444.537 472.355 440.879 462.878 438.417 457.605C430.595 440.853 429.798 430.202 436.475 413.103Z"/><path fill="#FDFDFC" d="M556.049 642.515C557.95 644.679 558.507 649.18 556.446 651.432C549.855 658.633 535.307 661.826 526.249 663.119C507.7 665.768 481.274 664.612 465.672 653.087C463.229 650.413 462.394 646.922 464.347 643.665C466.309 643.976 478.64 649.609 482.553 650.839C499.736 656.242 518.899 656.58 536.099 651.096C543.257 648.814 549.432 645.689 556.049 642.515Z"/><path fill="#FDFDFC" d="M465.55 483.716C466.18 483.619 467.307 483.63 467.985 483.612C471.016 485.457 473.242 491.06 474.849 494.402C459.694 495.403 445.158 496.908 430.193 499.587C424.096 500.679 416.292 504.373 410.847 504.555C408.047 503.86 402.727 501.875 401.336 499.27C402.414 489.219 456.015 484.449 465.55 483.716Z"/><path fill="#FDFDFC" d="M581.514 486.62C589.681 488.029 612.251 491.36 618.907 497.077C619.891 497.922 619.679 498.927 619.544 499.96C618.238 501.754 616.424 502.319 614.358 503.305C611.772 504.221 610.047 504.456 607.381 504.91C594.212 499.537 589.437 500.033 576.04 497.236C577.515 493.75 579.681 489.988 581.514 486.62Z"/><path fill="#FDFDFC" d="M500.841 481.722C505.338 481.427 511.535 481.495 515.938 481.727C516.331 486.086 516.38 487.995 516.157 492.369C511.213 492.443 506.27 492.561 501.329 492.721C497.551 492.968 493.325 492.983 489.509 493.08C487.442 489.895 485.55 486.013 483.783 482.599C489.465 482.238 495.152 481.945 500.841 481.722Z"/><path fill="#FDFDFC" d="M460.706 455.278C465.409 457.845 488.163 496.468 489.02 502.452C488.244 502.631 485.823 503.184 485.328 502.446C478.288 491.948 462.193 467.754 460.706 455.278Z"/><path fill="#FDFDFC" d="M549.473 482.646C556.266 483.389 561.704 483.696 568.579 484.783L562.533 494.737L561.984 495.208C558.205 496.083 549.277 494.679 545.059 494.168C546.181 490.691 548.113 486.137 549.473 482.646Z"/><path fill="#FDFDFC" d="M545.369 470.623C546.988 471.452 547.58 471.584 548.566 473.128C548.927 476.796 539.589 495.908 537.32 499.812L536.442 499.965C534.526 499.265 535.181 499.874 534.273 498.231C534.18 492.831 542.434 475.831 545.369 470.623Z"/><path fill="#FDFDFC" d="M579.176 474.713C580.641 475.344 580.56 475.27 581.641 476.436C581.93 479.631 567.827 502.01 565.279 505.753C564.041 505.503 563.96 505.409 562.811 504.842L562.514 503.903C563.42 499.247 575.928 480.052 579.176 474.713Z"/><path fill="#FDFDFC" d="M521.548 481.665C526.159 481.449 530.78 481.589 535.369 482.084C534.232 484.848 532.917 487.708 531.702 490.455L530.602 492.295C527.994 493.902 524.946 492.875 521.914 492.31C521.481 488.255 521.486 485.774 521.548 481.665Z"/><path fill="#FDFDFC" d="M580.489 465.184C583.525 466.894 586.469 468.069 588.416 470.809C588.745 472.862 588.674 472.175 587.536 474.411C584.782 474.091 581.361 471.135 579.773 468.886C579.487 466.87 579.653 467.354 580.489 465.184Z"/></svg>