<svg width="624" height="624" viewBox="0 0 624 624" fill="none" xmlns="http://www.w3.org/2000/svg">
<path d="M174.569 109.421C174.24 105.94 173.272 101.465 176.404 99.0217C181.091 95.3647 184.996 102.078 186.747 105.07C190.853 102.388 196.296 100.106 197.284 107.4C198.116 113.533 195.629 117.592 192.043 122.184C194.556 124.644 194.978 125.325 196.847 128.235C206.706 118.376 209.717 128.604 207.038 138.095C207.772 140.432 208.109 140.257 207.679 142.326C206.43 143.502 206.486 143.492 204.957 144.244L204.924 145.044L205.973 146.177C207.077 145.869 206.808 145.876 207.797 145.109C208.698 145.563 209.684 146.026 210.545 146.536C218.804 141.088 219.725 153.285 217.566 158.499C215.378 163.782 214.073 165.309 209.97 169.025C212.193 171.38 214.052 174.978 215.476 175.687L215.994 175.506C218.834 166.306 236.324 168.33 223.551 190.306C225.699 190.06 224.809 189.792 226.404 190.725L226.88 192.162L226.294 192.59C225.495 192.448 224.476 192.154 223.765 192.325C224.699 193.525 224.874 193.584 225.495 194.979C232.71 195.21 230.355 199.159 233.292 203.293L233.666 203.084C240.088 199.55 243.133 206.814 241.007 212.026C238.994 216.958 236.307 218.958 233.098 222.811C233.161 225.303 232.137 226.385 232.401 228.171C234.076 229.344 233.686 228.978 235.988 229.237C241.201 232.337 239.288 233.02 242.775 236.917C243.058 237.233 250.333 234.859 251.216 239.604C252.977 249.076 245.306 254.341 238.916 259.409C241.979 272.734 246.454 287.638 249.815 301.376L251.373 301.051C251.897 294.553 254.364 259.213 262.112 259.773C269.252 264.416 265.027 290.55 263.415 297.914C262.449 302.327 256.245 323.157 256.901 325.502C257.574 325.663 257.921 325.774 258.61 325.84C261.707 325.158 263.464 324.974 266.598 324.67C266.132 321.513 264.663 316.851 266.62 314.397L267.817 314.265C268.793 315.48 269.143 317.336 269.577 318.883L271.318 324.082C274.481 323.621 277.093 323.451 280.276 323.249C278.065 297.146 274.857 271.137 270.66 245.279C265.028 242.754 258.102 239.802 255.6 233.665C254.329 230.549 255.174 226.892 259.158 226.517C263.058 226.149 264.821 227.729 267.607 230.125C267.143 224.166 265.775 217.883 264.57 212.008L264.104 211.901L263.329 211.714L262.545 211.534C243.545 207.038 244.549 187.103 261.565 198.5C260.74 194.656 260.322 190.237 259.853 186.294C252.607 184.653 244.075 181.333 243.134 172.88C242.595 168.036 249.467 169.085 252.044 169.788L251.857 163.036C246.944 161.896 234.765 156.327 240.055 149.378C241.692 147.228 243.798 147.441 246.312 147.174C246.533 145.275 246.23 142.143 246.105 140.137C241.665 138.251 231.73 132.716 234.678 126.203C235.531 124.317 238.769 123.963 240.711 123.53C242.051 122.024 240.612 116.728 242.456 115.275C249.266 109.91 250.522 118.267 253.062 121.202C258.3 119.103 262.009 118.913 262.241 126.174C262.388 130.765 258.926 134.645 255.782 137.694C256.984 140.186 257.621 141.74 259.391 143.923C262.327 142.751 265.117 141.153 267.967 143.097C271.672 148.528 267.48 154.79 263.406 158.462C261.929 159.793 261.577 160.164 261.603 161.962C262.667 163.664 263.348 165.025 264.253 166.824C277.67 156.988 277.676 172.424 271.134 179.87C269.304 181.953 267.738 182.481 265.635 184.075L265.627 184.88C268.397 186.685 271.956 183.123 273.206 190.55C275.59 190.939 277.97 188.064 280.67 190.876C286.445 196.891 277.93 206.191 273.028 209.267C272.347 209.626 270.831 210.169 270.705 210.859C270.26 213.308 269.973 216.941 271.746 218.865C273.683 218.067 275.053 217.271 277.114 217.391C280.107 218.881 280.088 220.469 280.991 223.529C282.852 225.244 288.952 222.972 289.034 229.612C289.12 236.462 280.669 241.375 275.737 243.341C276.801 251.989 278.189 260.623 279.424 269.252C281.975 287.069 283.585 305.016 285.435 322.923C288.787 322.706 293.048 322.313 296.334 322.276C298.372 322.19 298.997 322.211 300.937 321.708L301.337 320.501L298.347 313.739C294.429 305.208 290.147 296.554 287.533 287.533C286.448 283.787 282.321 263.31 287.343 262.399C289.185 263.316 291.261 266.63 292.3 268.455C297.657 277.862 301.582 288.181 304.102 298.699C304.672 301.059 305.177 303.59 306.107 305.825C306.742 298.048 306.382 284.538 307.697 277.417C307.742 272.906 308.667 265.213 309.097 260.468L309.932 260.786C309.677 259.462 312.817 270.825 312.147 269.325C312.697 268.124 312.552 268.185 312.737 266.811L313.477 266.833C313.272 271.039 313.022 275.242 312.722 279.442C312.477 283.397 312.317 286.838 312.297 290.796C312.672 294.25 312.192 300.368 313.202 302.396C316.242 294.905 331.032 266.612 340.107 267.833C344.757 272.257 333.257 291.345 330.492 295.757L330.997 296.713C329.137 300.679 324.212 307.876 320.527 309.915C317.497 313.614 315.827 317.368 313.792 321.657C316.652 321.869 319.757 322.035 322.587 322.314L322.497 320.793C326.847 317.544 322.722 316.599 324.437 313.491C325.677 314.085 325.357 314.018 326.677 314.293C328.342 310.497 328.837 309.259 332.812 309.04C334.642 307.866 333.707 308.074 335.602 308.008C339.327 311.217 334.167 319.47 337.417 322.625C339.022 322.823 339.157 322.936 340.767 322.533C341.242 317.332 342.582 309.183 343.437 303.916C345.632 290.412 348.067 275.006 351.357 261.735C351.457 259.024 355.392 243.652 356.207 239.753C349.657 235.428 346.567 233.077 344.862 225.28C343.662 219.15 346.082 218.315 351.317 216.653C353.317 212.462 355.137 213.129 359.177 213.288C360.902 214.496 361.092 215.082 362.827 215.163C364.387 213.49 364.767 210.313 365.472 207.72C368.282 208.977 368.622 211.203 369.047 213.941C368.567 216.279 368.137 216.235 369.027 217.757L369.767 218.024C372.977 219.199 373.662 219.362 374.677 222.773C374.722 224.185 374.377 224.505 375.327 225.439C382.167 232.133 378.187 236.283 370.532 239.422C367.332 245.219 364.827 240.092 360.587 244.024L355.162 267.441C352.947 278.002 350.962 288.61 349.217 299.259C348.027 306.655 346.962 315.581 345.567 322.766C348.087 323.305 363.637 325.283 365.357 324.83L365.707 323.84C363.212 315.674 362.017 305.583 361.077 297.159C360.482 291.813 360.292 266.449 367.477 265.803C370.187 267.547 370.412 270.877 371.112 274.046C372.852 284.981 374.202 300.843 372.822 312.051L372.992 312.428C374.002 311.711 376.132 303.636 376.702 301.762C380.362 290.613 384.782 279.543 388.157 268.385C383.147 264.374 373.017 252.63 380.367 245.892C382.362 244.061 385.197 245.363 387.612 246.117C391.207 243.683 388.387 235.18 398.867 241.604C400.022 240.216 400.602 237.937 401.252 236.121C394.372 231.017 393.032 227.839 390.927 219.921C390.397 217.162 390.032 216.012 391.172 213.513C393.197 211.49 395.517 212.246 396.797 210.168C399.562 205.667 405.907 207.059 408.537 203.213C410.372 203.501 408.492 204.343 410.502 206.298L411.352 205.921C411.947 203.074 410.492 206.137 411.047 202.505C407.457 195.751 404.162 185.131 413.812 181.836C416.577 181.359 418.902 180.208 420.382 182.817L420.157 183.304L420.437 183.641L419.862 183.87L419.577 183.545L420.297 183.328C421.642 183.972 420.937 183.737 423.012 183.08C422.292 181.743 421.932 181.672 420.722 180.653C420.612 179.364 421.007 178.994 421.702 177.89L421.957 177.496C418.422 171.037 416.337 163.893 425.277 161.405C425.527 156.808 425.347 150.072 430.792 148.498C435.742 148.937 436.532 154.924 437.272 158.904L440.377 155.55L441.882 154.485C442.162 153.378 442.532 153.285 441.987 152.428C439.267 148.164 438.237 142.295 439.577 137.369C441.537 130.154 446.517 127.228 451.192 134.605L451.367 134.875C452.587 128.081 454.632 117.54 463.762 117.467C464.712 117.46 465.797 118.479 466.127 119.256C468.087 122.909 465.007 127.638 470.812 128.038C471.887 128.112 472.497 128.598 473.222 129.378C476.637 138.361 463.967 140.219 462.812 142.856C463.962 143.773 467.207 146.17 467.547 147.516C469.387 154.776 459.322 157.217 454.257 157.424C452.937 157.473 451.617 157.496 450.292 157.492C449.492 165.388 447.027 165.817 446.347 169.738C449.872 169.116 454.537 170.011 455.617 173.904C454.902 177.933 451.537 179.631 448.602 182.05C444.597 185.352 439.147 185.453 433.917 185.436C433.807 188.026 433.822 189.384 433.137 191.938C434.627 196.025 440.102 192.417 441.177 196.524C443.147 204.057 435.797 208.374 429.447 209.451C425.407 210.274 420.562 209.81 418.267 212.574L418.157 213.484C421.427 214.401 423.732 213.928 425.572 217.282C427.277 219.886 422.967 223.476 425.312 225.566C427.072 227.133 428.857 229.05 428.167 231.557C425.897 239.744 412.537 239.957 406.187 238.699L402.947 246.805C405.632 246.325 407.997 245.956 410.477 247.367C412.552 250.589 410.087 253.565 411.107 255.09C412.582 257.289 416.362 258.016 414.912 262.613C412.557 270.101 399.462 270.512 393.717 270.424C390.257 277.813 383.292 297.975 380.717 306.442C379.682 310.109 378.382 314.302 377.482 317.954L378.987 319.692C380.487 317.356 382.077 315.079 383.747 312.864C386.877 308.776 394.977 299.552 400.222 298.865C407.572 301.865 390.852 324.175 388.002 328.034L398.707 330.348C401.177 325.422 408.557 310.194 411.722 306.486C412.737 303.905 412.717 304.102 411.877 302.121C407.607 297.702 406.747 295.054 405.557 289.33C406.272 286.92 406.587 286.208 407.737 283.967C409.162 282.924 409.632 282.407 411.402 282.377C420.087 286.938 418.622 272.123 426.282 283.049C427.732 280.668 429.082 277.887 430.377 275.392C426.752 270.731 419.567 256.976 429.412 253.602C431.077 253.031 433.307 254.844 434.822 255.842C436.112 254.644 437.387 253.426 438.647 252.189C439.147 251.071 439.517 250.762 440.282 249.8C439.077 247.761 440.622 243.559 441.537 241.536C442.657 231.014 448.897 227.986 453.597 238.707L458.447 234.072C456.017 228.4 454.312 221.484 457.917 215.902C460.077 212.56 466.082 217.999 467.602 219.695L470.232 217.319L472.357 215.945C472.602 213.366 471.407 209.743 471.387 206.901C471.332 200.324 476.282 194.022 481.897 201.204C484.542 201.523 486.337 195.064 493.617 199.159C494.187 201.153 494.427 201.722 494.487 203.753C493.667 205.321 492.617 207.707 491.452 208.868C493.932 209.388 498.192 211.989 497.002 214.717C494.087 221.389 486.327 221.652 480.677 221.437C479.687 223.587 478.917 225.093 477.742 227.149C479.282 229.929 484.992 230.306 481.792 236.076C476.887 242.692 467.687 238.669 465.432 240.152L465.237 240.884L464.172 244.66C466.067 246.317 469.492 246.416 470.242 248.898C472.722 257.131 458.847 259.275 453.682 258.002C451.092 257.573 451.282 257.188 449.212 258.005C448.522 259.151 448.182 259.667 447.627 260.903C447.722 262.68 447.417 264.138 448.427 265.054C450.452 264.681 450.587 264.816 452.462 265.694L452.512 266.616C450.212 267.061 452.757 264.926 449.762 267.183C464.472 271.534 451.842 283.142 435.272 278.976C432.902 281.775 431.997 283.334 430.112 286.473C442.792 287.543 432.032 292.835 438.327 298.585L439.812 298.435C441.552 300.082 441.487 302.388 439.732 304.009C439.112 303.742 438.532 303.514 437.942 303.195C432.182 309.591 425.292 308.237 417.777 306.714C417.327 307.37 416.712 308.192 416.372 308.882C415.477 311.707 415.582 314.476 414.177 316.767C412.892 317.409 412.062 317.71 410.732 318.192C408.787 321.882 404.497 327.88 405.112 331.28C406.597 332.696 406.817 332.334 409.207 332.855C410.247 333.175 410.912 333.245 411.732 333.883C416.157 334.123 424.412 327.991 429.597 325.375C432.997 323.767 442.342 319.131 445.612 321.677C446.977 326.738 432.932 337.405 429.237 340.394C435.432 343.141 441.082 345.747 447.082 348.972C446.607 359.002 443.627 370.882 441.337 380.809C442.402 387.544 439.507 393.669 440.582 396.064L442.687 397.029C441.732 398.544 439.402 398.844 437.652 398.964L437.087 399.479C428.407 433.859 419.837 471.439 393.947 497.754C385.292 506.369 379.537 509.334 369.057 515.579C370.742 520.144 371.107 516.584 372.392 520.124C374.312 525.094 374.792 529.514 372.522 534.599C372.157 535.414 371.767 536.214 371.362 537.004C368.857 540.854 363.107 544.399 358.557 544.409C325.317 544.504 291.614 545.259 258.438 543.839C251.863 543.554 237.964 525.864 249.315 520.099C252.544 518.834 254.838 520.104 256.592 518.914C256.126 518.509 252.199 516.389 251.402 515.944C249.962 515.309 247.197 513.649 245.715 512.824C242.972 511.239 239.073 508.959 236.787 506.819C234.347 505.419 232.599 503.774 230.462 501.954C217.635 490.504 206.096 474.854 199.395 458.989L199.333 458.574C198.436 457.269 198.167 456.419 197.532 454.969C192.23 441.504 188.443 427.964 184.419 414.099L181.209 402.659C179.654 397.779 178.296 392.489 176.931 387.524C174.523 378.699 172.447 369.783 169.927 360.985C169.154 358.285 168.003 354.591 169.401 351.887C171.523 347.785 176.799 346.167 180.767 344.448C184.518 342.927 188.254 341.559 191.994 340.139C188.485 337.065 177.926 328.791 179.029 324.029L180.205 323.306C187.734 322.818 201.438 331.505 208.258 335.202L220.704 332.23C215.736 322.094 211.206 313.383 205.452 303.741C198.667 305.652 194.546 305.873 187.994 303.12L187.043 304.506L185.859 304.667C184.113 303.482 183.614 301.412 184.428 299.538C184.914 294.011 188.729 294.219 186.28 287.798C184.918 284.227 190.665 283.928 193.207 283.676C191.365 280.604 189.943 278.122 188.338 274.928C167.578 282.027 158.517 260.747 178.833 264.059C178.96 260.969 175.127 255.82 173.385 253.124C167.413 254.459 163.553 254.942 157.665 252.623C153.915 251.146 150.586 249.165 152.91 244.648C154.413 241.728 156.968 242.641 159.472 241.09L157.64 235.994C151.561 236.919 142.338 236.589 139.704 229.765C139.844 226.315 142.826 224.77 145.841 224.011C144.297 221.251 143.864 220.661 143.061 217.596C137.152 217.929 130.42 217.521 126.665 212.238C124.26 208.853 128.968 205.886 131.368 204.763C125.362 193.099 132.522 189.814 141.22 197.623C144.103 193.201 148.292 191.145 150.831 197.487C152.976 202.845 152.279 206.961 150.236 212.093C152.707 213.47 153.957 214.472 156.155 216.174C162.532 203.76 171.552 214.782 164.643 230.453C167.543 231.794 167.832 233.16 169.856 233.598C171.394 230.775 173.407 227.88 176.792 227.444C183.269 229.832 182.181 240.02 180.143 245.263L180.436 246.568C181.42 247.016 181.92 247.133 182.71 247.792C185.122 249.204 185.609 249.449 187.459 251.508L188.91 251.922C190.306 250.762 192.409 248.851 194.197 249.515C204.117 253.198 196.223 267.531 192.513 272.109C193.936 274.335 194.75 275.537 195.798 278.016L196.911 278.69C198.607 277.631 198.01 277.584 199.158 276.372C200.212 273.665 201.888 272.727 204.543 274.151C205.783 276.163 205.687 275.187 205.396 277.093C205.694 278.016 207.365 280.332 208.182 281.08C209.676 279.937 210.368 279.172 212.224 278.895C223.376 281.249 215.025 295.87 210.298 300.989C215.285 311.031 220.857 321.04 225.934 331.186L237.798 328.595C233.996 322.882 220.329 301.527 224.111 295.741C232.618 294.083 246.325 319.104 249.945 325.834C246.565 307.814 239.638 278.387 233.67 260.964C230.533 260.93 228.943 261.023 225.852 260.208C224.5 259.881 223.166 259.482 221.856 259.012C215.83 256.851 211.47 252.851 214.216 246.261C215.63 245.555 216.007 245.436 217.25 244.423C218.232 241.959 217.287 241.526 217.244 238.977C219.433 233.932 222.518 236.443 226.233 235.798C226.687 234.759 224.966 229.277 224.559 227.721C217.834 228.09 208.257 227.488 204.049 221.754C201.649 218.486 203.499 214.235 206.706 212.744C208.83 211.756 205.474 207.117 207.525 203.313C210.053 201.036 212.073 202.004 215.357 202.085L215.892 201.342C214.817 196.265 207.784 197.64 203.829 196.278C199.273 194.708 192.053 189.37 192.689 183.844C193.304 178.493 199.772 180.406 201.7 178.876C202.038 178.067 201.597 173.841 201.81 171.565C184.09 169.381 177.113 153.342 194.098 155.524L193.074 148.654C188.242 148.812 176.683 146.628 176.495 139.547C176.338 133.647 182.301 135.221 184.235 133.188C184.51 132.175 183.383 128.527 183.273 125.899C178.546 124.87 164.917 120.208 168.636 112.105C169.419 110.399 172.81 109.76 174.569 109.421Z" fill="#047857"/>
<path d="M176.931 387.524C179.27 385.459 178.376 382.059 180.852 382.054C183.191 382.054 187.128 384.529 188.876 386.324C189.407 387.934 188.922 388.664 187.605 389.754C190.923 391.424 195.004 393.619 198.397 394.909C204.377 397.709 211.128 399.984 217.405 402.089C234.012 406.929 248.464 410.524 265.773 412.694C267.655 412.944 270.399 413.429 272.205 413.349C292.284 416.829 325.847 415.534 346.032 413.519L359.992 411.579C383.587 408.554 409.582 399.229 431.162 389.439C430.307 394.064 428.877 399.544 427.792 404.199L426.562 408.779C417.892 438.479 413.442 462.279 392.787 487.294L393.967 488.519C393.852 491.604 392.197 495.284 393.947 497.754C385.292 506.369 379.537 509.334 369.057 515.579C370.742 520.144 371.107 516.584 372.392 520.124C374.312 525.094 374.792 529.514 372.522 534.599C372.157 535.414 371.767 536.214 371.362 537.004C368.857 540.854 363.107 544.399 358.557 544.409C325.317 544.504 291.614 545.259 258.438 543.839C251.863 543.554 237.964 525.864 249.315 520.099C252.544 518.834 254.838 520.104 256.592 518.914C256.126 518.509 252.199 516.389 251.402 515.944C249.962 515.309 247.197 513.649 245.715 512.824C242.972 511.239 239.073 508.959 236.787 506.819C234.347 505.419 232.599 503.774 230.462 501.954C217.635 490.504 206.096 474.854 199.395 458.989L199.333 458.574C198.436 457.269 198.167 456.419 197.532 454.969C192.23 441.504 188.443 427.964 184.419 414.099L181.209 402.659C179.654 397.779 178.296 392.489 176.931 387.524Z" fill="white"/>
<path d="M392.787 487.294L393.967 488.519C393.852 491.604 392.197 495.284 393.947 497.754C385.292 506.369 379.537 509.334 369.057 515.579C370.742 520.144 371.107 516.584 372.392 520.124C374.312 525.094 374.792 529.514 372.522 534.599C372.157 535.414 371.767 536.214 371.362 537.004C368.857 540.854 363.107 544.399 358.557 544.409C325.317 544.504 291.614 545.259 258.438 543.839C251.863 543.554 237.964 525.864 249.315 520.099C252.544 518.834 254.838 520.104 256.592 518.914L257.127 517.624C259.684 515.514 263.841 518.174 267.659 517.584L268.401 516.199L270.532 515.624C281.477 519.164 306.982 520.804 318.722 519.654C323.232 519.534 327.632 519.149 332.122 518.789C356.882 514.734 369.877 509.009 388.327 492.124L388.482 491.774L392.787 487.294Z" fill="#047857"/>
<path d="M318.722 519.654C323.232 519.534 327.632 519.149 332.122 518.789L330.822 520.039L331.217 520.769C334.922 521.619 337.057 519.939 339.667 520.709L339.907 521.434C336.602 525.309 323.107 519.934 318.722 519.654Z" fill="#047857"/>
<path d="M369.057 515.579C370.742 520.144 371.107 516.584 372.392 520.124C370.382 519.734 366.152 519.499 364.942 518.499C365.622 517.129 367.597 516.354 369.057 515.579Z" fill="white"/>
<path d="M388.327 492.124L388.482 491.774C390.372 492.849 390.172 492.349 390.912 493.969C390.362 495.624 390.867 495.014 389.367 495.874L388.417 495.584C387.762 493.804 387.997 494.254 388.327 492.124Z" fill="#047857"/>
<path d="M253.325 527.989C278.175 526.574 306.157 527.974 331.277 527.419C336.367 527.304 362.647 527.284 365.677 528.194C367.032 530.524 364.487 532.859 362.877 534.699C362.217 535.829 361.552 536.954 360.872 538.074C360.652 538.169 349.617 537.344 348.337 537.259L296.357 537.399C286.672 537.449 276.725 537.699 267.049 537.259C260.146 536.944 254.958 535.434 253.325 527.989Z" fill="white"/>
<path d="M362.877 534.699C362.217 535.829 361.552 536.954 360.872 538.074C360.652 538.169 349.617 537.344 348.337 537.259C353.762 536.664 358.052 537.414 362.877 534.699Z" fill="#047857"/>
<path d="M279.925 519.594C282.11 519.594 281.659 519.259 283.094 520.319L282.851 520.379L283.501 521.054L284.162 521.139L284.602 521.579L284.478 520.859L284.748 521.409L284.242 521.839C282.441 521.769 280.116 521.954 278.7 521.164L278.646 520.354L279.131 520.409L279.925 519.594Z" fill="#047857"/>
<path d="M176.931 387.524C179.27 385.459 178.376 382.059 180.852 382.054C183.191 382.054 187.128 384.529 188.876 386.324C189.407 387.934 188.922 388.664 187.605 389.754L186.368 389.704C186.013 390.979 186.038 390.349 186.257 391.594C186.999 394.219 188.502 399.044 188.924 401.544C189.441 403.099 190.015 405.434 191.066 406.569L191.022 408.519C191.876 411.264 192.733 413.854 193.349 416.664C195.083 422.364 197.794 430.424 199.112 436.029C200.69 439.394 201.26 442.519 202.493 445.299C209.943 465.944 219.448 481.519 235.389 496.724C233.928 498.939 233.116 497.809 231.771 501.074L230.462 501.954C217.635 490.504 206.096 474.854 199.395 458.989L199.333 458.574C198.436 457.269 198.167 456.419 197.532 454.969C192.23 441.504 188.443 427.964 184.419 414.099L181.209 402.659C179.654 397.779 178.296 392.489 176.931 387.524Z" fill="#047857"/>
<path d="M193.349 416.664C195.083 422.364 197.794 430.424 199.112 436.029C198.256 435.119 197.895 434.254 196.894 433.259C195.063 432.919 193.042 432.614 191.776 431.314C191.061 425.974 193.01 422.614 193.316 417.334L193.349 416.664Z" fill="#047857"/>
<path d="M200.475 447.474C202.032 449.004 201.672 448.139 202.045 449.939C201.112 451.479 200.826 451.749 199.664 453.069C199.188 450.049 199.117 450.064 200.475 447.474Z" fill="#047857"/>
<path d="M228.886 495.214C229.565 495.329 230.365 495.544 231.047 495.709C231.614 497.024 231.369 496.719 230.699 498.524C229.077 497.609 229.253 496.839 228.886 495.214Z" fill="#047857"/>
<path d="M197.81 441.434C199.282 442.284 198.895 441.849 199.868 443.109L199.228 445.039L198.305 444.484C197.36 442.689 197.608 443.654 197.81 441.434Z" fill="#047857"/>
<path d="M235.389 496.724L236.99 497.884C245.901 504.574 251.116 507.589 261.279 512.174C263.542 513.064 268.404 515.109 270.532 515.624L268.401 516.199L267.659 517.584C263.841 518.174 259.684 515.514 257.127 517.624L256.592 518.914C256.126 518.509 252.199 516.389 251.402 515.944C249.962 515.309 247.197 513.649 245.715 512.824C242.972 511.239 239.073 508.959 236.787 506.819C234.347 505.419 232.599 503.774 230.462 501.954L231.771 501.074C233.116 497.809 233.928 498.939 235.389 496.724Z" fill="#047857"/>
<path d="M245.715 512.824C247.3 512.484 247.442 512.399 248.612 511.279C250.324 511.184 250.4 511.074 252.04 511.729C252.3 514.429 250.223 513.089 251.665 515.404C251.839 515.379 252.013 515.359 252.187 515.334C255.207 513.824 258.761 515.344 260.969 514.044L261.279 512.174C263.542 513.064 268.404 515.109 270.532 515.624L268.401 516.199L267.659 517.584C263.841 518.174 259.684 515.514 257.127 517.624L256.592 518.914C256.126 518.509 252.199 516.389 251.402 515.944C249.962 515.309 247.197 513.649 245.715 512.824Z" fill="#047857"/>
<path d="M235.389 496.724L236.99 497.884C236.398 498.974 236.015 499.179 236.394 500.119C236.942 501.479 234.815 503.514 236.257 505.024C236.832 505.624 236.731 505.919 236.787 506.819C234.347 505.419 232.599 503.774 230.462 501.954L231.771 501.074C233.116 497.809 233.928 498.939 235.389 496.724Z" fill="#047857"/>
<path d="M188.924 401.544C190.684 402.129 190.902 402.359 192.762 401.764C193.767 403.189 193.73 403.069 193.949 404.794C193.352 406.474 193.888 405.899 192.384 406.654L191.066 406.569C190.015 405.434 189.441 403.099 188.924 401.544Z" fill="white"/>
<path d="M305.112 445.869C308.852 440.444 314.002 434.409 319.857 441.719L320.597 443.744C321.112 446.349 321.582 448.964 322.012 451.584C326.962 446.359 332.212 445.774 335.877 452.724C338.007 458.534 336.477 462.804 331.307 466.269L330.137 466.984C329.902 467.779 329.817 467.394 330.592 467.999C334.717 471.194 338.447 473.839 339.467 479.354C340.347 484.104 336.582 487.614 332.092 488.149C326.992 488.759 323.212 486.504 319.367 483.489C321.322 491.049 321.062 505.099 307.927 499.094C304.282 497.424 302.972 490.694 302.317 486.794C298.342 488.754 295.147 490.579 290.473 489.974C285.756 489.364 281.873 485.679 282.959 480.649C284.072 475.499 288.474 473.084 292.596 470.489C291.558 470.134 290.533 469.749 289.522 469.324C285.146 467.454 278.078 462.704 280.946 456.989C282.641 453.609 286.42 452.629 289.747 451.489C289.519 437.904 296.066 437.569 305.112 445.869Z" fill="#047857"/>
<path d="M335.877 452.724C338.007 458.534 336.477 462.804 331.307 466.269C333.292 462.964 335.682 456.429 335.877 452.724Z" fill="#047857"/>
<path d="M304.347 462.404C307.937 459.044 313.572 459.239 316.917 462.839C320.027 466.189 320.087 471.349 317.057 474.769C314.022 478.189 308.892 478.744 305.197 476.059C301.502 473.374 300.447 468.319 302.767 464.379C303.197 463.649 303.727 462.984 304.347 462.404Z" fill="white"/>
<path d="M295.076 460.094C300.027 458.389 300.112 462.129 304.347 462.404C303.727 462.984 303.197 463.649 302.767 464.379C302.622 462.654 302.922 462.559 302.007 461.514C300.432 462.569 301.242 465.154 299.137 467.079L298.002 466.959C297.302 465.084 298.962 465.274 298.692 463.104C297.622 463.119 296.547 463.139 295.473 463.164L295.019 462.579L294.139 462.179C292.769 461.549 291.295 461.029 290.838 459.779C292.411 459.244 293.434 459.699 295.076 460.094Z" fill="#047857"/>
<path d="M295.019 462.579L294.139 462.179C292.769 461.549 291.295 461.029 290.838 459.779C292.411 459.244 293.434 459.699 295.076 460.094C296.324 461.054 296.862 461.089 297.192 462.294C295.97 462.804 296.457 462.649 295.019 462.579Z" fill="white"/>
<path d="M310.387 483.119C313.037 484.564 312.462 488.619 312.422 491.294C309.012 488.329 309.377 487.279 310.387 483.119Z" fill="white"/>
<path d="M328.342 456.269C328.942 456.569 328.602 456.329 329.167 457.199C327.977 459.889 325.337 460.689 322.637 461.949C322.237 461.889 322.482 461.969 322.032 461.464C322.942 459.939 326.712 457.464 328.342 456.269Z" fill="white"/>
<path d="M299.212 476.849C299.782 477.379 299.532 477.014 299.712 478.079C298.167 480.289 295.499 480.989 293.015 481.704C292.85 481.494 292.959 481.684 292.735 480.834C294.689 479.319 297.047 478.084 299.212 476.849Z" fill="white"/>
<path d="M322.617 476.829C326.177 477.049 328.752 478.009 331.347 480.439C327.932 480.604 324.867 479.364 322.617 476.829Z" fill="white"/>
<path d="M314.312 446.204C315.072 447.859 315.432 449.974 315.047 451.769L314.422 451.324C314.112 449.074 314.132 448.484 314.312 446.204Z" fill="#047857"/>
<path d="M284.507 462.569L285.327 462.249C286.331 463.134 285.998 463.149 286.157 464.959L284.16 463.244L284.507 462.569Z" fill="#047857"/>
<path d="M375.212 468.354C369.847 473.254 361.312 478.534 355.347 482.749C353.682 483.929 350.462 484.609 348.317 484.114L347.977 483.364C350.512 477.959 363.832 472.109 368.862 468.144C379.117 460.059 389.807 450.744 395.827 438.749C399.777 431.179 402.167 420.769 409.867 416.034C412.027 414.704 414.362 417.144 414.892 419.419L414.082 423.149C411.322 429.224 410.202 430.139 404.292 433.369C404.232 435.164 404.157 435.894 402.787 437.334L402.942 437.554C406.452 437.054 413.037 435.864 413.387 441.164C410.432 447.539 402.267 446.579 396.532 445.949C393.902 448.734 392.572 450.939 390.477 454.139C394.657 453.434 399.417 452.374 403.287 454.484C404.367 456.319 404.157 455.374 404.077 457.384C401.247 461.999 393.967 463.239 389.032 461.569C387.612 461.089 387.507 459.034 387.147 457.619C384.957 459.029 381.802 462.284 379.837 464.214L375.212 468.354Z" fill="#047857"/>
<path d="M402.942 437.554C400.907 437.954 401.597 438.229 400.212 437.539C400.417 435.454 402.642 434.254 404.292 433.369C404.232 435.164 404.157 435.894 402.787 437.334L402.942 437.554Z" fill="white"/>
<path d="M238.53 450.819C235.879 429.844 251.312 435.249 247.73 450.934L247.431 451.614C245.87 455.069 244.538 456.454 242.171 459.409C245.098 464.849 258.87 472.559 264.301 476.464C267.374 478.669 272.248 479.909 271.639 484.634C268.147 486.389 250.439 472.094 247.261 469.204C246.222 469.164 245.313 469.144 244.277 469.034C243.021 467.224 243.133 467.264 241.145 466.389C241.021 465.589 241.055 464.144 241.044 463.279C235.384 457.724 230.379 451.284 224.518 446.009C223.97 445.949 223.423 445.894 222.875 445.834C223 445.454 223.33 445.169 223.63 444.824C225.372 444.649 225.91 444.544 227.538 443.919C229.168 446.074 232.166 449.649 234.231 451.374L234.923 451.244C236.021 452.114 236.124 452.444 237.455 452.489C238.35 451.629 238.066 452.004 238.53 450.819Z" fill="#047857"/>
<path d="M238.53 450.819C235.879 429.844 251.312 435.249 247.73 450.934C244.354 450.114 244.788 450.109 242.462 453.109L241.548 452.824C240.317 450.169 242.262 449.209 240.77 446.524L240.395 446.964C240.733 450.554 240.101 448.344 238.804 451.424L238.53 450.819Z" fill="#047857"/>
<path d="M238.53 450.819L238.804 451.424C239.428 454.274 240.424 456.444 241.519 459.129C239.28 456.864 235.958 453.874 234.231 451.374L234.923 451.244C236.021 452.114 236.124 452.444 237.455 452.489C238.35 451.629 238.066 452.004 238.53 450.819Z" fill="white"/>
<path d="M241.044 463.279L247.261 469.204C246.222 469.164 245.313 469.144 244.277 469.034C243.021 467.224 243.133 467.264 241.145 466.389C241.021 465.589 241.055 464.144 241.044 463.279Z" fill="white"/>
<path d="M216.491 424.179L218.872 430.554L221.688 430.504C222.172 429.284 222.549 429.059 223.539 428.204C224.487 426.989 225.086 425.684 226.547 425.474C231.585 424.759 232.89 431.179 232.79 434.874C232.666 439.444 231.326 441.619 227.538 443.919C225.91 444.544 225.372 444.649 223.63 444.824C223.33 445.169 223 445.454 222.875 445.834C217.005 450.994 205.944 445.634 207.726 438.954C211.25 435.039 216.52 438.124 220.601 439.794C217.851 435.009 217.553 434.519 212.87 431.679C214.418 431.714 213.931 431.839 215.342 431.389C215.704 430.354 215.902 426.374 216.491 424.179Z" fill="#047857"/>
<path d="M216.491 424.179L218.872 430.554C220.442 434.404 221.632 437.889 224.606 440.874C223.322 440.944 221.619 440.644 220.601 439.794C217.851 435.009 217.553 434.519 212.87 431.679C214.418 431.714 213.931 431.839 215.342 431.389C215.704 430.354 215.902 426.374 216.491 424.179Z" fill="#047857"/>
<path d="M218.872 430.554L221.688 430.504C222.172 429.284 222.549 429.059 223.539 428.204C222.783 435.794 223.861 434.654 224.606 440.874C221.632 437.889 220.442 434.404 218.872 430.554Z" fill="white"/>
<path d="M358.562 464.924C358.272 464.494 357.987 464.059 357.712 463.614C355.247 459.589 353.102 449.384 358.227 446.694C360.152 446.404 360.717 446.979 362.422 447.964C367.092 454.839 366.487 460.659 363.692 468.044C363.012 469.319 363.522 468.904 362.342 469.534C360.827 468.849 359.957 467.059 359.007 465.589L358.562 464.924Z" fill="#047857"/>
<path d="M358.562 464.924C358.272 464.494 357.987 464.059 357.712 463.614C355.247 459.589 353.102 449.384 358.227 446.694C360.152 446.404 360.717 446.979 362.422 447.964L359.922 449.154C360.097 454.774 361.302 457.154 358.482 462.139L358.562 464.924Z" fill="#047857"/>
<path d="M359.007 465.589C361.777 465.994 361.172 465.769 363.692 468.044C363.012 469.319 363.522 468.904 362.342 469.534C360.827 468.849 359.957 467.059 359.007 465.589Z" fill="#047857"/>
<path d="M255.017 449.704C256.289 447.364 256.36 446.869 259.042 446.464C260.81 447.004 261.182 447.544 262.517 448.799C264.708 454.044 263.038 457.909 261.423 463.159C260.264 465.654 259.137 467.834 257.855 470.259C254.039 464.809 253.341 463.179 253.355 456.409C253.505 453.769 253.964 452.079 255.017 449.704Z" fill="#047857"/>
<path d="M370.382 440.939C373.087 430.374 383.512 439.779 378.502 454.294L377.147 456.594C375.392 457.354 376.282 457.254 374.367 456.844C369.802 453.334 368.717 446.239 370.382 440.939Z" fill="#047857"/>
<path d="M370.382 440.939L370.837 441.834C371.042 441.334 371.247 440.834 371.452 440.334C372.687 441.974 372.032 443.699 372.352 444.129C375.182 447.884 376.737 449.784 378.502 454.294L377.147 456.594C375.392 457.354 376.282 457.254 374.367 456.844C369.802 453.334 368.717 446.239 370.382 440.939Z" fill="#047857"/>
<path d="M375.212 468.354L379.837 464.214C383.352 466.459 382.367 463.764 385.247 466.199C388.862 466.744 395.967 467.109 394.722 472.479C389.927 478.349 381.647 474.449 376.882 470.659L375.567 468.974L375.212 468.354Z" fill="#047857"/>
<path d="M375.212 468.354L379.837 464.214C383.352 466.459 382.367 463.764 385.247 466.199L383.207 466.559C379.727 466.224 378.552 467.079 375.567 468.974L375.212 468.354Z" fill="white"/>
<path d="M244.277 469.034C240.686 473.589 235.215 476.714 229.344 474.579C226.414 473.514 224.047 469.879 226.558 467.119C227.574 465.944 230.644 464.799 232.167 464.974C235.349 465.339 237.758 466.504 241.145 466.389C243.133 467.264 243.021 467.224 244.277 469.034Z" fill="#047857"/>
<path d="M387.962 425.154C398.707 425.649 393.667 438.364 390.877 444.269C388.207 444.919 385.867 442.219 385.382 439.754C384.247 433.954 384.977 430.169 387.962 425.154Z" fill="#047857"/>
<path d="M373.652 485.834C371.382 484.419 369.942 483.624 369.317 480.974C371.477 474.264 393.257 477.364 384.452 486.714C381.032 488.369 377.057 486.889 373.652 485.834Z" fill="#047857"/>
<path d="M373.652 485.834C377.407 483.874 375.047 484.944 376.967 482.864C378.592 481.094 379.457 485.389 381.207 480.604C381.917 481.934 382.287 484.644 381.792 486.084L384.452 486.714C381.032 488.369 377.057 486.889 373.652 485.834Z" fill="#047857"/>
<path d="M212.87 431.679C207.885 429.204 200.883 420.554 207.05 416.069C212.19 414.749 214.696 420.419 216.491 424.179C215.902 426.374 215.704 430.354 215.342 431.389C213.931 431.839 214.418 431.714 212.87 431.679Z" fill="#047857"/>
<path d="M219.807 452.959C223.386 452.899 233.492 453.754 232.247 459.124C230.768 460.839 230.592 460.854 228.503 461.869C222.71 461.944 208.797 459.709 219.807 452.959Z" fill="#047857"/>
<path d="M241.38 478.649C244.88 478.334 247.891 477.889 249.307 481.869C249.214 485.584 246.376 486.634 243.273 487.449C239.591 487.439 236.773 487.434 235.378 483.454C235.879 479.669 237.987 479.324 241.38 478.649Z" fill="#047857"/>
<path d="M240.969 480.159C242.564 480.259 244.675 479.609 245.725 481.189C244.344 482.454 242.069 482.344 240.089 482.524L238.497 482.764C238.031 484.074 238.261 483.599 237.285 484.684L236.653 484.144C236.327 482.489 236.238 483.259 236.868 481.739C238.177 480.604 239.27 480.539 240.969 480.159Z" fill="#047857"/>
<path d="M414.892 419.419C416.722 418.884 415.887 418.804 417.502 419.464C418.217 421.494 418.127 422.554 416.677 424.204C415.127 424.349 415.167 424.544 414.082 423.149L414.892 419.419Z" fill="white"/>
<path d="M275.868 416.554L276.323 417.414C275.18 418.284 274.128 418.109 272.45 418.324L272.041 417.374C273.286 416.369 273.901 416.694 275.868 416.554Z" fill="white"/>
<path d="M431.097 363.774C433.637 362.698 435.372 361.739 437.757 360.425C436.427 367.156 434.842 372.747 432.977 379.364L426.242 382.879L425.992 383.174C420.812 385.444 411.797 388.854 407.212 391.129L406.267 391.114C392.112 396.399 378.757 399.739 363.902 402.654C360.712 403.259 351.412 404.564 348.987 405.219C343.547 405.769 338.117 406.384 332.692 407.069C332.207 407.109 331.317 407.124 330.927 407.289C318.787 407.519 308.872 408.114 296.346 407.819C274.331 407.189 252.474 403.894 231.255 397.999C226.718 397.459 208.31 390.504 203.469 388.709L192.669 384.124C190.792 382.884 185.271 380.294 182.597 378.749C180.91 373.53 179.246 366.258 177.849 360.798C186.551 365.481 192.622 368.443 201.791 372.086C204.603 373.286 207.436 374.441 210.287 375.548L216.261 377.669L217.223 377.194C218.561 376.735 219.515 376.484 220.726 375.724L219.778 374.329L221.412 373.404C223.063 373.067 224.378 372.651 225.979 372.164C228.095 372.786 231.09 373.766 233.181 374.177C232.801 372.974 232.819 373.307 232.771 372.078C234.432 372.164 234.533 372.131 235.944 371.251C236.84 372.369 238.54 374.448 238.676 375.907L239.492 376.057C242.429 374.761 240.341 374.934 243.923 374.673C246.549 379.209 255.725 378.814 260.862 379.854C261.862 381.234 266.526 381.344 268.054 380.714C271.329 380.364 272.755 380.934 275.864 380.954C275.391 383.354 275.962 382.439 274.427 383.974C272.172 384.359 270.095 383.919 269.182 386.084L270.817 387.179C270.916 388.154 270.994 387.779 270.825 388.329C282.735 387.534 293.254 389.659 305.747 389.674C313.067 389.684 334.632 387.999 339.872 389.214C356.552 387.399 377.502 384.689 393.382 379.304C398.992 378.354 416.967 370.761 422.252 368.199L424.442 367.227C427.002 366.082 428.697 365.14 431.097 363.774Z" fill="white"/>
<path d="M235.944 371.251C236.84 372.369 238.54 374.448 238.676 375.907L239.492 376.057C242.429 374.761 240.341 374.934 243.923 374.673C246.549 379.209 255.725 378.814 260.862 379.854C261.862 381.234 266.526 381.344 268.054 380.714C271.329 380.364 272.755 380.934 275.864 380.954C275.391 383.354 275.962 382.439 274.427 383.974C272.172 384.359 270.095 383.919 269.182 386.084L270.817 387.179C270.916 388.154 270.994 387.779 270.825 388.329L270.673 388.784C252.575 386.734 239.701 384.209 222.264 379.529C220.393 378.844 218.193 378.244 216.261 377.669L217.223 377.194C218.561 376.735 219.515 376.484 220.726 375.724L219.778 374.329L221.412 373.404C223.063 373.067 224.378 372.651 225.979 372.164C228.095 372.786 231.09 373.766 233.181 374.177C232.801 372.974 232.819 373.307 232.771 372.078C234.432 372.164 234.533 372.131 235.944 371.251Z" fill="#047857"/>
<path d="M221.412 373.404C223.041 373.831 223.419 373.599 224.174 374.649L222.097 376.319C222.607 376.635 223.117 376.949 223.626 377.264C223.242 378.664 223.279 378.279 222.264 379.529C220.393 378.844 218.193 378.244 216.261 377.669L217.223 377.194C218.561 376.735 219.515 376.484 220.726 375.724L219.778 374.329L221.412 373.404Z" fill="#047857"/>
<path d="M235.944 371.251C236.84 372.369 238.54 374.448 238.676 375.907L233.181 374.177C232.801 372.974 232.819 373.307 232.771 372.078C234.432 372.164 234.533 372.131 235.944 371.251Z" fill="white"/>
<path d="M270.825 388.329C282.735 387.534 293.254 389.659 305.747 389.674C313.067 389.684 334.632 387.999 339.872 389.214C319.457 391.204 290.997 391.034 270.673 388.784L270.825 388.329Z" fill="#047857"/>
<path d="M252.442 398.909C255.209 398.664 258.734 397.964 260.922 399.429L260.576 400.789C255.89 400.139 256.948 402.269 252.442 398.909Z" fill="white"/>
<path d="M363.732 398.664C364.227 398.859 363.947 398.684 364.387 399.409C363.342 400.289 360.447 400.529 358.837 400.824C358.112 399.634 358.157 400.234 358.417 399.019C359.767 398.379 362.117 398.624 363.732 398.664Z" fill="white"/>
<path d="M257.979 338.424C257.784 336.794 257.705 336.607 257.905 334.928C259.958 332.612 265.406 332.906 269.352 332.285C270.277 335.592 273.325 342.044 274.952 345.355C281.496 358.676 284.405 367.15 284.38 381.959L275.864 380.954C272.755 380.934 271.329 380.364 268.054 380.714C266.017 378.924 265.101 372.02 264.315 368.81C264.184 365.896 258.778 340.68 257.979 338.424Z" fill="white"/>
<path d="M229.405 338.173C234.115 337.407 238.838 336.716 243.57 336.101C246.232 339.144 249.621 344.478 251.977 347.957L253.543 350.763C258.803 360.429 257.842 366.733 260.601 374.895C260.915 376.555 261.509 378.399 260.862 379.854C255.725 378.814 246.549 379.209 243.923 374.673C242.196 369.359 240.549 364.956 238.518 359.771C238.095 358.312 235.828 353.351 235.117 351.698C233.216 347.401 230.935 342.559 229.405 338.173Z" fill="white"/>
<path d="M382.012 335.73C386.537 336.099 390.432 336.758 394.892 337.49C391.747 344.786 387.722 353.465 384.967 360.774C383.852 363.63 380.267 373.264 378.892 375.385L361.137 378.724C363.207 368.634 364.357 361.23 369.167 352.027C370.757 350.098 371.427 349.104 372.742 346.967C375.097 344.822 379.592 338.567 382.012 335.73Z" fill="white"/>
<path d="M199.72 345.827C208.513 351.433 230.571 364.379 235.944 371.251C234.533 372.131 234.432 372.164 232.771 372.078C232.819 373.307 232.801 372.974 233.181 374.177C231.09 373.766 228.095 372.786 225.979 372.164C213.382 367.687 205.028 365.062 192.855 359.451L189.985 358.123C187.167 356.688 183.348 354.866 180.73 353.271C187.647 349.888 192.359 348.133 199.72 345.827Z" fill="white"/>
<path d="M384.967 360.774L387.037 360.312C387.132 360.16 387.227 360.008 387.322 359.856C390.077 358.344 393.827 350.044 397.122 352.689C397.732 354.427 397.897 354.677 397.852 356.579C396.822 357.378 396.712 357.238 395.372 357.346C394.457 359.318 395.497 360.678 395.002 363.288C397.157 361.749 399.287 360.177 401.397 358.571C400.587 361.593 400.937 360.152 398.372 362.37C396.232 364.222 393.682 366.382 392.387 368.89L392.417 369.664C394.077 370.875 395.027 369.471 397.512 369.781C402.112 368.977 417.302 362.078 421.847 359.958C424.662 359.76 425.517 359.585 428.227 360.524L428.652 358.911L429.367 358.774L430.372 359.856L431.317 359.699C431.047 363.273 429.942 361.232 431.097 363.774C428.697 365.14 427.002 366.082 424.442 367.227L422.252 368.199C416.967 370.761 398.992 378.354 393.382 379.304C391.602 379.449 390.262 379.294 388.497 379.154L388.147 377.934L387.137 377.919C386.372 379.429 386.792 378.999 385.577 380.019C385.262 378.419 383.817 377.974 383.002 375.737C381.442 376.929 380.932 377.679 379.242 376.735L378.892 375.385C380.267 373.264 383.852 363.63 384.967 360.774Z" fill="#047857"/>
<path d="M401.397 358.571C400.587 361.593 400.937 360.152 398.372 362.37C396.232 364.222 393.682 366.382 392.387 368.89L392.417 369.664C394.077 370.875 395.027 369.471 397.512 369.781C393.577 371.518 389.407 372.508 385.257 373.585C388.717 368.675 390.357 367.167 395.002 363.288C397.157 361.749 399.287 360.177 401.397 358.571Z" fill="white"/>
<path d="M391.102 374.655C392.392 375.298 392.802 375.673 392.702 377.054L391.832 377.264C389.882 377.059 389.982 377.379 388.707 376.359C389.302 375.094 389.432 375.399 391.102 374.655Z" fill="#047857"/>
<path d="M401.397 358.571C405.177 355.639 415.857 348.51 420.202 346.352C425.547 348.167 430.517 350.19 435.747 352.291C431.152 354.957 426.192 357.407 421.847 359.958C417.302 362.078 402.112 368.977 397.512 369.781C395.027 369.471 394.077 370.875 392.417 369.664L392.387 368.89C393.682 366.382 396.232 364.222 398.372 362.37C400.937 360.152 400.587 361.593 401.397 358.571Z" fill="white"/>
<path d="M203.469 388.709C208.31 390.504 226.718 397.459 231.255 397.999C230.469 400.384 229.049 402.279 226.32 402.319L225.772 401.564C226.622 400.829 226.399 400.974 227.405 400.419C224.705 399.689 221.187 400.059 218.457 400.624L217.405 402.089C211.128 399.984 204.377 397.709 198.397 394.909L197.859 393.774C198.859 392.944 200.108 392.839 201.418 392.554C200.822 391.209 201.032 391.679 199.782 390.619C201.172 388.924 200.894 389.434 203.469 388.709Z" fill="#047857"/>
<path d="M205.034 390.644C208.213 393.854 205.635 390.219 210.472 392.824C208.883 394.154 206.59 393.709 205.032 392.469L205.034 390.644Z" fill="#047857"/>
<path d="M273.206 190.55C275.59 190.939 277.97 188.064 280.67 190.876C286.445 196.891 277.93 206.191 273.028 209.267C272.27 202.942 274.346 208.193 275.109 201.863C273.939 202.72 273.494 203.367 272.276 203.479C272.607 201.846 272.955 200.589 273.412 198.984L273.182 196.901C270.716 194.668 272.356 192.995 273.206 190.55Z" fill="#047857"/>
<path d="M273.412 198.984C274.313 197.015 274.484 196.134 276.154 194.909L277.161 194.958C278.221 197.637 276.978 199.83 275.109 201.863C273.939 202.72 273.494 203.367 272.276 203.479C272.607 201.846 272.955 200.589 273.412 198.984Z" fill="white"/>
<path d="M411.047 202.505C412.402 203.937 413.872 205.56 415.252 206.936C414.317 208.712 413.272 210.601 412.457 212.421C411.517 209.544 410.687 207.523 407.972 205.97C404.177 205.847 402.012 210.156 399.952 213.053C399.757 212.996 399.557 212.938 399.357 212.88L398.502 212.649C392.917 211.012 391.622 215.514 390.927 219.921C390.397 217.162 390.032 216.012 391.172 213.513C393.197 211.49 395.517 212.246 396.797 210.168C399.562 205.667 405.907 207.059 408.537 203.213C410.372 203.501 408.492 204.343 410.502 206.298L411.352 205.921C411.947 203.074 410.492 206.137 411.047 202.505Z" fill="white"/>
<path d="M330.927 407.289C331.317 407.124 332.207 407.109 332.692 407.069C335.082 407.374 336.667 407.374 338.767 408.554C338.367 409.069 331.707 411.594 331.182 411.524C328.502 411.169 315.112 410.519 313.652 409.704C315.367 408.114 325.642 408.924 330.927 407.289Z" fill="#047857"/>
<path d="M309.097 260.468L309.932 260.786C309.677 259.462 312.817 270.825 312.147 269.325C312.697 268.124 312.552 268.185 312.737 266.811L313.477 266.833C313.272 271.039 313.022 275.242 312.722 279.442C311.862 276.48 312.412 274.374 311.732 271.552C310.377 272.319 308.672 275.775 308.412 277.482L307.697 277.417C307.742 272.906 308.667 265.213 309.097 260.468Z" fill="#047857"/>
<path d="M421.957 177.496L425.592 182.556C423.567 184.547 421.877 186.113 420.132 188.38C418.372 184.911 417.427 183.532 413.812 181.836C416.577 181.359 418.902 180.208 420.382 182.817L420.157 183.304L420.437 183.641L419.862 183.87L419.577 183.545L420.297 183.328C421.642 183.972 420.937 183.737 423.012 183.08C422.292 181.743 421.932 181.672 420.722 180.653C420.612 179.364 421.007 178.994 421.702 177.89L421.957 177.496Z" fill="white"/>
<path d="M202.156 144.91C204.558 142.115 205.204 141.299 207.038 138.095C207.772 140.432 208.109 140.257 207.679 142.326C206.43 143.502 206.486 143.492 204.957 144.244L204.924 145.044L205.973 146.177C207.077 145.869 206.808 145.876 207.797 145.109C208.698 145.563 209.684 146.026 210.545 146.536C209.182 147.819 207.7 149.437 206.381 150.803C204.952 147.991 204.176 147.218 202.156 144.91Z" fill="white"/>
<path d="M344.862 225.28C343.662 219.15 346.082 218.315 351.317 216.653C353.317 212.462 355.137 213.129 359.177 213.288C356.367 214.017 354.617 214.183 353.867 217.345C353.592 218.133 353.317 219.713 352.607 219.859C347.472 220.912 346.112 218.814 344.862 225.28Z" fill="white"/>
<path d="M441.337 380.809C442.402 387.544 439.507 393.669 440.582 396.064L442.687 397.029C441.732 398.544 439.402 398.844 437.652 398.964L437.087 399.479C438.317 393.319 439.897 386.949 441.337 380.809Z" fill="white"/>
<path d="M223.551 190.306C225.699 190.06 224.809 189.792 226.404 190.725L226.88 192.162L226.294 192.59C225.495 192.448 224.476 192.154 223.765 192.325C224.699 193.525 224.874 193.584 225.495 194.979C222.147 196.396 223.36 196.712 220.719 199.162C219.546 198.238 219.319 196.602 218.861 195.07L223.551 190.306Z" fill="white"/>
<path d="M438.647 252.189C439.147 251.071 439.517 250.762 440.282 249.8C439.077 247.761 440.622 243.559 441.537 241.536C442.167 247.518 443.072 249.076 446.207 254.147C443.052 252.987 442.052 252.498 438.647 252.189Z" fill="white"/>
<path d="M322.587 322.314L322.497 320.793C326.847 317.544 322.722 316.599 324.437 313.491C325.677 314.085 325.357 314.018 326.677 314.293C328.342 310.497 328.837 309.259 332.812 309.04C330.057 312.063 324.197 321.423 322.587 322.314Z" fill="white"/>
<path d="M201.791 372.086C203.611 371.831 203.486 371.802 205.233 372.347C205.733 370.938 205.599 371.339 205.701 369.794C206.783 368.621 206.146 368.973 207.635 368.626C210.406 371.202 208.219 371.587 212.272 371.968L212.416 372.525L212.033 372.9C211.06 373.87 210.469 374.22 210.287 375.548C207.436 374.441 204.603 373.286 201.791 372.086Z" fill="#047857"/>
<path d="M348.987 405.219C351.412 404.564 360.712 403.259 363.902 402.654C362.722 404.584 363.032 404.844 360.617 404.979C357.562 405.149 354.302 406.219 351.287 406.799C350.312 406.999 350.762 408.764 348.507 408.019C347.957 406.434 348.067 407.289 348.987 405.219Z" fill="#047857"/>
<path d="M192.669 384.124L203.469 388.709C200.894 389.434 201.172 388.924 199.782 390.619C197.422 390.939 196.906 390.619 195.265 391.834L195.411 390.959L195.813 391.144L195.436 390.819C195.834 388.654 195.376 389.584 196.892 387.949C196.225 387.044 195.583 387.199 194.143 386.854C193.029 386.034 193.068 385.494 192.669 384.124Z" fill="#047857"/>
<path d="M265.773 412.694C267.235 412.164 269.896 412.239 272.61 411.404L272.752 410.739C271.265 409.779 271.644 410.294 270.846 408.894C271.844 408.399 273.749 408.454 274.908 408.449L276.016 409.214C276.454 409.744 276.848 410.214 277.305 410.734L277.069 412.274L277.323 412.324C275.01 413.194 274.331 412.849 272.205 413.349C270.399 413.429 267.655 412.944 265.773 412.694Z" fill="#047857"/>
<path d="M257.979 338.424C256.77 336.711 256.688 336.068 256.501 334.084C258.876 328.66 263.933 331.8 268.526 331.651L269.353 331.62L269.352 332.285C265.406 332.906 259.958 332.612 257.905 334.928C257.705 336.607 257.784 336.794 257.979 338.424Z" fill="#047857"/>
<path d="M426.562 408.779L427.792 404.199C429.512 406.979 431.487 410.264 430.312 413.479L429.442 413.879C427.647 412.864 427.552 412.379 426.917 410.129C426.787 409.684 426.672 409.229 426.562 408.779Z" fill="#047857"/>
<path d="M447.627 260.903C447.722 262.68 447.417 264.138 448.427 265.054C450.452 264.681 450.587 264.816 452.462 265.694L452.512 266.616C450.212 267.061 452.757 264.926 449.762 267.183C447.832 267.433 445.332 268.179 444.017 267.424C444.107 265.734 446.567 262.516 447.627 260.903Z" fill="white"/>
<path d="M330.492 295.757L330.997 296.713C329.137 300.679 324.212 307.876 320.527 309.915C322.412 306.66 328.112 298.818 330.492 295.757Z" fill="white"/>
<path d="M251.977 347.957C252.007 345.465 252.93 342.644 255.622 341.774L256.663 342.371L256.515 342.039C257.543 345.982 254.143 346.552 253.543 350.763L251.977 347.957Z" fill="#047857"/>
<path d="M233.098 222.811C233.161 225.303 232.137 226.385 232.401 228.171C234.076 229.344 233.686 228.978 235.988 229.237C234.36 229.72 232.773 230.754 231.28 231.618L230.44 230.954C228.955 227.026 229.741 224.715 233.098 222.811Z" fill="white"/>
<path d="M407.212 391.129C409.687 390.989 411.002 390.474 413.282 391.624L413.577 392.364C411.672 394.264 409.142 394.214 406.912 392.884L406.267 391.114L407.212 391.129Z" fill="#047857"/>
<path d="M416.012 308.823L416.372 308.882C415.477 311.707 415.582 314.476 414.177 316.767C412.892 317.409 412.062 317.71 410.732 318.192C412.422 315.078 414.262 311.917 416.012 308.823Z" fill="white"/>
<path d="M370.532 239.422C367.332 245.219 364.827 240.092 360.587 244.024C361.757 239.796 366.117 240.696 370.532 239.422Z" fill="white"/>
<path d="M346.032 413.519L346.777 411.949C349.187 410.574 357.032 411.279 359.992 411.579L346.032 413.519Z" fill="#047857"/>
<path d="M274.908 408.449C276.694 406.649 282.051 407.729 284.279 408.599L284.706 409.154C280.464 410.279 279.687 408.744 276.016 409.214L274.908 408.449Z" fill="#047857"/>
<path d="M199.158 276.372C200.212 273.665 201.888 272.727 204.543 274.151C205.783 276.163 205.687 275.187 205.396 277.093C202.556 275.715 202.132 275.751 199.158 276.372Z" fill="white"/>
<path d="M438.327 298.585L439.812 298.435C441.552 300.082 441.487 302.388 439.732 304.009C439.112 303.742 438.532 303.514 437.942 303.195C438.452 301.659 438.322 300.218 438.327 298.585Z" fill="white"/>
<path d="M312.297 290.796C312.672 294.25 312.192 300.368 313.202 302.396C313.112 303.083 312.557 304.549 312.312 305.277C312.152 305.226 311.997 305.174 311.837 305.123C311.497 301.368 311.782 294.539 312.297 290.796Z" fill="white"/>
<path d="M217.223 377.194C216.332 376.64 216.157 376.48 215.345 375.822L215.24 374.777L216.324 374.056C217.828 373.876 218.43 373.649 219.778 374.329L220.726 375.724C219.515 376.484 218.561 376.735 217.223 377.194Z" fill="#047857"/>
<path d="M187.994 303.12L187.043 304.506L185.859 304.667C184.113 303.482 183.614 301.412 184.428 299.538C185.481 300.656 186.842 302.195 187.994 303.12Z" fill="white"/>
<path d="M425.992 383.174L426.242 382.879L428.732 383.234C429.452 384.209 429.257 383.879 429.687 385.004L429.392 386.099L428.332 386.094C426.462 385.684 425.787 385.944 425.042 384.784L425.992 383.174Z" fill="#047857"/>
<path d="M180.143 245.263L180.436 246.568C181.42 247.016 181.92 247.133 182.71 247.792C181.215 248.553 179.989 249.37 178.345 249.475C178.103 247.932 178.879 247.289 179.801 245.544L180.143 245.263Z" fill="white"/>
<path d="M189.985 358.123L192.855 359.451C191.563 359.838 191.25 360.547 190.405 361.655L190.06 362.114C188.61 362.201 188.544 362.35 187.299 361.694C189.069 359.427 188.138 362.144 190.596 359.622L189.985 358.123Z" fill="#047857"/>
<path d="M375.697 324.749C375.872 322.821 376.892 319.897 377.482 317.954L378.987 319.692C377.937 321.32 376.797 323.181 375.697 324.749Z" fill="white"/>
<path d="M423.867 387.279L424.327 386.204C426.027 385.959 426.662 386.019 428.332 386.094L428.342 387.374C426.802 388.069 425.877 387.564 423.867 387.279Z" fill="#047857"/>
<path d="M249.815 301.376L251.373 301.051C251.421 302.874 251.492 303.005 251.039 304.836C250.148 303.904 250.173 302.854 249.815 301.376Z" fill="white"/>
<path d="M296.337 330.191C298.877 329.946 302.722 329.96 305.357 329.903C305.212 347.3 305.417 364.698 305.967 382.089C302.592 382.194 298.527 382.019 295.097 381.954L289.511 381.814C288.958 367.253 287.458 345.295 285.789 330.925C288.897 330.489 293.114 330.37 296.337 330.191Z" fill="white"/>
<path d="M344.432 330.857C351.842 331.729 359.242 332.657 366.642 333.644C363.837 346.509 360.317 359.224 357.237 372.026C356.662 374.423 356.172 376.857 355.377 379.194C350.182 380.249 344.912 380.904 339.617 381.154C341.502 375.996 343.157 372.634 345.652 367.721C343.092 367.697 340.312 367.245 339.037 364.704C339.087 363 339.057 361.735 340.937 361.473C343.302 355.804 343.617 338.234 344.432 330.857Z" fill="white"/>
<path d="M354.452 338.512C354.132 345.499 353.067 351.515 350.412 357.995C347.372 353.83 349.862 357.785 346.347 354.993C348.817 348.726 348.222 346.695 349.842 341.352C352.247 341.106 352.857 340.262 354.452 338.512Z" fill="#047857"/>
<path d="M346.347 354.993C349.862 357.785 347.372 353.83 350.412 357.995C348.952 361.148 347.382 364.743 345.652 367.721C343.092 367.697 340.312 367.245 339.037 364.704C339.087 363 339.057 361.735 340.937 361.473C341.102 362.702 341.092 362.729 341.557 363.871C343.507 363.023 345.377 357.329 346.347 354.993Z" fill="#047857"/>
<path d="M349.842 341.352L349.267 340.777C347.667 341.555 346.212 344.565 344.867 346.407L344.387 346.203C345.907 342.414 347.702 339.391 351.587 337.627C353.092 337.688 353.077 337.811 354.452 338.512C352.857 340.262 352.247 341.106 349.842 341.352Z" fill="white"/>
<path d="M333.192 330.428C335.167 330.432 337.537 330.664 339.537 330.806C337.097 347.627 335.797 364.827 333.702 381.654C329.502 382.034 322.217 381.944 317.772 382.014L312.417 381.964C315.057 367.392 327.817 346.121 333.192 330.428Z" fill="white"/>
<path d="M188.125 330.338C196.467 331.17 219.953 349.071 225.697 356.068C216.567 353.054 195.223 336.701 188.125 330.338Z" fill="white"/>
<path d="M430.952 329.717L437.712 327.024C428.012 335.173 419.842 341.259 408.957 347.804L406.502 346.295L408.182 344.738L414.862 339.452C420.527 335.419 424.722 332.773 430.952 329.717Z" fill="white"/>
<path d="M310.807 330.06L319.157 329.986C315.192 339.422 313.652 344.563 311.062 354.634L310.587 354.709C310.547 347.267 310.222 337.277 310.807 330.06Z" fill="white"/>
<path d="M289.42 272.367C295.525 282.719 298.822 295.619 301.292 307.279L301.257 308.154C300.182 307.06 299.022 304.294 298.317 302.822C293.493 292.712 290.499 283.507 289.42 272.367Z" fill="white"/>
<path d="M260.11 271.444L261.507 272.242C261.691 282.842 260.135 296.429 256.223 306.323C256.277 294.266 257.014 283.156 260.11 271.444Z" fill="white"/>
<path d="M334.697 276.305C335.567 282.051 321.507 300.328 317.537 305.504C317.037 299.35 330.077 281.174 334.697 276.305Z" fill="white"/>
<path d="M394.837 307.305L395.262 308.138C392.417 316.015 381.462 329.324 375.832 335.653L375.402 335.415C376.087 330.062 390.202 311.845 394.837 307.305Z" fill="white"/>
<path d="M366.682 275.864C368.447 282.701 368.827 292.233 368.757 299.264C365.722 300.447 367.842 299.591 365.977 302.022C364.767 295.589 364.697 281.997 366.682 275.864Z" fill="white"/>
<path d="M275.133 331.57C277.038 331.433 278.653 331.156 280.468 331.72C281.069 333.89 282.649 347.508 281.756 348.794C279.747 344.642 275.703 336.496 274.556 332.399L275.133 331.57Z" fill="white"/>
<path d="M216.447 341.308L224.294 339.698C225.352 342.161 226.554 344.821 227.539 347.292C228.928 349.545 230.037 352.692 231.041 355.203C228.465 352.091 225.779 349.675 222.848 346.926C220.725 345.153 218.346 343.287 216.447 341.308Z" fill="white"/>
<path d="M222.848 346.926C227.121 345.311 225.085 346.951 227.539 347.292C228.928 349.545 230.037 352.692 231.041 355.203C228.465 352.091 225.779 349.675 222.848 346.926Z" fill="white"/>
<path d="M324.597 329.897C325.857 331.035 326.302 331.962 327.357 333.025C325.577 337.177 323.727 341.738 321.682 345.728C320.122 344.748 320.107 344.706 318.907 343.461C320.672 338.641 322.227 334.468 324.597 329.897Z" fill="white"/>
<path d="M427.532 187.141C427.827 187.33 428.452 187.942 428.742 188.206C430.067 192.859 425.472 198.174 422.217 201.081C421.792 201.195 422.077 201.156 421.362 200.956C421.577 195.493 423.337 190.805 427.532 187.141Z" fill="white"/>
<path d="M211.144 206.785C217.852 206.845 221.913 213.138 222.98 219.156L222.349 218.744C218.563 216.226 212.076 211.367 211.144 206.785Z" fill="white"/>
<path d="M211.146 186.526L210.728 186.049C207.869 182.718 206.439 179.845 206.369 175.418L206.973 174.77C210.808 176.163 214.451 184.622 213.277 188.453L212.658 188.712L211.146 186.526Z" fill="white"/>
<path d="M419.177 218.748L420.647 218.931C422.987 222.135 412.252 227.568 409.752 229.042L408.932 229.072L408.822 228.3C411.412 224.092 414.642 220.807 419.177 218.748Z" fill="white"/>
<path d="M197.512 184.486C203.61 183.884 206.265 187.868 209.075 192.735C204.254 191.646 198.949 189.714 197.512 184.486Z" fill="white"/>
<path d="M436.262 198.094C436.547 198.279 436.822 198.811 437.037 199.149L436.812 200.138C434.357 203.005 429.272 205.194 425.542 205.687L425.192 205.321L425.372 204.552C428.922 200.777 431.147 198.569 436.262 198.094Z" fill="white"/>
<path d="M394.352 351.578C396.072 347.996 397.667 342.744 400.377 339.912C401.017 339.244 401.587 339.581 402.912 339.662L406.017 340.62C402.077 344.217 398.187 347.87 394.352 351.578Z" fill="white"/>
<path d="M221.12 174.988C226.32 175.63 221.315 184.428 219.705 186.657L219.052 187.332L218.566 186.798C217.94 181.983 218.716 179.041 221.12 174.988Z" fill="white"/>
<path d="M199.277 155.501C198.657 153.671 197.251 151.111 199.301 150.041C200.754 150.599 201.203 151.492 202.151 152.748C203.42 155.745 204.476 157.693 204.059 160.987L203.278 161.273C201.085 159.797 200.482 157.941 199.277 155.501Z" fill="white"/>
<path d="M199.277 155.501C198.657 153.671 197.251 151.111 199.301 150.041C200.754 150.599 201.203 151.492 202.151 152.748C201.081 153.951 200.625 154.567 199.277 155.501Z" fill="white"/>
<path d="M245.67 240.224L246.448 240.746C248.361 244.949 243.615 249.662 240.668 252.211L240.38 252.23L240.046 251.79C241.181 246.905 241.867 243.506 245.67 240.224Z" fill="white"/>
<path d="M412.842 187.086C417.672 188.731 416.217 196.645 415.882 200.633C412.502 197.412 411.682 191.469 412.842 187.086Z" fill="white"/>
<path d="M445.557 174.99C446.062 175.034 447.127 175.093 447.577 175.202L447.932 176.195C445.037 179.689 443.282 179.839 438.962 180.346C437.792 180.398 437.962 180.369 436.787 180.172L436.717 179.383C438.972 176.654 442.297 175.785 445.557 174.99Z" fill="white"/>
<path d="M187.914 126.075C192.631 127.229 194.414 134.294 194.042 138.555C190.435 134.883 187.885 131.322 187.914 126.075Z" fill="white"/>
<path d="M394.087 244.138L395.247 245.198C396.952 249.418 395.307 253.024 393.617 257.067C390.527 254.234 392.192 247.352 394.087 244.138Z" fill="white"/>
<path d="M256.859 164.535L258.255 165.227C261.105 169.144 261.718 172.971 261.316 177.678C257.356 175.693 256.674 168.45 256.859 164.535Z" fill="white"/>
<path d="M235.41 234.283C239.091 237.864 236.667 243.469 235.382 247.652C233.344 243.047 232.055 238.473 235.41 234.283Z" fill="white"/>
<path d="M314.182 360.729C315.412 354.733 317.047 349.262 318.907 343.461C320.107 344.706 320.122 344.748 321.682 345.728C319.692 349.99 316.657 357.036 314.182 360.729Z" fill="white"/>
<path d="M461.187 122.637C461.787 122.769 461.962 122.912 462.517 123.182C463.332 127.302 460.257 130.673 457.707 133.587L457.097 133.774L456.547 133.183C456.732 129.512 458.547 125.251 461.187 122.637Z" fill="white"/>
<path d="M226.458 199.709C229.804 202.965 227.373 209.173 226.237 213.072C223.178 210.002 224.148 203.269 226.458 199.709Z" fill="white"/>
<path d="M420.912 229.47C421.252 229.515 422.552 229.874 422.927 229.971L423.352 230.716C422.297 233.291 416.612 234.358 414.227 234.714C413.017 234.552 413.052 234.549 411.902 234.221L411.997 233.491C414.172 231.41 418.017 230.1 420.912 229.47Z" fill="white"/>
<path d="M239.162 322.363C239.735 321.352 239.502 321.673 240.354 320.883L242.268 321.096C244.949 326.032 247.347 331.116 249.451 336.324C245.938 331.732 242.508 327.077 239.162 322.363Z" fill="white"/>
<path d="M207.692 217.419C213.215 216.975 215.53 219.533 219.9 222.898C215.755 223.02 208.753 222.434 207.692 217.419Z" fill="white"/>
<path d="M382.777 249.241C387.467 250.779 387.937 257.25 388.052 261.566C384.632 258.331 381.972 254.084 382.777 249.241Z" fill="white"/>
<path d="M178.978 103.049C183.263 105.407 184.713 111.089 184.639 115.654C180.482 112.617 179.046 108.03 178.978 103.049Z" fill="white"/>
<path d="M221.943 240.286C224.658 240.512 225.94 241.761 228.046 243.369C229.177 246.402 229.467 247.432 230.106 250.606C226.636 247.685 222.46 244.899 221.943 240.286Z" fill="white"/>
<path d="M331.312 318.111C330.402 322.969 329.142 328.411 327.357 333.025C326.302 331.962 325.857 331.035 324.597 329.897C326.562 325.966 328.682 321.652 331.312 318.111Z" fill="white"/>
<path d="M235.188 206.567L236.395 207.189C238.033 210.678 234.232 215.86 231.241 217.486L230.847 217.663L230.571 217.16C231.544 213.75 232.742 209.036 235.188 206.567Z" fill="white"/>
<path d="M212.513 150.679C216.929 151.82 211.779 160.253 210.42 162.169C207.633 160.758 211.061 152.667 212.513 150.679Z" fill="white"/>
<path d="M168.828 244.546C166.444 242.304 164.518 240.774 163.173 237.751L163.311 236.532C167.418 235.282 170.731 242.123 170.094 245.157L168.828 244.546Z" fill="white"/>
<path d="M219.477 248.777C223.149 250.366 225.671 252.741 228.465 255.597L227.537 255.742C224.32 255.25 219.004 253.82 217.594 250.567C218.124 249.042 217.658 249.727 219.477 248.777Z" fill="white"/>
<path d="M236.296 311.818C238.304 314.861 240.412 317.968 242.268 321.096L240.354 320.883C239.502 321.673 239.735 321.352 239.162 322.363C237.542 319.873 235.929 317.168 234.362 314.626L236.296 311.818Z" fill="white"/>
<path d="M458.357 239.564L459.832 239.096C460.167 239.326 460.742 239.684 461.012 239.949C458.657 245.515 457.562 245.185 452.887 249.129C452.362 247.507 453.192 246.403 453.907 244.999C455.602 242.26 456.127 241.764 458.357 239.564Z" fill="white"/>
<path d="M189.213 160.217C195.159 160.026 197.461 162.354 200.968 166.529C195.702 166.361 192.289 164.331 189.213 160.217Z" fill="white"/>
<path d="M473.057 220.626L474.657 220.949C476.112 224.015 470.367 228.672 467.937 229.713L467.052 229.446C468.882 224.808 469.572 223.938 473.057 220.626Z" fill="white"/>
<path d="M409.292 259.929C410.252 260.449 409.822 260.071 410.472 261.168C409.232 264.217 402.882 265.6 399.847 266.132L399.337 265.885L399.427 265.27C402.307 262.925 405.587 260.61 409.292 259.929Z" fill="white"/>
<path d="M404.102 251.292C405.297 251.267 405.287 251.211 406.402 251.589L406.537 252.592C405.267 255.398 402.092 257.391 399.582 259.17C399.397 259.289 398.632 259.559 398.392 259.65L398.302 258.802C399.727 255.582 401.052 253.118 404.102 251.292Z" fill="white"/>
<path d="M174.83 267.682C177.012 268.365 178.649 268.889 180.751 269.774C181.829 270.391 182.149 270.577 183.112 271.348L182.699 271.997C179.848 272.688 173.667 271.701 172.079 268.94C172.925 267.76 172.961 268.105 174.83 267.682Z" fill="white"/>
<path d="M406.082 211.05C409.852 212.767 407.307 220.904 406.027 223.632L405.867 223.711L405.387 223.485C404.707 219.268 404.432 215.006 406.082 211.05Z" fill="white"/>
<path d="M275.092 222.062C279.091 224.295 275.444 230.385 273.893 233.313L273.849 233.364L273.479 233.255C273.318 232.527 273.18 231.795 273.063 231.059C272.519 227.417 272.983 224.96 275.092 222.062Z" fill="white"/>
<path d="M252.399 199.338C258.05 199.567 259.438 202.777 262.828 206.985C258.208 206.28 254.306 203.651 252.399 199.338Z" fill="white"/>
<path d="M444.887 135.509C445.817 135.914 445.792 135.994 446.617 136.627C448.002 139.661 446.182 143.804 445.202 147.133L444.532 147.094C443.337 142.948 443.177 139.527 444.887 135.509Z" fill="white"/>
<path d="M458.067 250.991C460.392 250.411 462.712 249.601 464.942 250.42L465.207 251.261C462.887 254.344 458.832 254.074 455.352 253.787L455.237 253.189L458.067 250.991Z" fill="white"/>
<path d="M396.047 217.057L397.737 217.727C400.292 220.558 400.292 225.106 400.337 228.827C397.282 225.481 395.777 221.604 396.047 217.057Z" fill="white"/>
<path d="M447.362 271.959C448.967 271.787 448.947 271.691 450.462 272.149L450.882 272.961C449.522 275.085 447.017 275.424 444.727 275.863C442.997 275.845 442.467 275.959 440.887 275.204L440.947 274.549C443.032 273.082 444.917 272.706 447.362 271.959Z" fill="white"/>
<path d="M202.615 128.707C205.426 131.757 202.589 136.934 200.425 139.616L199.712 139.269C199.423 135.53 200.112 131.601 202.615 128.707Z" fill="white"/>
<path d="M459.757 147.853C461.962 147.972 461.077 147.579 462.637 148.702L462.572 149.596C460.377 151.876 459.452 152.055 456.292 152.643C454.887 152.739 454.862 152.821 453.537 152.433L453.457 151.704C455.242 149.991 457.532 149.009 459.757 147.853Z" fill="white"/>
<path d="M260.013 230.867C264.129 231.66 267.03 234.896 268.134 238.838C264.419 237.487 260.13 235.224 260.013 230.867Z" fill="white"/>
<path d="M182.32 252.758C186.171 255.689 185.99 259.529 186.226 263.97C182.594 260.731 181.122 257.443 182.32 252.758Z" fill="white"/>
<path d="M133.605 198.152C138.189 198.845 139.871 203.871 141.139 207.68C137.603 206.472 134.281 201.788 133.605 198.152Z" fill="white"/>
<path d="M182.42 138.229C185.126 138.329 190.443 140.713 190.928 143.518C187.883 143.472 184.912 142.915 182.547 140.938C181.738 139.236 181.815 140.107 182.42 138.229Z" fill="white"/>
<path d="M444.247 158.223C445.152 158.856 444.742 158.485 445.257 159.634C445.022 162.822 443.172 164.9 441.312 167.448C438.387 162.816 440.952 161.294 444.247 158.223Z" fill="white"/>
<path d="M424.217 166.245C428.807 168.358 428.212 172.759 427.347 177.047C424.907 172.986 423.322 170.88 424.217 166.245Z" fill="white"/>
<path d="M192.542 254.167C195.888 256.283 193.259 262.568 191.957 265.252C190.012 263.298 190.548 256.679 192.542 254.167Z" fill="white"/>
<path d="M247.957 173.416C252.907 174.317 254.259 176.735 256.929 180.6C253.351 179.792 248.056 177.657 247.957 173.416Z" fill="white"/>
<path d="M211.753 283.6C212.87 284.063 212.35 283.735 213.107 284.971C213.235 288.685 212.103 290.317 210.38 293.536C209.961 293.833 210.243 293.705 209.459 293.663C208.785 289.814 209.491 286.762 211.753 283.6Z" fill="white"/>
<path d="M482.962 211.328C481.712 208.687 486.377 202.899 488.992 202.91C489.492 204.683 489.182 204.442 488.447 206.58C486.507 208.392 485.087 209.666 482.962 211.328Z" fill="white"/>
<path d="M175.545 232.293C178.078 235.207 177.221 239.933 175.779 243.151C172.663 240.449 173.941 235.435 175.545 232.293Z" fill="white"/>
<path d="M148.485 216.797C152.442 218.142 154.617 221.588 155.384 225.584C152.129 224.733 148.262 220.428 148.485 216.797Z" fill="white"/>
<path d="M440.182 256.72C440.937 257.334 440.752 257.257 441.287 258.153C441.377 261.441 439.392 263.835 437.602 266.592L436.907 266.457C436.882 266.086 436.867 265.715 436.857 265.344C436.752 261.182 437.437 259.617 440.182 256.72Z" fill="white"/>
<path d="M365.977 302.022C367.842 299.591 365.722 300.447 368.757 299.264L368.717 303.273C368.297 306.928 368.237 312.017 368.107 315.721C367.302 311.187 366.407 306.601 365.977 302.022Z" fill="white"/>
<path d="M201.432 280.117C205.472 282.276 204.183 287.206 203.603 290.86C201.292 286.629 199.666 284.913 201.432 280.117Z" fill="white"/>
<path d="M168.225 249.115L168.119 249.614C165.634 251.216 159.892 249.237 157.897 247.058L158.185 246.456C162.066 245.969 163.275 246.84 166.855 248.411L168.225 249.115Z" fill="white"/>
<path d="M245.661 118.764C249.252 121.024 249.488 126.98 249.218 130.714C246.325 127.341 245.402 123.132 245.661 118.764Z" fill="white"/>
<path d="M430.382 257.734C432.962 260.318 432.517 265.652 431.332 268.788C429.072 265.399 428.012 261.278 430.382 257.734Z" fill="white"/>
<path d="M267.709 189.758C270.403 192.387 269.005 197.101 267.742 200.103C265.184 197.746 265.447 192.497 267.709 189.758Z" fill="white"/>
<path d="M250.956 141.539C255.143 143.308 254.972 148.425 254.778 152.181C251.643 148.626 250.714 146.277 250.956 141.539Z" fill="white"/>
<path d="M283.632 228.812C285.534 232.459 280.234 236.291 277.523 237.896L277.264 237.753C277.564 234.916 281.229 230.313 283.632 228.812Z" fill="white"/>
<path d="M269.316 168.18C270.621 168.847 270.143 168.369 270.82 169.64C270.798 172.788 268.547 175.109 266.635 177.644L266.075 177.76L265.733 176.964C266.226 173.661 267.301 170.847 269.316 168.18Z" fill="white"/>
<path d="M420.882 283.653C424.202 286.517 421.452 290.637 419.917 293.772C417.637 292.18 419.482 285.793 420.882 283.653Z" fill="white"/>
<path d="M229.108 303.381C232.103 306.425 233.676 308.405 236.296 311.818L234.362 314.626C232.091 310.365 230.862 307.853 229.108 303.381Z" fill="white"/>
<path d="M446.987 236.779C450.012 239.675 448.397 244.445 447.632 248.038C445.452 245.509 445.642 239.78 446.987 236.779Z" fill="white"/>
<path d="M357.332 221.235C358.027 219.453 357.687 219.367 358.957 218.789C360.232 219.925 360.337 221.013 360.687 222.705C360.337 224.573 360.242 226.417 358.882 227.511C357.337 226.215 357.367 223.114 357.332 221.235Z" fill="white"/>
<path d="M372.227 230.271C374.097 230.576 373.437 230.113 374.572 231.235L374.112 232.303C371.852 234.113 370.202 234.615 367.552 235.667L365.992 235.834L365.717 235.369C367.127 233.571 370.247 231.65 372.227 230.271Z" fill="white"/>
<path d="M430.027 300.096C431.962 300.063 432.332 299.708 433.652 300.578C433.142 303.683 426.202 303.669 423.787 303.258L423.747 302.827C425.992 301.612 427.667 301.009 430.027 300.096Z" fill="white"/>
<path d="M190.736 288.783C196.595 288.874 197.013 290.167 199.615 294.922C195.024 293.004 193.65 292.802 190.736 288.783Z" fill="white"/>
<path d="M263.557 146.255C266.157 149.285 261.964 153.838 259.875 155.953L259.319 155.17C260.05 152.221 261.43 148.482 263.557 146.255Z" fill="white"/>
<path d="M410.237 287.062C413.547 287.979 412.352 289.627 413.722 291.707C413.847 293.611 414.107 294.861 413.437 296.642L412.732 296.417C410.887 293.14 410.122 290.802 410.237 287.062Z" fill="white"/>
<path d="M190.051 296.992C192.99 297.553 196.365 298.324 198.719 300.249L198.243 300.949C195.524 300.629 190.423 300.634 189.136 298.091L190.051 296.992Z" fill="white"/>
<path d="M173.287 114.289C176.397 114.514 180.307 117.821 181.561 120.543C177.744 119.756 174.099 118.39 173.287 114.289Z" fill="white"/>
<path d="M471.157 233.31C473.327 232.724 476.882 231.51 477.777 234.294L477.437 235.215C475.192 235.522 471.447 236.129 469.422 235.114L469.467 234.414L471.157 233.31Z" fill="white"/>
<path d="M466.652 132.213C467.022 132.237 467.822 132.45 468.212 132.54L468.497 133.436C467.322 135.688 463.807 137.307 461.532 138.433L460.802 138.3L460.867 137.479C462.877 135.115 464.262 134.112 466.652 132.213Z" fill="white"/>
<path d="M364.372 229.085C365.062 226.522 365.377 225.184 367.372 223.463C369.507 222.879 368.522 222.801 370.452 223.49C369.107 225.901 367.552 228.196 365.147 229.637C364.887 229.453 364.627 229.269 364.372 229.085Z" fill="white"/>
<path d="M429.262 291.301L431.342 291.583L431.747 292.337C430.992 294.453 427.682 296.105 425.747 297.224L424.732 297.174C425.092 294.956 427.587 292.903 429.262 291.301Z" fill="white"/>
<path d="M177.166 373.556L178.309 374.116C180.332 377.014 177.548 377.389 177.787 381.204L176.437 381.139C174.67 378.399 175.276 375.884 177.166 373.556Z" fill="#047857"/>
<path d="M460.467 219.993C461.587 220.159 461.507 220.167 462.402 220.887C463.502 223.637 462.847 225.75 462.297 228.694L461.557 228.697C459.877 226.109 460.352 223.088 460.467 219.993Z" fill="white"/>
<path d="M349.462 224.719C353.297 226.142 353.897 229.943 354.987 233.53C351.587 231.119 349.902 228.914 349.462 224.719Z" fill="white"/>
<path d="M144.733 229.053C149.525 228.583 150.582 228.784 154.251 231.705C149.998 231.976 147.652 232.419 144.733 229.053Z" fill="white"/>
<path d="M161.275 216.027C164.317 217.945 162.658 222.804 161.683 225.525C159.605 222.453 160.194 219.32 161.275 216.027Z" fill="white"/>
<path d="M191.753 107.644L192.631 108.237C192.869 111.743 192.166 113.432 190.411 116.43L190.152 116.623C188.953 112.996 189.548 110.57 191.753 107.644Z" fill="white"/>
<path d="M487.902 213.891C489.587 213.784 489.992 213.655 491.597 214.276L491.772 214.969C490.447 216.345 489.667 216.382 487.827 216.898C486.282 216.979 485.387 217.165 483.947 216.582C484.662 215.428 486.537 214.661 487.902 213.891Z" fill="white"/>
<path d="M243.081 152.375C247.255 152.065 249.395 154.069 251.97 156.991C248.134 156.912 245.432 155.365 243.081 152.375Z" fill="white"/>
<path d="M399.547 353.606C402.097 350.631 403.647 348.962 406.502 346.295L408.957 347.804C407.947 348.759 400.947 352.79 399.547 353.606Z" fill="white"/>
<path d="M430.987 153.251L431.627 153.969C432.157 157.023 432.777 161.418 431.652 164.332L430.647 163.674C429.857 159.983 430.452 156.933 430.987 153.251Z" fill="white"/>
<path d="M388.997 398.829C389.392 399.044 394.617 399.344 395.997 399.604L396.347 400.139C394.552 401.254 395.382 401.024 392.982 400.674C391.162 400.729 387.757 401.024 386.192 400.464L386.212 399.969C387.147 399.554 388.047 399.204 388.997 398.829Z" fill="#047857"/>
<path d="M454.282 141.732C454.497 141.877 455.007 142.464 455.212 142.684L455.087 143.993C453.857 146.024 452.552 146.81 450.682 148.27C450.182 148.208 450.477 148.304 449.942 147.696C450.602 144.904 452.027 143.38 454.282 141.732Z" fill="white"/>
<path d="M238.511 128.727C242.409 129.232 244.387 131.749 245.827 135.186C242.855 134.751 239.936 131.199 238.511 128.727Z" fill="white"/>
<path d="M131.384 209.492C134.213 209.436 138.428 210.429 139.559 213.274C136.906 213.153 132.206 212.359 131.384 209.492Z" fill="white"/>
<path d="M256.773 124.627C257.343 124.872 256.966 124.676 257.777 125.411C258.061 128.129 256.635 129.908 255.212 132.185C254.755 132.242 255.065 132.239 254.318 131.934C254.074 129.089 255.225 126.926 256.773 124.627Z" fill="white"/>
<path d="M435.607 168.765C436.532 169.767 436.207 169.433 436.617 170.929C436.222 173.19 434.927 174.624 433.587 176.55L433.367 176.611L432.807 176.195C432.762 173.632 434.297 170.893 435.607 168.765Z" fill="white"/>
<path d="M145.983 199.117L146.979 199.719C148.188 202.808 147.798 204.245 147.18 207.55C145.106 205.563 144.964 201.717 145.983 199.117Z" fill="white"/>
<path d="M197.935 364.309C199.871 364.989 199.571 364.565 200.637 365.945C199.816 367.72 199.534 367.488 197.704 368.83C197.325 368.55 196.548 367.368 196.221 366.913C196.562 365.003 196.185 365.924 197.935 364.309Z" fill="#047857"/>
<path d="M477.107 202.392C478.657 205.029 478.222 209.058 476.492 211.54C475.417 207.606 475.657 206.181 477.107 202.392Z" fill="white"/>
<path d="M403.022 479.474C403.702 479.439 403.737 479.524 404.417 479.694L404.277 480.704C403.067 482.539 402.952 482.544 400.852 483.429L400.017 483.114L399.857 482.209C400.907 480.664 401.467 480.454 403.022 479.474Z" fill="#047857"/>
<path d="M379.832 401.134C381.547 401.174 384.097 401.034 385.177 402.134L384.207 402.559C382.212 402.704 381.197 402.719 379.202 402.599L378.807 401.979L379.832 401.134Z" fill="#047857"/>
<path d="M431.382 343.673C433.547 343.681 432.682 343.306 434.167 344.608L433.977 345.645L432.627 346.538L431.417 345.842L430.937 345.012L430.152 344.912C431.227 344.533 430.757 344.855 431.382 343.673Z" fill="#047857"/>
<path d="M190.36 342.511C192.419 342.927 193.932 342.299 195.822 343.185L195.274 344.242C193.427 344.247 191.295 344.492 189.789 343.594L190.36 342.511Z" fill="#047857"/>
<path d="M203.622 366.086C204.438 367.353 204.99 368.262 204.639 369.704L203.373 369.297L202.274 369.322C202.516 367.701 202.797 367.566 203.622 366.086Z" fill="#047857"/>
<path d="M304.937 317.365C306.567 318.856 305.937 319.521 305.587 321.503C304.222 320.086 304.572 319.089 304.937 317.365Z" fill="#047857"/>
<path d="M260.11 271.444L260.657 270.058L261.121 270.17C261.242 270.791 261.434 271.633 261.507 272.242L260.11 271.444Z" fill="white"/>
<path d="M336.187 107.426C335.672 106.238 331.932 102.131 331.422 100.628C330.337 97.4167 328.707 92.2687 329.907 89.0202C330.627 84.9502 339.597 88.0837 339.772 87.8417C341.347 85.6332 346.537 76.6192 350.597 79.5972C353.947 82.0512 353.122 86.8527 353.602 90.3202C353.862 92.1832 357.982 91.5167 359.132 92.7142C360.912 94.2462 360.857 96.1322 361.017 98.3412C361.837 100.353 361.887 102.632 360.282 104.329C358.652 104.073 359.407 104.368 358.022 103.214C353.932 106.706 351.817 107.806 346.522 109.347C346.462 112.002 346.367 114.273 346.162 116.934C347.812 118.426 355.572 118.641 355.002 122.745C353.842 131.082 344.672 133.505 338.717 134.318C338.752 136.542 338.617 139.537 339.237 141.583C341.597 141.288 345.852 140.501 347.737 142.337C352.532 146.999 347.517 152.091 343.597 154.997C339.657 157.915 337.102 158.895 332.372 159.611C333.137 162.738 333.722 165.343 334.277 168.509C337.042 167.554 338.992 167.084 341.767 168.227C345.652 169.826 344.522 174.89 343.002 177.647C340.017 183.067 333.992 186.229 328.267 187.798C327.042 188.131 325.812 188.441 324.577 188.728C324.122 190.539 323.292 192.746 323.652 194.391L324.352 194.153C336.782 190.022 332.462 200.73 333.742 203.849C336.002 205.109 337.212 205.02 338.547 206.947C339.412 210.506 337.987 213.296 335.807 216.028C335.482 218.804 335.932 218.053 334.452 220.126C332.757 221.132 331.652 220.893 329.782 220.401C329.432 220.309 329.087 220.212 328.747 220.109C324.377 221.123 323.097 221.413 318.567 221.599C318.102 225.508 317.677 229.592 317.052 233.462C320.307 231.648 321.652 230.539 325.337 231.468C326.342 232.354 327.242 233.117 328.182 234.076C328.207 235.088 327.972 239.371 328.307 239.806C329.222 240.98 332.332 240.599 333.167 242.494C338.057 253.6 321.937 258.028 314.437 258.953C314.312 260.292 313.862 265.838 313.477 266.833L312.737 266.811C312.552 268.185 312.697 268.124 312.147 269.325C312.817 270.825 309.677 259.462 309.932 260.786L309.097 260.468C308.747 256.261 287.949 250.072 293.97 238.675C296.328 234.213 298.797 237.718 302.267 236.405C304.607 233.69 301.457 230.035 306.917 227.687C308.682 227.582 309.182 228.015 310.752 228.827L311.297 229.117L312.097 228.597C312.732 226.984 312.837 225.7 312.722 223.969C312.492 220.413 313.182 221.03 311.017 218.909C305.277 218.96 299.582 209.992 297.807 205.168C297.512 202.441 297.482 202.077 298.317 199.48L300.032 197.856C301.952 197.501 304.887 198.182 305.082 198.133C308.527 197.252 305.667 188.317 311.927 188.577C315.502 188.725 315.242 191.127 317.682 191.705L318.472 190.878C318.572 188.804 318.747 188.34 319.322 186.304C315.562 184.035 315.157 183.817 311.312 179.679C307.142 175.187 303.417 161.341 313.517 161.559C315.772 161.607 318.192 164.707 319.512 166.768C321.297 162.764 321.992 161.811 324.732 158.595C306.307 146.3 312.127 125.813 324.997 139.338C326.307 137.11 327.892 134.913 329.362 132.777L326.672 130.341L325.767 130.43C322.922 129.215 322.312 130.268 320.917 127.099C321.132 124.49 320.722 124.877 322.022 123.026C320.732 119.432 319.877 112.497 324.737 111.092C328.152 110.104 330.322 113.19 332.757 114.357C333.862 111.138 334.427 110.302 336.187 107.426Z" fill="#047857"/>
<path d="M322.022 123.026C323.352 126.322 324.287 127.684 326.672 130.341L325.767 130.43C322.922 129.215 322.312 130.268 320.917 127.099C321.132 124.49 320.722 124.877 322.022 123.026Z" fill="white"/>
<path d="M335.807 216.028C335.482 218.804 335.932 218.053 334.452 220.126C332.757 221.132 331.652 220.893 329.782 220.401C329.432 220.309 329.087 220.212 328.747 220.109C331.232 218.855 333.437 217.474 335.807 216.028Z" fill="white"/>
<path d="M358.022 103.214C359.287 101.843 360.127 100.005 361.017 98.3412C361.837 100.353 361.887 102.632 360.282 104.329C358.652 104.073 359.407 104.368 358.022 103.214Z" fill="white"/>
<path d="M327.512 163.16C332.012 166.456 326.552 176.014 324.467 179.543C321.637 175.741 324.427 166.483 327.512 163.16Z" fill="white"/>
<path d="M326.597 198.194L328.547 198.504C330.757 201.939 323.917 207.785 321.517 210.005L319.897 211.019L319.552 209.921C320.612 205.078 323.182 201.613 326.597 198.194Z" fill="white"/>
<path d="M337.472 172.39C338.712 172.235 338.247 172.257 339.537 172.637C340.677 176.266 333.637 180.525 330.982 182.044L329.337 182.338L329.077 181.352C330.742 176.705 333.382 174.529 337.472 172.39Z" fill="white"/>
<path d="M332.562 136.748C336.622 139.511 331.962 146.691 330.272 150.226L329.422 150.142C328.937 148.916 328.832 148.43 328.797 147.066C328.662 143.269 330.012 139.568 332.562 136.748Z" fill="white"/>
<path d="M346.972 85.6242C347.902 85.8062 347.662 85.7647 348.522 86.2042C349.597 90.0067 346.767 95.0487 344.922 98.3487L343.672 98.4027C341.537 95.4882 345.252 88.2442 346.972 85.6242Z" fill="white"/>
<path d="M316.712 248.284C315.512 244.354 318.077 235.974 322.737 237.544L323.062 238.76C322.192 242.57 320.542 244.11 318.082 247.107L316.712 248.284Z" fill="white"/>
<path d="M303.152 206.572C302.587 205.01 302.162 204.337 302.522 202.724L303.237 202.385C306.917 203.739 310.417 210.399 311.552 214.075C306.822 211.784 306.222 210.735 303.152 206.572Z" fill="white"/>
<path d="M297.282 240.639C303.112 241.059 304.892 247.544 306.092 252.362C301.297 249.281 298.102 246.454 297.282 240.639Z" fill="white"/>
<path d="M336.492 118.401C337.347 114.425 337.722 112.324 341.627 110.689C342.217 114.475 340.887 120.867 337.372 122.71L336.617 122.338C336.277 120.539 336.357 120.168 336.492 118.401Z" fill="white"/>
<path d="M330.772 208.376C332.227 208.281 332.752 208.066 333.992 208.778C335.347 211.915 327.987 215.033 325.607 215.929C324.637 216.272 324.882 216.163 323.802 216.184L323.737 215.391C325.277 212.808 328.117 209.823 330.772 208.376Z" fill="white"/>
<path d="M312.147 166.256C317.692 168.707 317.367 173.902 318.017 179.279C314.047 175.809 310.772 171.843 312.147 166.256Z" fill="white"/>
<path d="M343.422 145.291L343.912 145.55C346.227 149.806 337.117 153.456 334.132 154.283L333.682 154.279L333.857 153.339C337.062 149.28 338.842 147.655 343.422 145.291Z" fill="white"/>
<path d="M307.132 235.806C307.837 233.919 307.477 233.883 308.842 233.1C310.422 234.244 310.077 234.3 311.042 236.332C311.872 240.563 311.252 242.76 310.412 246.901C308.747 243.042 307.237 240.062 307.132 235.806Z" fill="white"/>
<path d="M307.132 235.806C307.837 233.919 307.477 233.883 308.842 233.1C310.422 234.244 310.077 234.3 311.042 236.332C307.812 237.167 309.912 236.406 307.132 235.806Z" fill="white"/>
<path d="M320.957 249.969C323.072 247.897 324.607 245.938 327.642 245.657L328.512 246.174C328.672 250.599 321.942 252.902 318.367 253.161L320.957 249.969Z" fill="white"/>
<path d="M317.457 139.903C318.307 140.127 318.797 140.354 319.617 140.68C322.692 143.976 323.012 147.296 324.057 151.688C319.622 149.967 318.142 144.068 317.457 139.903Z" fill="white"/>
<path d="M325.577 115.987C330.362 116.698 330.882 123.208 331.227 127.086C327.207 125.358 325.912 119.895 325.577 115.987Z" fill="white"/>
<path d="M346.972 122.201C348.872 122.721 348.242 122.178 349.157 123.581C348.572 126.398 344.472 128.175 342.002 128.972L340.532 128.896L340.262 128.178C341.777 126.029 344.827 123.901 346.972 122.201Z" fill="white"/>
<path d="M354.017 96.2052L355.532 96.6252L355.877 97.5962C354.832 100.093 351.532 101.888 349.237 103.356C348.372 103.133 348.722 103.378 348.222 102.563C349.517 100.031 351.572 97.6727 354.017 96.2052Z" fill="white"/>
<path d="M312.027 202.173C311.147 199.372 310.442 196.962 312.422 194.501L313.382 194.606C314.767 196.199 314.737 196.922 315.227 199.07C314.442 199.828 312.687 201.427 312.027 202.173Z" fill="white"/>
<path d="M334.082 91.5007C338.152 92.9242 337.982 96.9532 338.182 100.626C337.692 100.598 337.357 100.371 336.862 100.15C334.792 97.2392 334.572 94.9682 334.082 91.5007Z" fill="white"/>
<path d="M315.227 199.07C315.367 202.799 315.327 204.994 315.062 208.716C314.002 206.602 312.787 204.395 312.027 202.173C312.687 201.427 314.442 199.828 315.227 199.07Z" fill="white"/>
<path d="M386.777 142.898C388.567 140.116 390.162 137.237 393.742 136.783C400.077 135.98 399.307 142.413 398.497 146.186C412.277 152.387 399.847 160.733 390.762 162.363C390.457 164.498 390.087 166.706 389.937 168.85C392.367 169.539 396.122 170.385 396.842 173.076C398.747 180.243 385.987 183.357 381.647 184.159C381.607 187.098 381.487 188.389 381.077 191.274C384.207 191.456 389.812 191.139 388.882 196.429C388.367 199.338 385.537 202.279 383.277 203.933C380.047 206.363 372.667 204.994 370.882 207.379C370.297 209.701 369.762 211.651 369.047 213.941C368.622 211.203 368.282 208.977 365.472 207.72L366.527 204.347C360.517 199.746 358.922 196.558 357.452 189.249C357.017 186.623 356.437 184.778 356.957 182.181C358.602 181.119 361.532 181.509 363.287 181.399C366.202 181.215 367.267 183.414 369.457 185.835C370.937 183.569 372.642 183.102 373.697 181.275C370.382 176.469 366.447 171.142 366.937 164.927C367.157 162.143 372.082 160.653 374.272 161.741C375.317 162.26 376.987 163.934 377.872 164.786C379.337 162.081 379.897 161.178 381.707 158.707C380.322 156.594 379.482 155.312 378.577 152.898C376.157 146.423 377.972 135.364 386.777 142.898Z" fill="#047857"/>
<path d="M357.452 189.249C357.017 186.623 356.437 184.778 356.957 182.181C358.602 181.119 361.532 181.509 363.287 181.399C366.202 181.215 367.267 183.414 369.457 185.835L369.092 186.646C366.632 185.651 365.172 182.55 361.362 183.077C358.087 183.53 357.642 186.683 357.452 189.249Z" fill="white"/>
<path d="M366.527 204.347C366.882 206.027 366.607 206.354 367.642 207.066L367.877 206.799L367.282 206.816L367.227 206.759L368.482 205.87C369.317 207.368 369.062 206.516 368.642 208.681L369.832 208.526L369.317 208.106L370.112 208.207C370.372 207.931 370.627 207.655 370.882 207.379C370.297 209.701 369.762 211.651 369.047 213.941C368.622 211.203 368.282 208.977 365.472 207.72L366.527 204.347Z" fill="#047857"/>
<path d="M383.927 163.681C384.922 163.745 384.622 163.727 385.582 164.12C386.587 167.078 383.382 171.432 381.647 173.646C380.942 173.979 381.342 173.913 380.427 173.662C379.682 170.321 381.867 166.187 383.927 163.681Z" fill="white"/>
<path d="M375.672 186.155C378.837 188.566 373.937 194.774 372.192 197.152L371.782 197.255L371.292 196.753C371.417 192.737 372.907 189.079 375.672 186.155Z" fill="white"/>
<path d="M393.582 141.262C394.387 142.067 394.112 141.705 394.472 142.891C393.987 146.755 392.522 148.831 390.472 152.023C388.402 149.011 391.362 143.586 393.582 141.262Z" fill="white"/>
<path d="M362.642 187.168C365.747 188.501 366.637 193.978 365.927 196.983C363.107 194.799 361.652 190.611 362.642 187.168Z" fill="white"/>
<path d="M381.842 196.246L383.497 196.484L383.782 197.363C382.467 199.538 379.777 200.721 377.457 201.514C376.667 201.508 376.537 201.426 375.757 201.254C376.307 199.209 379.952 197.363 381.842 196.246Z" fill="white"/>
<path d="M371.662 165.978L372.837 166.344C375.152 168.374 375.227 172.557 375.597 175.625C372.597 173.846 371.807 169.154 371.662 165.978Z" fill="white"/>
<path d="M390.702 173.843L391.877 174.192L392.252 174.916C391.112 176.808 387.087 177.904 384.952 178.568L383.742 178.249C384.667 176.555 388.867 174.681 390.702 173.843Z" fill="white"/>
<path d="M398.152 151.659C399.427 152.17 398.917 151.798 399.632 152.893C398.972 155.17 396.037 156.201 394.037 157.043L392.952 156.916L392.767 156.403C394.102 154.403 396.182 153.122 398.152 151.659Z" fill="white"/>
<path d="M381.812 145.671C384.987 146.94 384.622 150.735 384.737 153.669L383.772 153.215C382.007 150.778 382.042 148.688 381.812 145.671Z" fill="white"/>
<path d="M493.617 199.159L494.482 198.017L495.312 197.949C496.212 199.786 496.767 202.273 496.637 204.287L496.032 202.478C495.447 202.931 495.012 203.233 494.487 203.753C494.427 201.722 494.187 201.153 493.617 199.159Z" fill="white"/>
<path d="M183.512 420.759C184.166 421.279 184.173 421.514 184.642 422.294C184.776 423.919 184.345 424.339 183.515 425.749L182.627 425.709C182.604 423.394 182.814 423.024 183.512 420.759Z" fill="white"/>
<path d="M451.632 368.281C452.487 369.229 452.292 368.691 452.317 369.852L450.467 371.482C449.822 370.494 450.022 371.014 449.822 369.942L451.632 368.281Z" fill="white"/>
<path d="M427.472 458.219L428.337 458.029L428.517 458.619L427.582 459.799L427.117 459.599L427.472 458.219Z" fill="white"/>
</svg>
