<svg width="624" height="624" viewBox="0 0 624 624" fill="none" xmlns="http://www.w3.org/2000/svg">
<path d="M193.289 173.285C193.002 170.163 192.159 166.149 194.886 163.958C198.968 160.678 202.367 166.699 203.892 169.383C207.467 166.977 212.206 164.93 213.067 171.473C213.791 176.973 211.626 180.614 208.503 184.733C210.691 186.94 211.059 187.55 212.686 190.16C221.27 181.318 223.892 190.491 221.559 199.004C222.199 201.1 222.492 200.943 222.118 202.799C221.03 203.853 221.078 203.844 219.748 204.519L219.719 205.236L220.632 206.253C221.593 205.976 221.359 205.983 222.22 205.295C223.005 205.702 223.863 206.118 224.613 206.575C231.804 201.688 232.606 212.628 230.726 217.305C228.821 222.043 227.684 223.413 224.112 226.746C226.048 228.858 227.667 232.085 228.906 232.721L229.357 232.559C231.83 224.307 247.058 226.122 235.937 245.834C237.807 245.613 237.032 245.372 238.421 246.209L238.836 247.498L238.325 247.882C237.63 247.755 236.742 247.491 236.123 247.644C236.937 248.72 237.089 248.774 237.63 250.025C243.912 250.232 241.861 253.774 244.418 257.482L244.744 257.295C250.336 254.125 252.987 260.64 251.136 265.315C249.383 269.739 247.043 271.532 244.249 274.988C244.304 277.223 243.413 278.193 243.643 279.795C245.101 280.848 244.762 280.519 246.766 280.752C251.304 283.532 249.639 284.145 252.675 287.64C252.922 287.924 259.256 285.794 260.024 290.05C261.558 298.546 254.879 303.268 249.315 307.814C251.982 319.766 255.879 333.133 258.805 345.455L260.162 345.164C260.618 339.335 262.766 307.638 269.512 308.14C275.728 312.305 272.05 335.745 270.646 342.35C269.805 346.308 264.404 364.991 264.975 367.095C265.56 367.239 265.862 367.338 266.463 367.398C269.159 366.786 270.689 366.621 273.418 366.348C273.012 363.517 271.733 359.335 273.437 357.134L274.479 357.016C275.329 358.105 275.633 359.77 276.012 361.158L277.527 365.821C280.282 365.408 282.555 365.255 285.327 365.074C283.402 341.661 280.609 318.333 276.955 295.141C272.051 292.875 266.02 290.228 263.842 284.723C262.735 281.928 263.471 278.649 266.94 278.312C270.335 277.982 271.87 279.399 274.296 281.548C273.892 276.203 272.701 270.568 271.652 265.299L271.246 265.203L270.571 265.035L269.889 264.873C253.345 260.841 254.22 242.96 269.035 253.183C268.317 249.735 267.953 245.771 267.545 242.235C261.236 240.763 253.807 237.786 252.988 230.203C252.518 225.859 258.502 226.8 260.745 227.43L260.583 221.374C256.305 220.351 245.701 215.357 250.307 209.124C251.732 207.196 253.566 207.387 255.755 207.147C255.947 205.444 255.683 202.634 255.575 200.835C251.709 199.144 243.059 194.18 245.625 188.337C246.368 186.646 249.187 186.329 250.878 185.94C252.045 184.589 250.792 179.839 252.397 178.536C258.327 173.724 259.42 181.22 261.632 183.852C266.193 181.969 269.422 181.799 269.624 188.312C269.752 192.429 266.738 195.909 264 198.644C265.047 200.88 265.601 202.273 267.142 204.231C269.699 203.18 272.128 201.747 274.609 203.491C277.835 208.362 274.186 213.978 270.638 217.272C269.353 218.465 269.046 218.798 269.068 220.411C269.995 221.937 270.588 223.158 271.376 224.772C283.058 215.949 283.063 229.795 277.367 236.473C275.774 238.342 274.41 238.815 272.579 240.245L272.572 240.966C274.984 242.586 278.083 239.391 279.171 246.052C281.247 246.401 283.319 243.822 285.67 246.345C290.699 251.74 283.284 260.081 279.016 262.84C278.423 263.162 277.103 263.649 276.994 264.268C276.606 266.465 276.356 269.723 277.9 271.449C279.587 270.733 280.779 270.019 282.574 270.127C285.18 271.463 285.164 272.887 285.95 275.632C287.57 277.171 292.881 275.133 292.953 281.088C293.027 287.232 285.669 291.639 281.375 293.402C282.302 301.158 283.51 308.903 284.585 316.643C286.806 332.623 288.208 348.72 289.819 364.782C292.738 364.586 296.448 364.234 299.309 364.201C301.083 364.124 301.627 364.143 303.316 363.692L303.664 362.609L301.061 356.544C297.65 348.892 293.921 341.13 291.646 333.039C290.701 329.679 287.108 311.313 291.48 310.495C293.084 311.318 294.891 314.29 295.796 315.927C300.46 324.365 303.878 333.62 306.072 343.054C306.568 345.171 307.008 347.441 307.818 349.445C308.371 342.47 308.057 330.353 309.202 323.966C309.241 319.92 310.047 313.019 310.421 308.763L311.148 309.049C310.926 307.861 313.66 318.053 313.077 316.708C313.555 315.63 313.429 315.686 313.59 314.453L314.235 314.472C314.056 318.245 313.838 322.015 313.577 325.782C313.364 329.33 313.225 332.416 313.207 335.966C313.534 339.064 313.116 344.551 313.995 346.37C316.642 339.651 329.52 314.274 337.421 315.37C341.47 319.337 331.457 336.458 329.049 340.415L329.489 341.273C327.87 344.83 323.582 351.286 320.373 353.114C317.735 356.432 316.281 359.799 314.509 363.646C316.999 363.836 319.703 363.985 322.167 364.235L322.088 362.871C325.876 359.957 322.284 359.109 323.777 356.322C324.857 356.855 324.578 356.794 325.728 357.041C327.177 353.636 327.608 352.526 331.069 352.33C332.663 351.277 331.849 351.463 333.499 351.403C336.742 354.282 332.249 361.684 335.079 364.514C336.476 364.691 336.594 364.793 337.996 364.431C338.409 359.766 339.576 352.457 340.321 347.734C342.232 335.622 344.352 321.803 347.216 309.9C347.304 307.469 350.73 293.681 351.439 290.184C345.736 286.305 343.046 284.196 341.561 277.202C340.516 271.705 342.624 270.956 347.182 269.465C348.923 265.706 350.508 266.304 354.025 266.446C355.527 267.53 355.693 268.056 357.203 268.129C358.562 266.628 358.892 263.778 359.506 261.453C361.953 262.58 362.249 264.577 362.619 267.033C362.201 269.129 361.827 269.09 362.602 270.455L363.246 270.695C366.041 271.748 366.637 271.895 367.521 274.954C367.56 276.221 367.26 276.507 368.087 277.345C374.042 283.349 370.577 287.071 363.912 289.887C361.126 295.087 358.945 290.488 355.253 294.014L350.529 315.018C348.601 324.49 346.873 334.005 345.353 343.556C344.317 350.19 343.39 358.196 342.175 364.64C344.369 365.124 357.909 366.898 359.406 366.492L359.711 365.604C357.539 358.279 356.498 349.228 355.68 341.673C355.162 336.878 354.996 314.128 361.252 313.549C363.612 315.113 363.808 318.1 364.417 320.942C365.932 330.75 367.107 344.977 365.906 355.03L366.054 355.368C366.933 354.725 368.788 347.483 369.284 345.801C372.471 335.802 376.319 325.872 379.258 315.864C374.896 312.267 366.076 301.734 372.475 295.69C374.212 294.048 376.681 295.215 378.783 295.892C381.914 293.709 379.458 286.082 388.583 291.844C389.589 290.599 390.094 288.555 390.66 286.926C384.669 282.348 383.503 279.498 381.67 272.396C381.208 269.921 380.89 268.89 381.883 266.649C383.646 264.834 385.666 265.512 386.781 263.648C389.188 259.611 394.713 260.859 397.003 257.41C398.6 257.668 396.963 258.423 398.714 260.177L399.454 259.839C399.972 257.286 398.705 260.033 399.188 256.775C396.062 250.717 393.193 241.192 401.596 238.236C404.003 237.808 406.027 236.776 407.316 239.117L407.12 239.553L407.364 239.855L406.863 240.061L406.615 239.769L407.242 239.574C408.413 240.152 407.799 239.942 409.606 239.352C408.979 238.153 408.666 238.09 407.612 237.175C407.516 236.019 407.86 235.688 408.465 234.697L408.687 234.344C405.609 228.551 403.794 222.143 411.578 219.911C411.796 215.788 411.639 209.747 416.38 208.334C420.69 208.728 421.378 214.099 422.022 217.668L424.726 214.66L426.036 213.705C426.28 212.712 426.602 212.628 426.127 211.86C423.759 208.035 422.862 202.771 424.029 198.353C425.735 191.882 430.072 189.257 434.142 195.874L434.294 196.116C435.357 190.022 437.137 180.568 445.087 180.502C445.914 180.496 446.859 181.41 447.146 182.107C448.852 185.383 446.171 189.625 451.225 189.984C452.161 190.05 452.692 190.486 453.323 191.185C456.297 199.242 445.265 200.909 444.259 203.274C445.261 204.097 448.086 206.246 448.382 207.454C449.984 213.965 441.221 216.155 436.811 216.341C435.661 216.385 434.512 216.405 433.358 216.402C432.662 223.484 430.516 223.868 429.924 227.385C432.993 226.828 437.054 227.631 437.995 231.122C437.372 234.736 434.442 236.259 431.887 238.429C428.4 241.39 423.655 241.48 419.101 241.466C419.005 243.789 419.018 245.007 418.422 247.297C419.719 250.963 424.486 247.727 425.422 251.411C427.137 258.167 420.738 262.039 415.209 263.005C411.691 263.744 407.473 263.327 405.474 265.806L405.379 266.622C408.226 267.445 410.233 267.02 411.835 270.029C413.319 272.365 409.567 275.585 411.609 277.459C413.141 278.865 414.695 280.584 414.094 282.833C412.118 290.176 400.485 290.367 394.957 289.239L392.135 296.509C394.473 296.079 396.532 295.747 398.692 297.013C400.498 299.903 398.352 302.572 399.24 303.94C400.525 305.913 403.816 306.565 402.553 310.688C400.503 317.404 389.101 317.772 384.099 317.693C381.086 324.321 375.022 342.405 372.78 349.999C371.879 353.288 370.747 357.049 369.963 360.325L371.274 361.883C372.58 359.788 373.964 357.746 375.418 355.759C378.143 352.093 385.196 343.819 389.763 343.203C396.162 345.894 381.604 365.905 379.123 369.366L388.444 371.441C390.594 367.023 397.02 353.364 399.776 350.038C400.66 347.724 400.642 347.9 399.911 346.123C396.193 342.16 395.444 339.785 394.408 334.651C395.031 332.489 395.305 331.85 396.306 329.84C397.547 328.905 397.956 328.441 399.497 328.415C407.059 332.506 405.784 319.218 412.453 329.017C413.716 326.881 414.891 324.388 416.019 322.15C412.862 317.969 406.606 305.631 415.178 302.605C416.628 302.093 418.57 303.719 419.889 304.615C421.012 303.54 422.122 302.447 423.219 301.338C423.655 300.335 423.977 300.058 424.643 299.195C423.594 297.367 424.939 293.597 425.735 291.783C426.711 282.346 432.144 279.629 436.236 289.246L440.459 285.088C438.343 280.001 436.859 273.798 439.997 268.791C441.878 265.794 447.107 270.672 448.43 272.193L450.72 270.062L452.57 268.83C452.784 266.516 451.743 263.267 451.726 260.718C451.678 254.819 455.988 249.166 460.877 255.608C463.18 255.895 464.743 250.101 471.081 253.774C471.577 255.562 471.786 256.073 471.839 257.895C471.125 259.301 470.21 261.441 469.196 262.482C471.355 262.949 475.065 265.281 474.028 267.729C471.49 273.713 464.734 273.948 459.814 273.755C458.952 275.684 458.282 277.035 457.259 278.879C458.6 281.372 463.571 281.711 460.785 286.886C456.514 292.82 448.504 289.211 446.541 290.542L446.371 291.198L445.444 294.585C447.094 296.071 450.076 296.16 450.729 298.386C452.888 305.77 440.807 307.694 436.31 306.552C434.055 306.167 434.22 305.822 432.418 306.555C431.817 307.583 431.521 308.045 431.038 309.154C431.121 310.748 430.855 312.056 431.735 312.877C433.498 312.543 433.615 312.663 435.248 313.451L435.291 314.278C433.289 314.677 435.505 312.762 432.897 314.786C445.705 318.689 434.708 329.101 420.281 325.364C418.217 327.874 417.429 329.273 415.788 332.088C426.828 333.048 417.46 337.794 422.941 342.952L424.234 342.817C425.749 344.295 425.692 346.363 424.164 347.817C423.624 347.577 423.119 347.373 422.605 347.087C417.59 352.823 411.591 351.609 405.048 350.243C404.656 350.832 404.121 351.568 403.825 352.187C403.045 354.721 403.137 357.205 401.913 359.26C400.795 359.836 400.072 360.105 398.914 360.538C397.22 363.848 393.485 369.228 394.021 372.277C395.314 373.547 395.505 373.222 397.586 373.689C398.492 373.977 399.071 374.04 399.785 374.611C403.637 374.827 410.825 369.327 415.339 366.981C418.3 365.538 426.436 361.38 429.284 363.664C430.472 368.203 418.243 377.771 415.026 380.451C420.42 382.915 425.339 385.253 430.563 388.146C430.15 397.142 427.555 407.797 425.561 416.701C426.489 422.742 423.968 428.235 424.904 430.383L426.737 431.249C425.905 432.608 423.877 432.877 422.353 432.984L421.861 433.446C414.303 464.283 406.841 497.989 384.299 521.592C376.763 529.319 371.753 531.978 362.628 537.58C364.095 541.674 364.413 538.481 365.531 541.656C367.203 546.114 367.621 550.078 365.645 554.639C365.327 555.37 364.987 556.088 364.635 556.796C362.454 560.25 357.447 563.429 353.485 563.438C324.544 563.523 295.199 564.201 266.313 562.927C260.588 562.671 248.486 546.805 258.369 541.634C261.181 540.499 263.179 541.638 264.706 540.571C264.3 540.208 260.88 538.306 260.186 537.907C258.933 537.337 256.525 535.849 255.235 535.109C252.847 533.687 249.452 531.642 247.462 529.723C245.337 528.467 243.815 526.991 241.955 525.359C230.786 515.089 220.739 501.052 214.905 486.823L214.851 486.45C214.069 485.28 213.836 484.517 213.283 483.217C208.666 471.14 205.369 458.995 201.865 446.559L199.07 436.299C197.716 431.922 196.534 427.177 195.345 422.724C193.249 414.808 191.441 406.811 189.247 398.92C188.574 396.498 187.572 393.185 188.789 390.76C190.636 387.081 195.23 385.629 198.686 384.088C201.951 382.724 205.204 381.496 208.46 380.223C205.406 377.465 196.212 370.045 197.172 365.773L198.196 365.125C204.751 364.687 216.684 372.479 222.621 375.795L233.458 373.129C229.133 364.038 225.188 356.224 220.179 347.576C214.271 349.29 210.683 349.489 204.978 347.019L204.15 348.263L203.119 348.407C201.599 347.344 201.164 345.488 201.873 343.807C202.296 338.849 205.618 339.036 203.486 333.277C202.3 330.074 207.303 329.805 209.516 329.58C207.913 326.824 206.675 324.598 205.277 321.734C187.202 328.101 179.313 309.014 197.002 311.984C197.112 309.213 193.775 304.595 192.258 302.176C187.058 303.374 183.697 303.808 178.57 301.728C175.306 300.403 172.407 298.626 174.43 294.575C175.739 291.955 177.964 292.774 180.144 291.383L178.549 286.812C173.256 287.642 165.226 287.346 162.932 281.226C163.054 278.131 165.651 276.745 168.275 276.064C166.931 273.589 166.554 273.059 165.855 270.311C160.71 270.609 154.848 270.244 151.579 265.505C149.485 262.469 153.585 259.807 155.674 258.801C150.445 248.339 156.679 245.392 164.252 252.396C166.762 248.43 170.41 246.586 172.62 252.275C174.488 257.08 173.881 260.772 172.102 265.375C174.254 266.61 175.342 267.508 177.256 269.035C182.808 257.901 190.662 267.787 184.646 281.843C187.171 283.045 187.423 284.271 189.185 284.663C190.524 282.131 192.277 279.535 195.225 279.143C200.864 281.286 199.917 290.423 198.142 295.126L198.397 296.296C199.254 296.698 199.689 296.803 200.377 297.394C202.477 298.661 202.901 298.881 204.512 300.727L205.776 301.098C206.991 300.058 208.822 298.344 210.379 298.939C219.016 302.243 212.143 315.098 208.913 319.205C210.151 321.201 210.86 322.279 211.772 324.503L212.742 325.108C214.219 324.158 213.699 324.116 214.698 323.029C215.616 320.601 217.075 319.759 219.387 321.036C220.466 322.841 220.383 321.966 220.129 323.675C220.389 324.503 221.844 326.58 222.556 327.251C223.856 326.226 224.459 325.54 226.074 325.292C235.784 327.403 228.513 340.517 224.398 345.108C228.74 354.115 233.592 363.092 238.012 372.193L248.342 369.869C245.031 364.744 233.132 345.591 236.425 340.401C243.832 338.914 255.766 361.356 258.918 367.393C255.975 351.23 249.944 324.836 244.748 309.208C242.016 309.178 240.632 309.262 237.941 308.531C236.763 308.237 235.602 307.879 234.461 307.458C229.215 305.52 225.418 301.932 227.809 296.021C229.04 295.388 229.368 295.281 230.451 294.373C231.306 292.162 230.483 291.774 230.446 289.488C232.352 284.963 235.038 287.215 238.272 286.636C238.668 285.704 237.169 280.788 236.815 279.392C230.959 279.723 222.621 279.183 218.957 274.04C216.867 271.109 218.478 267.296 221.27 265.958C223.119 265.073 220.198 260.912 221.983 257.5C224.185 255.457 225.943 256.326 228.803 256.398L229.269 255.732C228.333 251.178 222.209 252.412 218.765 251.19C214.798 249.781 208.512 244.994 209.065 240.038C209.601 235.238 215.233 236.954 216.911 235.582C217.206 234.856 216.822 231.065 217.007 229.024C201.579 227.065 195.504 212.679 210.292 214.637L209.401 208.474C205.194 208.616 195.13 206.658 194.965 200.306C194.829 195.015 200.021 196.426 201.705 194.602C201.944 193.694 200.963 190.422 200.867 188.065C196.751 187.142 184.885 182.96 188.123 175.693C188.805 174.163 191.757 173.589 193.289 173.285Z" fill="black"/>
<path d="M195.345 422.724C197.382 420.871 196.604 417.822 198.759 417.817C200.796 417.817 204.224 420.037 205.746 421.647C206.208 423.091 205.786 423.746 204.639 424.724C207.528 426.222 211.081 428.19 214.036 429.347C219.243 431.859 225.121 433.899 230.586 435.787C245.046 440.128 257.629 443.353 272.699 445.299C274.338 445.523 276.727 445.958 278.3 445.887C295.782 449.008 325.005 447.847 342.58 446.039L354.735 444.299C375.279 441.586 397.913 433.222 416.702 424.441C415.958 428.59 414.713 433.505 413.768 437.68L412.697 441.788C405.148 468.427 401.273 489.773 383.289 512.21L384.317 513.309C384.217 516.076 382.776 519.377 384.299 521.592C376.763 529.319 371.753 531.978 362.628 537.58C364.095 541.674 364.413 538.481 365.531 541.656C367.203 546.114 367.621 550.078 365.645 554.639C365.327 555.37 364.987 556.088 364.635 556.796C362.454 560.25 357.447 563.429 353.485 563.438C324.544 563.523 295.199 564.201 266.313 562.927C260.588 562.671 248.486 546.805 258.369 541.634C261.181 540.499 263.179 541.638 264.706 540.571C264.3 540.208 260.88 538.306 260.186 537.907C258.933 537.337 256.525 535.849 255.235 535.109C252.847 533.687 249.452 531.642 247.462 529.723C245.337 528.467 243.815 526.991 241.955 525.359C230.786 515.089 220.739 501.052 214.905 486.823L214.851 486.45C214.069 485.28 213.836 484.517 213.283 483.217C208.666 471.14 205.369 458.995 201.865 446.559L199.07 436.299C197.716 431.922 196.534 427.177 195.345 422.724Z" fill="white"/>
<path d="M383.289 512.21L384.317 513.309C384.217 516.076 382.776 519.377 384.299 521.592C376.763 529.319 371.753 531.978 362.628 537.58C364.095 541.674 364.413 538.481 365.531 541.656C367.203 546.114 367.621 550.078 365.645 554.639C365.327 555.37 364.987 556.088 364.635 556.796C362.454 560.25 357.447 563.429 353.485 563.438C324.544 563.523 295.199 564.201 266.313 562.927C260.588 562.671 248.486 546.805 258.369 541.634C261.181 540.499 263.179 541.638 264.706 540.571L265.171 539.414C267.398 537.521 271.017 539.907 274.341 539.378L274.988 538.136L276.843 537.62C286.372 540.795 308.579 542.266 318.801 541.235C322.728 541.127 326.559 540.782 330.469 540.459C352.027 536.822 363.342 531.687 379.406 516.542L379.541 516.228L383.289 512.21Z" fill="black"/>
<path d="M318.801 541.235C322.728 541.127 326.559 540.782 330.469 540.459L329.337 541.58L329.681 542.235C332.907 542.997 334.766 541.49 337.038 542.181L337.247 542.831C334.369 546.307 322.619 541.486 318.801 541.235Z" fill="black"/>
<path d="M362.628 537.58C364.095 541.674 364.413 538.481 365.531 541.656C363.781 541.306 360.098 541.096 359.045 540.199C359.637 538.97 361.357 538.275 362.628 537.58Z" fill="white"/>
<path d="M379.406 516.542L379.541 516.228C381.187 517.193 381.012 516.744 381.657 518.197C381.178 519.681 381.618 519.134 380.312 519.906L379.484 519.646C378.914 518.049 379.119 518.453 379.406 516.542Z" fill="black"/>
<path d="M261.861 548.711C283.497 547.441 307.861 548.697 329.733 548.199C334.165 548.096 357.047 548.078 359.685 548.894C360.865 550.984 358.649 553.079 357.247 554.729C356.672 555.742 356.093 556.752 355.501 557.756C355.31 557.841 345.701 557.101 344.587 557.025L299.328 557.151C290.896 557.195 282.235 557.42 273.81 557.025C267.8 556.743 263.283 555.388 261.861 548.711Z" fill="white"/>
<path d="M357.247 554.729C356.672 555.742 356.093 556.752 355.501 557.756C355.31 557.841 345.701 557.101 344.587 557.025C349.31 556.491 353.046 557.164 357.247 554.729Z" fill="black"/>
<path d="M285.021 541.181C286.924 541.181 286.531 540.88 287.781 541.831L287.569 541.885L288.135 542.49L288.71 542.567L289.093 542.961L288.986 542.316L289.221 542.809L288.78 543.194C287.212 543.132 285.188 543.298 283.955 542.589L283.908 541.863L284.33 541.912L285.021 541.181Z" fill="black"/>
<path d="M195.345 422.724C197.382 420.871 196.604 417.822 198.759 417.817C200.796 417.817 204.224 420.037 205.746 421.647C206.208 423.091 205.786 423.746 204.639 424.724L203.562 424.679C203.253 425.822 203.275 425.257 203.465 426.374C204.112 428.728 205.42 433.056 205.788 435.299C206.238 436.693 206.738 438.788 207.653 439.806L207.614 441.555C208.358 444.017 209.104 446.34 209.641 448.86C211.15 453.973 213.511 461.202 214.658 466.229C216.032 469.247 216.529 472.05 217.602 474.544C224.088 493.061 232.365 507.03 246.244 520.668C244.972 522.655 244.265 521.641 243.094 524.57L241.955 525.359C230.786 515.089 220.739 501.052 214.905 486.823L214.851 486.45C214.069 485.28 213.836 484.517 213.283 483.217C208.666 471.14 205.369 458.995 201.865 446.559L199.07 436.299C197.716 431.922 196.534 427.177 195.345 422.724Z" fill="black"/>
<path d="M209.641 448.86C211.15 453.973 213.511 461.202 214.658 466.229C213.913 465.413 213.599 464.637 212.727 463.745C211.133 463.44 209.373 463.166 208.271 462C207.648 457.21 209.345 454.197 209.611 449.461L209.641 448.86Z" fill="black"/>
<path d="M215.845 476.494C217.201 477.867 216.887 477.091 217.212 478.705C216.399 480.087 216.151 480.329 215.139 481.513C214.724 478.804 214.662 478.817 215.845 476.494Z" fill="black"/>
<path d="M240.582 519.314C241.173 519.417 241.87 519.61 242.463 519.758C242.957 520.937 242.744 520.664 242.16 522.283C240.748 521.462 240.901 520.771 240.582 519.314Z" fill="black"/>
<path d="M213.524 471.077C214.806 471.839 214.469 471.449 215.317 472.579L214.759 474.31L213.955 473.813C213.133 472.203 213.348 473.068 213.524 471.077Z" fill="black"/>
<path d="M246.244 520.668L247.638 521.709C255.397 527.709 259.937 530.413 268.787 534.526C270.757 535.324 274.99 537.158 276.843 537.62L274.988 538.136L274.341 539.378C271.017 539.907 267.398 537.521 265.171 539.414L264.706 540.571C264.3 540.208 260.88 538.306 260.186 537.907C258.933 537.337 256.525 535.849 255.235 535.109C252.847 533.687 249.452 531.642 247.462 529.723C245.337 528.467 243.815 526.991 241.955 525.359L243.094 524.57C244.265 521.641 244.972 522.655 246.244 520.668Z" fill="black"/>
<path d="M255.235 535.109C256.615 534.804 256.738 534.727 257.758 533.723C259.248 533.638 259.314 533.539 260.742 534.127C260.968 536.548 259.16 535.346 260.415 537.423C260.567 537.4 260.718 537.382 260.87 537.36C263.499 536.006 266.594 537.369 268.517 536.203L268.787 534.526C270.757 535.324 274.99 537.158 276.843 537.62L274.988 538.136L274.341 539.378C271.017 539.907 267.398 537.521 265.171 539.414L264.706 540.571C264.3 540.208 260.88 538.306 260.186 537.907C258.933 537.337 256.525 535.849 255.235 535.109Z" fill="black"/>
<path d="M246.244 520.668L247.638 521.709C247.123 522.686 246.789 522.87 247.119 523.713C247.596 524.933 245.745 526.758 247 528.113C247.5 528.651 247.412 528.915 247.462 529.723C245.337 528.467 243.815 526.991 241.955 525.359L243.094 524.57C244.265 521.641 244.972 522.655 246.244 520.668Z" fill="black"/>
<path d="M205.788 435.299C207.32 435.823 207.51 436.029 209.129 435.496C210.004 436.774 209.972 436.666 210.163 438.214C209.643 439.72 210.109 439.205 208.8 439.882L207.653 439.806C206.738 438.788 206.238 436.693 205.788 435.299Z" fill="white"/>
<path d="M306.951 475.055C310.208 470.189 314.692 464.776 319.79 471.333L320.434 473.149C320.882 475.485 321.292 477.831 321.666 480.181C325.976 475.494 330.547 474.97 333.738 481.203C335.593 486.414 334.261 490.244 329.759 493.352L328.74 493.994C328.536 494.707 328.462 494.361 329.137 494.904C332.728 497.77 335.976 500.142 336.864 505.089C337.63 509.349 334.352 512.497 330.443 512.977C326.002 513.524 322.711 511.502 319.363 508.797C321.065 515.578 320.839 528.18 309.402 522.794C306.229 521.296 305.088 515.26 304.518 511.762C301.057 513.52 298.275 515.157 294.205 514.614C290.098 514.067 286.717 510.762 287.663 506.25C288.632 501.631 292.465 499.465 296.054 497.137C295.15 496.819 294.257 496.473 293.377 496.092C289.567 494.415 283.413 490.155 285.91 485.029C287.386 481.997 290.676 481.118 293.573 480.096C293.375 467.911 299.075 467.61 306.951 475.055Z" fill="black"/>
<path d="M333.738 481.203C335.593 486.414 334.261 490.244 329.759 493.352C331.487 490.388 333.568 484.526 333.738 481.203Z" fill="black"/>
<path d="M306.285 489.886C309.411 486.872 314.317 487.047 317.23 490.276C319.938 493.28 319.99 497.909 317.352 500.976C314.709 504.044 310.243 504.541 307.025 502.133C303.808 499.725 302.89 495.191 304.91 491.657C305.284 491.002 305.745 490.406 306.285 489.886Z" fill="white"/>
<path d="M298.213 487.814C302.524 486.284 302.598 489.639 306.285 489.886C305.745 490.406 305.284 491.002 304.91 491.657C304.783 490.11 305.044 490.025 304.248 489.087C302.876 490.034 303.582 492.352 301.749 494.079L300.761 493.971C300.151 492.289 301.597 492.46 301.361 490.513C300.43 490.527 299.494 490.545 298.559 490.567L298.163 490.042L297.398 489.684C296.204 489.119 294.921 488.652 294.523 487.531C295.893 487.051 296.784 487.459 298.213 487.814Z" fill="black"/>
<path d="M298.163 490.042L297.398 489.684C296.204 489.119 294.921 488.652 294.523 487.531C295.893 487.051 296.784 487.459 298.213 487.814C299.3 488.675 299.768 488.706 300.055 489.787C298.991 490.244 299.415 490.105 298.163 490.042Z" fill="white"/>
<path d="M311.544 508.465C313.852 509.761 313.351 513.399 313.316 515.798C310.347 513.138 310.665 512.197 311.544 508.465Z" fill="white"/>
<path d="M327.177 484.383C327.7 484.652 327.404 484.437 327.896 485.217C326.86 487.63 324.561 488.347 322.21 489.477C321.862 489.424 322.075 489.495 321.683 489.042C322.476 487.675 325.758 485.455 327.177 484.383Z" fill="white"/>
<path d="M301.814 502.842C302.311 503.317 302.093 502.99 302.25 503.945C300.904 505.927 298.581 506.555 296.419 507.196C296.275 507.008 296.37 507.178 296.175 506.416C297.877 505.057 299.929 503.949 301.814 502.842Z" fill="white"/>
<path d="M322.193 502.824C325.292 503.021 327.534 503.882 329.794 506.062C326.82 506.21 324.152 505.097 322.193 502.824Z" fill="white"/>
<path d="M314.962 475.355C315.623 476.84 315.937 478.737 315.602 480.347L315.057 479.948C314.788 477.929 314.805 477.4 314.962 475.355Z" fill="black"/>
<path d="M289.011 490.034L289.725 489.747C290.599 490.54 290.309 490.554 290.448 492.177L288.709 490.639L289.011 490.034Z" fill="black"/>
<path d="M367.987 495.222C363.316 499.617 355.884 504.353 350.691 508.134C349.241 509.192 346.437 509.802 344.57 509.358L344.274 508.685C346.481 503.837 358.078 498.59 362.458 495.034C371.387 487.782 380.695 479.427 385.936 468.669C389.375 461.879 391.456 452.542 398.161 448.295C400.041 447.102 402.074 449.291 402.536 451.331L401.831 454.677C399.428 460.125 398.452 460.946 393.307 463.843C393.254 465.453 393.189 466.108 391.996 467.4L392.131 467.597C395.187 467.148 400.921 466.081 401.225 470.835C398.653 476.553 391.543 475.692 386.55 475.127C384.26 477.625 383.102 479.602 381.278 482.472C384.917 481.84 389.062 480.889 392.432 482.782C393.372 484.428 393.189 483.58 393.119 485.383C390.655 489.522 384.317 490.634 380.02 489.137C378.783 488.706 378.692 486.863 378.379 485.594C376.472 486.858 373.725 489.778 372.014 491.509L367.987 495.222Z" fill="black"/>
<path d="M392.131 467.597C390.359 467.956 390.96 468.202 389.754 467.583C389.933 465.713 391.87 464.637 393.307 463.843C393.254 465.453 393.189 466.108 391.996 467.4L392.131 467.597Z" fill="white"/>
<path d="M248.979 479.495C246.671 460.682 260.109 465.529 256.99 479.598L256.729 480.208C255.37 483.307 254.21 484.549 252.149 487.199C254.698 492.078 266.689 498.994 271.417 502.496C274.094 504.474 278.337 505.586 277.807 509.824C274.766 511.398 259.348 498.577 256.581 495.985C255.677 495.949 254.885 495.931 253.983 495.832C252.889 494.209 252.987 494.245 251.256 493.46C251.148 492.742 251.177 491.446 251.168 490.67C246.24 485.688 241.882 479.912 236.779 475.18C236.302 475.127 235.825 475.077 235.348 475.023C235.457 474.683 235.745 474.427 236.006 474.117C237.522 473.961 237.991 473.866 239.408 473.306C240.827 475.239 243.438 478.445 245.236 479.992L245.838 479.876C246.794 480.656 246.884 480.952 248.043 480.992C248.822 480.221 248.575 480.557 248.979 479.495Z" fill="black"/>
<path d="M248.979 479.495C246.671 460.682 260.109 465.529 256.99 479.598C254.05 478.862 254.428 478.858 252.403 481.549L251.607 481.293C250.535 478.912 252.229 478.051 250.929 475.642L250.603 476.037C250.897 479.257 250.347 477.275 249.218 480.037L248.979 479.495Z" fill="black"/>
<path d="M248.979 479.495L249.218 480.037C249.761 482.593 250.628 484.54 251.581 486.948C249.632 484.917 246.74 482.235 245.236 479.992L245.838 479.876C246.794 480.656 246.884 480.952 248.043 480.992C248.822 480.221 248.575 480.557 248.979 479.495Z" fill="white"/>
<path d="M251.168 490.67L256.581 495.985C255.677 495.949 254.885 495.931 253.983 495.832C252.889 494.209 252.987 494.245 251.256 493.46C251.148 492.742 251.177 491.446 251.168 490.67Z" fill="white"/>
<path d="M229.79 455.6L231.863 461.318L234.315 461.274C234.736 460.179 235.065 459.977 235.926 459.211C236.752 458.121 237.273 456.95 238.546 456.762C242.932 456.121 244.068 461.879 243.981 465.193C243.873 469.292 242.706 471.243 239.408 473.306C237.991 473.866 237.522 473.961 236.006 474.117C235.745 474.427 235.457 474.683 235.348 475.023C230.238 479.652 220.606 474.844 222.158 468.853C225.227 465.341 229.815 468.108 233.368 469.606C230.974 465.314 230.715 464.875 226.637 462.327C227.985 462.359 227.561 462.471 228.79 462.067C229.105 461.139 229.277 457.569 229.79 455.6Z" fill="black"/>
<path d="M229.79 455.6L231.863 461.318C233.23 464.772 234.266 467.897 236.856 470.575C235.737 470.637 234.255 470.368 233.368 469.606C230.974 465.314 230.715 464.875 226.637 462.327C227.985 462.359 227.561 462.471 228.79 462.067C229.105 461.139 229.277 457.569 229.79 455.6Z" fill="black"/>
<path d="M231.863 461.318L234.315 461.274C234.736 460.179 235.065 459.977 235.926 459.211C235.268 466.018 236.207 464.996 236.856 470.575C234.266 467.897 233.23 464.772 231.863 461.318Z" fill="white"/>
<path d="M353.49 492.146C353.237 491.76 352.989 491.37 352.75 490.971C350.603 487.361 348.736 478.208 353.198 475.795C354.874 475.535 355.366 476.05 356.851 476.934C360.917 483.1 360.39 488.32 357.956 494.944C357.364 496.088 357.808 495.716 356.781 496.281C355.462 495.666 354.704 494.061 353.877 492.742L353.49 492.146Z" fill="black"/>
<path d="M353.49 492.146C353.237 491.76 352.989 491.37 352.75 490.971C350.603 487.361 348.736 478.208 353.198 475.795C354.874 475.535 355.366 476.05 356.851 476.934L354.674 478.001C354.826 483.042 355.876 485.177 353.42 489.648L353.49 492.146Z" fill="black"/>
<path d="M353.877 492.742C356.289 493.106 355.762 492.904 357.956 494.944C357.364 496.088 357.808 495.716 356.781 496.281C355.462 495.666 354.704 494.061 353.877 492.742Z" fill="black"/>
<path d="M263.334 478.495C264.441 476.396 264.504 475.952 266.839 475.588C268.378 476.073 268.702 476.557 269.865 477.683C271.772 482.387 270.318 485.854 268.912 490.563C267.903 492.801 266.922 494.756 265.805 496.931C262.482 492.043 261.875 490.581 261.887 484.508C262.017 482.141 262.418 480.625 263.334 478.495Z" fill="black"/>
<path d="M363.781 470.633C366.137 461.157 375.214 469.593 370.851 482.611L369.672 484.674C368.144 485.356 368.918 485.266 367.251 484.899C363.276 481.75 362.332 475.387 363.781 470.633Z" fill="black"/>
<path d="M363.781 470.633L364.178 471.436C364.356 470.987 364.534 470.539 364.713 470.09C365.788 471.561 365.218 473.108 365.497 473.494C367.961 476.862 369.315 478.566 370.851 482.611L369.672 484.674C368.144 485.356 368.918 485.266 367.251 484.899C363.276 481.75 362.332 475.387 363.781 470.633Z" fill="black"/>
<path d="M367.987 495.222L372.014 491.509C375.074 493.523 374.217 491.105 376.724 493.289C379.872 493.778 386.058 494.106 384.974 498.922C380.799 504.187 373.59 500.689 369.441 497.29L368.296 495.778L367.987 495.222Z" fill="black"/>
<path d="M367.987 495.222L372.014 491.509C375.074 493.523 374.217 491.105 376.724 493.289L374.948 493.612C371.918 493.312 370.895 494.079 368.296 495.778L367.987 495.222Z" fill="white"/>
<path d="M253.983 495.832C250.856 499.918 246.093 502.721 240.981 500.806C238.43 499.85 236.369 496.59 238.555 494.115C239.44 493.061 242.113 492.034 243.439 492.191C246.209 492.518 248.307 493.563 251.256 493.46C252.987 494.245 252.889 494.209 253.983 495.832Z" fill="black"/>
<path d="M379.088 456.475C388.444 456.919 384.055 468.323 381.626 473.62C379.301 474.203 377.264 471.781 376.842 469.57C375.854 464.368 376.489 460.973 379.088 456.475Z" fill="black"/>
<path d="M366.629 510.901C364.652 509.631 363.398 508.918 362.854 506.541C364.735 500.523 383.698 503.304 376.032 511.69C373.054 513.174 369.593 511.847 366.629 510.901Z" fill="black"/>
<path d="M366.629 510.901C369.898 509.143 367.843 510.102 369.515 508.237C370.93 506.649 371.683 510.501 373.207 506.21C373.825 507.403 374.147 509.833 373.716 511.125L376.032 511.69C373.054 513.174 369.593 511.847 366.629 510.901Z" fill="black"/>
<path d="M226.637 462.327C222.297 460.108 216.2 452.349 221.569 448.326C226.045 447.142 228.227 452.228 229.79 455.6C229.277 457.569 229.105 461.139 228.79 462.067C227.561 462.471 227.985 462.359 226.637 462.327Z" fill="black"/>
<path d="M232.677 481.414C235.794 481.36 244.592 482.127 243.508 486.944C242.221 488.482 242.068 488.495 240.248 489.406C235.205 489.473 223.091 487.468 232.677 481.414Z" fill="black"/>
<path d="M251.46 504.456C254.508 504.174 257.13 503.774 258.362 507.344C258.281 510.676 255.81 511.618 253.109 512.349C249.903 512.34 247.449 512.336 246.235 508.766C246.671 505.371 248.506 505.062 251.46 504.456Z" fill="black"/>
<path d="M251.103 505.811C252.491 505.9 254.33 505.317 255.244 506.734C254.041 507.869 252.06 507.77 250.337 507.932L248.95 508.147C248.545 509.322 248.745 508.896 247.895 509.869L247.345 509.385C247.061 507.9 246.984 508.591 247.532 507.228C248.672 506.21 249.623 506.151 251.103 505.811Z" fill="black"/>
<path d="M402.536 451.331C404.129 450.851 403.402 450.779 404.808 451.371C405.431 453.192 405.353 454.143 404.09 455.623C402.741 455.753 402.775 455.928 401.831 454.677L402.536 451.331Z" fill="white"/>
<path d="M281.489 448.761L281.885 449.533C280.89 450.313 279.974 450.156 278.513 450.349L278.157 449.497C279.241 448.595 279.777 448.887 281.489 448.761Z" fill="white"/>
<path d="M416.645 401.422C418.857 400.457 420.368 399.597 422.444 398.418C421.286 404.455 419.906 409.47 418.282 415.405L412.418 418.557L412.201 418.822C407.69 420.858 399.841 423.916 395.849 425.957L395.026 425.944C382.702 430.684 371.073 433.68 358.139 436.294C355.362 436.837 347.264 438.007 345.153 438.595C340.416 439.088 335.688 439.64 330.965 440.254C330.543 440.29 329.768 440.303 329.428 440.451C318.858 440.658 310.225 441.191 299.319 440.927C280.151 440.362 261.12 437.406 242.645 432.119C238.695 431.635 222.667 425.396 218.452 423.786L209.049 419.674C207.414 418.562 202.607 416.239 200.278 414.853C198.81 410.172 197.361 403.65 196.144 398.753C203.721 402.953 209.008 405.61 216.991 408.877C219.439 409.954 221.906 410.989 224.388 411.982L229.589 413.884L230.427 413.458C231.592 413.047 232.423 412.822 233.477 412.14L232.652 410.889L234.074 410.059C235.512 409.757 236.657 409.384 238.051 408.947C239.893 409.505 242.501 410.384 244.322 410.752C243.991 409.673 244.006 409.972 243.965 408.87C245.411 408.947 245.499 408.918 246.727 408.128C247.508 409.131 248.988 410.995 249.106 412.304L249.817 412.439C252.374 411.276 250.556 411.431 253.675 411.197C255.961 415.266 263.951 414.911 268.423 415.844C269.294 417.082 273.355 417.181 274.685 416.615C277.537 416.302 278.779 416.813 281.486 416.831C281.074 418.983 281.571 418.163 280.235 419.539C278.271 419.885 276.463 419.49 275.668 421.432L277.091 422.414C277.177 423.289 277.245 422.952 277.098 423.446C287.468 422.733 296.627 424.639 307.504 424.652C313.878 424.661 332.654 423.15 337.217 424.239C351.74 422.611 369.981 420.181 383.807 415.351C388.692 414.499 404.343 407.689 408.944 405.391L410.851 404.519C413.08 403.492 414.556 402.647 416.645 401.422Z" fill="white"/>
<path d="M246.727 408.128C247.508 409.131 248.988 410.995 249.106 412.304L249.817 412.439C252.374 411.276 250.556 411.431 253.675 411.197C255.961 415.266 263.951 414.911 268.423 415.844C269.294 417.082 273.355 417.181 274.685 416.615C277.537 416.302 278.779 416.813 281.486 416.831C281.074 418.983 281.571 418.163 280.235 419.539C278.271 419.885 276.463 419.49 275.668 421.432L277.091 422.414C277.177 423.289 277.245 422.952 277.098 423.446L276.966 423.854C261.208 422.015 249.998 419.75 234.816 415.553C233.188 414.938 231.272 414.4 229.589 413.884L230.427 413.458C231.592 413.047 232.423 412.822 233.477 412.14L232.652 410.889L234.074 410.059C235.512 409.757 236.657 409.384 238.051 408.947C239.893 409.505 242.501 410.384 244.322 410.752C243.991 409.673 244.006 409.972 243.965 408.87C245.411 408.947 245.499 408.918 246.727 408.128Z" fill="black"/>
<path d="M234.074 410.059C235.493 410.442 235.822 410.234 236.479 411.176L234.671 412.674C235.115 412.957 235.559 413.239 236.003 413.521C235.668 414.777 235.7 414.431 234.816 415.553C233.188 414.938 231.272 414.4 229.589 413.884L230.427 413.458C231.592 413.047 232.423 412.822 233.477 412.14L232.652 410.889L234.074 410.059Z" fill="black"/>
<path d="M246.727 408.128C247.508 409.131 248.988 410.995 249.106 412.304L244.322 410.752C243.991 409.673 244.006 409.972 243.965 408.87C245.411 408.947 245.499 408.918 246.727 408.128Z" fill="white"/>
<path d="M277.098 423.446C287.468 422.733 296.627 424.639 307.504 424.652C313.878 424.661 332.654 423.15 337.217 424.239C319.441 426.024 294.662 425.872 276.966 423.854L277.098 423.446Z" fill="black"/>
<path d="M261.092 432.935C263.502 432.715 266.57 432.087 268.476 433.401L268.175 434.621C264.095 434.038 265.016 435.949 261.092 432.935Z" fill="white"/>
<path d="M357.991 432.715C358.422 432.89 358.178 432.733 358.562 433.384C357.652 434.173 355.131 434.388 353.729 434.653C353.098 433.585 353.137 434.123 353.364 433.034C354.539 432.46 356.585 432.679 357.991 432.715Z" fill="white"/>
<path d="M265.913 378.684C265.743 377.223 265.674 377.055 265.849 375.549C267.636 373.472 272.38 373.735 275.816 373.178C276.621 376.145 279.275 381.932 280.691 384.901C286.389 396.849 288.922 404.45 288.9 417.732L281.486 416.831C278.779 416.813 277.537 416.302 274.685 416.615C272.912 415.01 272.114 408.818 271.43 405.938C271.316 403.325 266.609 380.708 265.913 378.684Z" fill="white"/>
<path d="M241.034 378.459C245.135 377.772 249.247 377.153 253.368 376.601C255.685 379.331 258.636 384.115 260.688 387.235L262.051 389.752C266.631 398.422 265.794 404.076 268.196 411.397C268.47 412.885 268.987 414.539 268.423 415.844C263.951 414.911 255.961 415.266 253.675 411.197C252.171 406.431 250.737 402.482 248.969 397.831C248.601 396.523 246.627 392.073 246.008 390.591C244.352 386.737 242.366 382.393 241.034 378.459Z" fill="white"/>
<path d="M373.908 376.268C377.847 376.599 381.239 377.191 385.122 377.847C382.384 384.391 378.879 392.176 376.48 398.731C375.51 401.293 372.388 409.933 371.191 411.836L355.732 414.831C357.534 405.781 358.535 399.14 362.723 390.886C364.108 389.155 364.691 388.264 365.836 386.347C367.887 384.423 371.8 378.813 373.908 376.268Z" fill="white"/>
<path d="M215.187 385.324C222.844 390.353 242.049 401.965 246.727 408.128C245.499 408.918 245.411 408.947 243.965 408.87C244.006 409.972 243.991 409.673 244.322 410.752C242.501 410.384 239.893 409.505 238.051 408.947C227.083 404.931 219.809 402.577 209.21 397.544L206.712 396.353C204.258 395.066 200.932 393.432 198.653 392.002C204.676 388.967 208.779 387.393 215.187 385.324Z" fill="white"/>
<path d="M376.48 398.731L378.283 398.316C378.365 398.18 378.448 398.044 378.531 397.907C380.93 396.551 384.195 389.107 387.064 391.479C387.595 393.038 387.738 393.262 387.699 394.969C386.802 395.685 386.707 395.56 385.54 395.656C384.743 397.425 385.649 398.645 385.218 400.986C387.094 399.606 388.949 398.195 390.786 396.755C390.081 399.465 390.385 398.173 388.152 400.162C386.289 401.823 384.068 403.761 382.941 406.011L382.967 406.704C384.412 407.791 385.24 406.531 387.403 406.81C391.408 406.089 404.634 399.9 408.592 397.999C411.043 397.822 411.787 397.665 414.147 398.507L414.517 397.06L415.139 396.937L416.014 397.907L416.837 397.767C416.602 400.973 415.64 399.142 416.645 401.422C414.556 402.647 413.08 403.492 410.851 404.519L408.944 405.391C404.343 407.689 388.692 414.499 383.807 415.351C382.257 415.481 381.091 415.342 379.554 415.216L379.249 414.122L378.37 414.109C377.704 415.463 378.069 415.077 377.012 415.992C376.737 414.557 375.479 414.158 374.77 412.151C373.411 413.221 372.967 413.893 371.496 413.047L371.191 411.836C372.388 409.933 375.51 401.293 376.48 398.731Z" fill="black"/>
<path d="M390.786 396.755C390.081 399.465 390.385 398.173 388.152 400.162C386.289 401.823 384.068 403.761 382.941 406.011L382.967 406.704C384.412 407.791 385.24 406.531 387.403 406.81C383.977 408.367 380.346 409.256 376.733 410.221C379.745 405.818 381.173 404.465 385.218 400.986C387.094 399.606 388.949 398.195 390.786 396.755Z" fill="white"/>
<path d="M381.822 411.181C382.945 411.758 383.302 412.095 383.215 413.333L382.458 413.521C380.76 413.337 380.847 413.624 379.737 412.709C380.255 411.575 380.368 411.848 381.822 411.181Z" fill="black"/>
<path d="M390.786 396.755C394.077 394.125 403.376 387.731 407.159 385.795C411.813 387.423 416.14 389.238 420.694 391.123C416.693 393.514 412.375 395.711 408.592 397.999C404.634 399.9 391.408 406.089 387.403 406.81C385.24 406.531 384.412 407.791 382.967 406.704L382.941 406.011C384.068 403.761 386.289 401.823 388.152 400.162C390.385 398.173 390.081 399.465 390.786 396.755Z" fill="white"/>
<path d="M218.452 423.786C222.667 425.396 238.695 431.635 242.645 432.119C241.961 434.258 240.724 435.958 238.348 435.994L237.871 435.316C238.611 434.657 238.417 434.787 239.293 434.289C236.942 433.635 233.878 433.967 231.502 434.473L230.586 435.787C225.121 433.899 219.243 431.859 214.036 429.347L213.567 428.329C214.438 427.585 215.525 427.491 216.666 427.235C216.147 426.029 216.33 426.45 215.241 425.5C216.452 423.979 216.21 424.437 218.452 423.786Z" fill="black"/>
<path d="M219.814 425.522C222.582 428.401 220.338 425.141 224.549 427.477C223.165 428.67 221.169 428.271 219.813 427.159L219.814 425.522Z" fill="black"/>
<path d="M279.171 246.052C281.247 246.401 283.319 243.822 285.67 246.345C290.699 251.74 283.284 260.081 279.016 262.84C278.356 257.167 280.164 261.877 280.828 256.199C279.809 256.968 279.422 257.548 278.361 257.648C278.65 256.184 278.952 255.056 279.35 253.617L279.151 251.748C277.003 249.746 278.431 248.245 279.171 246.052Z" fill="black"/>
<path d="M279.35 253.617C280.135 251.851 280.284 251.061 281.738 249.962L282.615 250.006C283.538 252.409 282.455 254.376 280.828 256.199C279.809 256.968 279.422 257.548 278.361 257.648C278.65 256.184 278.952 255.056 279.35 253.617Z" fill="white"/>
<path d="M399.188 256.775C400.368 258.059 401.648 259.515 402.849 260.749C402.035 262.342 401.125 264.037 400.416 265.669C399.597 263.088 398.875 261.276 396.511 259.883C393.206 259.772 391.321 263.637 389.528 266.236C389.358 266.185 389.184 266.133 389.01 266.081L388.265 265.873C383.402 264.405 382.275 268.443 381.67 272.396C381.208 269.921 380.89 268.89 381.883 266.649C383.646 264.834 385.666 265.512 386.781 263.648C389.188 259.611 394.713 260.859 397.003 257.41C398.6 257.668 396.963 258.423 398.714 260.177L399.454 259.839C399.972 257.286 398.705 260.033 399.188 256.775Z" fill="white"/>
<path d="M329.428 440.451C329.768 440.303 330.543 440.29 330.965 440.254C333.046 440.528 334.426 440.528 336.254 441.586C335.906 442.048 330.107 444.313 329.65 444.25C327.317 443.931 315.658 443.348 314.387 442.617C315.88 441.191 324.827 441.918 329.428 440.451Z" fill="black"/>
<path d="M310.421 308.763L311.148 309.049C310.926 307.861 313.66 318.053 313.077 316.708C313.555 315.63 313.429 315.686 313.59 314.453L314.235 314.472C314.056 318.245 313.838 322.015 313.577 325.782C312.828 323.125 313.307 321.236 312.715 318.705C311.536 319.393 310.051 322.493 309.825 324.024L309.202 323.966C309.241 319.92 310.047 313.019 310.421 308.763Z" fill="black"/>
<path d="M408.687 234.344L411.852 238.882C410.089 240.668 408.618 242.072 407.098 244.106C405.566 240.995 404.743 239.757 401.596 238.236C404.003 237.808 406.027 236.776 407.316 239.117L407.12 239.553L407.364 239.855L406.863 240.061L406.615 239.769L407.242 239.574C408.413 240.152 407.799 239.942 409.606 239.352C408.979 238.153 408.666 238.09 407.612 237.175C407.516 236.019 407.86 235.688 408.465 234.697L408.687 234.344Z" fill="white"/>
<path d="M217.309 205.117C219.4 202.609 219.963 201.878 221.559 199.004C222.199 201.1 222.492 200.943 222.118 202.799C221.03 203.853 221.078 203.844 219.748 204.519L219.719 205.236L220.632 206.253C221.593 205.976 221.359 205.983 222.22 205.295C223.005 205.702 223.863 206.118 224.613 206.575C223.426 207.726 222.136 209.177 220.987 210.402C219.743 207.88 219.068 207.186 217.309 205.117Z" fill="white"/>
<path d="M341.561 277.202C340.516 271.705 342.624 270.956 347.182 269.465C348.923 265.706 350.508 266.304 354.025 266.446C351.579 267.101 350.055 267.25 349.402 270.085C349.162 270.792 348.923 272.21 348.305 272.341C343.834 273.285 342.65 271.403 341.561 277.202Z" fill="white"/>
<path d="M425.561 416.701C426.489 422.742 423.968 428.235 424.904 430.383L426.737 431.249C425.905 432.608 423.877 432.877 422.353 432.984L421.861 433.446C422.932 427.921 424.308 422.208 425.561 416.701Z" fill="white"/>
<path d="M235.937 245.834C237.807 245.613 237.032 245.372 238.421 246.209L238.836 247.498L238.325 247.882C237.63 247.755 236.742 247.491 236.123 247.644C236.937 248.72 237.089 248.774 237.63 250.025C234.715 251.296 235.771 251.579 233.471 253.776C232.45 252.948 232.252 251.48 231.853 250.107L235.937 245.834Z" fill="white"/>
<path d="M423.219 301.338C423.655 300.335 423.977 300.058 424.643 299.195C423.594 297.367 424.939 293.597 425.735 291.783C426.284 297.148 427.072 298.546 429.802 303.094C427.055 302.054 426.184 301.615 423.219 301.338Z" fill="white"/>
<path d="M322.167 364.235L322.088 362.871C325.876 359.957 322.284 359.109 323.777 356.322C324.857 356.855 324.578 356.794 325.728 357.041C327.177 353.636 327.608 352.526 331.069 352.33C328.671 355.04 323.568 363.436 322.167 364.235Z" fill="white"/>
<path d="M216.991 408.877C218.576 408.649 218.466 408.622 219.988 409.111C220.423 407.847 220.306 408.207 220.395 406.821C221.337 405.769 220.782 406.085 222.079 405.773C224.492 408.084 222.588 408.429 226.117 408.771L226.242 409.271L225.909 409.607C225.061 410.477 224.546 410.791 224.388 411.982C221.906 410.989 219.439 409.954 216.991 408.877Z" fill="black"/>
<path d="M345.153 438.595C347.264 438.007 355.362 436.837 358.139 436.294C357.112 438.025 357.382 438.258 355.279 438.379C352.619 438.532 349.781 439.492 347.155 440.012C346.307 440.191 346.698 441.774 344.735 441.106C344.256 439.684 344.352 440.451 345.153 438.595Z" fill="black"/>
<path d="M209.049 419.674L218.452 423.786C216.21 424.437 216.452 423.979 215.241 425.5C213.187 425.787 212.738 425.5 211.308 426.589L211.436 425.805L211.786 425.97L211.457 425.679C211.804 423.737 211.405 424.571 212.725 423.105C212.144 422.293 211.585 422.432 210.331 422.123C209.362 421.387 209.396 420.903 209.049 419.674Z" fill="black"/>
<path d="M272.699 445.299C273.972 444.824 276.289 444.891 278.652 444.142L278.776 443.546C277.481 442.685 277.811 443.147 277.116 441.891C277.986 441.447 279.644 441.496 280.653 441.492L281.618 442.178C281.999 442.653 282.342 443.075 282.74 443.541L282.535 444.923L282.756 444.967C280.742 445.748 280.151 445.438 278.3 445.887C276.727 445.958 274.338 445.523 272.699 445.299Z" fill="black"/>
<path d="M265.913 378.684C264.861 377.148 264.789 376.571 264.626 374.792C266.694 369.927 271.097 372.744 275.096 372.61L275.817 372.582L275.816 373.178C272.38 373.735 267.636 373.472 265.849 375.549C265.674 377.055 265.743 377.223 265.913 378.684Z" fill="black"/>
<path d="M412.697 441.788L413.768 437.68C415.265 440.173 416.985 443.12 415.962 446.003L415.204 446.362C413.642 445.452 413.559 445.017 413.006 442.999C412.893 442.599 412.793 442.191 412.697 441.788Z" fill="black"/>
<path d="M431.038 309.154C431.121 310.748 430.855 312.056 431.735 312.877C433.498 312.543 433.615 312.663 435.248 313.451L435.291 314.278C433.289 314.677 435.505 312.762 432.897 314.786C431.216 315.011 429.04 315.68 427.895 315.003C427.973 313.487 430.115 310.601 431.038 309.154Z" fill="white"/>
<path d="M329.049 340.415L329.489 341.273C327.87 344.83 323.582 351.286 320.373 353.114C322.014 350.194 326.977 343.161 329.049 340.415Z" fill="white"/>
<path d="M260.688 387.235C260.713 385 261.517 382.47 263.861 381.69L264.768 382.225L264.638 381.927C265.533 385.464 262.573 385.975 262.051 389.752L260.688 387.235Z" fill="black"/>
<path d="M244.249 274.988C244.304 277.223 243.413 278.193 243.643 279.795C245.101 280.848 244.762 280.519 246.766 280.752C245.349 281.185 243.967 282.112 242.666 282.888L241.935 282.292C240.642 278.769 241.326 276.696 244.249 274.988Z" fill="white"/>
<path d="M395.849 425.957C398.004 425.831 399.149 425.37 401.134 426.401L401.391 427.065C399.732 428.769 397.529 428.724 395.588 427.531L395.026 425.944L395.849 425.957Z" fill="black"/>
<path d="M403.511 352.135L403.825 352.187C403.045 354.721 403.137 357.205 401.913 359.26C400.795 359.836 400.072 360.105 398.914 360.538C400.385 357.745 401.987 354.91 403.511 352.135Z" fill="white"/>
<path d="M363.912 289.887C361.126 295.087 358.945 290.488 355.253 294.014C356.272 290.223 360.068 291.03 363.912 289.887Z" fill="white"/>
<path d="M342.58 446.039L343.229 444.631C345.327 443.398 352.158 444.03 354.735 444.299L342.58 446.039Z" fill="black"/>
<path d="M280.653 441.492C282.208 439.877 286.872 440.846 288.813 441.626L289.184 442.124C285.49 443.133 284.814 441.756 281.618 442.178L280.653 441.492Z" fill="black"/>
<path d="M214.698 323.029C215.616 320.601 217.075 319.759 219.387 321.036C220.466 322.841 220.383 321.966 220.129 323.675C217.657 322.439 217.287 322.472 214.698 323.029Z" fill="white"/>
<path d="M422.941 342.952L424.234 342.817C425.749 344.295 425.692 346.363 424.164 347.817C423.624 347.577 423.119 347.373 422.605 347.087C423.049 345.709 422.936 344.417 422.941 342.952Z" fill="white"/>
<path d="M313.207 335.966C313.534 339.064 313.116 344.551 313.995 346.37C313.917 346.987 313.434 348.301 313.22 348.954C313.081 348.908 312.946 348.862 312.807 348.816C312.511 345.448 312.759 339.323 313.207 335.966Z" fill="white"/>
<path d="M230.427 413.458C229.651 412.961 229.499 412.818 228.792 412.228L228.7 411.29L229.644 410.644C230.954 410.482 231.478 410.279 232.652 410.889L233.477 412.14C232.423 412.822 231.592 413.047 230.427 413.458Z" fill="black"/>
<path d="M204.978 347.019L204.15 348.263L203.119 348.407C201.599 347.344 201.164 345.488 201.873 343.807C202.79 344.81 203.975 346.19 204.978 347.019Z" fill="white"/>
<path d="M412.201 418.822L412.418 418.557L414.586 418.876C415.213 419.75 415.043 419.454 415.418 420.463L415.161 421.445L414.238 421.441C412.61 421.073 412.022 421.306 411.373 420.266L412.201 418.822Z" fill="black"/>
<path d="M198.142 295.126L198.397 296.296C199.254 296.698 199.689 296.803 200.377 297.394C199.075 298.077 198.008 298.81 196.577 298.904C196.366 297.52 197.042 296.943 197.844 295.378L198.142 295.126Z" fill="white"/>
<path d="M206.712 396.353L209.21 397.544C208.086 397.892 207.813 398.527 207.077 399.521L206.776 399.933C205.514 400.011 205.457 400.144 204.372 399.556C205.914 397.523 205.103 399.96 207.243 397.697L206.712 396.353Z" fill="black"/>
<path d="M368.409 366.419C368.561 364.69 369.45 362.067 369.963 360.325L371.274 361.883C370.359 363.344 369.367 365.013 368.409 366.419Z" fill="white"/>
<path d="M410.35 422.504L410.751 421.54C412.231 421.32 412.784 421.374 414.238 421.441L414.247 422.589C412.906 423.212 412.1 422.759 410.35 422.504Z" fill="black"/>
<path d="M258.805 345.455L260.162 345.164C260.203 346.799 260.265 346.916 259.87 348.559C259.095 347.722 259.116 346.781 258.805 345.455Z" fill="white"/>
<path d="M299.311 371.3C301.523 371.081 304.87 371.093 307.165 371.042C307.038 386.646 307.217 402.25 307.696 417.849C304.757 417.943 301.218 417.786 298.231 417.728L293.368 417.602C292.887 404.542 291.58 384.847 290.127 371.959C292.833 371.568 296.505 371.461 299.311 371.3Z" fill="white"/>
<path d="M341.187 371.897C347.639 372.679 354.082 373.512 360.525 374.397C358.083 385.937 355.018 397.341 352.336 408.823C351.835 410.973 351.409 413.156 350.717 415.252C346.193 416.198 341.605 416.786 336.995 417.01C338.636 412.384 340.077 409.369 342.249 404.962C340.02 404.94 337.6 404.535 336.49 402.256C336.533 400.727 336.507 399.593 338.144 399.358C340.203 394.273 340.477 378.514 341.187 371.897Z" fill="white"/>
<path d="M349.911 378.764C349.633 385.03 348.705 390.427 346.394 396.238C343.747 392.502 345.915 396.05 342.854 393.546C345.005 387.925 344.487 386.103 345.897 381.311C347.991 381.09 348.522 380.333 349.911 378.764Z" fill="black"/>
<path d="M342.854 393.546C345.915 396.05 343.747 392.502 346.394 396.238C345.122 399.066 343.755 402.291 342.249 404.962C340.02 404.94 337.6 404.535 336.49 402.256C336.533 400.727 336.507 399.593 338.144 399.358C338.288 400.46 338.279 400.485 338.684 401.509C340.382 400.748 342.01 395.641 342.854 393.546Z" fill="black"/>
<path d="M345.897 381.311L345.397 380.795C344.004 381.493 342.737 384.192 341.566 385.845L341.148 385.662C342.471 382.263 344.034 379.552 347.417 377.97C348.727 378.024 348.714 378.135 349.911 378.764C348.522 380.333 347.991 381.09 345.897 381.311Z" fill="white"/>
<path d="M331.4 371.513C333.12 371.517 335.183 371.725 336.925 371.852C334.8 386.939 333.668 402.366 331.844 417.459C328.187 417.799 321.844 417.719 317.974 417.782L313.312 417.737C315.61 404.667 326.72 385.589 331.4 371.513Z" fill="white"/>
<path d="M205.092 371.432C212.355 372.178 232.804 388.234 237.805 394.51C229.856 391.807 211.272 377.139 205.092 371.432Z" fill="white"/>
<path d="M416.519 370.875L422.405 368.459C413.959 375.768 406.846 381.228 397.368 387.098L395.231 385.744L396.694 384.348L402.51 379.607C407.442 375.99 411.095 373.616 416.519 370.875Z" fill="white"/>
<path d="M311.91 371.182L319.18 371.116C315.728 379.58 314.387 384.191 312.132 393.224L311.718 393.291C311.684 386.616 311.401 377.656 311.91 371.182Z" fill="white"/>
<path d="M293.289 319.436C298.604 328.721 301.475 340.292 303.625 350.75L303.595 351.535C302.659 350.553 301.649 348.072 301.035 346.752C296.835 337.684 294.228 329.428 293.289 319.436Z" fill="white"/>
<path d="M267.769 318.608L268.985 319.324C269.145 328.831 267.791 341.018 264.384 349.893C264.431 339.078 265.073 329.113 267.769 318.608Z" fill="white"/>
<path d="M332.711 322.968C333.468 328.122 321.226 344.515 317.77 349.158C317.334 343.638 328.688 327.336 332.711 322.968Z" fill="white"/>
<path d="M385.074 350.773L385.444 351.52C382.967 358.585 373.429 370.523 368.527 376.199L368.152 375.986C368.749 371.184 381.038 354.845 385.074 350.773Z" fill="white"/>
<path d="M360.56 322.573C362.097 328.705 362.427 337.254 362.366 343.561C359.724 344.622 361.57 343.854 359.946 346.034C358.892 340.265 358.832 328.073 360.56 322.573Z" fill="white"/>
<path d="M280.849 372.537C282.508 372.414 283.914 372.166 285.494 372.672C286.018 374.618 287.393 386.832 286.616 387.986C284.867 384.262 281.345 376.956 280.346 373.281L280.849 372.537Z" fill="white"/>
<path d="M229.752 381.272L236.584 379.828C237.505 382.037 238.551 384.422 239.409 386.638C240.618 388.659 241.585 391.482 242.459 393.734C240.216 390.943 237.877 388.776 235.325 386.311C233.477 384.72 231.405 383.047 229.752 381.272Z" fill="white"/>
<path d="M235.325 386.311C239.046 384.862 237.273 386.333 239.409 386.638C240.618 388.659 241.585 391.482 242.459 393.734C240.216 390.943 237.877 388.776 235.325 386.311Z" fill="white"/>
<path d="M323.917 371.036C325.014 372.057 325.401 372.888 326.32 373.842C324.77 377.566 323.159 381.657 321.379 385.236C320.02 384.357 320.007 384.319 318.962 383.203C320.499 378.879 321.853 375.136 323.917 371.036Z" fill="white"/>
<path d="M413.541 242.995C413.798 243.164 414.342 243.713 414.595 243.95C415.749 248.124 411.748 252.89 408.914 255.498C408.544 255.6 408.792 255.565 408.169 255.386C408.356 250.486 409.889 246.281 413.541 242.995Z" fill="white"/>
<path d="M225.135 260.614C230.975 260.668 234.511 266.312 235.44 271.71L234.89 271.34C231.594 269.082 225.946 264.724 225.135 260.614Z" fill="white"/>
<path d="M225.136 242.443L224.772 242.015C222.283 239.027 221.037 236.45 220.977 232.48L221.503 231.899C224.842 233.148 228.014 240.735 226.992 244.171L226.452 244.404L225.136 242.443Z" fill="white"/>
<path d="M406.267 271.344L407.547 271.508C409.584 274.382 400.237 279.255 398.061 280.577L397.347 280.604L397.251 279.912C399.506 276.137 402.318 273.191 406.267 271.344Z" fill="white"/>
<path d="M213.265 240.613C218.574 240.074 220.886 243.647 223.333 248.012C219.135 247.036 214.516 245.303 213.265 240.613Z" fill="white"/>
<path d="M421.143 252.818C421.391 252.984 421.63 253.462 421.817 253.765L421.621 254.652C419.484 257.224 415.056 259.187 411.809 259.629L411.504 259.301L411.661 258.611C414.752 255.225 416.689 253.245 421.143 252.818Z" fill="white"/>
<path d="M384.652 390.483C386.149 387.27 387.538 382.559 389.898 380.019C390.455 379.42 390.951 379.722 392.105 379.795L394.808 380.654C391.378 383.88 387.991 387.157 384.652 390.483Z" fill="white"/>
<path d="M233.82 232.095C238.348 232.67 233.99 240.562 232.588 242.561L232.02 243.166L231.596 242.687C231.051 238.368 231.727 235.73 233.82 232.095Z" fill="white"/>
<path d="M214.802 214.616C214.262 212.974 213.038 210.679 214.823 209.718C216.088 210.219 216.479 211.02 217.304 212.147C218.409 214.834 219.328 216.582 218.966 219.537L218.285 219.793C216.376 218.469 215.851 216.804 214.802 214.616Z" fill="white"/>
<path d="M214.802 214.616C214.262 212.974 213.038 210.679 214.823 209.718C216.088 210.219 216.479 211.02 217.304 212.147C216.373 213.225 215.975 213.778 214.802 214.616Z" fill="white"/>
<path d="M255.196 290.607L255.873 291.074C257.539 294.845 253.407 299.071 250.841 301.358L250.59 301.375L250.299 300.98C251.288 296.599 251.884 293.55 255.196 290.607Z" fill="white"/>
<path d="M400.751 242.946C404.956 244.421 403.69 251.519 403.398 255.096C400.455 252.207 399.741 246.877 400.751 242.946Z" fill="white"/>
<path d="M429.236 232.096C429.675 232.136 430.603 232.188 430.994 232.286L431.304 233.177C428.783 236.311 427.255 236.445 423.493 236.9C422.475 236.946 422.623 236.921 421.6 236.744L421.539 236.037C423.502 233.588 426.397 232.809 429.236 232.096Z" fill="white"/>
<path d="M204.908 188.223C209.015 189.258 210.567 195.595 210.244 199.417C207.103 196.123 204.883 192.929 204.908 188.223Z" fill="white"/>
<path d="M384.421 294.117L385.431 295.068C386.916 298.852 385.483 302.087 384.012 305.713C381.322 303.172 382.771 296.999 384.421 294.117Z" fill="white"/>
<path d="M264.938 222.718L266.153 223.339C268.635 226.852 269.169 230.285 268.819 234.507C265.371 232.727 264.777 226.23 264.938 222.718Z" fill="white"/>
<path d="M246.262 285.277C249.467 288.489 247.357 293.517 246.238 297.268C244.464 293.138 243.341 289.036 246.262 285.277Z" fill="white"/>
<path d="M314.848 398.691C315.919 393.313 317.343 388.406 318.962 383.203C320.007 384.319 320.02 384.357 321.379 385.236C319.646 389.058 317.003 395.378 314.848 398.691Z" fill="white"/>
<path d="M442.845 185.139C443.367 185.257 443.519 185.386 444.003 185.628C444.712 189.324 442.035 192.347 439.815 194.961L439.283 195.129L438.805 194.598C438.966 191.305 440.546 187.484 442.845 185.139Z" fill="white"/>
<path d="M238.468 254.267C241.382 257.187 239.265 262.756 238.276 266.253C235.612 263.499 236.457 257.46 238.468 254.267Z" fill="white"/>
<path d="M407.777 280.961C408.073 281.001 409.205 281.323 409.532 281.41L409.902 282.078C408.983 284.388 404.033 285.345 401.957 285.664C400.903 285.519 400.934 285.516 399.933 285.222L400.015 284.567C401.909 282.701 405.257 281.526 407.777 280.961Z" fill="white"/>
<path d="M249.53 364.279C250.028 363.372 249.825 363.66 250.567 362.951L252.234 363.143C254.568 367.57 256.656 372.13 258.488 376.801C255.429 372.682 252.443 368.507 249.53 364.279Z" fill="white"/>
<path d="M222.128 270.152C226.937 269.753 228.953 272.048 232.758 275.066C229.149 275.176 223.052 274.65 222.128 270.152Z" fill="white"/>
<path d="M374.574 298.694C378.657 300.073 379.066 305.878 379.167 309.748C376.189 306.847 373.873 303.038 374.574 298.694Z" fill="white"/>
<path d="M197.127 167.57C200.859 169.685 202.121 174.781 202.057 178.876C198.437 176.152 197.187 172.038 197.127 167.57Z" fill="white"/>
<path d="M234.537 290.662C236.901 290.864 238.017 291.985 239.851 293.427C240.836 296.147 241.088 297.071 241.644 299.918C238.623 297.299 234.987 294.799 234.537 290.662Z" fill="white"/>
<path d="M329.763 360.466C328.971 364.823 327.874 369.703 326.32 373.842C325.401 372.888 325.014 372.057 323.917 371.036C325.628 367.511 327.474 363.642 329.763 360.466Z" fill="white"/>
<path d="M246.069 260.419L247.12 260.976C248.547 264.106 245.237 268.754 242.632 270.212L242.289 270.37L242.049 269.919C242.897 266.861 243.94 262.633 246.069 260.419Z" fill="white"/>
<path d="M226.326 210.291C230.171 211.314 225.687 218.878 224.504 220.597C222.077 219.331 225.062 212.074 226.326 210.291Z" fill="white"/>
<path d="M188.29 294.483C186.214 292.472 184.537 291.1 183.367 288.388L183.486 287.295C187.063 286.173 189.947 292.309 189.393 295.031L188.29 294.483Z" fill="white"/>
<path d="M232.39 298.278C235.587 299.703 237.783 301.833 240.215 304.395L239.408 304.525C236.606 304.083 231.978 302.801 230.75 299.883C231.212 298.515 230.806 299.13 232.39 298.278Z" fill="white"/>
<path d="M247.034 354.821C248.782 357.55 250.618 360.337 252.234 363.143L250.567 362.951C249.825 363.66 250.028 363.372 249.53 364.279C248.119 362.046 246.715 359.619 245.35 357.339L247.034 354.821Z" fill="white"/>
<path d="M440.381 290.014L441.665 289.594C441.956 289.801 442.457 290.122 442.692 290.36C440.642 295.352 439.688 295.056 435.618 298.593C435.161 297.139 435.883 296.148 436.506 294.889C437.982 292.433 438.439 291.988 440.381 290.014Z" fill="white"/>
<path d="M206.039 218.846C211.217 218.675 213.221 220.763 216.274 224.507C211.689 224.356 208.718 222.536 206.039 218.846Z" fill="white"/>
<path d="M453.18 273.028L454.573 273.318C455.84 276.068 450.838 280.245 448.722 281.179L447.951 280.939C449.545 276.779 450.145 275.999 453.18 273.028Z" fill="white"/>
<path d="M397.66 308.28C398.496 308.747 398.121 308.408 398.687 309.392C397.608 312.127 392.079 313.367 389.436 313.844L388.992 313.623L389.071 313.071C391.578 310.968 394.434 308.891 397.66 308.28Z" fill="white"/>
<path d="M393.141 300.533C394.182 300.511 394.173 300.461 395.144 300.8L395.261 301.699C394.155 304.216 391.391 306.004 389.206 307.599C389.045 307.706 388.378 307.948 388.169 308.03L388.091 307.27C389.332 304.381 390.486 302.172 393.141 300.533Z" fill="white"/>
<path d="M193.516 315.234C195.416 315.847 196.841 316.317 198.672 317.111C199.61 317.664 199.888 317.831 200.727 318.522L200.368 319.104C197.885 319.724 192.503 318.839 191.121 316.362C191.858 315.304 191.888 315.614 193.516 315.234Z" fill="white"/>
<path d="M394.865 264.44C398.148 265.979 395.932 273.278 394.817 275.725L394.678 275.795L394.26 275.592C393.668 271.81 393.428 267.987 394.865 264.44Z" fill="white"/>
<path d="M280.813 274.316C284.295 276.319 281.12 281.782 279.769 284.407L279.731 284.453L279.409 284.355C279.269 283.703 279.148 283.046 279.047 282.386C278.573 279.12 278.977 276.916 280.813 274.316Z" fill="white"/>
<path d="M261.055 253.935C265.975 254.14 267.184 257.019 270.135 260.793C266.112 260.161 262.715 257.803 261.055 253.935Z" fill="white"/>
<path d="M428.652 196.685C429.462 197.048 429.44 197.12 430.159 197.687C431.365 200.409 429.78 204.125 428.927 207.111L428.343 207.075C427.303 203.357 427.163 200.288 428.652 196.685Z" fill="white"/>
<path d="M440.128 300.263C442.152 299.743 444.172 299.017 446.114 299.752L446.345 300.505C444.325 303.271 440.794 303.029 437.764 302.772L437.664 302.235L440.128 300.263Z" fill="white"/>
<path d="M386.128 269.827L387.599 270.428C389.824 272.967 389.824 277.047 389.863 280.384C387.203 277.383 385.893 273.905 386.128 269.827Z" fill="white"/>
<path d="M430.807 319.071C432.205 318.916 432.187 318.83 433.506 319.241L433.872 319.969C432.688 321.874 430.507 322.178 428.513 322.572C427.007 322.556 426.545 322.658 425.17 321.981L425.222 321.394C427.037 320.078 428.678 319.74 430.807 319.071Z" fill="white"/>
<path d="M217.708 190.584C220.156 193.319 217.685 197.963 215.802 200.368L215.181 200.057C214.929 196.703 215.529 193.179 217.708 190.584Z" fill="white"/>
<path d="M441.599 207.756C443.519 207.863 442.749 207.51 444.107 208.518L444.05 209.32C442.139 211.364 441.334 211.525 438.583 212.052C437.359 212.138 437.337 212.212 436.184 211.864L436.114 211.21C437.668 209.674 439.662 208.793 441.599 207.756Z" fill="white"/>
<path d="M267.684 282.214C271.268 282.925 273.794 285.827 274.755 289.363C271.52 288.151 267.786 286.121 267.684 282.214Z" fill="white"/>
<path d="M200.037 301.849C203.39 304.477 203.233 307.921 203.439 311.905C200.276 308.999 198.994 306.051 200.037 301.849Z" fill="white"/>
<path d="M157.622 252.871C161.613 253.492 163.077 258.001 164.181 261.417C161.103 260.333 158.21 256.132 157.622 252.871Z" fill="white"/>
<path d="M200.124 199.124C202.48 199.214 207.11 201.352 207.532 203.868C204.881 203.827 202.295 203.327 200.235 201.554C199.531 200.027 199.598 200.808 200.124 199.124Z" fill="white"/>
<path d="M428.095 217.058C428.883 217.625 428.526 217.292 428.974 218.323C428.77 221.183 427.159 223.046 425.54 225.331C422.993 221.177 425.226 219.812 428.095 217.058Z" fill="white"/>
<path d="M410.655 224.252C414.652 226.148 414.134 230.095 413.38 233.941C411.256 230.299 409.876 228.41 410.655 224.252Z" fill="white"/>
<path d="M208.938 303.112C211.851 305.01 209.562 310.647 208.428 313.054C206.735 311.302 207.202 305.365 208.938 303.112Z" fill="white"/>
<path d="M257.187 230.685C261.497 231.493 262.674 233.661 264.999 237.128C261.883 236.403 257.273 234.488 257.187 230.685Z" fill="white"/>
<path d="M225.665 329.512C226.637 329.927 226.184 329.633 226.844 330.741C226.955 334.073 225.969 335.536 224.469 338.424C224.104 338.689 224.35 338.575 223.667 338.537C223.081 335.085 223.695 332.347 225.665 329.512Z" fill="white"/>
<path d="M461.804 264.689C460.716 262.32 464.777 257.129 467.054 257.139C467.49 258.728 467.22 258.513 466.58 260.43C464.89 262.055 463.654 263.198 461.804 264.689Z" fill="white"/>
<path d="M194.138 283.493C196.344 286.106 195.598 290.346 194.343 293.232C191.629 290.808 192.742 286.311 194.138 283.493Z" fill="white"/>
<path d="M170.577 269.594C174.023 270.801 175.917 273.891 176.585 277.476C173.75 276.712 170.383 272.851 170.577 269.594Z" fill="white"/>
<path d="M424.556 305.402C425.213 305.953 425.052 305.884 425.518 306.687C425.596 309.636 423.868 311.783 422.309 314.257L421.704 314.135C421.682 313.803 421.669 313.47 421.661 313.137C421.569 309.404 422.166 308 424.556 305.402Z" fill="white"/>
<path d="M359.946 346.034C361.57 343.854 359.724 344.622 362.366 343.561L362.332 347.156C361.966 350.435 361.914 354.999 361.801 358.321C361.1 354.255 360.32 350.142 359.946 346.034Z" fill="white"/>
<path d="M216.678 326.387C220.196 328.324 219.073 332.746 218.569 336.023C216.556 332.228 215.141 330.689 216.678 326.387Z" fill="white"/>
<path d="M187.765 298.581L187.673 299.028C185.509 300.466 180.509 298.69 178.773 296.736L179.024 296.196C182.402 295.759 183.455 296.54 186.572 297.95L187.765 298.581Z" fill="white"/>
<path d="M255.188 181.666C258.314 183.692 258.52 189.035 258.285 192.384C255.766 189.358 254.963 185.583 255.188 181.666Z" fill="white"/>
<path d="M416.023 306.311C418.269 308.629 417.882 313.414 416.85 316.226C414.882 313.187 413.959 309.49 416.023 306.311Z" fill="white"/>
<path d="M274.385 245.342C276.73 247.7 275.514 251.928 274.414 254.62C272.186 252.506 272.416 247.799 274.385 245.342Z" fill="white"/>
<path d="M259.799 202.093C263.444 203.679 263.295 208.269 263.126 211.638C260.396 208.449 259.588 206.343 259.799 202.093Z" fill="white"/>
<path d="M288.249 280.371C289.905 283.641 285.291 287.078 282.93 288.518L282.704 288.39C282.965 285.845 286.157 281.717 288.249 280.371Z" fill="white"/>
<path d="M275.784 225.988C276.92 226.587 276.505 226.158 277.094 227.298C277.075 230.121 275.114 232.203 273.45 234.477L272.962 234.581L272.664 233.866C273.094 230.904 274.03 228.38 275.784 225.988Z" fill="white"/>
<path d="M407.751 329.559C410.642 332.128 408.248 335.823 406.911 338.635C404.926 337.207 406.532 331.478 407.751 329.559Z" fill="white"/>
<path d="M240.775 347.254C243.383 349.984 244.753 351.76 247.034 354.821L245.35 357.339C243.373 353.518 242.302 351.265 240.775 347.254Z" fill="white"/>
<path d="M430.481 287.516C433.115 290.114 431.708 294.392 431.042 297.615C429.144 295.346 429.31 290.208 430.481 287.516Z" fill="white"/>
<path d="M352.419 273.574C353.024 271.976 352.728 271.899 353.834 271.381C354.944 272.4 355.035 273.376 355.34 274.893C355.035 276.569 354.953 278.223 353.768 279.203C352.423 278.041 352.449 275.26 352.419 273.574Z" fill="white"/>
<path d="M365.388 281.679C367.016 281.953 366.441 281.538 367.43 282.544L367.029 283.502C365.061 285.125 363.625 285.576 361.317 286.519L359.959 286.669L359.72 286.252C360.947 284.639 363.664 282.916 365.388 281.679Z" fill="white"/>
<path d="M415.714 344.307C417.399 344.277 417.721 343.959 418.87 344.74C418.426 347.525 412.383 347.512 410.281 347.143L410.246 346.756C412.201 345.667 413.659 345.126 415.714 344.307Z" fill="white"/>
<path d="M207.365 334.16C212.467 334.242 212.831 335.402 215.096 339.666C211.099 337.946 209.903 337.765 207.365 334.16Z" fill="white"/>
<path d="M270.77 206.323C273.033 209.04 269.383 213.124 267.564 215.021L267.08 214.319C267.717 211.674 268.918 208.321 270.77 206.323Z" fill="white"/>
<path d="M398.483 332.616C401.365 333.439 400.324 334.917 401.517 336.783C401.626 338.49 401.852 339.612 401.269 341.209L400.655 341.008C399.049 338.068 398.383 335.971 398.483 332.616Z" fill="white"/>
<path d="M206.769 341.523C209.328 342.026 212.266 342.718 214.316 344.445L213.901 345.072C211.534 344.785 207.092 344.79 205.972 342.509L206.769 341.523Z" fill="white"/>
<path d="M192.173 177.652C194.88 177.853 198.285 180.82 199.376 183.261C196.053 182.555 192.879 181.33 192.173 177.652Z" fill="white"/>
<path d="M451.525 284.405C453.415 283.88 456.51 282.79 457.289 285.288L456.993 286.113C455.039 286.389 451.778 286.933 450.015 286.023L450.054 285.395L451.525 284.405Z" fill="white"/>
<path d="M447.603 193.728C447.925 193.75 448.622 193.941 448.961 194.022L449.209 194.825C448.186 196.845 445.126 198.297 443.145 199.307L442.509 199.188L442.566 198.451C444.316 196.331 445.522 195.431 447.603 193.728Z" fill="white"/>
<path d="M358.549 280.615C359.149 278.316 359.424 277.116 361.161 275.573C363.02 275.049 362.162 274.979 363.842 275.597C362.671 277.76 361.317 279.818 359.223 281.11C358.997 280.945 358.771 280.78 358.549 280.615Z" fill="white"/>
<path d="M415.048 336.418L416.859 336.671L417.211 337.348C416.554 339.246 413.672 340.728 411.987 341.731L411.104 341.686C411.417 339.697 413.589 337.856 415.048 336.418Z" fill="white"/>
<path d="M195.55 410.195L196.545 410.698C198.307 413.297 195.882 413.633 196.09 417.055L194.915 416.997C193.376 414.539 193.905 412.284 195.55 410.195Z" fill="black"/>
<path d="M442.218 272.461C443.193 272.61 443.123 272.617 443.902 273.262C444.86 275.729 444.29 277.624 443.811 280.265L443.167 280.267C441.704 277.946 442.118 275.237 442.218 272.461Z" fill="white"/>
<path d="M345.566 276.7C348.906 277.976 349.428 281.385 350.377 284.602C347.417 282.44 345.95 280.462 345.566 276.7Z" fill="white"/>
<path d="M167.311 280.587C171.483 280.165 172.403 280.345 175.598 282.965C171.895 283.208 169.853 283.606 167.311 280.587Z" fill="white"/>
<path d="M181.714 268.904C184.362 270.623 182.918 274.982 182.069 277.422C180.26 274.667 180.773 271.857 181.714 268.904Z" fill="white"/>
<path d="M208.251 171.691L209.015 172.223C209.223 175.368 208.61 176.883 207.082 179.572L206.857 179.745C205.813 176.492 206.331 174.316 208.251 171.691Z" fill="white"/>
<path d="M466.105 266.988C467.572 266.892 467.925 266.776 469.322 267.333L469.475 267.955C468.321 269.189 467.642 269.222 466.04 269.684C464.695 269.757 463.915 269.924 462.662 269.401C463.284 268.366 464.917 267.678 466.105 266.988Z" fill="white"/>
<path d="M252.942 211.812C256.576 211.534 258.439 213.331 260.681 215.952C257.341 215.881 254.988 214.494 252.942 211.812Z" fill="white"/>
<path d="M389.175 392.302C391.395 389.634 392.745 388.137 395.231 385.744L397.368 387.098C396.489 387.954 390.394 391.57 389.175 392.302Z" fill="white"/>
<path d="M416.55 212.598L417.107 213.242C417.568 215.981 418.108 219.923 417.129 222.536L416.254 221.947C415.566 218.636 416.084 215.9 416.55 212.598Z" fill="white"/>
<path d="M379.989 432.863C380.333 433.056 384.883 433.325 386.084 433.558L386.389 434.038C384.826 435.038 385.549 434.832 383.459 434.518C381.874 434.568 378.91 434.832 377.547 434.33L377.564 433.886C378.379 433.514 379.162 433.2 379.989 432.863Z" fill="black"/>
<path d="M436.832 202.266C437.02 202.396 437.464 202.923 437.642 203.12L437.533 204.294C436.462 206.116 435.326 206.821 433.698 208.13C433.263 208.074 433.519 208.16 433.054 207.615C433.628 205.111 434.869 203.744 436.832 202.266Z" fill="white"/>
<path d="M248.962 190.602C252.357 191.054 254.079 193.312 255.333 196.395C252.745 196.005 250.204 192.818 248.962 190.602Z" fill="white"/>
<path d="M155.688 263.042C158.151 262.992 161.821 263.882 162.806 266.434C160.496 266.325 156.404 265.613 155.688 263.042Z" fill="white"/>
<path d="M264.863 186.924C265.359 187.144 265.031 186.968 265.738 187.627C265.985 190.065 264.743 191.661 263.504 193.703C263.106 193.754 263.376 193.751 262.725 193.478C262.513 190.926 263.516 188.986 264.863 186.924Z" fill="white"/>
<path d="M420.572 226.513C421.378 227.411 421.095 227.112 421.452 228.453C421.108 230.481 419.98 231.768 418.813 233.496L418.622 233.55L418.134 233.177C418.095 230.878 419.432 228.421 420.572 226.513Z" fill="white"/>
<path d="M168.399 253.736L169.266 254.276C170.319 257.047 169.98 258.336 169.442 261.3C167.636 259.518 167.512 256.068 168.399 253.736Z" fill="white"/>
<path d="M213.634 401.902C215.319 402.512 215.058 402.131 215.986 403.369C215.271 404.961 215.026 404.753 213.432 405.957C213.102 405.705 212.425 404.646 212.141 404.237C212.438 402.524 212.11 403.35 213.634 401.902Z" fill="black"/>
<path d="M456.706 256.673C458.056 259.039 457.677 262.653 456.171 264.879C455.235 261.351 455.444 260.072 456.706 256.673Z" fill="white"/>
<path d="M392.201 505.196C392.793 505.165 392.823 505.241 393.415 505.393L393.293 506.299C392.24 507.945 392.14 507.95 390.311 508.743L389.584 508.461L389.445 507.649C390.359 506.263 390.847 506.075 392.201 505.196Z" fill="black"/>
<path d="M372.009 434.931C373.503 434.967 375.723 434.841 376.663 435.828L375.819 436.209C374.082 436.339 373.198 436.352 371.461 436.245L371.117 435.689L372.009 434.931Z" fill="black"/>
<path d="M416.894 383.392C418.779 383.4 418.026 383.064 419.318 384.231L419.153 385.161L417.978 385.962L416.924 385.338L416.506 384.593L415.823 384.504C416.759 384.164 416.349 384.453 416.894 383.392Z" fill="black"/>
<path d="M207.038 382.35C208.83 382.723 210.148 382.16 211.793 382.955L211.316 383.903C209.708 383.907 207.852 384.127 206.541 383.322L207.038 382.35Z" fill="black"/>
<path d="M218.585 403.495C219.296 404.632 219.776 405.447 219.47 406.74L218.368 406.375L217.411 406.398C217.622 404.944 217.867 404.823 218.585 403.495Z" fill="black"/>
<path d="M306.799 359.796C308.218 361.133 307.67 361.73 307.365 363.508C306.176 362.237 306.481 361.343 306.799 359.796Z" fill="black"/>
<path d="M267.769 318.608L268.245 317.365L268.649 317.465C268.754 318.022 268.921 318.778 268.985 319.324L267.769 318.608Z" fill="white"/>
<path d="M334.008 171.496C333.56 170.431 330.303 166.747 329.859 165.399C328.915 162.518 327.495 157.901 328.54 154.987C329.167 151.337 336.977 154.147 337.129 153.93C338.501 151.95 343.02 143.865 346.555 146.536C349.472 148.737 348.753 153.043 349.171 156.153C349.398 157.824 352.985 157.227 353.986 158.301C355.536 159.675 355.488 161.366 355.627 163.348C356.341 165.152 356.385 167.196 354.987 168.718C353.568 168.488 354.226 168.753 353.02 167.718C349.458 170.85 347.617 171.837 343.007 173.219C342.954 175.601 342.872 177.637 342.693 180.024C344.13 181.362 350.886 181.555 350.39 185.236C349.38 192.714 341.396 194.887 336.211 195.616C336.241 197.611 336.124 200.298 336.664 202.133C338.719 201.868 342.423 201.162 344.065 202.808C348.24 206.99 343.873 211.557 340.46 214.164C337.029 216.781 334.805 217.66 330.686 218.302C331.352 221.107 331.862 223.444 332.345 226.283C334.753 225.427 336.45 225.005 338.867 226.03C342.249 227.465 341.265 232.006 339.942 234.479C337.343 239.341 332.097 242.177 327.112 243.584C326.046 243.883 324.975 244.161 323.899 244.418C323.503 246.042 322.78 248.022 323.094 249.498L323.703 249.284C334.526 245.578 330.765 255.183 331.879 257.981C333.847 259.111 334.901 259.031 336.063 260.759C336.816 263.952 335.575 266.454 333.677 268.904C333.394 271.394 333.786 270.721 332.497 272.58C331.022 273.482 330.059 273.268 328.431 272.827C328.127 272.744 327.826 272.657 327.53 272.565C323.725 273.474 322.611 273.734 318.666 273.901C318.262 277.407 317.892 281.07 317.347 284.541C320.181 282.914 321.353 281.919 324.561 282.753C325.436 283.547 326.22 284.232 327.038 285.092C327.06 285.999 326.855 289.841 327.147 290.231C327.944 291.284 330.652 290.942 331.379 292.643C335.636 302.604 321.601 306.575 315.071 307.405C314.962 308.606 314.57 313.58 314.235 314.472L313.59 314.453C313.429 315.686 313.555 315.63 313.077 316.708C313.66 318.053 310.926 307.861 311.148 309.049L310.421 308.763C310.116 304.99 292.008 299.439 297.251 289.217C299.303 285.215 301.453 288.358 304.474 287.181C306.512 284.746 303.769 281.468 308.523 279.361C310.06 279.268 310.495 279.656 311.862 280.384L312.337 280.644L313.033 280.178C313.586 278.731 313.677 277.579 313.577 276.027C313.377 272.837 313.978 273.391 312.093 271.488C307.095 271.534 302.136 263.491 300.591 259.163C300.334 256.718 300.308 256.391 301.035 254.062L302.528 252.605C304.2 252.287 306.755 252.898 306.925 252.853C309.925 252.063 307.435 244.05 312.885 244.282C315.998 244.416 315.771 246.57 317.896 247.088L318.584 246.347C318.671 244.486 318.823 244.07 319.324 242.244C316.05 240.209 315.697 240.013 312.35 236.302C308.719 232.273 305.475 219.854 314.269 220.049C316.233 220.093 318.34 222.873 319.489 224.722C321.043 221.13 321.649 220.275 324.034 217.391C307.992 206.363 313.059 187.988 324.265 200.119C325.406 198.12 326.786 196.15 328.066 194.234L325.723 192.049L324.935 192.129C322.458 191.039 321.927 191.983 320.713 189.141C320.9 186.801 320.543 187.148 321.675 185.488C320.552 182.264 319.807 176.044 324.039 174.784C327.012 173.898 328.901 176.666 331.022 177.712C331.984 174.825 332.476 174.076 334.008 171.496Z" fill="black"/>
<path d="M321.675 185.488C322.833 188.445 323.647 189.666 325.723 192.049L324.935 192.129C322.458 191.039 321.927 191.983 320.713 189.141C320.9 186.801 320.543 187.148 321.675 185.488Z" fill="white"/>
<path d="M333.677 268.904C333.394 271.394 333.786 270.721 332.497 272.58C331.022 273.482 330.059 273.268 328.431 272.827C328.127 272.744 327.826 272.657 327.53 272.565C329.694 271.44 331.614 270.201 333.677 268.904Z" fill="white"/>
<path d="M353.02 167.718C354.121 166.488 354.852 164.84 355.627 163.348C356.341 165.152 356.385 167.196 354.987 168.718C353.568 168.488 354.226 168.753 353.02 167.718Z" fill="white"/>
<path d="M326.455 221.486C330.373 224.441 325.619 233.014 323.804 236.18C321.339 232.77 323.769 224.466 326.455 221.486Z" fill="white"/>
<path d="M325.658 252.908L327.356 253.186C329.28 256.267 323.325 261.511 321.235 263.502L319.824 264.411L319.524 263.426C320.447 259.083 322.685 255.975 325.658 252.908Z" fill="white"/>
<path d="M335.127 229.764C336.207 229.625 335.802 229.645 336.925 229.986C337.917 233.24 331.788 237.061 329.476 238.423L328.044 238.687L327.817 237.803C329.267 233.634 331.566 231.682 335.127 229.764Z" fill="white"/>
<path d="M330.852 197.796C334.387 200.274 330.329 206.714 328.858 209.885L328.118 209.809C327.696 208.709 327.604 208.274 327.574 207.051C327.456 203.644 328.632 200.325 330.852 197.796Z" fill="white"/>
<path d="M343.398 151.941C344.208 152.105 343.999 152.067 344.748 152.462C345.684 155.872 343.22 160.395 341.614 163.354L340.525 163.403C338.666 160.789 341.901 154.291 343.398 151.941Z" fill="white"/>
<path d="M317.051 297.836C316.006 294.31 318.24 286.795 322.297 288.202L322.58 289.293C321.823 292.71 320.386 294.092 318.244 296.78L317.051 297.836Z" fill="white"/>
<path d="M305.245 260.423C304.753 259.022 304.383 258.418 304.696 256.971L305.319 256.668C308.523 257.882 311.57 263.856 312.559 267.153C308.44 265.098 307.918 264.157 305.245 260.423Z" fill="white"/>
<path d="M300.134 290.978C305.21 291.355 306.76 297.172 307.805 301.493C303.63 298.73 300.848 296.194 300.134 290.978Z" fill="white"/>
<path d="M334.274 181.34C335.018 177.774 335.345 175.889 338.745 174.423C339.258 177.818 338.1 183.552 335.04 185.204L334.382 184.871C334.086 183.257 334.156 182.925 334.274 181.34Z" fill="white"/>
<path d="M329.293 262.041C330.56 261.956 331.017 261.763 332.097 262.401C333.277 265.215 326.868 268.012 324.796 268.816C323.952 269.123 324.165 269.026 323.225 269.044L323.168 268.333C324.509 266.016 326.982 263.339 329.293 262.041Z" fill="white"/>
<path d="M313.077 224.262C317.905 226.46 317.622 231.12 318.188 235.943C314.731 232.83 311.879 229.274 313.077 224.262Z" fill="white"/>
<path d="M340.308 205.458L340.734 205.691C342.75 209.508 334.818 212.781 332.219 213.524L331.827 213.52L331.979 212.677C334.77 209.036 336.32 207.579 340.308 205.458Z" fill="white"/>
<path d="M308.71 286.643C309.324 284.951 309.01 284.919 310.199 284.216C311.575 285.243 311.274 285.293 312.115 287.116C312.837 290.911 312.297 292.881 311.566 296.595C310.116 293.134 308.802 290.461 308.71 286.643Z" fill="white"/>
<path d="M308.71 286.643C309.324 284.951 309.01 284.919 310.199 284.216C311.575 285.243 311.274 285.293 312.115 287.116C309.302 287.864 311.131 287.182 308.71 286.643Z" fill="white"/>
<path d="M320.747 299.347C322.589 297.488 323.925 295.732 326.568 295.48L327.325 295.943C327.465 299.912 321.605 301.977 318.492 302.21L320.747 299.347Z" fill="white"/>
<path d="M317.7 200.625C318.44 200.826 318.867 201.03 319.581 201.322C322.258 204.279 322.537 207.256 323.447 211.196C319.585 209.652 318.296 204.362 317.7 200.625Z" fill="white"/>
<path d="M324.77 179.175C328.936 179.812 329.389 185.651 329.689 189.129C326.189 187.58 325.062 182.68 324.77 179.175Z" fill="white"/>
<path d="M343.398 184.748C345.053 185.214 344.504 184.728 345.301 185.986C344.792 188.512 341.222 190.106 339.071 190.821L337.791 190.753L337.556 190.109C338.875 188.181 341.531 186.273 343.398 184.748Z" fill="white"/>
<path d="M349.532 161.432L350.852 161.809L351.152 162.679C350.242 164.919 347.369 166.529 345.371 167.845C344.617 167.645 344.922 167.865 344.487 167.135C345.614 164.863 347.404 162.748 349.532 161.432Z" fill="white"/>
<path d="M312.972 256.478C312.206 253.965 311.592 251.803 313.316 249.596L314.152 249.69C315.358 251.119 315.332 251.767 315.758 253.694C315.075 254.374 313.547 255.808 312.972 256.478Z" fill="white"/>
<path d="M332.175 157.212C335.719 158.489 335.571 162.103 335.745 165.397C335.318 165.372 335.027 165.168 334.596 164.97C332.793 162.359 332.602 160.322 332.175 157.212Z" fill="white"/>
<path d="M315.758 253.694C315.88 257.039 315.845 259.008 315.615 262.346C314.692 260.45 313.634 258.47 312.972 256.478C313.547 255.808 315.075 254.374 315.758 253.694Z" fill="white"/>
<path d="M378.056 203.312C379.615 200.816 381.004 198.234 384.121 197.827C389.637 197.107 388.966 202.877 388.261 206.261C400.259 211.823 389.436 219.308 381.526 220.771C381.261 222.685 380.938 224.666 380.808 226.589C382.924 227.207 386.193 227.966 386.82 230.379C388.479 236.808 377.369 239.6 373.59 240.32C373.555 242.956 373.45 244.114 373.093 246.701C375.819 246.865 380.699 246.58 379.889 251.325C379.441 253.934 376.977 256.572 375.009 258.056C372.197 260.235 365.771 259.008 364.217 261.146C363.707 263.23 363.242 264.978 362.619 267.033C362.249 264.577 361.953 262.58 359.506 261.453L360.425 258.427C355.192 254.301 353.803 251.441 352.523 244.885C352.145 242.53 351.64 240.875 352.092 238.546C353.525 237.593 356.076 237.943 357.604 237.844C360.142 237.68 361.069 239.652 362.976 241.824C364.265 239.791 365.749 239.372 366.668 237.734C363.781 233.423 360.355 228.645 360.782 223.07C360.973 220.573 365.262 219.237 367.168 220.213C368.078 220.678 369.532 222.18 370.303 222.944C371.578 220.517 372.066 219.708 373.642 217.491C372.436 215.596 371.705 214.446 370.917 212.281C368.81 206.474 370.39 196.555 378.056 203.312Z" fill="black"/>
<path d="M352.523 244.885C352.145 242.53 351.64 240.875 352.092 238.546C353.525 237.593 356.076 237.943 357.604 237.844C360.142 237.68 361.069 239.652 362.976 241.824L362.658 242.55C360.516 241.658 359.245 238.877 355.928 239.349C353.076 239.756 352.689 242.584 352.523 244.885Z" fill="white"/>
<path d="M360.425 258.427C360.734 259.934 360.495 260.228 361.396 260.866L361.6 260.626L361.082 260.642L361.034 260.59L362.127 259.793C362.854 261.137 362.632 260.372 362.266 262.315L363.302 262.176L362.854 261.799L363.546 261.89C363.773 261.642 363.995 261.394 364.217 261.146C363.707 263.23 363.242 264.978 362.619 267.033C362.249 264.577 361.953 262.58 359.506 261.453L360.425 258.427Z" fill="black"/>
<path d="M375.575 221.953C376.441 222.01 376.18 221.994 377.016 222.347C377.891 225 375.1 228.905 373.59 230.89C372.976 231.189 373.324 231.13 372.528 230.905C371.879 227.909 373.781 224.201 375.575 221.953Z" fill="white"/>
<path d="M368.387 242.11C371.143 244.273 366.877 249.841 365.357 251.974L365 252.066L364.574 251.616C364.683 248.014 365.98 244.733 368.387 242.11Z" fill="white"/>
<path d="M383.981 201.845C384.682 202.566 384.443 202.242 384.756 203.306C384.334 206.772 383.059 208.633 381.274 211.496C379.471 208.795 382.049 203.929 383.981 201.845Z" fill="white"/>
<path d="M357.042 243.019C359.746 244.215 360.521 249.127 359.902 251.822C357.447 249.864 356.18 246.107 357.042 243.019Z" fill="white"/>
<path d="M373.76 251.161L375.201 251.375L375.449 252.163C374.304 254.114 371.962 255.175 369.942 255.886C369.254 255.881 369.14 255.807 368.461 255.653C368.94 253.819 372.114 252.163 373.76 251.161Z" fill="white"/>
<path d="M364.896 224.013L365.919 224.341C367.935 226.162 368 229.914 368.322 232.666C365.71 231.07 365.022 226.861 364.896 224.013Z" fill="white"/>
<path d="M381.474 231.068L382.497 231.38L382.823 232.03C381.831 233.726 378.326 234.71 376.467 235.306L375.414 235.019C376.219 233.5 379.876 231.819 381.474 231.068Z" fill="white"/>
<path d="M387.96 211.17C389.071 211.628 388.627 211.295 389.249 212.277C388.674 214.319 386.119 215.244 384.378 215.999L383.433 215.885L383.272 215.425C384.434 213.631 386.245 212.482 387.96 211.17Z" fill="white"/>
<path d="M373.733 205.799C376.498 206.937 376.18 210.341 376.28 212.972L375.44 212.566C373.903 210.379 373.934 208.505 373.733 205.799Z" fill="white"/>
<path d="M471.081 253.774L471.834 252.749L472.557 252.689C473.341 254.337 473.824 256.567 473.711 258.374L473.184 256.751C472.674 257.157 472.296 257.428 471.839 257.895C471.786 256.073 471.577 255.562 471.081 253.774Z" fill="white"/>
<path d="M201.076 452.533C201.645 452.999 201.651 453.21 202.059 453.91C202.176 455.367 201.801 455.744 201.078 457.009L200.305 456.973C200.285 454.896 200.467 454.564 201.076 452.533Z" fill="white"/>
<path d="M434.525 405.464C435.27 406.315 435.1 405.832 435.122 406.874L433.511 408.335C432.949 407.449 433.123 407.915 432.949 406.954L434.525 405.464Z" fill="white"/>
<path d="M413.489 486.132L414.242 485.961L414.399 486.491L413.585 487.549L413.18 487.37L413.489 486.132Z" fill="white"/>
</svg>
