<?xml version="1.0" encoding="utf-8" ?><svg xmlns="http://www.w3.org/2000/svg" xmlns:xlink="http://www.w3.org/1999/xlink" width="1792" height="1024" viewBox="0 0 1792 1024"><path fill="white" transform="scale(1.33333 1.33333)" d="M0 0L1344 0L1344 768L0 768L0 0Z"/><path fill="#618F7B" transform="scale(1.33333 1.33333)" d="M710.972 186.348C713.814 189.934 717.017 192.559 720.803 195.101C725.293 198.116 724.908 199.023 726.17 203.908L726.899 203.894L727.579 201.995C729.74 202.209 741.591 212.498 743.183 214.768L742.365 216.383C746.186 216.895 745.85 216.471 748.134 218.839C748.605 220.467 748.548 220.564 748.28 222.276L748.639 223.024L750.155 221.926C752.035 222.388 761.59 233.413 762.112 235.592C760.953 237.136 761.151 236.677 758.878 237.385C760.169 238.958 759.518 238.62 761.293 238.997L763.045 237.993C766.925 239.189 776.792 255.403 779.113 259.717C779.654 260.73 780.158 261.763 780.622 262.814L783.365 264.076L783.717 265.121L782.43 267.106L783.02 268.257C790.566 269.775 786.472 275.884 789.314 280.874L791.301 280.016C792.446 281.082 793.357 283.938 793.988 285.528L792.868 287.511C795.182 289.771 794.922 286.98 795.983 289.8L795.553 291.053C794.518 291.157 793.481 291.243 792.442 291.311L792.618 291.792C795.217 292.602 794.741 292.008 795.777 293.821L795.631 297.081C796.976 296.909 797.38 296.814 798.695 296.452L799.787 297.46C799.932 301.425 797.616 299.541 799.316 301.276C801.982 301.953 801.195 301.366 802.571 303.275C802.364 304.977 802.661 304.336 801.286 305.61C808.627 311.738 805.077 315.837 810.433 322.435C809.147 324.769 808.951 322.957 808.138 324.754C810.009 326.638 812.979 329.282 813.961 331.591C813.406 332.373 813.197 332.646 812.538 333.341C813.386 337.137 816.339 338.375 816.26 340.947L814.484 340.949L814.119 341.848C815.644 343.758 820.317 347.534 822.656 348.246C835.027 347.148 907.155 326.052 906.077 325.858L907.313 327.355L908.27 326.944L908.697 324.567C911.411 322.873 916.874 322.9 919.989 322.266C920.552 322.152 921.263 319.742 923.311 319.443L924.607 320.631C927.861 318.707 930.231 317.425 933.55 316.056C937.639 314.369 958.424 307.851 960.469 305.774C955.116 301.862 925.759 292.139 924.691 290.772C924.773 289.081 925.166 288.697 926.052 287.179C925.561 285.567 925.918 285.846 924.802 285.104L924.317 285.489C918.785 289.813 916.417 285.133 911.837 282.343L910.53 283.596C910.096 283.452 891.509 271.625 890.846 270.828C885.59 264.515 882.389 263.58 875.313 258.975C875.162 257.91 875.201 257.98 875.666 256.997C868.898 254.443 869.052 255.209 865.536 248.582C865.159 247.873 861.582 249.683 860.207 246.141C859.164 243.732 859.616 243.717 860.919 242.385C858.632 242.947 858.665 243.299 856.537 242.715C852.7 238.475 857.91 234.479 850.745 236.456C849.959 234.572 851.781 234.176 850.788 233.239C846.123 228.84 842.167 231.906 843.618 223.809C842.739 223.637 839.092 223.402 838.755 222.922C834.304 216.597 818.24 200.463 819.262 192.642C817.585 192.639 817.157 192.613 815.511 192.31C813.88 190.372 813.055 187.708 811.683 185.509C808.242 179.995 789.606 150.094 805.558 149.781L808.899 151.568C810.888 150.087 809.268 148.87 811.265 149.272C812.89 149.599 815.78 151.824 817.207 152.646C817.82 152.999 818.388 151.213 819.563 152.94L819.295 153.313C818.423 154.544 818.201 154.727 817.824 156.137C819.621 157.074 818.938 157.049 820.636 156.704L820.79 153.635L821.72 152.968C828.627 155.781 835.408 158.428 842.085 161.758C844.708 163.066 849.357 164.332 851.982 165.796C853.632 166.717 856.917 170.626 858.227 171.915C858.66 172.342 863.023 170.316 863.619 173.063C863.598 172.965 864.633 175.741 864.664 175.828L865.767 173.607C867.22 173.541 876.806 179.483 878.877 180.687C879.337 181.996 879.561 182.789 879.867 184.142L880.607 184.229C884.215 184.67 886.396 185.242 888.946 187.915C889.59 189.782 889.734 190.381 890.011 192.336L890.414 192.6L892.537 190.764C894.299 191.38 900.862 197.268 901.819 199.006C901.656 200.06 901.369 200.848 901.68 201.756L903.776 200.557C906.351 201.913 919.345 217.104 921.072 219.92C920.97 221.939 920.872 222.777 921.252 224.792L922.191 225.226C922.933 224.852 923.742 224.217 924.412 224.662C929.759 228.212 933.427 231.119 932.251 237.399L932.93 238.845C934.222 238.453 934.451 238.219 935.518 237.464C938.379 238.844 941.093 247.895 943.039 250.421C948.667 257.729 952.802 265.421 958.101 273.138C958.091 274.677 958.024 274.734 957.296 276.131C959.547 277.771 958.801 275.183 961.254 277.373C960.495 280.651 958.538 278.422 959.241 281.093C960.718 281.952 962.21 282.786 963.716 283.594C964.055 286.56 962.257 284.928 962.887 287.463L963.598 287.44C964.479 287.415 964.898 287.46 965.786 287.574C966.749 290.253 964.989 290.597 965.36 291.096C966.785 293.013 973.313 297.657 975.11 299.18C975.975 299.913 984.167 296.72 985.806 296.621C986.503 296.579 987.99 294.296 988.482 293.555C992.164 293.743 990.75 295.584 992.61 296.989C994.975 294.435 992.892 290.503 998.889 289.904C1001.4 289.653 1003.68 291.54 1005.39 290.734L1005.05 290.066L1002.17 289.172L1002.34 288.374L1009.62 284.398C1010.5 285 1010.71 285.166 1011.48 285.901C1014.08 284.099 1023.26 277.576 1026.11 277.215L1027.77 278.95C1029.54 277.087 1027.42 275.968 1030.46 274.526C1052.04 264.314 1073.54 253.067 1093.12 239.318C1096.63 236.853 1102.04 233.007 1106.18 232.686C1107.38 233.162 1107.36 233.279 1108.18 234.232C1110.38 232.345 1111.14 231.52 1113.92 230.627C1116.12 230.89 1115.37 230.511 1116.85 231.935C1116.25 233.032 1116.13 232.925 1116.09 234.055C1118.25 235.195 1120.48 236.077 1121.85 238.057C1120.75 241.051 1118.01 240.108 1118.76 243.986C1119.49 247.798 1114.22 251.071 1111.09 251.818C1110.48 251.962 1108.97 250.697 1108.34 250.267L1107.81 250.973L1108.38 253.288C1106.37 255.238 1099.39 260.541 1096.92 261.715C1095.52 260.821 1095.4 260.734 1094.22 259.575C1091.39 263.214 1094.44 262.096 1091.47 265.492C1090.13 265.168 1090.78 265.454 1089.66 264.233C1086.69 266.204 1087.41 268.828 1084.26 270.237L1082.42 268.543C1080.03 269.544 1078.35 273.576 1076.97 274.477C1074.47 276.101 1066.01 280.508 1063.46 281.08C1064.03 279.788 1064.19 279.999 1065.54 279.031L1065.21 278.471C1063.04 278.956 1060.76 279.215 1059.2 280.739C1059.09 282.123 1058.98 282.962 1058.74 284.329L1057.47 285.262C1055.98 285.001 1055.72 284.548 1054.56 283.453C1052.86 284.694 1052.94 286.446 1052.53 286.654C1049.12 288.398 1033.91 297.621 1031.54 298.188C1028.76 297.318 1031.3 296.167 1028.68 296.626C1028.35 297.787 1028.25 298.232 1028.06 299.428C1015.6 306.377 996.747 312.997 983.272 318.092C979.658 319.458 979.869 329.228 975.341 334.744C976.139 338.302 978.023 344.918 977.904 348.196L975.74 350.848L978.108 352.445C977.641 356.861 976.074 352.847 978.365 359.675C978.415 359.826 978.457 368.37 978.5 369.584C977.584 371.082 977.355 371.159 975.915 372.235L976.089 373.554C977.55 373.868 977.538 373.828 979.048 373.675C979.731 376.483 977.575 380.508 977.657 381.625C977.881 384.67 979.628 383.855 978.712 388.606C975.904 391.669 975.396 387.769 975.16 391.499C976.634 392.203 977.326 391.809 979.03 391.396C978.985 394.491 977.834 395.715 975.917 398.188C976.516 399.214 977.071 399.416 978.084 400.025C978.208 402.671 975.589 420.351 974.099 422.057L971.363 422.438L971.203 423.118L973.928 423.843C976.294 428.518 969.011 437.409 969.379 439.046C971.09 446.668 968.17 444.837 967.587 446.93C963.104 463.003 954.966 476.165 947.076 490.73C944.234 495.976 944.196 496.461 938.167 497.71C938.919 499.395 939.519 500.302 939.403 502.136C937.668 505.073 928.9 518.628 925.395 520.257C924.997 520.441 923.2 520.03 922.59 519.899L921.876 520.84C922.59 521.924 923.271 522.194 924.379 522.855C923.806 527.505 909.219 537.845 905.593 541.311L906.026 543.381C904.918 544.66 905.602 544.204 903.801 544.613C903.326 543.523 902.918 542.629 902.375 541.571L901.718 541.899C901.347 543.924 901.613 544.679 900.303 545.687C896.815 544.223 896.334 542.45 894.024 545.358C891.709 544.556 887.825 534.889 887.583 532.557L891.54 530.589L891.44 529.956L888.919 529.334C885.17 522.641 891.247 497.17 892.494 489.031C892.947 486.074 891.093 483.77 892.648 481.084C893.86 480.18 894.126 479.882 895.538 479.422C895.069 477.8 894.906 477.646 893.95 476.221C894.238 473.201 894.893 466.365 897.119 465.064C897.233 464.997 897.851 463.883 897.922 463.757L896.678 461.47C898.698 455.799 900.543 459.928 898.757 454.258C898.602 453.764 902.551 443.967 902.966 441.558C904.447 440.189 903.731 440.593 905.753 440.085C905.241 438.85 905.05 438.784 904.129 437.851C905.285 433.367 906.301 427.196 910.511 425.12C911.671 421.249 910.714 419.404 912.556 416.559C914.039 416.045 914.239 416.008 915.799 415.785L916.582 414.447C914.982 410.932 913.989 412.458 914.848 409.913C916.21 409.072 916.943 408.688 918.405 408.035C917.779 403.672 915.907 405.645 918.942 400.663C921.398 396.631 924.731 394.909 924.263 390.182L925.162 389.292C927.627 389.811 928.851 390.431 931.135 391.451C929.723 388.937 927.123 388.717 927.779 384.314L928.716 382.988C929.912 382.803 930.461 382.681 931.701 382.742C935.646 373.924 942.045 367.176 946.223 358.457C947.187 356.445 949.495 358.16 951.06 355.812L949.92 353.832C950.851 352.061 954.826 345.127 956.289 344.321L957.942 344.897L957.985 344.304L956.897 343.27C957.7 341.273 959.578 338.354 961.529 337.308L963.03 338.174C963.743 336.718 965.601 327.778 966.669 324.589C960.688 327.939 955.885 329.145 949.526 331.609C948.446 331.14 947.909 330.947 946.696 330.908C945.074 331.95 941.034 335.313 940.326 335.606C934.289 338.1 925.87 337.252 921.49 342.087C919.232 342.601 918.355 342.141 916.206 341.434C914.928 341.792 915.691 341.431 914.944 342.156C907.154 349.719 884.145 349.859 876.87 355.694C876.139 355.602 871.407 354.971 871.041 355.197C867.724 357.242 862.167 360.265 858.196 359.639C857.644 359.552 857.068 358.647 855.345 358.787C854.665 359.485 853.832 360.339 852.847 361.35C846.225 362.928 839.104 364.068 832.292 364.232C832.292 364.232 831.483 365.663 831.483 365.663C829.07 366.628 824.416 367.222 822.003 367.605C820.891 370.811 819.682 374.072 818.885 377.363C816.797 378.955 816.591 378.529 816.223 380.641C816.996 382.128 817.548 383.238 818.501 384.639C817.865 385.41 817.248 386.195 816.65 386.995C817.496 389.056 817.88 389.981 818.387 392.222C817.586 394.13 816.905 394.868 815.672 396.489C817.132 399.115 817.416 398.618 817.001 401.013C815.389 402.08 815.061 402.134 813.193 402.742L812.676 403.947C814.113 404.111 814.881 404.101 816.332 404.078C817.73 406.304 815.765 407.93 814.248 409.588C814.406 414.266 815.523 419.29 812.717 422.294C812.498 422.528 812.275 422.758 812.049 422.985C811.984 425.822 813.564 426.699 812.769 428.882C811.349 428.971 811.838 428.987 810.399 427.99L810.004 428.469C811.814 430.376 812.188 430.085 812.073 432.264C811.83 440.495 807.479 447.466 804.808 454.89C803.243 459.243 803.497 465.617 801.621 470.317C800.047 474.257 794.713 478.083 796.515 481.571C794.121 485.832 791.31 481.08 794.368 488.448C793.401 490.306 792.922 490.617 791.409 492.042C790.822 494.21 789.882 499.66 788.847 500.749L786.608 500.869C786.165 502.252 786.451 503.278 786.644 504.728C785.793 507.313 783.994 507.781 781.874 509.782L782.706 511.338C779.213 516.8 775.95 522.299 772.661 527.849C772.05 528.88 767.664 529.377 766.497 529.463C766.703 530.799 767.295 531.271 768.173 532.305C767.558 535.837 751.705 554.891 748.495 558.882C747.474 559.024 746.521 559.078 745.589 559.5C741.336 566.373 740.441 569.805 732.006 570.236C732.156 571.323 732.797 571.803 733.558 572.631C732.919 574.412 727.998 577.102 726.148 577.837L724.742 577.21C723.577 579.259 723.383 580.404 721.585 581.45C719.981 580.538 719.64 579.782 718.577 578.251C715.323 577.622 715.05 580.191 711.397 579.658C711.994 573.906 709.962 577.046 710.438 573.411C710.743 571.081 714.138 570.03 713.137 568.096C711.614 567.24 710.674 567.022 710.306 564.962C709.213 558.852 713.731 535.284 715.724 530.465L718.186 529.771L718.347 528.898C716.964 527.41 716.456 526.735 716.775 524.509C717.734 517.821 726.306 488.219 729.28 484.632C729.959 485.047 730.596 485.334 731.362 485.55L732.638 483.406L732.393 482.717C729.54 474.551 734.002 471.434 738.348 465.208C739.206 463.98 737.861 462.193 739.343 459.85L741.369 459.616C741.147 456.175 739.321 458.802 742.511 453.366C745.545 448.198 748.433 442.27 751.13 436.899C752.691 436 752.772 435.984 754.565 435.679C754.693 434.267 754.624 434.099 754.428 432.742C758.904 424.913 764.139 417.542 770.057 410.737C771.243 409.375 776.081 404.869 776.503 404.026C778.947 399.136 782.839 394.605 787.318 391.326L789.593 391.895C790.332 390.194 789.22 389.509 789.406 388.999C790.407 386.25 797.339 381.758 799.431 380.381C800.052 378.581 800.239 377.676 801.895 376.632L802.308 376.605C803.526 376.516 803.913 376.576 804.988 375.955L804.498 373.548C805.36 372.25 806.292 371.706 807.55 370.769C803.695 371.818 800.861 371.928 796.643 372.43C786.473 373.641 774.901 379.029 764.808 376.602C764.807 376.602 760.201 379.188 759.602 379.23C750.723 380.612 741.386 379.633 732.741 382.181C729.795 383.049 726.58 384.005 723.638 383.218C722.233 382.904 717.57 381.627 716.661 382.232L716.138 384.324C714.316 385.011 710.13 384.656 708.534 384.146C704.073 382.722 702.153 385.615 700.038 385.658C693.903 385.781 683.721 387.469 678.045 386.427C676.495 389.49 669.642 403.662 670.593 406.592L672.294 406.777C671.994 408.599 669.584 411.864 669.59 411.964C669.823 415.687 672.862 416.823 667.727 419.327C667.792 423.91 672.518 422.221 665.953 428.979L667.848 433.538C666.07 436.593 663.795 435.209 663.821 437.285L666.459 437.96L666.918 439.139C665.389 442.072 663.476 441.613 663.832 443.26C664.581 446.72 664.357 449.138 662.893 452.368L662.222 452.4L660.949 451.066L660.337 451.663C660.932 456.179 662.507 454.803 661.372 458.566L660.348 459.047L660.929 459.011L659.322 458.518C658.717 462.414 657.251 474.611 655.111 476.701C654.24 476.536 653.975 476.432 653.108 476.431L653.152 481.502L650.376 483.805C650.847 485.13 650.922 485.142 651.728 486.221C651.464 489.33 650.199 489.228 649.267 490.646C643.173 499.929 645.344 503.666 636.333 512.545C636.778 515.17 637.071 514.494 636.065 516.432C635.217 516.982 634.177 517.656 632.946 518.454C630.489 523.952 628.28 529.131 624.217 533.749C621.514 536.823 618.402 540.663 615.496 543.601C614.075 545.037 613.511 542.711 611.752 545.003C611.753 545.253 611.764 548.381 611.764 548.381C602.705 559.929 591.492 569.678 581.755 580.698C580.209 580.705 579.091 580.6 577.628 581.076C575.181 584.932 573.422 587.789 569.276 590.072C567.918 589.837 566.724 589.657 565.355 589.498L564.775 590.232L565.041 591.725C562.951 593.19 556.801 595.083 554.217 594.672C551.706 592.97 548.233 585.956 549.211 582.797C550.282 581.907 551.212 581.101 552.233 580.155C551.41 578.773 550.534 578.051 549.396 576.949C549.924 574.928 551.29 574.741 552.12 573.168C553.462 570.624 551.034 563.033 552.512 559.223C553.125 557.644 554.815 557.615 555.344 556.591C555.648 556.003 553.753 551.895 554.385 549.68C555.116 547.118 560.075 539.61 559.926 537.729C559.203 528.556 565.207 518.138 568.22 509.455C573.72 506.406 569.329 505.516 572.032 500.762C576.045 493.704 581.111 479.016 586.387 473.399L589.13 474.28C589.087 472.926 588.454 472.186 587.74 471.014C587.965 468.882 587.625 469.479 588.758 467.875C589.781 468.229 589.799 468.193 590.741 468.723C593.222 463.557 595.084 457.664 599.596 454.398C601.023 454.664 601.633 454.77 602.993 455.254C603.293 453.623 602.584 452.66 601.842 451.108C602.706 448.302 611.715 440.822 614.329 439.006C614.792 434.597 617.507 434.552 619.954 431.373C628.446 420.335 640.67 411.923 649.795 402.074L652.729 401.365C653.623 398.928 653.788 397.202 655.531 395.71C656.958 396.408 657.194 396.661 658.421 397.701C659.836 396.207 660.726 390.662 660.612 388.566C657.992 386.854 649.741 388.862 645.979 389.292L645.84 388.579C645.649 387.619 645.444 386.935 645.164 385.999L644.133 386.005C641.929 389.668 641.914 389.302 637.463 388.787L637.073 385.965C635.292 385.075 634.937 384.759 633.008 384.633L632.208 385.517L635.457 387.965L635.051 388.642C627.513 390.426 624.263 390.267 616.615 388.176C616.171 388.055 615.265 389.975 612.884 389.736C612.446 388.143 612.584 387.807 612.787 386.124L611.879 385.596C610.986 386.964 610.103 388.338 609.231 389.719C607.997 388.54 607.696 386.801 606.991 387.043C599.427 389.64 602.947 390.604 594.569 388.241C591.45 392.543 588.107 396.714 585.088 400.87L586.609 403.401C585.708 406.386 583.665 404.825 583.975 407.005L585.09 408.224C584.725 410.299 584.188 410.201 582.199 410.607C583.056 412.31 584.228 413.928 583.444 415.423C581.814 418.535 579.674 421.85 577.826 424.83C578.819 426.996 579.786 426.728 578.997 429.266C577.956 432.612 574.004 433.261 571.136 434.013L570.991 435.245C572.451 435.718 572.831 435.648 574.391 435.659L574.805 436.498C573.022 441.695 570.742 444.095 567.176 448.123C567.852 449.266 568.492 449.767 568.112 450.691C567.081 453.19 564.454 460.019 562.579 461.504L560.574 461.286C558.708 465.926 557.761 471.631 554.162 475.121L552.234 473.315L550.81 473.47L550.231 474.343C552.186 476.31 552.25 475.79 552.778 478.154C551.358 484.163 542.517 487.604 542.13 490.515L543.24 491.732C539.089 498.71 522.341 514.197 516.035 519.857C515.264 519.474 514.781 519.247 513.913 519.247C514.053 520.774 513.836 520.02 514.954 521.438C512.932 521.72 510.911 522.015 508.892 522.321C509.013 523.541 509.029 523.533 509.478 524.68C505.891 530.366 497.007 533.497 492.235 537.22C486.81 541.452 493.081 541.72 482.633 542.565L483.633 543.934C482.991 545.665 483.48 545.075 481.679 546.02C481.062 545.171 481.359 544.984 481.518 543.576C478.953 544.415 476.444 551.184 472.217 551.083L471.991 549.485C471.169 549.482 470.714 549.359 469.97 549.013C469.822 552.092 470.284 551.595 468.747 553.866L467.434 554.485L465.801 552.801C465.088 553.71 465.2 553.846 464.915 555.022C462.004 556.568 454.788 560.309 451.747 560.802L450.405 557.999C448.978 557.724 448.667 557.894 447.292 558.243C444.763 557.258 442.55 553.781 441.294 551.431C443.376 544.023 445.415 536.408 447.788 529.085C448.152 527.964 451.386 526.577 452.44 525.653C451.646 524.469 451.355 524.301 450.287 523.432L450.695 522.315C451.745 522.025 452.763 521.754 453.802 521.421L452.364 519.766C452.879 517.946 455.622 515.735 457.151 514.29C456.355 512.955 455.421 512.045 455.789 510.868C456.477 508.659 458.923 505.09 460.572 503.528L461.028 503.569C462.586 503.694 462.809 503.792 464.237 503.316C463.724 498.341 461.694 498.182 465.34 493.689C468.299 492.145 469.164 493.032 469.959 490.67C470.511 489.031 471.573 484.082 472.404 483.025C475.685 478.853 478.391 481.69 477.2 475.926C478.452 473.916 477.755 474.553 479.82 473.477L482.073 473.759C483.283 469.337 476.856 470.533 487.427 465.811C488.725 460.839 494.101 455.976 497.335 451.769C498.368 451.458 498.815 451.294 499.897 451.15C500.263 449.694 500.209 449.575 500.031 448.058C501.439 446.976 503.393 447.128 503.4 447.12C504.33 445.946 506.283 440.905 507.213 440.266C512.826 436.413 521.652 426.605 527.034 423.722L530.168 424.574C531.22 422.373 529.972 422.149 530.21 421.542C530.991 419.551 536.99 415.663 538.715 414.716C540.064 414.823 541.415 414.889 542.768 414.915L543.417 414.166L542.339 412.407C545.243 408.709 548.44 411.668 550.605 408.999C552.249 406.973 551.788 404.903 554.828 403.236L556.348 404.675C558.977 402.178 557.961 401.241 563.063 397.773C566.419 395.491 575.86 391.644 577.459 389.885C576.629 387.617 571.089 387.304 568.654 386.929L566.623 388.411C565.585 387.368 565.312 387.158 564.583 385.9C562.758 387.452 562.286 388.473 560.04 388.202C557.144 387.852 554.208 387.435 551.327 387.024L550.979 386.353C550.57 385.573 550.483 385.436 549.87 384.765C545.442 387.197 545.882 387.729 541.67 384.879C540.473 386.11 540.064 387.163 538.331 386.878C525.17 384.711 509.425 385.218 496.593 382.634C490.279 387.668 490.681 391.548 487.317 398.645C487.068 399.17 484.438 399.947 483.696 400.161L483.83 400.911L485.528 402.036C485.483 403.705 481.255 410.055 480.074 412.02C477 412.22 477.998 410.507 475.823 411.204C475.039 415.165 477.852 415.573 476.538 419.125C474.451 424.77 471.115 428.548 468.054 433.622C466.828 435.654 466.458 437.945 465.168 440.174C463.983 439.61 463.942 439.628 462.897 438.721C462.682 440.199 463.208 441.981 462.975 442.829C461.558 447.992 459.325 451.219 454.582 452.956L454.256 453.701L455.065 455.007C453.19 458.683 448.544 459.416 447.846 465.238C447.788 465.718 437.173 476.453 435.953 477.587C434.668 477.215 434.753 477.231 433.707 476.382L432.949 476.744C433.319 478.016 433.61 478.179 434.527 479.099C432.588 482.621 426.319 482.294 426.306 486.857C423.199 489.715 418.585 493.956 415.333 496.945C414.556 496.982 413.778 497.018 413.001 497.055C410.873 499.477 412.563 499.961 409.886 502.159L408.046 501.496C393.338 515.456 376.072 524.712 358.017 533.852C357.113 532.966 357.177 532.985 356.642 531.824L355.975 531.504C354.374 534.269 353.767 536.767 349.923 536.112C348.333 537.663 347.92 538.269 345.649 538.539L343.479 537.748C341.768 539.388 341.384 539.889 339.011 540.547C336.087 539.838 337.103 538.511 333.615 536.478C332.084 537.336 331.875 537.563 330.178 537.733L329.487 536.423L330.833 533.713C330.133 532.528 329.455 531.33 328.801 530.119C329.633 528.819 332.79 523.779 332.622 523.222C329.895 514.197 337.615 516.393 338.92 513.274C337.431 512.457 336.797 512.297 335.95 510.907C342.272 501.639 342.322 499.947 347.014 490.085C350.52 489.001 350.363 491.203 352.918 490.561C352.604 488.852 350.781 487.452 349.442 486.121C351.691 483.805 354.49 481.155 356.159 478.458C353.774 472.791 359.312 475.067 361.677 473.316C361.307 472.528 360.944 471.735 360.589 470.939C362.791 466.569 364.305 469.7 367.17 468.349C365.799 467.778 364.809 467.339 363.488 466.66L363.435 465.528C366.11 462.005 376.802 448.872 379.86 446.556L381.778 446.985C383.536 445.959 382.504 443.008 383.691 441.882C388.327 437.483 389.359 434.043 395.794 433.076C396.495 431.864 396.516 431.103 396.739 429.738C398.753 427.535 405.442 424.488 408.421 422.982L408.404 421.072C409.392 420.029 423.105 410.987 424.473 410.51L424.932 413.164L425.519 413.497C427.306 411.12 426.383 411.043 427.299 407.681C429.528 405.713 434.205 405.268 437.192 404.871C437.692 403.043 437.728 402.745 438.684 401.143L439.895 401.045L441.147 403.278L441.96 403.472C444.751 394.393 444.331 398.97 449.796 398.469C450.963 398.362 456.13 390.998 457.999 390.467C459.669 389.992 460.949 391.299 462.845 389.994C463.591 389.476 463.912 387.928 465.32 387.588C466.002 388.708 466.46 389.399 467.23 390.46L468.133 389.841C469.454 380.453 472.987 386.212 476.845 384.155C477.726 382.289 477.714 383.013 477.258 381.282C471.418 375.424 457.631 380.838 454.484 375.253C451.955 374.732 451.158 376.135 449.385 376.038C439.049 375.47 426.34 372.19 416.396 370.476L416.017 367.041L415.425 366.698C408.684 373.431 410.561 369.549 406.501 367.782C404.481 366.903 402.262 371.508 398.236 366.407C392.231 366.559 382.988 364.208 379.252 366.495C376.286 368.311 374.266 370.413 370.35 372.246L369.772 372.511C366.44 379.071 361.267 384.22 356.656 390.309C353.942 393.894 348.547 400.276 344.879 403.261C343.604 403.4 342.539 403.516 341.684 403.609C340.999 405.254 341.168 405.793 341.447 407.547C338.278 410.382 332.377 417.067 328.912 419.981C328.557 420.28 327.929 419.072 326.097 419.996L326.563 422.3C325.083 424.665 311.897 434.627 308.885 436.755C308.069 436.15 308.05 435.525 307.767 434.502L307.65 434.069C305.538 435.141 305.633 437.679 303.976 439.749C302.768 441.258 302.149 440.49 299.408 440.703L298.545 441.725L299.435 443.057C299.193 443.631 286.717 451.87 285.252 452.616C283.551 451.661 283.148 451.332 281.278 450.918C279.711 453.401 278.356 455.496 276.002 457.328C271.589 460.761 270.121 457.371 265.198 456.577C266.653 457.898 267.456 458.376 268.066 460.236L267.138 461.347C265.168 461.95 260.358 463.754 258.751 463.405L258.245 461.484C257.195 462.525 257.449 462.709 257.028 464.423C254.49 466.169 252.271 466.413 249.668 467.467C243.081 470.133 246.664 466.674 242.793 464.744L241.86 465.52C242.953 466.75 243.118 466.924 243.878 468.367C242.876 469.526 242.352 469.607 240.913 470.097C238.071 471.064 208.09 478.172 207.873 478.003C207.129 477.427 207.792 476.399 206.444 475.732C205.81 476.751 204.496 478.801 203.436 479.39C198.367 482.205 172.223 480.174 170.815 476.022L172.301 475.294L172.496 474.275C171.551 474.065 171.575 474.064 170.73 473.585C171.301 472.45 171.62 472.188 172.46 471.285L171.898 469.326C172.711 467.987 173.535 468.095 175.349 467.483L175.777 466.381L175.292 465.76L171.756 467.097L171.014 466.541C172.422 464.281 178.336 457.148 180.457 455.633L182.662 456.632C184.516 456.092 183.788 456.602 184.932 455.063L183.388 454.07C182.946 450.552 193.9 445.257 195.233 443.373L194.85 442.231C196.595 440.148 194.698 442.821 197.76 441.992C199.974 434.032 202.5 438.559 205.637 437.293C206.996 434.927 206.542 435.468 206.085 432.182L207.003 431.142L208.082 431.162C209.304 432.249 209.809 432.977 211.338 433.142C213.11 430.893 210.864 432.627 211.447 429.426C216.242 428.12 219.308 422.17 223.893 419.708L225.344 420.874L226.186 420.723L226.557 418.656C231.561 413.846 248.388 404.46 255.641 401.968C257.547 401.313 260.475 403.615 262.377 404.813C261.069 402.854 259.842 401.5 260.387 399.17C261.607 398.934 262.831 398.719 264.059 398.527L264.594 399.159L265.877 398.99L265.326 397.308C269.133 389.712 273.916 397.878 276.883 390.201L277.907 389.966C279.007 390.988 280.114 392.003 281.228 393.01C282.668 391.514 281.334 390.653 281.735 387.285L282.762 386.618C288.589 387.118 302.513 379.207 308.963 377.914C309.968 377.712 314.238 375.889 315.144 375.282C319.703 372.224 324.786 373.25 329.917 372.606C329.975 372.598 332.586 369.902 334.564 369.398L336.577 370.854C341.141 368.94 341.356 366.188 346.023 369.24L346.864 368.875C346.024 367.998 345.505 367.629 345.192 366.451C347.121 365.895 346.484 366.057 348.849 367.181C354.69 365.816 361.808 364.27 367.082 361.435L366.784 360.62C363.37 358.863 360.961 359.847 357.934 358.695L358.33 356.322L357.661 355.59L356.614 355.988L356.766 358.573C355.286 358.788 345.505 356.6 344.724 355.366L346.407 353.715L345.971 351.894C347.065 350.15 348.326 350.324 350.82 349.59C355.652 350.34 358.963 349.553 361.371 353.728C363.618 353.264 363.41 352.055 363.945 351.965C366.985 351.451 374.995 355.698 376.486 353.504C375.245 351.295 373.232 349.683 370.774 349.041C368.971 342.093 348.617 335.862 355.341 330.443C349.753 328.859 347.076 328.849 344.078 323.74C343.641 322.995 338.859 315.349 338.47 316.233C338.452 316.275 336.803 316.776 336.501 316.869C334.786 315.167 334.447 311.482 333.966 308.939C331.497 308.952 332.085 311.355 328.61 307.666C323.539 302.283 318.604 296.391 314.335 290.359C312.6 287.908 311.666 284.743 310.056 282.217C304.901 276.85 300.891 270.272 297.436 263.712C297.101 263.076 296.858 258.1 296.804 256.998C295.706 257.194 295.507 257.289 294.461 257.698C293.363 256.03 293.52 256.738 293.46 254.863C294.75 253.828 295.463 253.356 296.466 252.057L295.61 250.594C292.072 250.506 293.774 252.461 290.962 251.431C287.767 246.639 281.51 233.599 278.77 228.019L279.113 227.457C280.102 225.821 280.586 225.32 280.479 223.427L279.614 222.312C278.737 223.472 278.425 223.857 277.377 224.861C273.016 221.601 258.333 173.525 256.465 166.604C255.78 164.066 257.955 163.778 257.906 160.823C256.549 160.189 256.206 160.155 254.721 159.857L254.305 158.403C257.694 154.349 257.854 155.808 258.989 150.615C262.847 148.081 273.529 154.241 277.036 156.726C277.348 157.867 277.098 158.427 276.826 159.572L277.877 161.24L280.138 159.469C282.601 160.057 284.915 164.971 285.524 165.091C293.077 166.575 297.564 174.363 303.426 178.96C304.743 179.993 304.068 183.804 305.92 183.853C306.946 183.996 309.441 183.646 310.35 184.877C313.421 189.016 328.222 203.283 329.046 207.451L327.711 208.413C329.283 210.257 329.201 210.267 331.725 209.312C333.574 215.726 337.787 213.701 340.342 223.198L340.167 223.5C339.697 224.327 339.42 224.631 339.448 225.584C343.072 226.631 342.767 225.259 344.373 227.433L344.38 229.061L342.883 230.166C345.61 233.047 346.399 229.401 348.207 233.131C347.817 234.548 346.865 234.971 345.633 235.859L345.751 237.054L346.559 237.677L349.096 235.785L350.268 236.052C352.227 239.427 355.681 245.048 357.071 248.425L356.842 248.832C356.115 250.157 355.862 250.37 355.94 251.793C357.154 251.481 357.495 251.309 358.616 250.816C360.988 252.452 361.1 255.901 361.121 258.497C364.056 261.571 365.149 261.352 363.79 265.58C365.801 268.174 368.334 270.097 369.283 273.058C368.438 275.908 366.975 273.614 367.995 275.918C373.899 278.258 369.806 279.348 371.319 282.584C373.639 287.544 379.139 298.486 379.144 303.98L378.172 305.878C379.559 308.128 381.102 309.928 381.029 312.433L379.532 313.611C382.87 316.326 382.92 315.476 380.733 319.451C384.722 323.404 386.359 338.061 384.697 343.511C384.351 344.646 392.269 355.468 393.433 357.044C412.504 361.127 449.39 364.218 466.73 366.423L470.225 367.425L470.677 366.85C477.293 368.503 482.212 366.697 488.469 370.944C489.393 369.698 489.472 369.47 490.762 368.676C492.232 369.63 492.071 370.025 492.899 371.782L494.098 372.036L494.832 369.904C498.657 367.983 498.686 371.773 502.301 372.085L501.759 369.985C504.204 369.261 508.31 372.227 510.35 370.992C506.337 367.443 507.211 361.723 500.95 362.582L500.558 362.639C496.16 359.03 494.286 358.849 493.246 354.138L492.442 353.82C491.65 354.888 491.549 355.154 490.333 355.774C487.751 354.695 483.962 346.492 482.669 343.793L482.127 343.88L480.814 346.509L479.704 346.68C478.376 345.115 478.835 344.859 478.87 342.355C477.082 340.937 475.161 342.617 471.153 338.039C471.535 337.003 471.53 336.921 471.663 335.819C470.701 335.865 470.645 336.024 469.696 336.458C466.183 333.381 469.131 333.95 466.887 331.523C465.888 330.443 463.54 330.597 461.558 328.718C461.746 322.992 460.238 327.515 456.02 323.387C454.545 317.477 445.154 311.583 439.688 303.769C439.955 302.464 440.159 302.302 439.848 301.093L436.475 300.351C433.332 297.766 428.478 290.984 426.262 287.486C426.853 285.136 427.314 284.319 425.381 282.734L423.683 284.201L422.933 283.794C422.404 281.16 423.376 283.351 424.554 281.047C421.724 280.131 419.839 280.145 419.423 276.991L421.748 275.574C420.831 274.412 421.282 274.794 419.565 274.327C413.632 272.713 417.32 269.31 415.917 266.741L414.304 267.43L413.19 266.955C412.448 265.904 411.901 264.92 412.164 263.672C413.064 259.397 407.533 257.405 404.146 252.822L404.999 251.55C404.822 248.779 397.977 238.521 395.647 235.85C396.626 234.04 397.917 232.135 398.047 230.165L395.264 232.234L394.407 232.089C392.029 228.378 388.346 219.361 386.934 215.066C387.791 214.086 388.25 213.756 388.456 212.466C387.122 212.448 386.558 212.3 385.286 212.038C382.86 208.876 384.367 205.968 383.424 204.019C381.414 199.863 378.74 196.947 377.106 192.264C377.656 191.521 378.188 190.765 378.703 189.997C375.564 182.443 372.936 179.306 382.925 175.565C384.758 174.878 385.788 175.429 387.465 176.272C389.236 175.718 389.626 175.517 391.449 175.493C392.468 176.162 394.384 179.03 395.213 180.165C396.425 180.103 396.199 180.043 397.338 179.337C398.563 180.15 410.45 187.596 410.736 187.929C417.741 196.079 428.512 198.766 435.463 207.428C435.47 207.438 434.93 208.847 435.949 210.532C436.831 209.865 436.834 209.813 437.859 209.428C443.079 213.564 447.681 217.609 450.583 223.7L450.896 224.368C456.259 226.069 463.268 236.664 466.932 241.29C467.498 242.005 466.309 243.919 465.945 244.662C466.895 246.112 470.681 246.937 473.134 248.274C476.594 252.502 478.663 255.02 481.491 259.663L481.053 261.067C481.411 261.454 482.027 262.064 482.285 262.482C483.272 264.779 484.151 264.438 485.19 266.555C487.925 272.125 491.368 277.245 494.735 282.455C494.562 283.238 494.017 284.296 493.866 284.048C498.421 291.513 501.98 298.861 504.754 307.146C504.87 307.491 503.305 309.061 502.918 309.426L503.095 310.762C508.012 313.638 507.367 313.75 508.928 319.693C509.715 322.748 510.473 325.81 511.2 328.88C510.526 329.388 510.209 329.635 509.933 330.444C510.964 330.629 511.051 330.56 512.102 330.425L512.928 331.886L512.485 332.469L510.958 332.48L510.96 333.355C512.763 334.64 513.633 334.814 514.471 336.603L512.383 337.779C512.862 340.403 519.106 348.793 517.915 355.72C516.619 357.096 516.296 357.104 514.474 357.812C515.481 359.587 517.875 359.757 518.227 360.177C521.549 364.148 522.817 368.163 526.737 371.716C540.119 374.032 561.043 373.197 575.106 373.412C578.343 373.412 581.483 374.807 584.682 374.882C589.011 374.982 597.448 372.895 601.368 373.468C610.357 374.78 606.26 377.216 615.368 373.326C620.387 374.243 658.745 373.605 661.924 371.912C661.069 371.026 660.742 370.788 659.791 370.056C659.517 368.393 659.463 368.271 659.758 366.637C658.509 366.479 653.361 366.197 653.08 365.969C649.992 363.459 627.214 350.8 626.534 349.231L627.782 347.23C625.4 345.307 623.207 348.186 621.435 345.631C620.166 343.802 619.395 342.197 617.94 340.225L616.348 340.973C607.519 334.92 596.295 324.107 588.14 316.699C587.558 316.17 588.497 313.937 586.229 312.213L584.232 312.676C582.324 311.253 582.374 307.38 581.801 307.22C577.697 306.071 573.805 303.209 580.146 299.993L580.367 299.11L579.626 298.231C575.654 299.888 572.44 298.612 569.861 295.121L569.552 292.473C568.073 291.378 567.184 290.749 565.585 289.845C565.75 288.743 565.811 288.348 566.13 287.243C564.35 285.58 557.913 280.05 557.271 277.627C557.068 276.861 558.047 275.42 558.514 274.682L558.136 273.839C557.007 274.116 556.274 274.282 555.133 274.463C548.159 264.186 528.33 224.167 527.793 213.241C523.862 210.436 520.382 198.025 519.957 193.319C520.847 192.531 520.858 192.44 521.931 191.967C516.093 187.367 520.365 189.116 520.382 184.152L518.394 182.453L518.494 181.532C521.26 179.356 524.038 177.197 526.829 175.054C527.718 176.125 527.674 176.059 528.138 177.373L529.909 177.151L530.995 178.775C532.802 178.095 534.063 177.252 535.702 177.563C535.63 179.22 535.541 179.337 534.908 180.899C536.567 181.224 536.26 180.727 537.133 180.655C545.405 179.979 554.723 188.444 560.556 193.655C565.046 197.667 570.831 195.848 572.294 203.399C576.606 205.111 579.148 202.131 579.802 209.482L580.689 210.625L582.895 209.513C590.531 214.369 596.483 221.042 601.586 228.234C602.409 229.394 605.367 230.176 607.478 232.486C614.504 240.175 620.537 248.363 626.671 256.728C626.997 258.725 626.49 259.747 625.893 261.686L626.612 261.999L628.218 260.649C629.634 261.935 641.87 277.783 641.301 280.595C641.238 280.91 641.087 283.728 641.119 284.492L643.361 284.599L643.92 285.826C643.358 287.006 642.982 287.731 642.309 288.851L642.872 290.113C644.182 290.126 644.599 289.633 645.667 288.853C648.29 291.825 655.275 311.184 657.216 315.631C659.112 319.974 655.528 319.282 660.671 322.882C663.079 327.396 664.494 334.459 664.975 339.004C665.238 341.497 670.066 349.263 669.996 350.728C669.379 363.777 671.29 360.581 677.907 370.426L685.035 372.516L685.432 372.287C695.871 366.392 702.389 372.812 711.673 367.458C714.246 365.975 715.295 369.401 719.033 368.588C720.87 367.057 722.034 365.685 724.324 365.517C725.353 366.313 726.404 367.081 727.476 367.819L728.33 367.418L728.027 365.58C730.568 364.22 740.931 363.485 744.364 363.103C754.073 362.023 763.516 359.169 773.298 359.368C773.364 359.369 776.18 357.397 776.511 357.209C778.756 356.593 784.24 357.986 785.772 357.644C788.142 357.115 790.122 354.089 793.519 353.816C794.502 354.481 794.662 354.636 795.51 355.473L797.968 354.454C797.525 353.726 797.803 354.06 797.116 353.468C800.632 353.045 803.359 352.783 806.808 351.838C805.708 351.095 804.564 350.358 803.559 349.501C798.592 345.268 785.955 341.695 781.975 336.91C782.969 335.292 784.133 336.399 785.868 334.862C784.428 334.109 784.221 334.245 782.524 334.469L780.789 335.861C777.228 334.087 766.095 327.984 763.989 325.107L763.475 322.356L762.684 322.215L760.92 324.091C757.206 323.012 755.012 316.628 752.403 314.543L750.585 316.086C749.093 315.211 745.936 311.664 744.248 310.163C740.673 307.045 736.982 304.062 733.184 301.219C732.978 299.369 734.404 298.605 733.732 298.277C721.919 292.508 715.736 281.336 707.721 271.444C704.913 267.978 696.08 256.933 695.1 253.72L695.781 251.123C695.037 250.528 694.618 250.439 693.634 250.211C691.193 249.646 690.89 248.494 689.671 246.331C687.827 243.06 687.031 238.805 685.786 235.222C685.786 235.221 683.383 233.713 683.382 233.713C680.38 227.746 676.955 221.663 673.684 215.876C672.504 213.868 672.361 210.113 671.221 208.171C668.656 203.804 666.502 199.505 664.652 194.768C664.528 194.45 665.464 192.451 665.605 192.158C661.769 187.529 662.515 188.189 661.971 182.686C661.8 180.958 660.154 182.669 658.801 179.253C659.434 178.17 661.637 174.615 661.886 173.593C662.779 169.936 659.533 168.055 663.155 165.389C667.597 164.926 677.573 165.623 681.251 167.549L681.727 168.5L681.388 168.798C680.549 169.544 680.02 169.819 679.818 170.888L680.681 171.306C681.829 170.753 683.84 169.494 684.618 170.026C688.503 172.678 706.093 181.978 707.884 185.026C706.844 186.225 706.133 186.711 704.874 187.692C705.914 188.238 709.482 186.805 710.972 186.348Z"/><path fill="#6B917F" transform="scale(1.33333 1.33333)" d="M473.134 248.274C476.594 252.502 478.663 255.02 481.491 259.663L479.845 260.347C478.707 258.721 475.078 257.437 472.932 254.972C471.865 252.418 472.477 250.985 473.134 248.274Z"/><path fill="#6B917F" transform="scale(1.33333 1.33333)" d="M262.377 404.813C261.069 402.854 259.842 401.5 260.387 399.17C261.607 398.934 262.831 398.719 264.059 398.527L264.594 399.159L265.877 398.99C266.604 401.22 266.507 402.986 264.938 404.79C263.284 405.181 263.749 405.321 262.377 404.813Z"/><path fill="#6B917F" transform="scale(1.33333 1.33333)" d="M466.73 366.423L470.225 367.425L469.037 369.549C466.857 370.401 465.864 369.928 464.347 368.475L464.534 367.199L466.73 366.423Z"/><path fill="#E0E4E3" transform="scale(1.33333 1.33333)" d="M481.491 259.663L481.053 261.067C481.411 261.454 482.027 262.064 482.285 262.482L481.169 262.292C479.113 263.628 478.602 263.654 476.249 264.041C476.58 262.67 478.525 261.47 479.845 260.347L481.491 259.663Z"/><path fill="#6B917F" transform="scale(1.33333 1.33333)" d="M607.913 295.653L608.698 295.874L608.902 296.953C607.736 299.143 606.911 299.706 605.089 301.291L604.523 301.028L604.256 300.223C605.82 298.63 606.784 297.608 607.913 295.653Z"/><path fill="#618F7B" transform="scale(1.33333 1.33333)" d="M285.832 355.715C276.143 355.619 254.049 358.288 242.961 357.485C242.916 357.482 241.494 355.049 240.607 355.31C237.304 356.279 235.042 358.011 231.559 356.616C228.165 352.135 227.676 356.578 223.238 355.961C210.841 354.238 198.749 352.388 187.351 347.387C185.078 348.583 184.902 348.609 182.794 347.527C182.668 346.196 182.715 345.766 182.071 344.56C179.921 344.535 178.604 346.618 176.89 346.252C171.699 345.142 149.606 333.212 146.123 333.19C145.86 333.189 145.161 333.199 144.993 333.178C143.458 332.988 142.922 332.509 142.072 331.319L142.77 329.123C134.952 330.458 135.252 325.949 128.467 322.545C125.702 321.157 122.818 321.199 120.104 320.206C119.464 318.642 119.392 317.99 118.062 317.098C114.802 318.2 113.784 316.187 111.264 313.989L111.221 311.812C110.042 312.207 109.758 312.249 108.577 312.442C105.718 310.601 103.018 308.29 100.371 306.136C100.701 304.919 100.911 304.54 100.605 303.3C94.2804 305.401 91.2652 295.579 95.2001 291.374C96.2903 290.21 94.6001 290.727 94.9656 288.778C97.9442 286.614 115.113 281.84 119.367 281.725C119.984 282.799 120.087 283.019 120.919 283.995C121.584 283.061 122.235 282.118 122.872 281.164C125.252 281.581 123.415 282.456 125.281 283.928C126.193 282.516 126.519 282.045 127.639 280.799C131.752 280.445 131.356 283.101 135.877 281.416C137.83 280.688 141.95 279.967 144.055 280.046C144.714 280.711 145.306 281.272 145.989 281.903C146.417 281.669 146.846 281.437 147.276 281.208C155.883 276.629 152.854 284.379 161.496 279.104C164.413 279.969 162.614 281.374 165.466 283.304L166.691 283.027C167.114 282.58 167.544 282.14 167.981 281.708C172.827 277.003 176.425 283.087 183.085 283.202C183.835 282.135 183.742 282.088 184.922 281.592C185.335 281.829 187.698 283.141 188.031 283.134C208.009 282.757 227.417 293.766 245.68 297.51C246.447 298.524 246.56 298.746 246.88 299.52C247.807 301.756 249.201 299.148 253.053 301.215L252.897 302.948C254.076 305.185 254.915 302.425 258.594 304.154C266.083 307.672 273.707 311.83 280.873 315.888C281.87 317.374 281.953 317.682 282.408 319.435L282.521 319.886C283.431 319.777 286.159 319.577 286.763 319.962C291.434 322.942 297.1 326.372 301.589 329.444C302.388 331.094 302.223 330.241 302.053 332.104C308.029 330.852 314.127 340.828 319.017 343.714C319.399 343.939 325.422 345.065 326.464 345.301C327.615 347.206 328.321 347.365 330.337 348.246C331.247 349.512 331.508 350.691 331.983 352.17C327.301 352.393 317.314 348.411 316.356 348.779C308.975 351.612 309.501 352.022 300.184 351.805L299.679 352.332L299.744 354.071C297.795 354.648 298.627 354.662 296.588 353.886L295.647 351.54L294.846 351.445C293.699 353.088 293.277 353.857 291.709 355.163L290.695 354.563C290.388 353.116 290.537 352.938 290.982 351.452L291.114 351.024L290.201 350.848C288.729 352.594 287.403 354.056 285.832 355.715Z"/><path fill="#6B917F" transform="scale(1.33333 1.33333)" d="M326.464 345.301C334.009 347.781 342.912 348.608 350.82 349.59C348.326 350.324 347.065 350.15 345.971 351.894L346.407 353.715L344.724 355.366C339.742 354.921 337.07 355.357 333.32 352.211L332.788 351.76L331.983 352.17C331.508 350.691 331.247 349.512 330.337 348.246C328.321 347.365 327.615 347.206 326.464 345.301Z"/></svg>