<svg xmlns="http://www.w3.org/2000/svg" width="1024" height="1024" viewBox="0 0 1024 1024"><path fill="#1d2c1c" d="M529.437 172.713c4.048 3.518 4.829 3.583 7.793 8.126 1.081 1.355 3.976 4.633 4.269 6.099 4.105 1.878 2.329 2.342 4.625 5.66 3.047 1.97 13.478 12.348 14.295 14.923l-.258 1.632c1.244 1.022 1.521 1.041 2.987 1.64.878 1.54.818 1.427.687 3.207 1.449 3.526 6.772 2.523 4.219 7.248 5.107.938 8.567 9.758 13.823 14.312.265.974.321.643.138 1.536 3.069 2.458 6.711 6.228 6.368 10.404 1.604 1.507 1.844 1.217 2.174 2.943-.865 1.793-.842.949-.541 2.57.495-.604.99-1.118 1.611-1.593 3.523 1.252 2.73 4.095 5.992 6.784 2.58 3.093 2.189 5.19 4.512 8.694l-1.726-.552c-1.649 1.075-1.037.379-1.883 2.181.052 2.686 1.271 4.102 3.931 4.593.746-1.983.908-2.412 2.016-4.189 2.685 5.466 9.18 9.941 11.258 15.423-.479.805-.555.951-.772 1.902.869.569 1.206.743 1.907 1.506-.935 1.045-1.139 1.166-2.278 2.013-.085 2.373 2.272 2.639 4.273 3.342l.671 2.817c-2.089.874-2.973.504-5.171-.002 6.498 5.88 3.34 1.302 8.714 2.636.163.962.075 1.276.543 2l.715.611c4.643-.484 6.436-.628 9.341 3.532l-.109.581c-.158.88-.104.536-.197 1.493 1.131.484 1.064.459 2.296.519l.019.745c-1.712 1.608-3.25 2.099-3.781 3.663.904.88 1.143.938 2.262 1.562.856-1.687 1.158-2.819 2.827-3.624 2.45.109 2.942 2.879 2.582 4.855 1.743 1.388 7.84 5.6 7.485 7.55 1.911 2.816 4.757 5.033 6.998 7.498 1.619 1.781-.17 7.824 3.911 6.407l.853-.827c5.862 1.654 5.598 5.818 4.232 10.448l1.591 2.074c2.463-.466 2.121-.567 4.074.837.208 1.301.033 1.175.839 2.211 3.996.011 3.251 2.548 3.114 5.514 1.957-.058 3.61-.552 4.676.835 2.275 2.956 7.95 8.475 9.521 11.476l-.07 1.127c-2.123.342-3.032.29-4.716 1.495 1.098.693 2.257.135 3.84-.227l.908-.208.905-.77 1.561.136c-.24 1.024-.134.652-.843 1.554 2.111.083 2.846-.295 4.749.885 1.028 1.497.942 1.398 1.089 3.225-1.247 1.205-1.803 1.279-3.412 1.858 5.14 1.095 11.986 6.254 12.513 11.735-.597 1.286-.101.878-1.404 1.374-1.505-.505-1.455-.574-2.713-1.592l-.876.162-.155.967c1.778 1.744 1.639 1.104 2.123 3.184l-.514.902c-1.989.394-4.002-.532-5.997-1.199l-2.628 1.777c-4.627.191-9.241-.418-13.905-.415-2.415.001-6.718.692-8.59-.515-.589-1.32-.538-1.241-.554-2.7l-.862-.067c-.348 1.265-.362 1.447-.46 2.762-2.137.63-10.256-1.417-12.071-2.348l1.376-1.866-.391-.563c-1.713.137-1.756.25-3.268.944-.015.732.013.97-.256 1.661l-.808-1.498c-1.384-.303-2.124.237-3.442.835-1.224-.331-1.455-.948-2.251-1.995-6.436.725-4.894 4.487-11.457.991 1.067-1.975 1.516-1.962 1.258-3.71-1.893.662-2.033 2.377-2.365 4.17-1.296.029-1.312.107-2.508-.329l.073-.904c-7.122 6.588-6.579-7.262-11.738-5.053.529 5.055-2.081 4.569-5.738 3.326-2.239 2.701-4.212 1.168-6.082 3.084.335.935.283 1.039.825 1.841 1.62 1.255 2.018 1.416 3.003 3.139-.302 2.285-1.687 2.269-3.766 2.852 4.095 2.33 6.021 1.187 8.827 4.782 1.654 1.342 1.87 1.461 3.907 2.078l1.308-.265c1.032-1.578 1.22-2.369 1.824-4.12l.614-.094c3.08 2.524 2.868 5.258 4.964 8.494-.21 1.806-1.148 2.662-2.54 3.73l-.079 1.612c2.063 1.214 4.124.926 6.107-.24.792-2.044.334-1.7 1.834-2.915 1.731.831 2.422 2.997 2.707 3.072 2.841.747 5.207.699 4.848 4.742 2.087 2.16 4.775 7.046 6.162 9.776 7.617 1.985 8.828 12.448 12.616 17.617.569.777 4.658-.1 6.894 3.617-2.156 3.319-2.628.696-2.096 3.814l.575.531c1.106-1.268 1.991-2.662 3.522-3.088 2.574 1.531 4.899 3.709 7.192 5.676l.057.751c-1.913.65-2.36.4-3.206 1.723 3.696.919 3.482.083 3.957 3.952 4.821-.485 7.629 4.301 6.322 8.448l-1.246 1.308c-1.565.592-3.46 1.114-4.573 2.267l-.226.961c1.3.608 2.784-.044 3.832-.931l.648.065.24 1.214c-1.583.683-2.298.62-2.9 1.796.623 1.325.508 1.357 1.74 2.087 3.936-.729 4.544-7.313 7.759-6.554 1.632 2.398 6.161 11.421 5.748 14.218l3.547 4.114c1.467-.211.759-.023 2.118-1.588 3.499 2.647 2.516 4.752 6.552 5.101 4.146 3.312 1.396 6.436 7.867 8.255 1.752 1.495 3.757 6.347 5.068 8.776l-.158.529 1.818 1.707-.081.426-3.267.118c-.177-2.204.302-1.457-.915-2.657l-1.037.108c-.985 1.487-.792.695-.625 2.451 1.183 1.41 1.228 1.538 3.029 1.973 2.888 2.147 1.923 3.958 4.058 5.524l1.02-.741a47 47 0 0 1 .002-1.8c6.004 1.699 14.899 11.905 15.674 18.207-2.84 2.891-5.215 5.104-8.257 7.792-1.323-.118-1.515-.381-2.708-1.044-4.044 3.514-4.132 3.669-9.569 4.717-1.401-.482-1.406-.68-2.497-1.743-.993.121-1.954.479-2.732 1.102-3.006 2.407-7.391-.08-10.66.56-.235 2.05.14 2.111-1.024 3.104-1.606.039-1.853-.241-3.303-.939l-.533.323c-3.814 2.264-4.602 1.731-7.698-1.218-2.26-.482-2.498.194-4.086 1.799-2.066-.042-2.455-1.853-3.224-2.046-4.614-1.161-8.934 1.052-12.837-1.98l-1.298-3.024-.493-.197c-1.113 2.881-2.698 3.934-5.833 3.213l-.876-.765c-.095-1.447-.109-1.586.098-3.013-1.291-.335-1.226-.285-2.561-.084.774.894.757.868 1.243 1.946-.697 1.398-.182.935-1.483 1.552-2.484-.489-3.302-2.64-4.916-4.392l-.623.938.338 1.631c-.972 1.002-.42.673-1.751.882a72 72 0 0 0-2.725-1.605l-.541.237c-1.336.575-1.967 1.041-3.355.762-.473-1.511-.106-1.477.574-3.347-2.531-.816-3.954.608-5.957 2.022-1.62.15-1.787-.14-3.215-.941l-1.739-.924c-2.986 2.659-1.443 4.417-.172 7.93 1.111 1.344 1.667 2.564 2.478 4.093 2.063 1.175 2.809 1.591 5.038 2.361 1.143 2.346 2.273 4.724 3.844 6.876 2.026 2.776 4.622 5.656 6.477 8.532.465.72.492 4.384 1.122 4.869 3.247 2.499 9.718 5.671 10.333 10.837l-1.742 2.236.177 1.023.878.396c.827-.385 2.37-1.357 2.881-.995 4.18 2.96 7.044 9.959 10.239 13.817 3.113 3.76 12.78 9.889 14.789 13.312 1.287 1.758 1.686 2.205 2.527 4.17 2.667 3.167.829 3.944 4.116 5.953 1.654 1.011 3.412 2.789 2.083 4.775-1.491-.24-1.547-.315-2.948-.936-.932.928-.679 2.424-.32 3.616l.518-.257-.62.197c1.661-1.065 2.144-2.082 4.013-2.382 1.707.978 1.758 1.63 1.923 3.698.357 4.476 6.428 5.75 7.722 9.91.032.11-1.076 1.717-1.272 1.988 3.381 1.214-1.543-2.845 5.139 1.283.36 2.25-1.931 1.428 1.058 3.597q.459.333.927.655l.274.881-1.01 1.787.527.303 1.214-.43c1.622 1.198 3.844 2.45 4.595 4.08l-.883 1.514c1.465 2.252 5.752 7.619 6.666 9.809.548 4.889 2.113 6.758 6.969 7.222l.432-.283c3.74 2.482 8.748 4.544 10.506 9.054.503 1.29-.976 1.942.088 3.133.586.936.591 3.064.05 4.019-2.444 4.313-6.577-.624-9.221 1.304l.172.547c1.365-.187 3.082.713 4.384 1.221l.174.538c-.87.346-3.865-.233-5.625-.043-.691.911-.414.447-.86 1.374-3.384-.929-2.509-1.651-5.16-3.112-.31 2.199.586 1.687.301 3.873-1.297 1.238-.546.885-2.333 1.09-1.567-1.117-1.732-2.229-1.95-4.135-2.063.269-1.845-.074-3.243 1.028l-.552 1.518c-4.482 1.637-8.41 2.422-12.03-1.029-1.963.234-1.871 1.22-2.387 3.054-1.293.775-.555.529-2.546.068-.817-.74-1.515-1.377-2.376-2.071l-.618.092c-.714.101-.44.12-.898.047l-2.203 1.601c-1.596-.436-1.118-.641-2.216-.189-1.059 2.047-.297 1.491-1.963 2.24-2.01-.376-2.624-.749-4.085-2.289-1.153 1.786-.669 1.2-2.796 2.232-.381-.042-2.471-.368-2.578-.377-4.077-.329-9.997 2.829-13.589.212-3.767-2.744-8.996 1.448-13.665 1.025-3.608-.327-3.085-1.867-6.603-1.75-.542 1.116-.222.567-.966 1.644-.547.015-8.868.517-8.418.582-4.629 1.268-6.432 1.418-8.623-2.726-1.764 1.025-2.203 1.46-3.58 2.983-2.144.109-4.263.184-5.921-1.221l-.479-1.703-.551.485c-1.49 1.293-1.551 1.716-3.084 1.742-1.826-1.172-1.661-1.507-3.404-1.431l-1.22 2.675c-2.007.569-2.647-1.099-3.746-2.673-1.238.341-1.908 1.294-2.829 2.256l-1.068.135c-1.598-1.356-1.163-2.404-1.148-4.485l-.674-.598c-3.704.599-5.091 1.648-6.849 4.953-3.23-.009-17.293.599-19.132 0-.187-.061-.376-.112-.564-.168-1.923.436-3.097.757-5.051.87-1.526-1.087-1.259-2.689-3.109-4.596l-1.693.735c-.705 2.158-.319 3.7-1.954 5.807l-1.391-.553c-.374-1.528-.799-4.374-1.434-5.622-1.659 1.766-1.665 1.943-2.553 4.263l.427 2.108-.436.502c-1.695-.779-5.32-2.607-6.975-2.875.184 3.703 6.293 4.379 6.399 8.452l-.538.528-1.192-.171c-.239 5.801 3.989 22.359 3.639 24.493-.802.406-1.273.596-2.116.916-.661 1.542-.188 3.947.203 5.587l1.805-.831.379-1.355 1.326-.275c1.651 1.99-.632 6.751-1.744 8.769 1.668 1.413 1.801 1.491 2.922 3.323l-.011 1.175c-2.147 1.987-4.47.09-6.359 2.516l.137 1.064 1.245.646c2.81-.131 7.98 4.033 6.153 7.736.664 4.88 5.297 10.131-2.121 11.003 1.489 2.362 5.116 5.661 3.411 8.974l-3.271.864.122.583c1.594.724 2.362.862 3.295 2.449.095 2.467-.457 2.659-2.347 4.164 1.569 3.331 4.649 7.957 4.207 11.186-1.569 1.01-2.739.29-4.373-.547l-.42.545c.572 1.979 1.643 4.235 1.415 5.947l-1.359 1.178c.632 1.465.174.824 1.587 1.858l-.588.916-.786 1.002.326.941c-1.165 4.442 4.702 4.118 4.426 8.878-.884 2.135-1.828 3.312-3.964 4.388 2.435-.104 2.161-.502 3.655.631 1.146 3.923.167 3.531-2.214 6.509.613 1.556 1.353 1.614 1.361 1.701.401 4.793.813 12.982-.827 17.107a98 98 0 0 1-4.233.433c-.753 1.831-.765 1.746-2.117 3.042-1.742.358-2.218.242-3.451-1.328-1.363.235-2.023.328-3.231 1.067-3.17 1.938-9.29.357-12.742-.635-2.051-.589-3.262-2.512-4.372-4.3-2.268-1.234-4.374-1.005-6.227.816 1.147-.01 2.102-.027 3.249.044l.082.395-.701.761.276.318.126-1.573c-.315 1.014-.381.676-.18 1.579l2.644.603.202.8-.592.368c-4.56 2.89-3.643 4.931-5.207 5.646-5.657 2.586-11.849-1.069-17.563 2.606-1.777.057-1.748.135-3.463-.604-1.385-1.438-1.423-2.058-2.075-4.026-1.247-.838-2.822-.731-4.098.084-.826-1.118-1.333-2.146-2.597-2.544-.335 1.557.723 2.41 1.067 4.094-.576.327-.992.401-1.636.604-3.096-1.796-3.91-.134-7.169 1.055-2.929 1.068-4.641 1.396-7.741 1.342-5.917-.103-3.012-1.62-5.041-3.87-2.039.218-1.427-.227-2.695.803l.193 3.013c-1.444-.195-2.552-2.327-5.608-2.053-2.988 3.637-4.504 1.902-9.438 2.085-1.19-1.099-2.703-2.274-3.65-3.585-2.887-3.994 1.697-35.786 2.469-41.837 1.302.422 2.027.805 3.232 1.401l.639-.318.035-1.177c-1.791-2.132-1.766.294-4.303-1.663-1.323-4.378 1.574-7.65 1.815-12.355a40 40 0 0 1-1.91-2.318c.652-3.586 1.256-6.995 1.763-10.604 1.244-.576.993-.228 1.683-1.193l-1.46-.373c-.951-1.327-.19-3.917-.201-5.735-.008-1.223 1.537-2.098 2.455-2.737l.098-.773c-.119-.148-2.206-2.782-2.203-2.9.08-3.547.318-7.821.563-11.388.15-2.175.08-1.855 1.105-2.721.684.053 1.308.103 1.992.185l.501.064c-.435-1.023-2.583-5.997-2.537-7.128.382-9.279 1.646-18.804 2.297-28.084l.831-.95c2.518-.754 3.818.256 6.195.128.214-3.515-4.369-1.788-5.816-5.734.361-2.464.759-4.92 1.126-7.383.409-2.736 3.195-1.614 4.496-4.066-7.116-7.524-.851-7.73-2.481-14.173-2.05-8.103-.79-2.702 1.265-6.749l-2.382-.167c-.783-1.453-.87-1.482-1.214-3.165 1.588-3.019 1.23-4.944-2.846-4.941-1.696.795-1.936 1.293-2.973 2.75l-.956-.298c-2.072-.625-2.859-.787-4.577.133l-.069.889a22 22 0 0 0 2.359 1.817l.053.907-.868.942c-1.895.632-.935.618-2.974-.22l-.727 2.02-.736.308-.887-1.382c-.313.87-.474 1.573-.708 2.467l-.662.251-2.084-1.639-1.351.263c-.018-1.719.117-2.955-.521-4.548-1.558-.201-1.38.128-3.098 1.253-.45.955-.501 1.589-.612 2.635-1.427-.157-1.412-.259-2.796-.075-.36 1.729.562 3.049 1.432 4.636-.916 2.177-2.764 2.085-4.975 2.41-1.482.925-1.472 1.27-2.942 1.26l-.644-1.19c.321-2.939 1.293-3.317 1.858-6.047l.097-.497.463-.563-.838-.737c-2.371 4.066-1.941 2.826-6.48 3.761-3.738.77-9.465-.999-10.182 3.788l.192 1.132c-.824.875-.555.668-1.573 1.329-5.387 3.315-2.649 1.758-7.094.502-6.124 2.97-2.284 2.968-4.88 6.335l-.966.361c-3.617-1.899-4.134-1.563-5.013-5.349-1.997.485-2.178.448-4.167-.089-1.339.368-2.819 1.475-3.541 2.531-3.706 5.412-8.244-.584-12.776 2.448-.454.305-1.635.584-2.237.735 2.6 1.303 4.308.446 5.556 1.784l-.067 1.762c-.876.653-.377.416-1.518.669-.447 1.403-.481 1.529-.628 2.99-1.103.544-4.129-1.098-5.207-1.608-3.495-.684-3.044-.914-5.398-2.936l.359-.555-.438.04c-.562 1.07-.826 1.632-1.568 2.589l-.487.617-1.934-.059c-.912 1.254-.602.971-.523 2.941-1.371.588-3.491 1.418-4.674 2.177-2.207-.281-7.361-1.162-9.214-.743l1.672 1.381-.011.854c-1.426.976-1.308.979-3.001 1.221-.971-1.01-.866-2.261-1.015-3.738l-.691-.408c-2.983 2.29-.308 6.123-5.109 7.725-3.224-.524-3.883-2.527-5.525-5.097l-.805.049c-.531 2.324.841 2.553-.078 4.764-1.597.988-.78.793-2.466.864l-.955-.901c-2.055.709-2.016 2.747-5.178 2.382-1.183-1.291-.776-.515-.895-2.57l-.747-.438c-1.567.641-11.922.2-12.735-.55l1.244-1.734c-.979-1.087-6.296 1.366-9.509.018l-.2-.766c.222-.37.406-.866.761-1.124l-.332-.728c-1.769-1.283-1.199-1.258-3.076-1.385l-.1-.402c.177 1.493.284.778-.457 2.195l-.859.033c-1.314-.626-1.746-.642-2.449-1.887 1.216-2.183 1.58-.187 3.582-2.499l-.242-.732c-1.831.081-3.429.425-4.894-.509-3.05-8.734 7.344-16.826 13.65-20.846 5.428-3.459 2.075-7.481 5.089-9.016l.74 1.539c1.581-.786.795-1.821 2.305-4.295l1.953-.409c-.494-1.159-.473-1.165-.641-2.423l.787-.997c1.497-.47 1.03-.149 2.154-1.118l-.79-1.657.332-.653 2.113-.595.915-.713.033-.491c.599-7.714 5.531-10.355 10.847-15.558 4.263-1.079 3.281-1.036 6.748.694l.593-.509c.061-2.01.367-1.182-.703-2.647-1.755-.422-2.609-.383-4.381-.429-1.329-.863-.883-.28-1.34-1.841 1.105-1.009 4.02-1.713 5.822-2.436 1.295-1.72.89-1.187 1.012-3.745 1.285-2.483 4.406-2.812 5.645-4.889.37-.618-.187-3.277 1.23-4.519l1.042 1.587.651-.014c1.059-1.718-.922-2.074.334-5.003 1.413-.395 4.358.1 5.807.485-.384-1.812-.532-2.574-.656-4.41 2.848-3.732 3.789.288 5.588-6.123.83-.394 3.967-1.839 4.136-2.467 1.224-4.558 10.966-11.735 12.249-14.962-.876-1.164-1.559-1.828-1.808-3.258 2.301-3.171 4.161.093 8.586-3.126-1.681-1.722-2.428-2.216-2.42-4.529 1.117-1.241 1.103-1.114 2.741-1.581 1.01-1.629.902-1.63.903-3.472l-.682-.949c-3.648-.502-4.561 2.293-5.497 5.046-1.671.553-3.071-.702-4.395-1.758l-.744.232c-.928 2.78-.158 3.451-1.535 5.24-1.469.361-2.761-.376-4.257-.936l-.583.389.919 1.976c-1.523 1.711-5.99 1.208-8.218.965-2.118 4.058-6.265-.099-10.45.012-.115 1.292-.048.928.357 2.278-1.041 1.391-.362.833-2.365 1.367-3.51-.532-3.36-5.896-7.359 1.654-2.782.742-3.63.222-6.253-1.029-3.935.837-7.935 4.743-10.48 5.459-3.59 1.01-22.659 4.302-24.582 1.908-2.296.768-10.522 7.256-13.092 3.85.144-1.336.075-1.285.754-2.424-.923-1.182-1.657-2.589-1.115-4.006 1.806-.479 3.339.371 5.138 1.047l1.122-.584-.342-.414-.557-.698c-1.095-1.36-1.879-1.954-2.036-3.683l.455-.389c4.218-3.709 1.749-4.506 3.332-9.478 2.628-2.009 4.289-5.407 6.534-6.159l.697.926c1.511-1.393 1.724-1.48 2.544-3.301-1.855-1.71-2.757-1.795-1.788-4.076 2.508-1.355 1.579 1.118 3.973.46.003-2.158-.351-3.549 1.631-4.705 2.068 1.146 4.167 2.78 6.461 1.731 1.523-3.721-1.797-3.118-2.587-7.122.382-1.783.743-1.919 2.108-3.107 2.366.368.976 2.726 3.622 3.417l.892-.665c2.927-3.72 3.965-1.999 4.621-6.698.967.047 1.578-.362 2.551-.76.438-.108 1.173-.163 1.646-.217l.028 1.614.775.188 1.087-.802c-.03-2.347-.042-2.811-.68-5.056-1.762-.602-1.102 1.014-3.755 1.346-.479-1.301-1.041-2.743-.159-3.956 2.14-.366 1.903-.046 4.274.792.931-.762 1.187-.987 1.923-1.897l.58-.727c1.422.385 2.546.815 4.009.715l-.297-.8c-3.213-.364-5.297-2.265-7.314-4.704 3.34-4.183 9.235-.51 13.438-2.609 2.134-3.061.157-2.417.05-5.989l2.357-.118 1.02-.867c-.129-2.92 1.853-10.31 2.77-13.271-.997-.831-.434-.581-1.673-.78.04 1.583.317 1.655-.394 2.75-1.263-1.113-.714-.474-1.193-2.488 1.615-2.222 3.118-1.621 5.579-1.259 1.457-1.261 3.723-3.056 4.868-4.483-5.384-2.045-2.301.456-5.029 1.566.517-2.41-.162.215-.928-2.356l.575-.866a24 24 0 0 0 2.672-.332c1.57-2.459 2.333-4.51 3.455-7.179 2.681-2.38 5.488.601 7.111-3.596l-.447-.837c-1.656-.292-1.723-.1-2.993-1.038.836-3.558 2.572-1.176 2.48-5.692l.963-.901 1.003.079c1.169.965 1.853 1.765 3.328 1.974 1.359-.813.993-.255 1.555-1.457-.901-.874-5.59-4.724-4.481-6.257 2.061-2.848 2.323-3.5 5.366-2.3l.943 1.385 1.22.148.697-.75c.656-1.984.519-2.204.182-4.346.108-.179.046.018.17-.906l-1.058-.658c-2.12-3.889-.651-5.197.727-10.007l1.271-.295c10.557-2.388 3.391-5.412 8.389-8.823l1.971.407.28-.851c-1.233-2.315-1.719-2.851-.976-5.347 1.077-1.141 1.17-.765 3.243-.948l.303-.518c-.762-2.127-2.31-2.132-3.435-4.002l1.927-.338c3.806-4.858-.789-3.926 7.157-8.899-.262-1.387-.373-1.392-.012-2.723 2.889-2.618 5.601-.853 8.222.791l.029-.85c-1.565-2.35-1.406-.907-3.723-2.704 1.4-.433 1.628-.334 3.055.004.41-1.579-.58-4.462-1.024-6.196 1.159-.566 2.475-1.091 3.254-2.164.317-.437.615-.889.945-1.317 1.268-1.644 2.103-2.389 4.241-2.64.977-.115 1.545-.127 2.384-.701-.707-1.634-.898-1.739-.784-3.546 1.28-.807.554-.617 2.323-.226l1.016-1.047-.1-.757c-1.275-.242-1.293-.157-2.333-.891.096-1.37 3.191-5.012 4.024-8.189l.158-.626c4.355-1.288 5.138-1.151 7.985-4.698-2.618-1.239-2.548-2.113-2.972-4.768-3.074-.441-5.266.38-7.177-.388-.433-2.763 2.112-1.585-.747-3.591-.595-.418-2.765.472-3.475.657l-.321.576.462.609 2.444.328.128.525c-1.319 1.155-1.606 1.596-3.347 1.902-7.501-2.617-4.591 2.976-12.492 3.487-2.089 2.361-3.372 3.799-6.291 4.982-1.257-.367-1.298-.417-2.44-1.083-3.431 3.673-4.088 2.797-8.314 1.787l-.052.468c-.186 1.592-.173 1.877-.824 3.397-1.392.699-.648.589-2.329.098-1.702-2.398.793-2.717-1.174-4.097-3.284.271-4.341 7.29-10.597 3.86-.92 1.896.646 1.616-.567 3.703-3.69.313-6.422-1.298-8.906-3.892-1.89-.48-1.658-.728-3.26-.263.576 1.987.415 2.79 1.711 3.898l1.443.135-.066.975c-1.034.833-.987.921-2.25 1.225-2.546 3.198-8.021-1.761-10.301-3.89-1.659 5.567 1.478 5.036.944 8.071-1.51.845-.68.611-2.637.408-.771-1.226-.441-.63-.137-2.684-1.798-.267-1.984.379-3.19 1.843l-1.034-.151c-1.976-.582-3.249.731-5.3.652-2.389-.091-2.234 1.303-2.928 3.239-1.499.606-3.906.93-5.308-.046-.098-2.248 1.212-4.417 2.968-5.751l-.085-.689c-.2-8.265 4.747-9.238 7.501-14.398-.057-2.154-.032-2.628 1.13-4.09 5.502-.604 1.698-.827 3.869-3.696q1.2.42 2.381.893c.803-1.71.236-1.004 1.842-2.132.209-2.21.16-2.715.989-4.761 1.225-1.316 2.797-1.48 4.6-1.967l.842 1.604.703.147.381-2.145-1.543-.529.828-.78-.435-.529c-1.536.133-2.348.322-3.836-.132l-.095-.896.763-.928c1.532.026 1.155.179 2.516-.278a18 18 0 0 1-.945-2.338c1.37-2.069 2.009-1.941 4.21-1.703.375-9.14 3.119-7.182 7.773-14.239.513-6.748 5.151-5.541 7.579-11.25 1.318-3.099 1.439-6.428 3.337-9.96 1.382-.259 3.096-.374 3.749-1.651-1.3-.69-.931-.288-1.68-1.435.979-1.575 3.27-.427 5.312-1.295.004-.001 2.252-1.933 2.443-2.096l1.175.74c1.429-.967 2.417-1.466 2.562-3.151-.6-.669-.373-.583-.615-1.706l.391-.824-.526-.884c-2.873-2.261-3.258-.462-6.513-2.38l.159-.712c3.294-1.626 3.623.019 6.058-1.18.188-.702.36-1.305.571-2.011 3.462 1.249 2.189 1.263 5.308.634l.507-.158.023-.539-2.903-1.042-.137-.507c1.73-2.445 5.092-5.067 7.376-7.7l.324-.38c-.149-1.731-.185-2.567-.153-4.298l.561-.317 1.525 1.042c2.255-.192 2.408-4.321 5.497-5.378l.625.489-.55 2.992.339.894 1.679-.082c2.071-1.561 4.266-8.939 4.677-11.376l1.258.082c2.417 1.5 5.567-.542 4.998-2.911.39-.949.564-1.533.87-2.51 2.663-2.101 5.18-4.672 8.113-6.933l.18-1.441.176-.792c1.969-1.827 2.374-2.217 4.874-3.123l-.259-.56c-2.727.305-6.375-.337-6.556-3.64 2.307-.264 5.096-1.591 6.137-3.733-5.135-6.292 2.543-6.149 1.744-13.123-1.436-1.452-2.248-1.067-4.683-1.874-.455-2.185 2.973-6.666 5.017-7.323l2.218.599c-.12 1.269-.086 1.218.232 2.466 3.625 3.502 11.929 3.529 11.108-2.391-1.682-1.723-2.775-1.332-3.703-2.397l1.156-.956-.081-2.748c-.815-.115-2.279-.142-3.155-.187.162-1.185-.102-1.603-.415-2.82 1.827-1.474 1.76-2.822 1.788-4.967l-.125-.663c3.7-2.864 8.274-4.328 10.965.723q.605 1.157 1.156 2.342c1.72 1.042 1.071.747 3.445.553l.378-1.354c-1.338-2.794-1.027-2.553.428-4.932l-.364-1.025c-1.259-.725-1.374-.708-2.345-1.753.337-1.601.872-2.951.247-4.368-1.895-.286-8.084 2.888-10.133 3.844 1.933-1.977 5.711-5.914 8.282-6.38 1.029-4.318 4.542-2.761 8.63-4.479 4.352-1.495 5.254 2.111 9.315-3.355 1.38.399 2.237 1.934 3.189 3.17 1.121-.878 1.185-.829 1.923-2.016-1.983-2.517-5.797-1.552-9.597-2.51-.871-1.219-.543-1.328-.535-3.177-1.292-.95-.96-.468-1.65-1.784l.473-.396 1.224.968.945-.161c4.564-5.3 3.533-1.955 5.373-2.905-2.464-3.557-.414-1.851-.003-7.246-1.424-.618-2.306-.847-3.331-2.018l.308-.762c3.087.582 6.235 5.405 9.081.376.615-1.088.956-1.67 1.705-2.658 2.232.048 2.943.454 4.447-1.07.269-2.067.014-2.306-.872-4.304q.712-1.566 1.392-3.144c.208-.58.031-.203.772-.983l1.719.808.59-.426c-.107-2.011-.215-1.522-1.679-3.465l.254-.939c2.426-1.844 5.54-2.006 8.211-3.232 5.918-2.719 2.021-3.425 3.902-7.495 5.972-.247 7.013-4.863 12.088-7.899.627-.375 3.086.569 4.396-.698l-.854-1.128.524-.41c1.329.528 2.029.913 3.28 1.578a31 31 0 0 0 1.965-1.143l.648-.414c2.298.05 1.42-.176 3.477 1.489 1.841-1.377 2.39-2.036 4.566-2.434zm41.312 61.452c1.525-4.276 2.611-1.448 3.056-4.847-1.145-2.4-3.3-2.934-5.624-1.93.252 5.34.979 2.867 2.568 6.777m65.857 189.038c1.236 1.537 2.445 1.816 4.251 4.305.193-1.665.158-3.272.176-4.947-.488-.268-2.324-1.843-3.049-2.378-1.33.688-.719.296-1.505 2.274zm.431 264.851c2.253-1.196 2.618-1.365 5.115-1.838-1.975-2.399-4.476-2.965-7.307-1.123l.131.665 1.742 1.036zM380.246 558.147c-3.957-4.062-2.35-7.435-8.202-7.293 1.588 3.549 4.067 4.384 6.946 7.199zm230.591 27.399c.319-1.908 1.42-5.451.957-6.786-.697-.515-1.35-1.083-2.293-.786a62 62 0 0 1-2.638.287c.634 1.033 2.206 2.409 2.074 2.03.443 1.271 1.235 3.995 1.9 5.255m-30.273 115.977 4.051-.394c1.911-1.327 1.371-1.205 2.332-3.922-4.226.708-4.152.632-6.383 4.316m5.001-85.259.123-.94c-1.48-.499-1.52-.341-3.119-.29l-.84-.519-.077-.467c-.364-2.114-.425-3.493-2.141-4.79-.353 3.786.789 6.589 4.207 8.398 1.315-.467.814-.229 1.847-1.392m-10.269-187.29c-.992-1.886-.601-1.831-2.153-2.787-2.514 1.032-1.508 3.858-.788 5.866l1.16.421c.398-.622 1.399-2.738 1.781-3.5m-43.501 387.203c-2.131 3.758-4.28 3.965-5.822 6.511.818.724.342.437 1.451.823 1.841-1.617 4.69-3.792 5.811-5.806-.33-1.256-.004-.677-1.44-1.528m23.27-262.603c3.343.214 7.065-2.016 9.493-4.167.685-1.81 1.081-1.961 1.81-3.46-1.688-1.149-4.384-3.66-3.69-5.87 2.208.187 2.299 1.723 5.133 1.913.302-1.714.756-2.85-.057-4.311-1.377-.559-2.231-.171-3.7.172l-.225-.778c2.731-2.372.981-3.958-.983-6.719-4.009-.888-4.984 1.998-7.71-.848l-1.133-4.035-.77-.404-.854.286c.302 3.152 2.76 3.603 2.292 6.252-1.307.893-2.508.568-4.16.457-.861-.724-1.046-.928-1.779-1.786-4.233 2.751-5.304 4.543-9.079.446-4.065.95-3.12 4.385-6.414.374-1.11.904-.76.542-1.531 1.761a51 51 0 0 1-4.01-1.4c-.88.707-1.136.961-1.906 1.792-2.547.053-8.097.551-9.89-.526l.317-1.108-.388-.41c-1.748.159-4.068.569-5.653.028l-.761-1.181-.384.371c2.659 9.752-1.81 4.421-1.436 11.751l-1.689.69-.086.437c2.617.417 3.42-.4 5.622.817l.438.792c-.901 1.275-2.366 2.553-1.938 4.076.835 2.977 1.236 4.529 3.922 6.204l1.255-.313c-1.615-.998-3.291-1.742-3.05-3.811 2.576-1.533 8.783.403 11.116 2.129 1.333-.564 9.868-4.122 10.711-4.228l.557.575-1.034 1.713c1.594 1.184 5.083.201 6.267.414.07.012 3.371 1.791 4.454 2.129l.072.832c-1.419 1.36-2.516 2.279-4.052 3.507.162 1.936.87 2.635 2.694 3.327l.727-.347c.162-1.491.114-1.614-.073-3.122 1.902-3.339 5.104-2.355 6.86-3.45 1.657 1.997 2.62 3.041 4.572 4.76 2.233-.991-1.363-1.921.123-5.731m89.16-115.77c1.464-2.406 1.937-3.277.668-5.966l-.781-.451c-1.338 1.214-1.695 1.389-2.336 3.115.493 1.921.709 1.764 2.449 3.302m-49.613-163.587 1.822-1.45c.856 2.598-2.082 5.861-1.098 7.203 1.078 2.915 1.044 3.93 4.141 4.963-.531 2.647-.766 1.793.333 3.74 2.448 1.908 4.287.819 6.943.409l1.303.461.866-.679.531.188c.437 3.265-.216 6.745 4.469 6.986l.435-.106c2.198.506 3.082.876 5.171.002l-.671-2.817c-2.001-.703-4.358-.969-4.273-3.342 1.139-.847 1.343-.968 2.278-2.013-.701-.763-1.038-.937-1.907-1.506.217-.951.293-1.097.772-1.902-2.078-5.482-8.573-9.957-11.258-15.423-1.108 1.777-1.27 2.206-2.016 4.189-2.66-.491-3.879-1.907-3.931-4.593.846-1.802.234-1.106 1.883-2.181l1.726.552c-2.323-3.504-1.932-5.601-4.512-8.694-3.262-2.689-2.469-5.532-5.992-6.784-.621.475-1.116.989-1.611 1.593-.301-1.621-.324-.777.541-2.57-.33-1.726-.57-1.436-2.174-2.943l-.895 1.735c.176.408.358.91.592 1.265-1.096.558-1.859 1.017-3.032 1.395-.453 2.081-.215 2.793-1.456 4.013-3.358-.057-4.075-2.517-6.171-2.161-1.914 2.481.06 5.429.932 8.38-1.126 1.835-3.429 2.22-5.622 2.863 1.46 2.49 5.607 2.949 6.441 5.051l-.612.642.136.072-1.57-1.213-.472.463c.435 1.152.251.777 1.021 1.755-.632 2.031-1.21 3.106-1.424 5.274-2.913 1.254-.934-1.582-3.365.77-.484 2.184-.613 1.21-.015 3.064 5.409 1.484 3.881-6.552 9.525-7.707 3.198 1.759 1.017 4.693 5.447 5.239l.878-.511.136-1.939c1.715.708 1.703.876 2.91 2.226.47-.934.893-1.803 1.417-2.712l.953-.223zM313.84 587.988c-1.47.873-1.884.966-2.624 2.524l.356 1.757c2.138-.028 3.821.365 4.897-1.681-.785-1.811-.665-1.304-2.629-2.6m265.219-142.14c.398-1.772.254-1.839-.201-3.552-1.416-1.579-.9-1.424-3.234-1.484-.635 2.073-.575 1.008.141 3.311 1.823 1.713.943 1.335 3.294 1.725m45.677 38.296c-.181 2.302-.369 3.079.125 5.281l.911 1.061c1.544.082.795.113 2.402-.71.921-2.378 1.27-2.145.862-4.236-1.264-.975-2.696-1.072-4.3-1.396m-76.548-8.409c-.603-.837-.597-.757-1.373-1.462-1.537-.174-2.196.479-3.533 1.318.712 1.596.77 2.11 2.288 2.981 1.931-.388 1.998-.853 2.618-2.837M534.992 298.66c-.312 1.805-.869 3.39-.119 4.949 1.309.615.647.508 2.05.386.542-1.718.824-2.098.204-3.791-1.176-1.105-.741-.874-2.135-1.544M389.633 593.124c1.331-1.841.823-4.796-1.068-6.179-1.105 2.032-1.709 2.223-1.376 3.948zm217.855-263.699c.237-1.867.603-2.347 1.593-3.961-.458-1.646-.396-1.173-2.073-2.472-1.265 1.997-1.979 5.209.242 6.738zm-5.635 182.517.874-.078c-.392-1.417.529-5.718.807-7.528l.934.193c1.085 1.56.947 4.052 1.83 6.526 1.761.901.901.828 2.623.534l.704-1.177c.458-4.012-1.537-2.738-.176-7.427-1.398-1.163-1.772-1.697-3.581-1.889-1.25.683-1.271.782-2.306 1.795-2.281.303-3.615.265-5.17 1.838-.502 2.708 1.749 5.293 3.461 7.213m8.563-52.586c-2.581-3.392-.16-3.078-2.274-4.281-1.962.468-1.538.498-2.032 2.528.875 1.205.693.938 1.854 1.934.638.51.725.486 1.472.844zm-21.145-163.932c1.276-.226 1.286-.494 2.226-1.474l.356-1.429c-.42-.565-.434-.718-.979-1.106-1.662.765-3.119 1.039-3.769 2.389.936.868 1.071.951 2.166 1.62m-66.186 192.195c1.423-.49 2.494-.645 3.354-1.827l-.363-.736-1.656-.557-2.904 2.203-.039.643zm-51.256-249.744c-3.966-2.751-3.255-2.618-7.362-.708 1.045 1.899 1.086 2.242 2.845 3.344 2.741.39 3.118-.363 4.517-2.636m46.769 211.285c.621-2.343.762-1.305.014-3.256-1.464-1.092-1.97-1.141-3.686-1.647.377 1.83.51 3.749 1.803 4.985 1.165.201.733.237 1.869-.082m33.619-239.787.078 1.459c1.495 1.257 2.166 1.36 3.986 1.987-.626-1.756-.524-1.791-2.026-3.019-.802-.201-1.216-.341-2.038-.427m-.974 62.762c1.747-1.212 2.012-.993 2.83-2.637-.276-.521-.336-.798-.739-1.153-1.839 1.215-2.181.982-2.84 2.633zm25.749 183.335c2.295 1.46 3.635 1.087 5.516 2.584-.147 2.082-1.948 2.996-3.588 4.156 4.012 3.664 1.778 3.763 3.189 6.279l.909.076a77 77 0 0 1-.353-3.059c1.016-1.423.963-1.314 2.517-2.152 1.291.611 1.636 2.899 3.02 5.15 1.58.621.965.427 2.826.293l-.075-.522c.033.014-1.291-.531-1.25-.535-1.572.148 1.255-5.482.826-7.426-.473-2.142-2.538-2.247-3.781-3.862l-1.276-3.589c-2.81-.074-1.593.239-3.796 1.432-.918.496-2.844-2.628-5.082-3.073-.327 2.161.277 2.091.398 4.248m-48.318-56.922-.3.953c1.618 1.173 2.032.851 3.512 1.604l.076-1.362c-1.131-1.147-1.35-.835-3.288-1.195m124.554 55.218c1.256-.671 2.267-.981 2.842-2.224-.7-.787-.329-.642-.899-.786-1.704.861-2.529.834-2.976 2.143zm-348.634 163.29.862-.331.261-.848.518.198.041-.438c-1.357-.069-2.41.073-3.75.205l-.499-.504c1.339-1.512 1.095-.698 1.239-2.344-1.056-1.389-.926-1.398-2.569-1.906l-.551.389.663.863c-.079 2.288-.518 2.896.474 4.449 1.575.348 1.749.296 3.311.267m238.475-34.188c1.425 1.577 1.99 2.556 3.929 3.159 1.556-.095 1.444-.102 2.737-1l-.108-.76c-2.391-.688-4.137-.983-6.558-1.399m159.639 104.114.778-1.181c-1.872-1.106-2.644-1.394-4.695-2.192-.287 2.434-.567 1.833.34 3.746 1.567.635 2.032.58 3.577-.373m-46.003-341.891c-1.594-1.362-3.002-2.357-4.7-3.573l-.914 1.017c.298 2.568 2.17 3.84 4.726 3.717zm-222.57-73.205c-.902 1.858-.818.908-.152 2.957 1.74 1.527 1.715 1.603 4.148 1.523l.75-1.683c-.619-1.371-.718-1.335-2.534-2.012q-1.102-.403-2.212-.785m241.83 195.545.145 1.54c1.702.986 2.868 1.153 4.798 1.644-.413-2.084.061-1.235-1.381-2.686-1.714-.507-1.67-.542-3.562-.498M563.981 480.36c.972-1.799.916-.921.411-2.702-1.445-1.074-1.333-1.038-3.07-1.481-1.26 1.864-1.154.95-.829 2.756 1.394 1.147 1.747 1.104 3.488 1.427m-74.187-284.652c-.905 1.668-1.295 1.667-1.078 3.167 1.49.644 1.948.336 2.944.683l1.189.161.186-.675c-1.317-1.811-1.465-1.931-3.241-3.336m29.479 232.404c-.061-2.076.263-1.79-.716-3.247-1.718-.495-1.875-.408-3.615-.37.575 1.633.685 2.521 2.057 3.555 1.393.311.872.316 2.274.062m61.343 120.944c1.58 1.232 2.865 2.577 4.807 2.651.953-.336 2.102-.705 3.019-1.081l.093-.465c-4.022-1.182-4.868-.452-7.919-1.105m12.266-63.137c2.47 1.202 3.555 1.613 6.181 2.434.923-1.358-.647.037.02-3.271-1.15-2.02-.372-1.273-2.392-2.355-2.458.129-3.305.727-3.809 3.192m26.084-166.789c.805 3.05 1.2 5.794 4.962 5.229 1.337-.968 1.294-.884 2.202-2.248.16-1.443.307-.768-.615-2.05-3.025-.311-3.615.048-6.549-.931m-60.294-52.426c-.672 3.741-.26 5.06 3.539 6.642l1.405-.304c.98-2.004.889-1.011.45-3.066-2.11-2.019-2.99-1.703-5.394-3.272m53.776 194.165c.879 1.488.805 1.574 2.351 2.472 1.231.106 1.084.173 2.273-.007l.937-1.822c.803-1.549 1.681-2.568.266-4.005-2.452.101-3.813 1.729-5.827 3.362m-38.444 29.689c1.899-.524 2.318-1.212 4.197-1.119 2.164 2.354 4.899 4.828 7.24.815-1.602-2.194-4.049-2.516-6.401-1.447l-1.217-.632c-1.836-3.102-1.507-2.897-4.493-3.68l-.874-.132c-.739 1.477-1.465 3.881-1.218 5.547l2.038-.141zm59.473 21.769c-1.86 2.396-4.646 4.98-1.804 7.688 1.985.491 3.089.129 4.998-.639-.312-.482-.435-.775-.843-1.147-1.607-1.625-1.857-1.729-2.527-3.828l.191-.757c1.442.306 1.792.667 3.038 1.461l.662-.71c-.381-1.498.017-.891-1.325-1.819zm-194.09-231.119c2.264 1.042 2.791 1.04 5.11-.058l-.413-1.993c-1.019-1.101-.393-.783-1.999-.862-1.703 1.188-1.615 1.125-2.698 2.913m146.883 257.27c-2.434 1.055-2.528.942-5.272.986-2.317 2.071-.556 2.212-2.53 4.69.702 1.892.743 1.972 1.854 3.657-.007-.705.069-.882-.138-1.522.678-1.534.981-2.69 2.296-3.69 3.109.271 2.816 2.932 4.793 1.641 1.015-3.022.895-3.201-1.003-5.762M459.783 242.491c-.56 2.015-.77 1.299-.238 2.819l-.241 1.073-1.203-.103-.341.729c.97 1.455 3.526 2.5 5.253 4.302l1.528.264 1.419-.704c.167-2.499-.04-5.868-1.898-7.725-1.03-1.03-1.905.171-4.279-.655m148.345 63.917c-2.371-.48-2.578-.947-4.425-.215-.417 1.816 1.053 2.705 2.365 3.741 2.248-1.165 2.14-1.24 2.06-3.526M341.972 578.291c-.612 2.499-.728 3.054-.732 5.615-2.561 2.976-4.907.476-5.17 4.78l2.72 1.654c1.103-.516.972-.425 1.989-1.134 2.065-.589 2.903-.758 5.034-1.015.482-1.835.997-4.547 2.058-5.996-1.141-.548-1.789-.285-3.08-.109-1.814-.995-1.271-2.33-2.819-3.795m243.616-96.065c3.956 3.264 1.37 3.234 2.739 7.623 2.15.525 3.196-1.868 4.18-3.482-3.069-2.019-2.928-2.539-5.337-5.091zm-8.661-240.734.535 2.259c.688 1.803.643 2.463 2.036 3.087 1.33-.511 1.863-1.467 2.769-2.607l-.094-.642c-2.261-.414-3.199-.319-4.84-1.93zM625.82 385.79c2.177 1.944 2.496 2.325 5.535 2.423-.425-1.71-.923-2.757-2.374-3.708-2.007.017-1.275-.106-3.161 1.285"/><path fill="#e3e2e2" fill-opacity=".012" d="m300.809 612.34-.663-.863.551-.389c1.643.508 1.513.517 2.569 1.906-.144 1.646.1.832-1.239 2.344l.499.504c1.34-.132 2.393-.274 3.75-.205l-.041.438-.518-.198-.261.848-.862.331c-1.562.029-1.736.081-3.311-.267-.992-1.553-.553-2.161-.474-4.449"/><path fill="#2f3e2f" d="M588.08 250.5c-.234-.355-.416-.857-.592-1.265l.895-1.735c1.604 1.507 1.844 1.217 2.174 2.943-.865 1.793-.842.949-.541 2.57.495-.604.99-1.118 1.611-1.593 3.523 1.252 2.73 4.095 5.992 6.784 2.58 3.093 2.189 5.19 4.512 8.694l-1.726-.552c-1.649 1.075-1.037.379-1.883 2.181.052 2.686 1.271 4.102 3.931 4.593.746-1.983.908-2.412 2.016-4.189 2.685 5.466 9.18 9.941 11.258 15.423-.479.805-.555.951-.772 1.902.869.569 1.206.743 1.907 1.506-.935 1.045-1.139 1.166-2.278 2.013-.085 2.373 2.272 2.639 4.273 3.342l.671 2.817c-2.089.874-2.973.504-5.171-.002l-.435.106c-1.485-2.136-.738-4.334-1.042-6.913l-1.073-.772-2.354.699-.531-.188-.866.679-1.303-.461c-2.656.41-4.495 1.499-6.943-.409-1.099-1.947-.864-1.093-.333-3.74.959-.727.742-.526 1.5-1.394-.682-2.118-.423-1.433-2.476-3.049-1.346-.075-1.862-.228-3.165-.52-.984-1.342 1.954-4.605 1.098-7.203l-1.822 1.45-.475 1.024-.953.223c-.524.909-.947 1.778-1.417 2.712-1.207-1.35-1.195-1.518-2.91-2.226l-.136 1.939-.878.511c-4.43-.546-2.249-3.48-5.447-5.239-5.644 1.155-4.116 9.191-9.525 7.707-.598-1.854-.469-.88.015-3.064 2.431-2.352.452.484 3.365-.77.214-2.168.792-3.243 1.424-5.274-.77-.978-.586-.603-1.021-1.755l.472-.463 1.57 1.213-.136-.072.612-.642c-.834-2.102-4.981-2.561-6.441-5.051 2.193-.643 4.496-1.028 5.622-2.863-.872-2.951-2.846-5.899-.932-8.38 2.096-.356 2.813 2.104 6.171 2.161 1.241-1.22 1.003-1.932 1.456-4.013 1.173-.378 1.936-.837 3.032-1.395m-1.985 4.388c-.842 2.467-1.072 1.954-.602 4.142l.787.725c1.833-.238 2.368-.482 3.551-2.082-2.201-1.201-1.526-2.308-3.736-2.785m19.633 23.66c.925-2.216 1.461-2.408 1.096-4.337-1.362-.946-2.601-.735-4.31-.756 1.093 2.262 2.052 3.176 3.214 5.093"/><path fill="#e3e2e2" fill-opacity=".012" d="M602.514 273.455c1.709.021 2.948-.19 4.31.756.365 1.929-.171 2.121-1.096 4.337-1.162-1.917-2.121-2.831-3.214-5.093"/><path fill="#354435" d="M604.469 268.931c2.685 5.466 9.18 9.941 11.258 15.423-.479.805-.555.951-.772 1.902.869.569 1.206.743 1.907 1.506-.935 1.045-1.139 1.166-2.278 2.013-.085 2.373 2.272 2.639 4.273 3.342l.671 2.817c-2.089.874-2.973.504-5.171-.002l-.435.106c-1.485-2.136-.738-4.334-1.042-6.913l-1.073-.772-2.354.699-.531-.188-.866.679-1.303-.461.709-2.235c-.749-1.408-1.522-2.456-1.513-4.012.968-1.297 1.271-1.349 2.694-2.052l.428-.206c-2.085-1.082-2.02-.183-3.343-2.029.925-2.216 1.461-2.408 1.096-4.337-1.362-.946-2.601-.735-4.31-.756l-.061-.335c.746-1.983.908-2.412 2.016-4.189"/><path fill="#425242" d="M588.08 250.5c-.234-.355-.416-.857-.592-1.265l.895-1.735c1.604 1.507 1.844 1.217 2.174 2.943-.865 1.793-.842.949-.541 2.57.495-.604.99-1.118 1.611-1.593 3.523 1.252 2.73 4.095 5.992 6.784-2.996.12-3.613-.578-6.379-1.428l-1.409.897c-2.201-1.201-1.526-2.308-3.736-2.785-.937-3.329 1.382-.92 2.702-3.34z"/><path fill="#425242" d="M594.612 274.217c-1.977-.759-2.061-.404-2.963-1.821l.303-1.191c1.64-1.107.758-.806 2.754-.912 1.598.995.906.324 1.728 2.474z"/><path fill="#2f3e2f" d="m646.186 332.478-.849-1.41c1.097-2.331 3.694.631 6.359-.467l.042-1.109c-1.001-2.744-5.233-2.943-5.692-6.188l1.008-1.249c1.911 2.816 4.757 5.033 6.998 7.498 1.619 1.781-.17 7.824 3.911 6.407l.853-.827c5.862 1.654 5.598 5.818 4.232 10.448-.929-2.51.199-4.48-1.571-6.4-1.95.26-3.12 1.507-3.618 3.302.608 1.586 1.084 2.386.91 4.077-.739.985-3.046 4.302-3.863 4.77l-.198-1.057-2.437-.047c-.189-1.468-.063-2.461.004-3.936-1.352 1.594-3.953 3.073-6.056 2.92-.59-.807-.5-.744-1.232-1.426-1.461 1.38-1.373 1.78-3.264 2.324-.471-1.853.429-3.169-.805-5.117-1.45-.355-1.942-.526-3.333-1.078.53-.473.959-.797 1.52-1.23l-.32-.439-1.44.063c-1.783 1.192-1.081.42-2 2.552-.977.518-2.177.011-3.628-.185l-.631-.081-.027-.707c5.788-2.448 2.462-1.832 6.362-5.468l-.293-.426c-2.265.64-1.316 2.5-3.352 3.023.286-1.018.312-1.264.421-2.322l-1.205-.665.5-1.565c3.777.674 5.016-1.825 8.511-2.662 1.043-.249 1.581.504 2.769 1.318l.602-.14-.191-.65-.242-.793zm10.519 12.613c-1.594-1.362-3.002-2.357-4.7-3.573l-.914 1.017c.298 2.568 2.17 3.84 4.726 3.717z"/><path fill="#354435" d="m646.186 332.478-.849-1.41c1.097-2.331 3.694.631 6.359-.467l.042-1.109c-1.001-2.744-5.233-2.943-5.692-6.188l1.008-1.249c1.911 2.816 4.757 5.033 6.998 7.498 1.619 1.781-.17 7.824 3.911 6.407-.282 1.025-.302 1.168-.869 2.088-.086 2.431-.16 4.61-.389 7.043-1.594-1.362-3.002-2.357-4.7-3.573l.66-1.316c-.932-1.809-1.539-1.842-2.796-4.47.452-.991.583-1.184 1.23-2.02l.575-.736c-1.428-2.273-2.851.378-5.488-.498"/><path fill="#2f3e2f" d="m442.429 262.358.736.106 1.062.968.769-.119c1.24.616.682.311 1.534 1.951-.182 2.94-.51 1.363-1.654 4.162a70 70 0 0 0 2.866 2.686c-.639.245-1.153.506-1.738.841l.043 1.04 1.297.177c.042 1.548-1.461 3.088-2.492 4.337l-.355 2.643-.413-1.993c-1.019-1.101-.393-.783-1.999-.862-1.703 1.188-1.615 1.125-2.698 2.913-2.392.11-3.708-.827-5.299-.502l-.136.78 1.264.303c-.218 1.276.086.745-.935 1.581-2.126-.142-4.06-.933-5.389-.509-.455 1.311-.305 1.306.113 2.675 1.723.789 3.876-.472 4.62 1.662.462 1.325.534 2.676-.093 3.957-.425.869-1.792 3.729-2.596 3.966-.652.193-.385.157-.918.169l-.259-.56c-2.727.305-6.375-.337-6.556-3.64 2.307-.264 5.096-1.591 6.137-3.733-5.135-6.292 2.543-6.149 1.744-13.123-1.436-1.452-2.248-1.067-4.683-1.874-.455-2.185 2.973-6.666 5.017-7.323l2.218.599c-.12 1.269-.086 1.218.232 2.466 3.625 3.502 11.929 3.529 11.108-2.391-1.682-1.723-2.775-1.332-3.703-2.397zm-4.298 14.008.75-1.683c-.619-1.371-.718-1.335-2.534-2.012q-1.102-.403-2.212-.785c-.902 1.858-.818.908-.152 2.957 1.74 1.527 1.715 1.603 4.148 1.523"/><path fill="#2f3e2f" d="m440.566 251.636-.125-.663c3.7-2.864 8.274-4.328 10.965.723q.605 1.157 1.156 2.342c1.72 1.042 1.071.747 3.445.553-.154 1.571-.207 4.076-.975 5.296-3.176-.132-3.882.314-5.903 2.713l.07.39c1.951-.527 2.265-.612 4.198-.042 1.186 1.141.884.473 1.042 2.02-1.073 1.492-.396.991-2.049 1.626l-.438-.249.281-1.458c-1.845-.011-1.358.567-3.017 1.598-1.556-.333-.963.057-1.91-1.086-.291-2.172.475-4.392 1.004-6.583.039.005-2.752 1.186-4.476 1.351-.527 1.101-.494 1.078-.669 2.297l-.736-.106-.081-2.748c-.815-.115-2.279-.142-3.155-.187.162-1.185-.102-1.603-.415-2.82 1.827-1.474 1.76-2.822 1.788-4.967"/><path fill="#425242" d="M440.566 251.636c2.296 3.249 3.327 3.423 2.501 7.618l-.719.356c-.815-.115-2.279-.142-3.155-.187.162-1.185-.102-1.603-.415-2.82 1.827-1.474 1.76-2.822 1.788-4.967"/><path fill="#2f3e2f" d="M461.13 234.144c4.352-1.495 5.254 2.111 9.315-3.355 1.38.399 2.237 1.934 3.189 3.17.243 1.745.282 1.636 1.263 3.134l.365.954c2.989 1.949 3.295-.313 4.105 1.644-1.129 1.03-4.324 1.022-6.049 1.134-1.662 1.174-1.77 1.325-3.066 2.93-.181-1.597.197-.999-.894-1.981-4.423-.424-4.522-2.986-7.135-3.105-2.081 1.477-1.367 1.438-3.477 1.395-1.393-.8-1.272-.842-2.062-2.281l-2.914 1.323-1.27-.483c1.029-4.318 4.542-2.761 8.63-4.479m10.699 3.731c-3.966-2.751-3.255-2.618-7.362-.708 1.045 1.899 1.086 2.242 2.845 3.344 2.741.39 3.118-.363 4.517-2.636"/><path fill="#354435" d="M461.13 234.144c4.352-1.495 5.254 2.111 9.315-3.355 1.38.399 2.237 1.934 3.189 3.17.243 1.745.282 1.636 1.263 3.134-1.397.485-1.618.575-3.068.782-3.966-2.751-3.255-2.618-7.362-.708-.275-.448-2.306-1.685-3.337-3.023"/><path fill="#2f3e2f" d="M566.566 835.203c2.435-.104 2.161-.502 3.655.631 1.146 3.923.167 3.531-2.214 6.509.613 1.556 1.353 1.614 1.361 1.701.401 4.793.813 12.982-.827 17.107a98 98 0 0 1-4.233.433l-.029-.529.476-.193-.051-.714c-1.083-.935-2.124-1.727-3.255-2.593-.97-3.049.316.293 1.612-2.818-8.64-7.808 12.298-11.364 3.505-19.534"/><path fill="#354435" d="M568.054 221.248c5.107.938 8.567 9.758 13.823 14.312.265.974.321.643.138 1.536l-1.434 1.073c.333.949.936 2.023 1.401 2.942l-.366.664c-2.267.562-2.228-.016-4.283-.116l-.406-.167-.265-.709.289-.838c-.407-1.067-.658-1.572-1.189-2.587-1.842-.197-.891-.258-2.914.878l-.081 1-.452.01.419-.15c-.974.017-.599.111-1.434-.43.52-2.799.583-1.001 3.091-3.578-1.224-.392-2.392-.637-3.642-.923 1.525-4.276 2.611-1.448 3.056-4.847-1.145-2.4-3.3-2.934-5.624-1.93-.459-1.66.521-.012 2.146-3.901l-.566-.607c-1.819.608-.624 2.243-2.93 2.991l-.767-.581c1.539-1.255 1.634-1.49 1.356-3.292z"/><path fill="#2f3e2f" d="M613.266 387.639c-.147-.395-.205-.94-.28-1.378l2.194 1.186.824-.292c.898-2.829-1.526-6.446-.849-8.735l1.017-.13c-.824-.361-.43-.081-1.09-.957.465-.996.095-.66 1.077-1.044l1.018 1.12.331-1.45c1.704 2.136 5.384 1.788 8.125 2.082-.11.251-3.532 3.538-4.325 4.572l1.808 2.488c1.032.337 1.353.342 2.436.256l.268.433c2.177 1.944 2.496 2.325 5.535 2.423l-.613 1.153c-7.122 6.588-6.579-7.262-11.738-5.053.529 5.055-2.081 4.569-5.738 3.326"/><path fill="#2f3e2f" d="M577.333 241.659c2.055.1 2.016.678 4.283.116l.366-.664c-.465-.919-1.068-1.993-1.401-2.942l1.434-1.073c3.069 2.458 6.711 6.228 6.368 10.404l-.895 1.735c.176.408.358.91.592 1.265-1.096.558-1.859 1.017-3.032 1.395-1.562-.983-1.949-1.258-3.863-1.194-.764.026-2.059-1.66-3.159-2.528l-.519.304-.484.924c-.034-1.776.258-3.853.439-5.65.688 1.803.643 2.463 2.036 3.087 1.33-.511 1.863-1.467 2.769-2.607l-.094-.642c-2.261-.414-3.199-.319-4.84-1.93"/><path fill="#354435" d="M308.072 592.367c-1.855-1.71-2.757-1.795-1.788-4.076 2.508-1.355 1.579 1.118 3.973.46.003-2.158-.351-3.549 1.631-4.705 2.068 1.146 4.167 2.78 6.461 1.731 1.523-3.721-1.797-3.118-2.587-7.122.382-1.783.743-1.919 2.108-3.107 2.366.368.976 2.726 3.622 3.417l.892-.665 1.005 1.664c1.234.03 1.188.057 2.36-.304l.358.948c-1.045.748-.598.521-1.931.746-4.784 8.613-5.527 2.553-10.336 6.634-1.47.873-1.884.966-2.624 2.524l.356 1.757c-.675-.341-1.301-.628-1.987-.943z"/><path fill="#354435" d="M438.024 697.082c1.536-.49 1.294-.531 2.58-1.673l.411-.369 1.919 1.687.719-.158c-.107-5.242-.182-1.164-1.641-4.067l.623-.774.985.011c.897 2.888.632 2.137 3.361 3.511-.45.955-.501 1.589-.612 2.635-1.427-.157-1.412-.259-2.796-.075-.36 1.729.562 3.049 1.432 4.636-.916 2.177-2.764 2.085-4.975 2.41-1.482.925-1.472 1.27-2.942 1.26l-.644-1.19c.321-2.939 1.293-3.317 1.858-6.047l.097-.497.463-.563z"/><path fill="#2f3e2f" d="M438.399 698.382c2.458 2.753 1.054 3.219 1.631 6.474-1.482.925-1.472 1.27-2.942 1.26l-.644-1.19c.321-2.939 1.293-3.317 1.858-6.047z"/><path fill="#2f3e2f" d="M297.445 615.563c.963-.586 2.445-2.319 3.364-3.223-.079 2.288-.518 2.896.474 4.449 1.575.348 1.749.296 3.311.267l.044.624c-2.296.768-10.522 7.256-13.092 3.85.144-1.336.075-1.285.754-2.424-.923-1.182-1.657-2.589-1.115-4.006 1.806-.479 3.339.371 5.138 1.047z"/><path fill="#2f3e2f" d="M292.3 619.106c-.923-1.182-1.657-2.589-1.115-4.006 1.806-.479 3.339.371 5.138 1.047-.782.906-1.134 1.34-1.596 2.442q-1.22.229-2.427.517"/><path fill="#19241e" d="M344.082 426.444c2.021-2.296-.394-.534 1.086-2.89 4.986 3.066 3.652-1.105 4.693-2.799l.915.092c.307.885.565 1.758.759 2.674 1.282.17.861.019 2.01.58.576 1.987.415 2.79 1.711 3.898l1.443.135-.066.975c-1.034.833-.987.921-2.25 1.225-2.546 3.198-8.021-1.761-10.301-3.89"/><path fill="#2f3e2f" d="M616.073 403.337c1.654 1.342 1.87 1.461 3.907 2.078l1.308-.265c1.032-1.578 1.22-2.369 1.824-4.12l.614-.094c3.08 2.524 2.868 5.258 4.964 8.494-.21 1.806-1.148 2.662-2.54 3.73-3.388-.633-.546-.8-2.698-3.281l-2.526-.034-.219-.641c1.115-.251 1.592-.357 2.657-.755l.055-1.01c-1.123-1.151-1.038-1.072-2.613-1.438-2.928.385-2.576 2.509-4.986 2.71l-.418-.64c.105-1.776.062-3.053.671-4.734"/><path fill="#354435" d="M334.876 416.938c-.057-2.154-.032-2.628 1.13-4.09 5.502-.604 1.698-.827 3.869-3.696q1.2.42 2.381.893c.803-1.71.236-1.004 1.842-2.132 2.283 2.738 2.199 1.846 1.328 5.347.672 1.514 1.26 2.016.914 3.235l-1.555-.556-.184 1.714-.36.289c-2.304-1.817.398-3.47-5.609-.221l-1.173-.149-.686-1.052c.812-1.526.952-1.668 1.998-2.949l.041-.293c-1.196-.223-1.139-.137-2.274.369a25 25 0 0 0-1.151 3.183z"/><path fill="#2f3e2f" d="M570.032 703.247c6.752-3.376 2.349-2.174 8.778-.559l.882-1.347.872.182c.036 2.11-.67 2.488-2.154 4.266.041 1.181-.06.78.517 1.873-1.923.436-3.097.757-5.051.87-1.526-1.087-1.259-2.689-3.109-4.596-.427-.171-.126-.023-.735-.689"/><path fill="#2f3e2f" d="M298.297 600.901c2.628-2.009 4.289-5.407 6.534-6.159l.697.926c1.827 1.559 3.931 3.043 4.147 5.609-1.622 2.466-8.515.246-11.378-.376"/><path fill="#2f3e2f" d="M402.028 708.941c2.609-2.616 3.591-1.801 7.021-1.908 1.501-1.266 1.922-1.482 3.668-2.437l.17 2.998c-6.124 2.97-2.284 2.968-4.88 6.335l-.966.361c-3.617-1.899-4.134-1.563-5.013-5.349"/><path fill="#354435" d="m327.375 431.336 2.421-.554.311.358c-.392 1.715-.448.846.551 2.649 2.542.012 3.296-.818 5.681-1.515l-.281-.935c-1.552.045-2.035.34-3.13-.33l.436-1.124c2.993-1.207 4.624 1.168 4.664 4.046-1.976-.582-3.249.731-5.3.652-2.389-.091-2.234 1.303-2.928 3.239-1.499.606-3.906.93-5.308-.046-.098-2.248 1.212-4.417 2.968-5.751z"/><path fill="#2f3e2f" d="M560.853 763.138c2.81-.131 7.98 4.033 6.153 7.736l-2.263 1.402c-7.335-1.274-4.475-3.467-3.978-8.221z"/><path fill="#354435" d="m564.743 772.276 2.263-1.402c.664 4.88 5.297 10.131-2.121 11.003-.095-.444-.008-.141-.476-.871l-.433-.669.245-1.032c-1.26-3.835-1.183-3.7.522-7.029"/><path fill="#354435" d="M632.178 414.532c.792-2.044.334-1.7 1.834-2.915 1.731.831 2.422 2.997 2.707 3.072 2.841.747 5.207.699 4.848 4.742l-1.215-.328c-.731-2.026-.443-2.376-1.857-3.293-1.356.608-1.476 1.522-1.679 3.013 1.957 1.248 2.612.773 4.161 2.699.126.935.226.603.056 1.039-.488-.268-2.324-1.843-3.049-2.378-1.33.688-.719.296-1.505 2.274-1.904-1.253-1.515-.464-1.881-2.107.851-.906.908-.925 1.498-2.004l-.32-.981c-3.016-1.817-1.796.301-3.598-2.833"/><path fill="#2f3e2f" d="M567.42 221.998c-7.815 1.683-5.612-3.764-3.585-7.998 1.449 3.526 6.772 2.523 4.219 7.248z"/><path fill="#2f3e2f" d="M395.349 328.952c-.149-1.731-.185-2.567-.153-4.298l.561-.317 1.525 1.042c2.255-.192 2.408-4.321 5.497-5.378l.625.489-.55 2.992.339.894c-.123.106-.501.599-1.154.789-3.526 1.024-3.901 4.719-5.253 4.966z"/><path fill="#2f3e2f" d="M633.938 542.797c-1.009-1.257-.659-.513-.512-2.563 1.299-1.623 5.208-3.664 7.267-4.176l.391.631-.16.408c-.668 1.737-.7 1.9-.894 3.724-1.47.652-.923.451-2.639.512-1.105 1.393-.809 2.017-.639 4.091l-1.739-.924z"/><path fill="#354435" d="M384.576 344.927c-2.873-2.261-3.258-.462-6.513-2.38l.159-.712c3.294-1.626 3.623.019 6.058-1.18.188-.702.36-1.305.571-2.011 3.462 1.249 2.189 1.263 5.308.634-1.323 1.055-2.34 1.745-2.823 3.474s-.446.87-2.299 1.153z"/><path fill="#354435" d="m687.73 369.945 1.561.136c-.24 1.024-.134.652-.843 1.554 2.111.083 2.846-.295 4.749.885 1.028 1.497.942 1.398 1.089 3.225-1.247 1.205-1.803 1.279-3.412 1.858l-.955-.014c-.832-1.077-3.05-5.495-3.094-6.874z"/><path fill="#354435" d="m633.938 542.797 1.075 1.703c-2.986 2.659-1.443 4.417-.172 7.93-1.745-.087-5.291.087-6.393-1.201.556-1.168 1.024-1.843.964-3.132l-1.195-.116-.186-.391 1.433-1.084c3.526-.391 2.997-.58 4.474-3.709"/><path fill="#2f3e2f" d="M634.16 313.274c.856-1.687 1.158-2.819 2.827-3.624 2.45.109 2.942 2.879 2.582 4.855-2.748-.033-.063 3.055-1.285 5.442l-1.296.283-.423-.481c.564-1.218 1.129-2.029.944-3.322-1.318-1.703-.919-1.174-3.308-2.003z"/><path fill="#354435" d="M729.513 698.972c-.238-1.45-.969-2.101-1.485-3.497 1.331-.169.693-.255 1.901.508l.131 2.096.653.172c2.475-.749 3.355-1.215 5.715.196l.172.547c1.365-.187 3.082.713 4.384 1.221l.174.538c-.87.346-3.865-.233-5.625-.043-.691.911-.414.447-.86 1.374-3.384-.929-2.509-1.651-5.16-3.112"/><path fill="#2f3e2f" d="m561.153 748.106 1.805-.831.379-1.355 1.326-.275c1.651 1.99-.632 6.751-1.744 8.769l-.962.164c-1.852-2.668-2.695-3.391-.804-6.472"/><path fill="#354435" d="M412.717 704.596c.632.089.205.002 1.227.446l.093 1.34.694.176c1.315-.988 1.015-2.008 2.049-3.409 3.095 1.927 1.455 1.69 4.582 1.482l.192 1.132c-.824.875-.555.668-1.573 1.329-5.387 3.315-2.649 1.758-7.094.502z"/><path fill="#2f3e2f" d="M564.295 704.303c.605-.789 3.113-2.317 4.159-2.422l1.578 1.366c.609.666.308.518.735.689l-1.693.735c-.705 2.158-.319 3.7-1.954 5.807l-1.391-.553c-.374-1.528-.799-4.374-1.434-5.622"/><path fill="#2f3e2f" d="M377.443 720.163c1.673-.382 1.897-.303 3.269-1.376l-.016-.864-2.656-1.896.043-.794 1.224-.667c2.6 1.303 4.308.446 5.556 1.784l-.067 1.762c-.876.653-.377.416-1.518.669-.447 1.403-.481 1.529-.628 2.99-1.103.544-4.129-1.098-5.207-1.608"/><path fill="#2f3e2f" d="M636.606 423.203c1.236 1.537 2.445 1.816 4.251 4.305-.589 1.996-.514 2.247-2.086 3.128-.931-1.441-.554-1.173-1.822-2.165l-1.282.934c-1.249-.925-.825-.348-1.37-1.752.522-2.474 1.531-2.126 2.309-4.45"/><path fill="#2f3e2f" d="m690.414 703.87.071-.846c1.689-1.348 8.491-1.382 10.396-.517l-2.203 1.601c-1.596-.436-1.118-.641-2.216-.189-1.059 2.047-.297 1.491-1.963 2.24-2.01-.376-2.624-.749-4.085-2.289"/><path fill="#2f3e2f" d="M541.499 186.938c4.105 1.878 2.329 2.342 4.625 5.66-.879.736-.842.733-1.895 1.171-2.718-1.348-4.066-2.931-3.991-6.127z"/><path fill="#2f3e2f" d="m389.568 419.04-.125-1.46c1.496-1.329 6.745-2.842 8.856-2.439-2.089 2.361-3.372 3.799-6.291 4.982-1.257-.367-1.298-.417-2.44-1.083"/><path fill="#2f3e2f" d="M537.23 180.839c1.081 1.355 3.976 4.633 4.269 6.099l-1.261.704-.39-.41c-2.447.054-4.018-.333-4.541-2.904.912-1.869.491-2.009 1.923-3.489"/><path fill="#2f3e2f" d="M389.538 605.408c-1.681-1.722-2.428-2.216-2.42-4.529 1.117-1.241 1.103-1.114 2.741-1.581 1.127 1.875 2.144 4.917 1.462 7.052-1.311-.101-.685.096-1.783-.942"/><path fill="#354435" d="m640.159 704.102.406.893-.304 1.332 1.538 1.111c-4.629 1.268-6.432 1.418-8.623-2.726l1.663.054.462.41c2.521-.11 3.355.333 4.858-1.074"/><path fill="#2f3e2f" d="m422.824 411.036.941.35c2.405.869 3.349.114 4.973 1.517-.448 2.039-1.111 2.07-2.942 2.901-2.618-1.239-2.548-2.113-2.972-4.768"/><path fill="#19241e" d="M691.355 619.787c1.287 1.758 1.686 2.205 2.527 4.17-2.043.696-3.373 1.204-5.371.149l-.122-1.008c.931-1.813 1.332-1.978 2.966-3.311"/><path fill="#2f3e2f" d="M608.009 392.564c1.62 1.255 2.018 1.416 3.003 3.139-.302 2.285-1.687 2.269-3.766 2.852-3.025-2.995-.176-1.368.763-5.991"/><path fill="#2f3e2f" d="M329.509 730.76c1.476-.237 2.372-1.125 3.6-2.037.867.706 1.821 1.36 2.473 2.225-2.055.709-2.016 2.747-5.178 2.382-1.183-1.291-.776-.515-.895-2.57"/><path fill="#425242" d="M654.007 544.845c3.704-.487 1.866.554 5.156.894.774.894.757.868 1.243 1.946-.697 1.398-.182.935-1.483 1.552-2.484-.489-3.302-2.64-4.916-4.392"/><path fill="#2f3e2f" d="M634.839 704.766c1.338-1.961-.254-2.134 2.574-3.834l1.116 2.66 1.63.51c-1.503 1.407-2.337.964-4.858 1.074z"/><path fill="#354435" d="M323.379 683.805c1.497-.47 1.03-.149 2.154-1.118l-.79-1.657.332-.653 2.113-.595 2.006 1.519c-.226 2.385-3.739 2.393-5.815 2.504"/><path fill="#2f3e2f" d="m328.762 730.322.274-.902c1.87-.893.909-1.943 3.686-3.41l1.114.449.229.786-.956 1.478c-1.228.912-2.124 1.8-3.6 2.037z"/><path fill="#2f3e2f" d="M413.507 435.784c-.707-1.634-.898-1.739-.784-3.546 1.28-.807.554-.617 2.323-.226.4 1.435.487 1.56 1.581 2.572a24 24 0 0 0-3.12 1.2"/><path fill="#354435" d="M585.472 452.863c11.412 8.553 3.8 6.737 6.991 12.441 2.967 2.391 5.099.449 7.613 2.835.471 1.945-.03 2.932-.583 4.942 1.107.88 1.702.687 3.164.707l.416.714-1.104 2.505.349.64 1.651.11c.816-.899.983-2.059.947-3.211-.052-1.709-.326-.657.024-2.245.525-2.386-1.72-3.531-.293-6.421 1.117-2.262 4.965-3.414 3.702-5.004-.525-.66-.933-4.595-.385-1.339.638.51.725.486 1.472.844l.98-1.025 2.032 1.513c.879 1.488.805 1.574 2.351 2.472 1.231.106 1.084.173 2.273-.007l.755 1.177c-1.595 1.364-2.067 1.355-2.344 3.347 1.403.835 1.869.738 2.221 1.897-1.356 1.002-2.54 1.145-4.162.579-.641-2.396 2.132-3.245.322-6.549l-1.087-.271-.319.477.415 1.479c-2.979.863-5.331-.725-6.892.69l.007-.631-.505.294c1.436 1.16 3.15 2.125 3.657 3.624-.932 2.785-3.383 5.807-2.493 7.783l.454.212c1.492.708 1.357.451 2.382 1.634-.21.418-3.468 5.197-3.925 5.463-1.439-1.996 1.468-2.78-4.641-2.073-.329 1.474-.118 1.388-1.834 2.616-1.15-2.02-.372-1.273-2.392-2.355-2.458.129-3.305.727-3.809 3.192 2.47 1.202 3.555 1.613 6.181 2.434l.633 1.395.73-.176c.974-.227.577-.161 1.466-.247l-.078.975a40 40 0 0 1-3.087 1.523c-.434 2.07 3.678 5.394 4.457 9.513 1.951-3.1 5.204-.998 6.265 1.649-1.398-1.163-1.772-1.697-3.581-1.889-1.25.683-1.271.782-2.306 1.795-2.281.303-3.615.265-5.17 1.838-.502 2.708 1.749 5.293 3.461 7.213-4.842-2.077-3.164-3.983-6.147-7.157l-.41.126c.749 2.214 2.064 4.992 1.125 7.012l-.937.173-.483-.625.62-2.025c-.827-1.445-.266-.84-1.92-1.683l-.619.434.202 1.754c-1.198.05-1.3.091-2.331.635l-.838.452-.801-.423c-.222-2.275-1.654-4.454-1.211-5.922 3.153-1.72 10.387-.232 11.45-3.19-.591-.896-.75-1.505-1.024-2.54-2.09-.956-3.929.455-5.921.548 1.192-2.145 2.026-3.175 1.785-5.458l-.914-.727-1.207.841-1.041-.292c-.391-.471-2.168-2.556-2.546-2.605-2.45-.316-7.708 3.355-9.735 2.917l-.416-1.763c-1.757-1.052-1.338-.711-3.681-.762l-.849-1.104c1.899-.524 2.318-1.212 4.197-1.119 2.164 2.354 4.899 4.828 7.24.815-1.602-2.194-4.049-2.516-6.401-1.447l-1.217-.632c-1.836-3.102-1.507-2.897-4.493-3.68 1.898-.108 2.517-.341 4.376-.865.649-.721.945-1.357 1.348-2.233l.63-.057.592 3.031.754.444.809-.589c.472-1.563.072-2.248-.411-3.832l-.19-.605c1.757 1.063 2.132 2.357 2.04 4.255-2.925 4.102-3.816-.218-6.179.884.804 1.427.7 1.388 2.034 2.306 3.738-1.5 2.743 1.102 5.979.937l.596-1.323c-1.865-1.994-.602.779-2.402-1.308 1.54-1.991 1.086-1.978.378-4.536l-.186-.659c.929-1.327 1.774-2.345 2.798-3.584l-.371-.661-.462.853c-3.257-.597-8.222.994-10.453-1.017l.337-.822c5.518-1.454 3.585-4.812 8.638-2.78l.327-.638c-.512-1.031-.952-2.028-1.294-3.131a77 77 0 0 1-.353-3.059c1.016-1.423.963-1.314 2.517-2.152 1.291.611 1.636 2.899 3.02 5.15 1.58.621.965.427 2.826.293l-.075-.522c.033.014-1.291-.531-1.25-.535-1.572.148 1.255-5.482.826-7.426-.473-2.142-2.538-2.247-3.781-3.862zm7.035 33.504c-3.069-2.019-2.928-2.539-5.337-5.091l-1.582.95c3.956 3.264 1.37 3.234 2.739 7.623 2.15.525 3.196-1.868 4.18-3.482"/><path fill="#425242" d="m585.588 482.226-.842-1.216c.286-1.506-.057-.82 1.389-1.936 1.255.1 1.081.053 2.31.378l.941-2.7.446.021.525 1.533c.002-.001 2.782-1.05 1.889-1.132 3.913.361 5.737 1.646 7.671 4.937l1 .355c-.329 1.474-.118 1.388-1.834 2.616-1.15-2.02-.372-1.273-2.392-2.355-2.458.129-3.305.727-3.809 3.192l-.375.448c-3.069-2.019-2.928-2.539-5.337-5.091z"/><path fill="#2f3e2f" d="m545.601 320.462.52-.169c1.186.369 1.08.209 2.052.881-1.127 1.166-.833.496-1.001 2.034l.504.524c.883-.688 1.219-.939 2.184-1.497l.281.98c-.929 1.181-1.392 1.478-1.521 2.944-.155-.195 3.538 5.802 3.324 5.012l-.97.484c-1.196-.731-1.987-2.641-2.789-4.044l-.741.458-.673.121c-.537-.941-.287-.433-.745-1.531l-1.474.581-.853-.405c-.248-1.1-.189-.629-.225-1.443-1.468.449-1.042.651-2.5 1.146-2.216-.719-2.122-.668-3.943-2.122l.034-1.448c1.047-1.471 1.154-1.373 2.794-2.008l.78.347-.011.996.335.317.997-1.843 1.039-.293c.853.829.471.625 1.535 1.039z"/><path fill="#2f3e2f" d="M606.068 309.934c-3.322-.094-4.849-.819-7.577-2.724-.478-1.659-.273-1.724-1.395-2.863-1.547-.035-2.542-.141-4.051-.323l-.126-.413c2.196-1.163 5.059-1.74 7.513-2.377 1.675.523 3.391 2.428 4.827 3.722 1.18-.103 1.02-.106 2.247-.015l.622 1.467c-2.371-.48-2.578-.947-4.425-.215-.417 1.816 1.053 2.705 2.365 3.741"/><path fill="#2f3e2f" d="m642.152 686.216 1.556.284 1.643-1.431c1.55 1.263 2.472 1.933 2.696 3.882-1.174 2.95-7.178 3.352-9.635 2.293-.824-1.083-1.075-1.267-1.545-2.521l.17-.669c2.253-1.196 2.618-1.365 5.115-1.838"/><path fill="#2f3e2f" d="M572.962 463.927c.164 2.466 4.371 2.676 4.106 5.983-1.374.892-1.379.596-3.283.712-.26 1.781-.168 2.931-2.019 3.54l-1.446-1.152c-1.585-.909.067.288-2.496.65l-.863-.969c.876-1.135 1.109-.891 2.765-1.43 1.01-2.159-.224-1.795-.024-5.085l1.055-.841 1.018-.046z"/><path fill="#2f3e2f" d="m598.159 337.71 1.167.161c.932 2.667 4.557 6.874.417 9.269l-.076-.85-.503-1.395c-2.251-.817-4.964-2.598-5.351-5.168 2.611-2.768 2.637-.54 4.65-1.005z"/><path fill="#2f3e2f" d="M543.282 475.591c-1.677-2.389-2.275-2.859-.159-5.323 2.007-.558 1.052-.586 2.97-.023-.043 1.242-.186 1.272-.589 2.504 1.046.565 3.127-.517 4.209-1.006 2.137.426 3.167 1.567 4.466 3.483l-.195 1.112-.914.437c-1.451-1.753-1.054-1.853-2.843-2.363-.685.452-1.342.888-2.039 1.323-.603-.837-.597-.757-1.373-1.462-1.537-.174-2.196.479-3.533 1.318"/><path fill="#2f3e2f" d="M515.121 554.877c-1.615-.998-3.291-1.742-3.05-3.811 2.576-1.533 8.783.403 11.116 2.129-3.574 1.887-4.023 1.524-8.066 1.682"/><path fill="#354435" d="M576.992 455.47c2.295 1.46 3.635 1.087 5.516 2.584-.147 2.082-1.948 2.996-3.588 4.156l-3.123.068-.258-.78c1.205-2.537 1.308-3.218 1.453-6.028"/><path fill="#2f3e2f" d="M578.287 282.926c1.188.334 1.684.504 2.921.646l2.647.279c.796 1.457-.463 4.025-1.061 6.107l-.087.726-1.831.103c-.779-.692-2.108-6.252-2.589-7.861"/><path fill="#2f3e2f" d="M599.373 540.382c.96 1.006 1.046 1.367 2.34 1.669 2.684-2.028 5.458-2.224 6.365 1.65l-1.305.921c-.927-.861-.54-.625-1.742-1.097l-1.183 1.19q-.057.672-.132 1.342c-1.441-.074-1.378-.003-2.633-.677.33-1.096.315-.557.091-1.617-.951-.402-1.44-.587-2.342-1.089z"/><path fill="#2f3e2f" d="M544.795 448.831c4.95 1.231 3.401.693 5.996 3.729.894-1.482 1.69-3.244 3.164-3.978 1.305.328.71.03 1.65 1.193-1.038 1.114-1.407.891-3.15 1.363-.909 2.38 1.025 2.689-.705 5.297-.473-.912-.531-1.128-.772-2.097l-.217-.891c-1.682-.086-2.185.044-3.482-1.027-.581-1.928-1.018-2.196-2.484-3.589"/><path fill="#2f3e2f" d="M667.423 681.553c1.596-.397 2.761.089 4.18.932-.347.375-.193 1.233-.209 2.004l.26-.318.176.182-.717.437c-.778.911-.925 1.008-1.878 1.751-1.556-.01-2.454.121-3.874-.531l-.341-1.115c.844-.989 1.256-1.45 1.936-2.565z"/><path fill="#2f3e2f" d="M567.961 253.144c3.192.852 6.765 2.802 5.648 6.522-3.144-1.589-6.206-.021-5.648-6.522"/><path fill="#2f3e2f" d="M575.296 428.974c.983.78 1.498 1.207 2.673 1.645.719 1.401 1.022 1.712 1.151 3.281l-.527 1.108c-3.445 1.218-3.585-.804-5.078-2.534.398-.622 1.399-2.738 1.781-3.5"/><path fill="#2f3e2f" d="M588.889 326.625c3.169.286 4.399 1.776 6.598 4.122l-.345 2.156c-.915.407-.769.24-1.916.194-2.613-1.594-3.168-3.687-4.337-6.472"/><path fill="#2f3e2f" d="M546.028 423.783c2.185 1.193 2.675 2.81 1.941 5.174-1.465 1.077-1.39.725-3.554.887.09-.835.133-.52 1.084-1.381-.783-.45-.344-.177-1.297-.849l-.197-1.156c.645-1.573.795-1.562 2.023-2.675"/><path fill="#e3e2e2" fill-opacity=".02" d="M550.37 554.545a99 99 0 0 1 3.937-1.915l.758.944c-1.486 3.81 2.11 4.74-.123 5.731-1.952-1.719-2.915-2.763-4.572-4.76"/><path fill="#2f3e2f" d="M602.474 332.194c2.269 1.208 1.763-.663 4.2 1.167l-.376.609-.996.134-.387.824c.049 1.341.102.817-.476 2.123l-.99.294c-2.339-1.49-1.45-2.89-.975-5.151"/><path fill="#425242" d="M566.368 545.947c-1.688-1.149-4.384-3.66-3.69-5.87 2.208.187 2.299 1.723 5.133 1.913l-1.225 1.28c.498 1.995.679 1.151-.218 2.677"/><path fill="#e3e2e2" fill-opacity=".008" d="M607.008 322.992c1.677 1.299 1.615.826 2.073 2.472-.99 1.614-1.356 2.094-1.593 3.961l-.238.305c-2.221-1.529-1.507-4.741-.242-6.738"/><path fill="#2f3e2f" d="M658.359 684.526c1.121 1.019 2.187 1.676 2.657 2.953l-1.012 1.192-.858-.023c-.361-.564-.679-1.106-1.137-1.595-1.157 1.273-1.596 2.283-2.902 2.47.955-2.716 1.628-2.735 3.252-4.997"/><path fill="#2f3e2f" d="m615.727 424.599.944.068c1.219 1.391 1.35 1.071 1.492 2.587l-.933.516c-.837-.617-.605-.649-1.678-.817-1.669.041-2.731.174-3.898-.714 1.101-1.242 2.389-1.274 4.073-1.64"/><path fill="#2f3e2f" d="M549.527 442.2c2.459.168 4.157-.183 5.216 2.257l-.673 1.249c-1.715-.373-3.449-1.55-4.92-2.536z"/><path fill="#2f3e2f" d="M588.436 422.923c1.406 1.405 1.717 1.202 1.841 2.72l-1.881 1.674c-.501-.063-.596-.272-1.121-.652-1.121-2.104-.331-2.562 1.161-3.742"/><path fill="#2f3e2f" d="M544.069 251.807c1.392.338 1.4.5 2.56 1.402.807 1.939.701.95.215 3.084l-.822.019c-.863-1.571-.534-2.306-1.953-4.505"/><path fill="#e3e2e2" fill-opacity=".008" d="M528.674 398.548c1.938.36 2.157.048 3.288 1.195l-.076 1.362c-1.48-.753-1.894-.431-3.512-1.604z"/><path fill="#2f3e2f" d="M421.362 704.631c2.691-1.303 9.913-1.399 12.732-.791-.036 2.024-.575 2.003-2.441 3.047l-.222.753 1.586.93.225 1.182c-3.091 1.475-3.651 3.502-7.305 2.647l-.252-.701 1.712-2.504-.155-.643c-3.037-.871-4.755 2.707-7.503-.171l.242-1.288c1.018-.661.749-.454 1.573-1.329z"/><path fill="#2f3e2f" d="M423.555 283.732c1.234.457.729.083 1.523 1.11-.453 1.809-.638 3.351-1.777 4.788-2.795.457-1.072-1.659-4.047-2.034-1.497 1.162-3.858 3.447-4.137 5.348 1.12 0 1.529-.713 2.657-1.631.149.824-.823 2.793-1.207 3.788-1.971 1.543-3.601 2.352-5.26.166.03-2.708 1.809-7.095 3.791-9.058 1.689-1.673 3.733-.395 6.435-.035 1.533-.88 1.061-.622 2.022-2.442"/><path fill="#354435" d="m395.918 717.526.251-1.082c-2.246-.522-1.286.006-2.925-1.747l-.019-1.084c1.924-1.818 5.128-2.492 7.61-1.508 2.804 3.304.992 9.811-2.628 11.126-.639-1.613 1.947-2.939-2.489-5.07z"/><path fill="#2f3e2f" d="M395.718 718.161c-2.123 1.347-1.421.611-2.512 2.895-1.516.789-.678.518-2.831.182l-.49.806c.191 1.868-.104.946 1.522 2.64l-.384.508c-1.888.69-3.76 1.877-5.282.344-.044-1.911.967-3.625 1.781-5.406-.567-3.029-.839-.988-2.154-3.827 1.519-1.23 2.55-1.135 4.244-.374l.419 1.97.818.433c2.386-.856 2.642-1.079 5.069-.806z"/><path fill="#354435" d="M431.418 265.037c3.254-2.554.574-6.219 7.36-8.434.313 1.217.577 1.635.415 2.82-.64 3.773 1.908 3.577-1.2 6.134-1.465.24-2.34.572-3.641-.083l-.716.162z"/><path fill="#19241e" d="m519.382 172.006-2.472 1.472c-4.512-.684-3.24.129-7.444 1.946-1.509-.474-1.51-.347-2.438-1.589.805-2.665 9.757-5.24 12.464-4.413.076 1.175.267 1.61-.11 2.584"/><path fill="#354435" d="m408.007 713.929.843 1.098c4.104 1.597 4.154-2.457 7.462-2.984l.929.768c.748 1.996.827 1.385.511 3.253-1.194 1.372-4.482 1.52-6.028 1.131-3.632-.915-3.346.907-6.808 1.805l-.192-.863c.322-1.419 1.425-2.632 2.317-3.847z"/><path fill="#425242" d="M424.968 299.205c-2.659-.692-4.147 2.05-7.191.917 1.052-2.091-.278-5.482 4.055-7.03 3.033 1.371 1.928 3.044 3.312 5.321z"/><path fill="#2f3e2f" d="m519.492 169.422.705 1.394 1.046.154c1.149-.941 1.618-1.428 3.009-2.021 2.208.775 1.857.715 3.166 3.392.654.122 1.366.266 2.019.372l-1.061 1.648-2.026-.516c-1.351.493-1.918.646-3.325.966-1.671-.329-2.428-1.509-3.643-2.805.377-.974.186-1.409.11-2.584"/><path fill="#19241e" d="M409.549 312.918c-1.08.362-1.307.543-2.298 1.132-2.084-1.209.219-.822-1.057-1.518-1.777-.97-2.307-.393-3.507-2.054.648-1.51 2.535-2.775 4.132-3.043 1.309.697 1.552 1.694 2.2 3.075 1.978.258 1.721-1.615 2.928-.382-.383 1.536-.336 1.529-1.14 2.872z"/><path fill="#2f3e2f" d="M367.454 722.8c-.079-1.97-.389-1.687.523-2.941l1.934.059c2.157 1.187 4.332.274 5.294 1.604-2.772 4.195-4.323 4.774-7.751 1.278"/><path fill="#e3e2e2" fill-opacity=".012" d="m602.131 266.898.255.926c.59-1.657.073-1.124 1.238-2.083.752 1.315.701 1.267.994 2.769l-.18.359.031.062c-1.108 1.777-1.27 2.206-2.016 4.189-2.66-.491-3.879-1.907-3.931-4.593.846-1.802.234-1.106 1.883-2.181z"/><path fill="#2f3e2f" d="M415.805 310.089c-1.729-.885-1.673-.523-2.528-1.928l.586-2.229c-1.419-1.998-1.158-.4-4.018-1.671.897-.802 2.501-.02 2.858-.26.942-.633 2.575-1.855 3.495-2.542 1.812-.164.95-.343 2.611.807-1.476 2.628-3.419 1.929-2.134 5.313-.306.977-.48 1.561-.87 2.51"/><path fill="#425242" d="M618.857 293.117c3.035.406 4.206.442 6.79 1.993.822 1.596.645.744.339 2.677l-2.372 2.781c-.468-.724-.38-1.038-.543-2l.924-.304-4.467-2.33z"/><path fill="#354435" d="M451.951 698.282c-3.352 2.818-.375 1.154-.874 4.994-1.092 1.403-.916 1.63-2.353 2.255-1.463-1.255-2.095-4.049-2.305-5.951.918-1.454.274-.86 2.346-1.426l.878.588.957-.197z"/><path fill="#2f3e2f" d="M400.965 310.931c.847.858 1.126 2.682 1.099 3.841-.666 1.521-1.098 1.685-2.418 2.66l-1.198-.218-.714.684-1.302.463-.74-.38c-.013-2.268 3.643-5.466 5.273-7.05"/><path fill="#354435" d="M567.152 819.078c1.48-3.367-.792-4.045 2.229-7.447l.774.174c1.001 2.612 1.3 5.46-.409 7.849l-3.182.34z"/><path fill="#2f3e2f" d="M345.161 548.74c-.298-.437-.055-.14-.978-.606-2.116.152-2.095.517-3.682 1.934l-.762-.566c-.691-4.005 3.938-5.193 6.843-3.659.605.319.77 2.034.936 2.779z"/><path fill="#354435" fill-opacity=".988" d="M727.604 673.998c2.461 2.465 3.993 3.921 7.582 4.817l.436.917-.617 1.205-.432.283c-4.856-.464-6.421-2.333-6.969-7.222"/><path fill="#2f3e2f" d="m363.431 725.653.736.303c1.569 2.949-2.703 4.572-4.852 5.588-1.21-.775-.848-.393-1.635-1.584 1.2-1.543 4.021-3.225 5.751-4.307"/><path fill="#2f3e2f" d="M415.906 710.14c3.57.078 5.769-.106 8.963 1.605l-.199 1.652c-1.826.732-1.806.644-3.681.53-1.478-.827-3.449-2.621-5.083-3.787"/><path fill="#2f3e2f" d="M425.145 274.318c.758 1.091 1.549 2.137 2.438 3.125l-.505 1.368 1.454 2.267-2.024-.088c-1.862-1.342-2.815-1.833-3.443-3.986.499-1.675.557-1.304 2.08-2.686"/><path fill="#2f3e2f" d="m381.589 350.752.368-.49-.572-.024c-1.513-.075-2.2.033-3.485-.763l-.001-.757c1.48-1.323 1.413-1.335 3.215-2.088 2.32.301 2.212.903 2.517 3.139l-.867 1.723z"/><path fill="#19241e" fill-opacity=".984" d="m566.564 819.994 3.182-.34c.779 1.646 1.219 2.677-.032 4.38a31 31 0 0 1-1.732-1.743l-1.878-.354-.326-.941z"/><path fill="#2f3e2f" d="M484.517 201.152q-.68 1.578-1.392 3.144c-2.312 1.168-2.152 3.167-3.815 3.658-.775-1.338-.578-.607-.39-2.31 1.073-1.468 1.159-1.668 2.674-2.631z"/><path fill="#e3e2e2" fill-opacity=".071" d="M503.338 868.797c-.344-1.684-1.402-2.537-1.067-4.094 1.264.398 1.771 1.426 2.597 2.544l.097.536 2.256.043.506.661-.205 1.055c-1.434.631-2.917.021-4.184-.745"/><path fill="#354435" d="M433.017 708.57c1.815-1.17 1.905-1.326 3.961-1.219l1.066.611.135 1.165c-1.507 1.524-2.946 1.66-4.937.625z"/><path fill="#2f3e2f" d="M327.005 571.602c-1.908.172-2.862.589-3.744-1.249l.627-.749c2.597-.634 3.096-.087 5.668 1.238-.973.398-1.584.807-2.551.76"/><path fill="#e3e2e2" fill-opacity=".02" d="M718.5 517.992c-1.801-.435-1.846-.563-3.029-1.973-.167-1.756-.36-.964.625-2.451l1.037-.108c1.217 1.2.738.453.915 2.657z"/><path fill="#2f3e2f" fill-opacity=".98" d="M376.167 495.469c.337 2.142.474 2.362-.182 4.346l-.697.75-1.22-.148-.943-1.385c.571-.343 2.522-2.9 3.042-3.563"/><path fill="#e3e2e2" fill-opacity=".055" d="m681.997 475.918-.648-.065c-1.048.887-2.532 1.539-3.832.931l.226-.961c1.113-1.153 3.008-1.675 4.573-2.267z"/><path fill="#e3e2e2" fill-opacity=".035" d="m686.825 370.715-.908.208c-1.583.362-2.742.92-3.84.227 1.684-1.205 2.593-1.153 4.716-1.495l.937.29z"/><path fill="#e3e2e2" fill-opacity=".016" d="M633.177 390.599c.332-1.793.472-3.508 2.365-4.17.258 1.748-.191 1.735-1.258 3.71z"/></svg>