<svg xmlns="http://www.w3.org/2000/svg" width="1018" height="1018" viewBox="0 0 1018 1018"><clipPath id="a"><path d="M0 0h1017.644v1017.644H0z"/></clipPath><g clip-path="url(#a)"><path fill="#eb4a30" d="M321.406 118.633c10.586-6.813 23.58-11.14 35.266-15.312 15.646-5.584 35.867 33.15 36.667 44.774 12.372-4.866 33.583-72.972 56.303-64.083 11.086 4.336 6.619-5.399 14.137-2.783l.023 3.285c2.1 3.353 4.664-.258 7.238 3.176 13.22 17.64-14.894 52.357-1.813 67.035 7.524-2.052 16.14-22.267 27.198-18.442 4.256-9.68 5.427-11.1 15.728-12.964l8.482-8.547c10.987 4.972 19.786 10.998 9.463 22.362-4.944 10.936-50.563 77.43-35.723 85.118 9.534-.546 19.428-5.42 32.2-2.579 1.544.343 9.581 1.55 9.206.255-.084-.291-.209-.203 2.628-1.51l1.203 3.55c5.897-2.008 4.183-3.442 10.815-3.211 2.529 1.617 3.346 2.102 5.558 4.088 7.447-.89 49.576-3.907 50.837-4.853l.649-2.398c3.531-.17 2.665.181 5.312 1.46 6.658 3.216 15.6 1.58 22.783 3.324 22.356 5.427 46.003 6.925 66.886 17.132 3.75 1.833 6.197 7.621 11.186 9.33l2.684-1.883c1.593 2.027 1.585 2.274 2.6 4.687l1.529.42c13.339 3.745 25.34 9.004 35.565 18.359l.826.776c2.835.681 7.27 1.706 10.17 2.45 2.36.605 7.186 10.35 8.689 11.073 15.325 7.356 21.713 14.167 30.255 29.73l.86 1.59 9.472 4.88c1.153 3.828 2.548 8.046 3.422 11.905 2.623 2.423 6.545 5.726 7.43 9.031 1.429 5.358 15.648 26.18 16.253 28.48l-1.22 3.037c3.61 7.434 13.512 14.476 16.645 23.044 10.264 28.075 25.134 66.334 31.122 95.233 6.306 30.441 12.362 107.84-6.634 131.905-.28 11.518-3.862 35.758-12.962 43.267l2.453 1.93c-.11 7.867-6.81 22.175-9.64 29.624-1.067 2.81.124 7.984-1.235 12.222-6.024 18.784-14.531 31.933-25.464 47.685-1.829.11-.93.164-2.702-.149-5.578 11.593-1.99 14.38-15.717 23.673-7.08 11.647-25.224 27.86-36.323 37.153-2.716 3.23-7.488 3.036-12.533 4.82l-4.47 3.377.255 1.516 3.146 1.925.123 1.628c-5.42 4.04-12.318 3.989-14.157 6.923l2.206 2.292c-.985 11.211-28.589 26.167-38.666 32.44 1.873.476 6.78-2.784 8.667-3.905l2.443-1.464c-4.092 4.23-14.316 15.236-19.37 17.209l-1.992-1.479c2.195-1.692 2.44-1.628 5.082-2.61l1.81-3.088c-3.915-1.227-4.38 2.279-9.048.77l-1.216-3.418-1.266.388-.459 2.337 1.184 1.744c1.257 1.872 1.576 2.376 2.436 4.528-2.811 4.853-9.801 15.05-14.618 17.589-5.927.46-2.725-.267-8.057-2.285-4.93 5.385-14.245 14.883-20.87 18.084-16.44 7.943-35.609 13.64-52.75 20.336-10.428 4.075-23.258 10.68-33.618 12.986l-1.47-.964c.646-2.732.9-3.446 1.188-6.21l-2.256-.058c-3.833 5.285 3.493 9.66-10.702 13.018-4.612 1.091-10.513-.521-15.155-.399-4.847.13-6.339 5.237-12.828 4.017-3.098-.582-11.13.395-13.62-1.529l.046-2.263c-2.096.457-2.909 1.24-4.528 2.522-5.657 4.483-37.526 5.304-46.602 6.37-5.951-4.44 2.304-3.918-5.567-5.678l.862 3.812c-4.48 5.166-21.515 2.318-28.065 1.615l-4.14 1.07c-3.328-1.751-2.229-.936-3.874-5.52l-1.533.192-2.47 2.982c-2.407 2.64-2.99 2.505-6.785 2.589-11.634.254-27.744-.134-38.902-1.828-3.645-.554-19.205-7.94-23.58-9.8-32.789-13.945-55.558-23.31-83.002-47.106-.733-4.064.498-6.973 2.716-10.366q-.78.078-1.56.16c-4.261 2.192-11.024.724-17.055.902-12.05-9.367-21.202-17.405-31.627-28.49-2.61-2.774-12.351.068-16.743-7.164.2-2.559 1.002-3.83 2.169-6.097-4.903-4.756-7.05-5.05-9.269-11.84l-5.41-1.53c-2.591-3.397-1.882-8.21-2.162-13.298-3.337-2.98.323.774-4.967.882-15.804-24.779-25.312-43.696-34.891-71.925-3.346-6.938-.043-23.155-3.937-28.63-7.137-10.03-6.09-15.596-5.7-27.105.312-9.236-1.967-13.247 1.33-22.073-17.893-19.273-6.568-22.817-4.453-41.154-1.63-.818-1.94-1.05-3.443-2.05-1.949-9.494 7.96-37.97 8.995-48.503.714-7.255-1.455-19.966-.744-26.803.216-2.085 8.84-7.48 8.92-13.124l-3.523 3.292-.664-.45c2.938-6.947 5.79-16.776 10.049-22.087 1.796-2.24 2.313-1.752 2.827-4.818l-1.169-.074c-11.778 7.327-6.886 6.445-11.367 19.694-1.097 3.244-.482 2.492-2.902 3.714l-.601-1.919c2.74-14.93 5.267-18.153 15.793-28.166.095-7.013-8.883-11.49-5.317-18.473 2.639 2.894 1.332 7.09 4.027 11.977 3.685-.507 3.545-.295 6.54-2.41-1.943-.65-2.9-1.199-4.558-2.4l-.252.595c.11.45 2.522-2.464 3.126-4.773-2.928-.86-2.003-.263-4.097-2.452l4.478-.394c5.753-4.679 3.265-8.887 4.25-14.71.198-1.187 4.254-1.562 4.66-5.415l-2.87-.278c-4.522 3.068-4.582 5.835-8.096 10.52-.85-3.73 1.112-9.743 2.072-13.74 4.488.49 5.543.894 9.728-.356 2.524-3.04 1.81-1.285 1.761-5.615-2.945-2.606-3.486-1.507-8.818-1.725.94-1.804 1.61-1.903 3.249-3.154-1.537-3.456-1.078-3.553.7-6.457 5.57 1.67 13.293 2.859 14-5.483-4.457 2.475-7.891 5.06-12.641 4.506l-1.194-2.296.485-1.522c4.622.513 5.424 1.334 8.531-1.749l-.19-1.651c-3.383-.867-3.671-.52-6.244-2.607 3.435-8.454 15.617-6.619 19.198-14.359-2.747-3.154-1.13-2.145-4.823-3.44-1.294 4.615-.494 4.891-3.497 7.09l-1.717-.539c.906-2.337.58-1.252 1.029-3.268l1.613-1.136-1.986.69c-.416-2.61 1.382-8.907 3.574-10.783 3.146 1.63 3.985 1.97 7.348 3.118 3.068-1.05 1.824-.175 3.849-2.734-11.186-5.604-5.045-12.255.039-19.516l1.726-.15-.528 2.98-1.336 1.587c-2.075 2.49-3.44 3.883-3.135 6.885 3.68-.598 13.378-8.357 13.47-11.634-3.068.526-3.525.778-6.565.446-1.347-6.727 10.918-28.138 21.71-28.102l-2.124-.508c1.653-.065.774-.257 2.475 1.08l-.084 1.48-5.54 3.211-.072.438-.009-.293 2.906.446-1.584-1.266 1.373 1.27c3.857-.114 4.508.615 6.552-1.38l.009-2.192c-3.79-3.754-6.018-1.96-8.28-4.42 10.265-21.058 24.881-35.678 42.123-50.639 3.333-2.89 7.186-12.946 11.12-16.65 4.457-4.196 13.691-4.977 16.229-9.23-1.755-2.202-1.768-1.876-4.284-3.262 8.219-9.7 19.51-25.29 27.276-35.736.377-.511-3.239-8.875-.837-14.114 3.163-1.403 6.593-2.333 8.26-5.105l-1.138-3.042c-6.126-4.99-8.987.224-13.784-6.402 2.23-9.965-7.718-12.582-13.43-19.438-3.939-4.733-8.693-12.367-13.177-16.149-7.376-6.218-24.592-10.814-28.298-20.35 1.196-8.275 17.878-16.85 26.06-16.697 3.628.067 2.645-.202 5.866-2.143l1.658 1.346-3.167 1.867c1.617 1.558.62 1.002 3.407 1.006l2.106-2.444 1.526.355-.968 2.13c17.673 1.415 25.35 3.526 40.038 13.361q.202-1.646.403-3.292l.082-1.005 3.452-1.42c-1.273-10.699-7.57-30.39-8.663-42.37-.054-.602-2.376-3.56-2.982-4.298"/><path fill="#e66046" d="M789.107 803.293c3.905-.81 4.043-.908 7.464-2.473l.101-1.089c-2.805-.298-1.509.043-3.91-.93 5.982-9.46 13.761-17.316 25.277-18.992-7.08 11.647-25.224 27.86-36.323 37.153-2.716 3.23-7.488 3.036-12.533 4.82-3.525-3.384-4.767-2.356-6.082-6.381 9.441-13.329 18.854-9.838 25.191-14.46z"/><path fill="#e66046" d="M520.635 114.772c10.987 4.972 19.786 10.998 9.463 22.362-.468-5.131 4.04-11.864-2.622-18.438-7.6-2.037-10.47 6.218-17.479 7.018-2.593.295-2.169.127-3.988 1.496 3.141 2.109 4.178 3.303 4.14 6.923-2.273 2.139-9.403 4.107-12.445 4.105l-1.279-1.955c4.256-9.68 5.427-11.1 15.728-12.964z"/><path fill="#fcfbfa" d="M425.565 660.638c1.652.424 1.863.849 3.383 1.882 3.818 8.926 13.27 13.617 19.536 28.81 5.37 13.023 4.603 60.524-14.329 49.701a53.74 53.74 0 0 1-23.436-10.536c-9.191-7.102 1.49-8.898-1.479-11.145-11.293-8.55-10.567-37.51-2.924-47.74.992-1.329 14.99-8.674 19.25-10.972"/><path fill="#fcfbfa" d="M325.416 587.197c2.2.405 7.376 1.52 9.459 1.949 3.35.69 8.507 5.76 9.965 9.12 5.263 12.143 3.154 29.333-.341 41.872-3.253 8.736-7.546 18.87-16.588 22.92-2.603 1.167-3.823 2.342-5.783 4.151-5.364.347-7.98.666-13.387-.002-6.491-4.974-6.517-37.838-6.61-46.602.002.053 2.993-4.856 3.288-5.554 2.147-5.084-4.603-8.323-1.548-13.676.528.31 3.074 2.132 3.646 1.354 5.416-7.363 10.256-10.927 17.9-15.532"/><path fill="#fcfbfa" d="M441.736 480.515c11.825 5.588 15.031 12.065 19.272 23.483-2.859 16.11-4.107 18.143-11.916 32.994-8.049 5.353-20.629 12.371-29.842 14.87-.996.664-3.67 1.897-4.872 2.494l-2.085-.72c-6.352-10.857-.925-35.753-1.365-48.532.024.669 10.931-15.573 12.013-17.252 9.157-.822 11.371-2.458 18.795-7.337"/><path fill="#fcfbfa" d="M529.358 414.317c9.314-.928 19.402 1.289 21.828 11.144 5.653 22.968 2.065 41.954-20.653 50.54-5.252.866-11.528 2.47-16.099-1.074-18.45-14.308-9.17-57.767 14.924-60.61"/><path fill="#fcfbfa" d="M314.302 472.917c32.894-5.92 31.426 22.045 21.008 44.572-2.757 5.963-8.206 11.215-12.378 16.39l-1.988-.041c-6.334 3.926-15.971 9.618-20.967.972-6.436-11.142-3.365-39.304-1.181-51.26 5.392-5.083 9.098-6.937 15.506-10.633"/><path fill="#fcfbfa" d="M488.978 562.254c3.297-.02 15.485 4.375 18.15 7.05 8.76 8.805 7.606 30.849 10.31 42.316 1.582 6.703-10.138 17.788-14.849 22.419-24.33 10.336-38.767-46.053-13.61-71.785"/><path fill="#fcfbfa" d="M561.759 506.195c29.816 1.277 35.057 31.679 27.26 55.307-6.911 6.28-10.583 8.835-18.41 13.865-4.337.994-5.239 1.434-9.542.938-5.013-4.935-8.814-22.462-10.463-29.66a37 37 0 0 1 2.298-3.715c-2.82-2.764-3.723-3.228-4.65-7.107 1.517-10.51 5.737-22.14 13.507-29.628"/><path fill="#fcfbfa" d="m398.533 375.019 3.54-.024c20.179 9.364 15.832 37 13.758 54.43-5.78 7.29-12.608 15.529-20.872 19.87-3.286-.454-5.98-.916-8.993-1.903-7.83-2.563-2.743-20.644-4.42-27.01-.828-3.148-2.956-6.415-4.204-10.589 8.542-13.203.506-27.38 21.191-34.774"/></g></svg>