<svg xmlns="http://www.w3.org/2000/svg" width="1024" height="1024" viewBox="0 0 1024 1024"><path fill="#162014" d="M476.953 282.912c.554-2.327.594-2.388 2.277-4.016 2.298-.731 2.341-.438 4.934.293 1.013-2.911-.105-4.075 3.097-5.537 2.274 1.68.538 2.641 2.753 3.591 1.688-1.138 1.624-1.09 2.846-2.727l.142-1.029c-1.627-1.468-3.086-1.309-5.349-1.311.681-2.265 2.364-5.973 4.295-7.42 2.809-.578 1.275-.043 3.885.495 1.115-1.698.708-1.61 2.28-2.429 1.292.305 1.262.282 2.407.944 1.322-.021 2.163.125 3.237-.612a15 15 0 0 1-.641-1.978c3.362.002 1.23 1.57 5.11 1.769l.246-.643-1.738-.617-.156-.728c3.03-.306 3.794 1.678 5.229.776l.192-1.082.707.168.957 1.638.707-1.271c4.259 2.579 3.548 2.519 8.323 4.189 1.043 1.912 1.185 2.9 2.857 3.946.885-.603 1.122-.816 1.907-1.552 1.336.189 1.248.149 2.23 1.075a68 68 0 0 1-1.084 3.358l.453.816 1.029.106c1.384-2.416-.947-2.55.981-3.223 2.544 1.229 3.312 1.981 5.473 3.735.301-2.155-.208-1.437 1.03-2.596l.922.094c2.136 4.592 1.723 11.807 6.414 15.058l.085.64-1.385.414c3.812 4.559-.776 4.983 3.558 9.185 2.77 2.685 2.427 13.445 2.645 17.557-.88 1.585-1.202 1.924-2.343 3.254l.286.702 1.937-1.261.596.388c.62 3.552.937 5.346 2.045 8.756l-.433.474c-1.213-.121-2.087-.223-3.284-.439.522 1.361 1.562 1.621 3.196 2.353q.633.278 1.274.538c1.044 1.057.567 1.456 2.012 2.514l.791-.57c-.856-1.333-1.643-2.156-1.554-3.687 1.31-1.811 1.238-1.373 3.876-2.17-.112-.465-.357-3.426-.2-3.625 5.839-7.421 9.428-15.815 15.596-23.081l.231-.913c2.426-1.475 1.527-3.547 5.389-4.928-.351-3.814.964-9.67 5.203-10.761l1.368.023c1.277-.663 1.496-1.294 2.221-2.482l1.318.102c1.325-.092 1.234-.09 2.408-.73-.396-.868-.343-.429-.208-1.313 2.032.145 4.699 2.635 5.819 2.022 1.935-1.061 2.691-1.625 5.117-2.197a23 23 0 0 1 2.329 1.826c1.121-.633.764-.322 1.482-1.4 2.601-.276 14.538.068 16.332 1.15l.463-.879c1.475.569 4.188 2.596 5.433 3.664l-.546.287.609.748 1.14-.089c6.546 3.946 8.701-2.899 13.161 7.834.764 1.945 1.975 3.004 2.949 4.814l2.776 5.139-.228.491-2.282-1.529c.668 2.257 1.591 2.437 3.643 3.064 1.119 1.442.898.661 1.14 2.284l-1.182.399c.552 2.183 2.884 1.326 4.25 4.51l-.123 1.03-1 .419-1.058-.587c.046.74-.115 1.148.418 1.602 2.019 1.721 1.03 4.056 1.846 5.684 1.816-.415 1.572-.691 2.83-.008l.156.802c-1.412.689-2.211.771-3.727 1.074 1.009 3.22 1.611 5.222 3.587 7.973-.625 2.052-1.02 4.067-2.323 5.71l-2.161 1.068c.143 3.3 1.327.854.442 5l-1.11-1.456c-2.198.822-1.825.338-3.156 1.926-.039 1.634 1.394 2.285 2.825 2.557l.281.798c-.774 1.197-.989 1.553-1.294 2.941l-.613.619c-.792-.726-.603-.515-1.26-1.434l-.484.691c.258 4.118-1.161 6.193-3.562 9.979-.697-.621-.378-.264-.94-1.087-1.578.448-1.156.416-2.445 1.877 1.367.069 1.489-.083 2.529.723l.127.836-.497.575c-1.038-.353-.725-.2-1.682-.83l-.544.203c.092 1.238-.008.644.785 1.837l-.841.59-1.435-.784-.847.549-.033 1.046c1.269.623 1.744.56 3.152.703l.214.633c-2.582 1.886-1.421-1.49-3.087 1.126l.063.71c.738 8.964-10.74 18.678-13.989 25.916-.931.378-.715.491-1.469.358-2.727.672-4.389 1.496-6.655 3.23 1.066.343 1.258.305 2.353.399l1.102.827.005.459c-.743.594-2.285 1.671-3.182 1.871-2.392.536-3.268 3.474-4.32 3.961-5.8 2.685-12.184 6.989-18.228 8.493l-.569.133c-4.554.041-9.446-.392-14.081-.4l-.247-.475 1.434-1.647-.571-.453-1.327.218c-.443 1.237-.424 1.268-.541 2.587l-.617.078c-.505-1.901-.131-1.825-1.387-2.692-1.956 1.104-3.296 2.409-5.076 2.187-3.049-2.611-4.767-.547-8.399-1.149.697-2.281 1.376-2.999-.296-5.117-.421.097-1.064.211-1.434.372-2.127.44-1.177.586-2.977-.131-.597-1.918-.581-.942.246-3.019-7.082-3.413-4.646-4.132-7.346-9.874l-.878.976c-3.079.612-5.466-8.235-5.686-10.551l-.799-.397c1.706-1.995-1.601-7.788-.203-11.157.591-1.424.369-2.43.178-3.855l.718-.406 3.091 1.093c-.886-2.878-.671-10.383.604-13.085-2.326 1.114-2.724 2.75-3.904 5.337.21.912.352 1.448.824 2.257-.763 2.589-3.138 4.519-5.67 5.293l-1.314-.116c-1.204 3.041-3.206 7.376-6.123 9.047l-.587.341c-.516.293-.969.527-1.496.79l-.447-.239 1.695-2.382-.106-.421c-.953.275-1.052.077-1.403.81-2.391 4.996-7.178 2.109-7.209 7.802-.01 1.671-1.197 3.262-2.109 4.619 2.228 2.216 1.684 4.389 1.697 7.769q-.007 2.615.041 5.228l1.27.485-.086.761-1.434.779c1.085 2.649 1.254-.334 1.396 2.456-.831.724-1.344 1.094-1.822 2.096.934.721 1.062.728 2.163 1.196.34 2.356-.572 4.136-.27 5.891.574 3.327 2.386 7.317 3.27 10.63-.046.691-.094 2.118-.246 2.724.677 7.702.747 9.22-6.248 13.025 1.49 3.229 6.349.205 8.774 3.122-.31.685-.547 1.241-.716 1.979 1.456 1.85 2.241 2.574.873 5.227.407 2.394 1.77 6.428.517 8.642-.202.357-1.591 1.097-2.074 1.609l2.095-.299c2.034 1.947 2.249 11.385 2.097 14.418.393 2.782 1.119 4.93-.261 7.307.136 2.622 1.096 4.238-.582 6.18l-1.193.12.002.723c1.244.329 1.762.16 2.136.973 1.086 2.361 1.148 7.585.761 10.104-.575.659-.748 1.098-1.186 1.871-.145 2.16.238 3.427.877 5.484l.309.975c-1.826 1.227-4.065 2.506-3.037 4.846l.72-.189 1.217-2.251.731.123c2.052 2.02 3.067 3.761 1.174 6.323l.208.388c2.44-.859 2.2-4.798 7.966-6.547 4.93-1.495 11.541-9.509 15.808-12.785 1.974-1.516 4.306-1.586 5.825-3.301.216-.932.637-3.102 1.281-3.745 8.772-8.765 14.625-19.876 21.996-29.724 2.221-2.968 4.752-6.708 7.871-8.679 2.516-1.591 3.62 1.244 6.806-.042 1.176-4.405 2.424-10.512 6.43-13.085l.582-.288-.594-1.496c1.542-3.177 2.478-5.274 5.363-6.494l-.754-.738.055-.759c1.777-2.75 5.07-7.775 7.63-9.702l1.702.361.528-.658c.218-1.603.169-3.214 1.239-4.269l.542.058.289 2.047c1.221-.935.888-1.332 1.26-3.366l.846-.524 1.723 1.038c2.666-1.73-.001-3.216 4.331-5.032-.261-1.7-.418-1.42.045-2.951 3.27-1.108 7.272-2.467 10.754-2.243 2.428.157 2.4.879 4.111 2.818 1.783-.442.892-5.229 3.709-5.688 1.361.994 1.653 2.944 2.316 4.835 1.362.022-.313-1.222 2.125-3.27 1.811.014 6.802 3.291 9.85 4.07l.41.519c.969-.315.549-.34 1.249-.169-2.592.577-2.632 1.082-3.35 3.374 3.55-2.921 7.53-2.529 11.154.455.572.471.756.477 1.178 1.094l.537 1.055c2.457-.124 2.021.697 3.314 1.109 9.205 2.93 4.842 9.985 6.771 14.106 2.797 5.973 9.324 10.248 6.288 19.107l-2.132.5c.197 2.447 4.097 5.337.938 7.798l-1.866-.963-.633.558c2.092 1.243 2.31.863 2.852 2.584-.161.289-.7 1.308-.884 1.522-1.216 3.32-4.057 12.065-6.908 13.524l-.673-.509-.173-2.193c-1.301-.092-2.179.787-2.876 1.842l1.153 2.195c1.128.137.548.153 1.738-.084l.39.611c-.377 1.623-1.746 7.684-3.359 8.172-5.757 1.74-4.773 3.805-6.129 8.315-1.188 3.949-7.893 7.216-11.768 7.278l-1.068 1.131c.286 1.106-.003.739.61 1.261l-.644-.785 1.265 1.225c-1.893 1.157-4.198.463-4.939.761-1.378.554-2.88 3.715-5.09 3.26l-1.47-1.774-1.831.06c1.421 1.255 1.761 1.106 2.105 2.604-1.581.564-4.663-.312-6.219-.972l-.472.289c-1.545.175-6.855-.332-8.857-.107-.531.06-.957-1.128-1.255-1.665l-1.216.056c-.176.375-.526.829-.773 1.188-3.054-.328-5.067-1.853-7.525-3.718l-.42-.323c-1.074-.028-.537.07-1.569-.688l-.187-1.942c-6.099-4.802-6.587-.738-13.889-9.73-.953-2.595-2.344-6.576.001-8.517l2.454.287c-.979-.679-2.161-1.038-3.271-1.537-.677-1.366-.463-4.244-.505-5.965l-.613-.496c.241-1.982.188-1.936 1.057-3.703-.946-1.365-1.62-1.396-3.002-2.232-4.323 3.463-3.589 6.793-8.038 9.333l.237.589 1.021.266c.079 1.348-8.733 11.966-9.493 14.43-.118.381-1.038 1.61-1.301 1.969-1.017 2.737-6.73 6.49-6.135 7.819-1.509 3.753-3.205 3.607-3.927 8.107-1.282 2.353-3.716 6.993-5.659 9.207-6.23 7.097-17.952 15.21-26.575 18.93-1.204.52-6.447.695-8.764 1.612.132.49 2.105 8.784 2.107 8.885l.172.769c.614 2.683 1.691 3.328.141 5.657-.546.82-.61 1.079-.562 1.98l1.356 2.1c-.101 3.315-.313 7.453-.224 10.686-.539.305-.995.585-1.455 1.004.581 1.213.915 1.222 2.087 1.99-.165 1.45.053.74-1.192 2.016l1.391.46.213.674c-.917.512-1.469.795-2.326 1.384l.644.618c-.393 2.256-.376 1.123-.664 1.985-1.189 3.563-.258 5.973-2.001 10.035l.557.831c.646.955.945 1.311 1.754 2.168l-.091.468-.949.475.124.76c.881.238 1.597.406 2.491.59l.328.947c-1.065.275-.68.18-1.892-.108-1.383 1.213-1.544 1.169-2.084 2.973.247 1.828-.184 1.178 1.078 2.169l1.432-.017c.284-.958.412-1.318.905-2.213l1.136-.144c-.022 1.122-.054.577.091 1.636l1.211-.054c-1.235 2.959 1.798 14.555 2.172 18.212.352 3.448 1.955 4.681-.066 7.732l1.805 1.081c-.017.954.157.594-.316 1.158.987 2.697 1.674 5.949.527 8.678-1.193.456-1.068.167-2.662-.481l1.091 2.815.776.314 1.119-.517c1.533 3.035-.054 4.756-1.443 7.462.737 1.276 1.319 1.601 2.462 2.501.681 2.529-.523 5.147-.401 7.731.246 5.224 1.347 10.513 1.833 15.739.318 3.415 1.463 27.647.728 29.143-.554 1.127-1.799 1.195-2.359 2.293 1.086 2.152 2.099 1.529 4.376 1.152l.339.717c-1.325 2.416-1.259.899-2.886 2.646 1.715 2.939 3.117 4.762 2.71 8.211-1.95 2.247-3.226.498-4.131 2.505 2.127 1.958 1.847-.504 3.837 1.882l.029 1.032-1.725.824.182.698c3.327 1.618 3.292 3.023 1.77 6.329.571 1.355.642 1.278 1.762 2.28-.341 2.368-2.576 4.723-1.971 5.298 1.397 1.329 2.308.211 3.882 2.225-.056 2.947-.35 5.564.874 8.209.842 1.819 1.64 3.335 1.708 5.297-.663 1.495-1.205 1.769-2.461 2.793-.196 2.977 2.585 1.006-.573 5.501-2.345.432-2.081-2.03-4.838.455-.21 2.051.086 2.862-.998 4.148-1.465-.557-.974-.372-2.213-1.548-2.14.407-2.516 2.283-3.308 4.163-7.067 4.957-7.854-4.905-11.828-3.284-.69 1.165-.964 1.757-1.514 3-1.82.839-.848.609-3.079.385-.819-1.085-1.39-1.839-2.302-2.862-.548.808-.22 2.075-.305 2.122-4.079 2.26-7.472 5.681-12.352 5.1-5.459-.65-12.566 4.273-17.802 2.003-.451-.23-.668-1.588-.774-2.101-2.037-.745-2.537-.132-4.289.999-2.429-.676-3.662-3.493-4.98-5.729.314-8.214.609-9.628 3.734-17.113l.635-.235c.976-3.275 1.767-2.927 2.437-5.434-1.016-1.52-1.332-1.794-1.581-3.641l.56-.716 1.552.067c5.888-6.67.44-5.432.627-12.241.045-1.635 3.091-5.234 3.055-7.223-.03-1.641-1.184-.866-1.711-2.982 1.564.255 1.494.318 3.012-.048 1.107-1.526.746-.638.61-2.931-2.652 1.014-1.45 1.848-3.837 2.005l-.242-.942c.628-1.91 1.077-2.696.776-4.679l.527-.297 1.596.665.052-.73c-1.365-.954-1.509-.98-2.616-2.3.855-1.245 1.303.044 3.34-.696-1.085-.536-1.76-.762-2.89-1.168-.024-.85 3.167-9.788 2.752-12.02.167.898.141-2.816.159-2.416 2.232-.468 1.568.849 3.33-.545l.034-1.368c-2.47-2.394-5.892-5.362-2.62-8.722l1.395.26-.026-.86-1.186-.908c-1.095.114-1.154.136-2.238-.011-.117-1.735.969-3.302 1.75-5.24l-.793-1.439.354-.795 1.257.17c.825-1.515-1.878-1.451-1.838-4.723.971-1.464 1.408-1.543 2.961-2.316.022-1.303.138-.665-.373-1.909-.863.726-.623.507-1.237 1.082l-.377.357c-.306-2.312-1.178-5.482-.324-7.203l1.643-.496.071-.89c-.98-1.383-1.582-1.942-1.725-3.628.843-2.475 1.551-2.289 3.008-4.366l.02-.08c-2.157-.744-2.412-1.188-3.178-3.321.139-1.821.267-2.02 1.202-3.472l-.25-.949c-1.084-.933-.617-.565-1.124-2.367-.195-1.833.38-4.66.612-6.581.51-4.223-.623-5.948 2.507-9.086-.118-1.456-.635-1.459-.856-2.452-1.722-7.736.747-18.131.642-26.13-.083-6.278.207-10.259-.349-16.389-.031-1.981 1.448-6.04 1.272-7.8-.549-5.496-2.696-5.597-.52-11.277-.337-1.488-.102-.783-1.527-2.084-3.008-.301.13.222-2.401 1.195-.806-.2-8.771-5.055-11.979-6.422-7.808-3.33-15.27-4.871-22.67-9.169-1.049-.609-.387-2.493-2.288-3.935l-.221 1.718c-2.546-.755-6.622-7.131-8.753-9.057-12.537-11.328-20.011-23.927-25.959-39.647-1.783-4.711-2.151-10.409-4.802-14.606-1.741-1.515-3.67-4.07-5.65-4.334l-.855-2.198c-3.207-.834-5.95-.295-9.269.004a138 138 0 0 1-3.835 4.031l-1.919-.516c-.471 1.179-.484.605-.03 1.723a27 27 0 0 0 2.772-.063c3.955 2.324 5.151 10.255 3.395 13.889l-1.441.39.013.915c1.939 1.612 1.866.999 1.986 3.798.185 4.325.306 6.819-1.776 10.683-.838.419-.38.274-1.62-.048-.836 3.145.016 5.361-.55 7.697-1.245 5.133-4.626 11.009-7.654 15.33-2.364 1.209-5.855 1.254-8.244 2.235-1.805.741-1.555 3.726-2.638 3.967-5.562 1.234-3.743.713-7.432 3.562l-1.537-.218c-1.556 1.32-7.943 3.279-9.052.943-2.551.356-2.264 2.07-3.335 1.754-5.847-1.728-11.378-5.502-15.194-9.765-5.923-2.129-3.643-2.625-6.951-4.605l-.89.328c-3.522-3.262-8.745-5.266-9.738-10.153l1.753-1.634-1.496-.763c-3.816.322-4.833-2.374-6.225-5.885-1.24-1.925-2.585-8.232-2.494-10.614.95-.541.891-.366 1.565-1.141l-1.698-.351c-1.63-6.661-.24-14.218 1.181-20.79 1.796-5.565-.575-11.076 1.981-16.244.801-1.62 3.035-1.294 3.174-1.532.688-1.185 2.095-3.099 2.997-4.309 1.066-.803 3.423-3.942 4.288-5.262 2.398-3.658 10.552-9.212 14.599-10.114l.636 1.293.802.098c2.507-2.099.812-2.034 4.263-3.456 2.426.805 7.111 2.302 9.756 2.988.3.078.602 1.958 2.151 2.93 3.382-.433 5.858-.655 9.121-1.678.366-1.673-1.303-2.343-1.381-3.077-.258-2.433-.129-5.992-.096-8.414.945-.945.68-.55 1.261-1.768l-1.601-1.573c-.205-3.155-1.937-16.426-.261-17.624l1.701.983c-.435-2.321-1.61-.715-2.419-2.931.801-1.37 1.344-2.355 2.029-3.785-1.019-1.811-1.709-2.403-1.416-4.113.957-.168 1.154-.156 2.092-.068 1.98-2.933-.03-7.484-1-10.355 1.062-2.235 2.891-3.134 4.51-4.978 1.908-2.174.204-3.738 1.199-5.853l1.406.266.363-.738c-.935-.82-1.083-.765-2.254-1.25-.572-1.469-.644-.82-.272-2.043 1.301 1.241.725 1.165 2.055 1.362.739-1.35.746-1.242.751-2.769-.903-.633-.877-.623-1.564-1.491l.333-.747c5.669-1.036 5.095-3.033 9.058-4.004 1.275-.557 2.895-1.213 4.209-.761 3.301 1.137 7.597-2.824 11.458-5.072 1.59-.029 8.072 2.537 10.328 3.243l.789-.731c-1.947-1.579-1.476-3.665-.077-5.481 1.838-.921 5.516-.761 7.776-.901l.197.505c-1.113.811-1.748 1.393-2.767 2.305l.121.658 1.255.144a55 55 0 0 0 1.553-1.927l2.047.238c5.254-1.678 6.482-.856 11.274.427l-2.767.279-.523 1.099c3.093.821 2.735.276 5.401-1.53 1.423 1.058 1.961 2.586 2.018 4.327-1.888 2.392-.323-.185-2.911.669.806.948 2.004 2.905 2.694 3.46 1.657-6.016 4.953-1.589 9.911-4.995 1.653-3.809-4.109-6.174-2.93-12.187.354-1.807-4.02-10.393-1.111-12.643l-.427-1.454c1.264-2.951.857-10.123 2.526-12.432.511-1.343.926-3.544 1.253-5.024.501-3.081 2.556-3.788 2.901-7.051l.003-.307c.839-2.421 2.754-3.577 3.427-5.567 1.954-5.779.413-14.728 7.336-17.47 1.901-.753 3.211-1.95 5.164-2.391l.409 1.835.743.318c1.958.228 1.217.5 2.687-.203 1.236-2.397 1.122-3.003 3.759-3.721m-9.942 141.61c-1.022 9.192-.576 6.311-4.632 15.128l-1.894 1.262c-3.259 8.301-3.895 5.409-9.499 7.841l.471.838c1.267 2.215 2.067 1.903 2.608 4.307-.482 1.801-1.406 2.978-2.923 4.069-1.187.081-.87-.074-1.877.399-.488 1.41-.419 1.425-.435 2.944-.83 1.187-.827 1.072-2.21 1.584l.242-1.686-.836-.993-.75-.038c-.935 1.428-.803 2.08-.865 3.782-.968 1.715-2.319 2.347-3.987 3.451-.089 2.016-.318 2.429-1.21 4.256l.93-.525.64.183c-.158 1.081-.037.664-.72 1.617 1.481 1.74 3.419 1.478 4.589 3.266-.12 1.198-.153 1.316-.517 2.467 4.601 5.332 11.431 14.101 15.726 19.871 2.62 3.519 7.999 16.279 11.766 19.454 5.825 4.911 22.102 14.138 28.559 17.182 1.72-1.42.764-2.521 1.362-4.662-.127-3.541 1.19-9.141.911-10.025-1.113-2.959 1.632-6.047.345-9.304-.4-1.012-.44-1.848-.236-2.916 1.473-1.007 1.579-.66 3.712-.754-.393-1.774-.579-3.084-2.021-4.161l-1.552.386c-2.33-2.549.536-1.329-2.302-4.458-.643-3.079-2.197-3.244-.402-6.259l-1.184-.667c.591-1.983 1.369-.995 2.447-3.376-.322-.889-1.467-4.09-1.388-4.8.482-4.335.711-17.605 1.836-20.902-.473-3.779-.189-18.429.088-22.195l-1.005.073c-.88-7.344.598-6.897.307-13.037-.029-2.314.515-4.814.712-7.212q.566-7.821.968-15.651c1.218-.367 1.42-.408 2.295-1.331l-.47-.446c-1.296-.1-1.301-.22-2.471-.853l.107-.692a45 45 0 0 0 2.52-1.316l-.191-.933c-.545-.59-1.069-1.084-1.645-1.642q-.663.3-1.328.594c-.781-1.01-.542-3.429-1.026-5.579l-.126-.542c-1.076 1.343-.401 1.724-.54 4.169l-.641.105a87 87 0 0 0-2.217-2.287c-2.466-.471-4.598.26-7.065.621-3.243.475-2.669-1.73-5.958-2.09-1.765 1.781-5.307.206-7.275-.807.638-1.22.759-1.193 1.711-2.254l-.357-.797c-2.102-.648-2-.688-4.146-.4.852 1.608 1.658 2.583 1.353 4.313-1.099 1.247-1.147 1.113-2.771 1.629-1.45 3.447-1.893 1.842-5.133 1.84.81 2.425 3.375 3.001 3.594 4.481.291 1.968-2.443 5.481-1.069 8.37.503 1.057-.607 2.682-1.226 3.691.643.925.918 1.386 1.26 2.457l-.43.711-1.452-.125.007.67 1.616 1.02c.114 1.433-.614 2.38-1.312 3.692l.128 2.276c-.84.777-.34.526-1.516.716m-14.737 13.54c.348 1.429-.304 7.098-1.091 8.387l1.351.246c2.171-1.509 3.968-3.367 3.089-6.172l-1.413.316-.541-.438c.812-1.042 1.045-1.138 2.069-2.026l-.605-.464zm96.693-85.044c1.317-.055.939-.2 2.069.229 1.02-.424.715-.195 1.47-.859.796-.7.52-1.376.566-2.386 1.101-1.707 3.027-4.424.856-5.923-2.493.161-4.175 1.808-4.243 4.343-.044 1.681-.959 2.961-.718 4.596m94.736 149.766c-1.058-2.016-.486-2.088-2.403-3.113-1.71.293-2.497 1.226-3.845 2.363 2.638.927 3.416.806 6.248.75m29.405-90.202c-1.64-.344-1.722-.236-3.325.045-1.258.97-.858.367-1.312 1.818 1.574-.685 1.874-.635 3.542-.733l.497-.026zm-55.477-25.092-.744-.807c1.034-2.04 1.015-1.079.467-2.958l-1.144-1.148-.553.336c.622 2.463.598 8.079.814 8.635 1.493-1.142 1.094-2.278 1.16-4.058m-47.839 119.209c1.472-1.69 1.812-1.494 2.001-3.289-.661-.678-.653-.849-1.441-1.207-1.233 1.993-1.257 2.061-1.376 4.359l.352.647zm-123.373-94.198c-2.38-.502-2.109-1.504-4.295-1.651l-.758 1.282c1.594 1.61 1.324 1.916 3.026 2.061.669-.556 1.375-1.123 2.027-1.692m219.941 76.196 1.375-2.225c-.481-1.03-.143-.672-.873-1.192-.787 1.396-1.462 1.968-1.341 3.259zM479.815 318.372l-1.223-1.116c-1.516.691-2.95 4.862-3.346 6.556.641-.279 1.255-.51 1.913-.731.372.47.579.635.808 1.168l.048-1.077c2.451-1.219 1.884-2.546 1.8-4.8M352.74 483.141c-.182 2.136-.726 5.449.986 7.032l.659-.048.32-.896c.897-1.397 1.582-2.07 1.414-3.688-1.039-1.455-1.773-1.629-3.379-2.4m90.421-81.327c.346 2.29-.047 2.543 1.266 3.702 1.474-.208 1.251-.103 2.614-.611.371-.859 1.223-2.031 1.715-3.09-1.997-.12-3.953-.778-5.595-.001m-69.375 80.188-.398.668c1.886-1.618 5.101-5.462 4.798-8.007-.723-.612-.372-.535-.911-.577l-.414 1.397c-5.782-1.097-3.57 3.755-3.075 6.519m136.336-9.17c.717-2.192.958-4.503-1.761-5.43.137 1.747.179 2.914.608 4.637zm-76.876-78.07c-1.443 2.516-1.728 3.644.275 5.687 1.743.673 2.588-.224 4.07-1.154-.587-3.114-1.598-2.965-4.345-4.533m14.099 119.048c1.452 4.045-3.509 3.718 2.953 7.047.702-2.937.336-5.653-2.953-7.047m66.048 80.739-.273 1.46c1.369 1.56 2.535 1.451 4.54 1.467-1.037-1.796-2.244-2.02-4.267-2.927m1.428 138.95-.007.897c1.506.91 1.899.959 3.543 1.415l.15.687c-2.709.899-2.222-1.007-4.27.518l-.109 1.015c1.526 1.224 5.034 1.505 6.206.126-1.042-1.332-1.832-3.103-.719-4.595l2.607.442.315-.402c-1.346-1.454-3.81-2.207-5.769-2.212zM420.12 435.742c.124 3.208 1.617 6.75 2.535 9.946l.847.514.235-.075c1.365-6.171 2.396-7.19-3.617-10.385"/><path fill="#2a3228" fill-opacity=".988" d="M548.967 353.018c-.241-1.635.674-2.915.718-4.596.068-2.535 1.75-4.182 4.243-4.343 2.171 1.499.245 4.216-.856 5.923-.046 1.01.23 1.686-.566 2.386-.755.664-.45.435-1.47.859-1.13-.429-.752-.284-2.069-.229"/><path fill="#475441" fill-opacity=".988" d="M668.471 414.445c.454-1.451.054-.848 1.312-1.818 1.603-.281 1.685-.389 3.325-.045l-.598 1.104-.497.026c-1.668.098-1.968.048-3.542.733"/><path fill="#1d261c" d="M520.576 386.253c2.228 2.216 1.684 4.389 1.697 7.769q-.007 2.615.041 5.228l1.27.485-.086.761-1.434.779c1.085 2.649 1.254-.334 1.396 2.456-.831.724-1.344 1.094-1.822 2.096.934.721 1.062.728 2.163 1.196.34 2.356-.572 4.136-.27 5.891.574 3.327 2.386 7.317 3.27 10.63-.046.691-.094 2.118-.246 2.724.677 7.702.747 9.22-6.248 13.025 1.49 3.229 6.349.205 8.774 3.122-.31.685-.547 1.241-.716 1.979 1.456 1.85 2.241 2.574.873 5.227.407 2.394 1.77 6.428.517 8.642-.202.357-1.591 1.097-2.074 1.609l-.815.309-.431-1.144c-1.674 2.334-1.752 1.763-4.424.477-1.161.596-.685.175-1.253 1.486l-.459 1.012.649 1.475c-3.141-.211-4.478-1.952-6.958-1.508-1.795 1.769-2.866 3.588-4.989 4.288-2.771-.149-4.349-.72-6.014-3.066l-1.272.082c-.473-3.779-.189-18.429.088-22.195l-1.005.073c-.88-7.344.598-6.897.307-13.037-.029-2.314.515-4.814.712-7.212q.566-7.821.968-15.651c1.218-.367 1.42-.408 2.295-1.331l-.47-.446c-1.296-.1-1.301-.22-2.471-.853l.107-.692a45 45 0 0 0 2.52-1.316l-.191-.933c-.545-.59-1.069-1.084-1.645-1.642q-.663.3-1.328.594c-.781-1.01-.542-3.429-1.026-5.579l-.126-.542c2.303-.807.307.597 3.229-.521.477 2.186.445 2.624 1.686 4.398 1.863-.324 3.986.021 5.553 1.047 1.03-.148 1.695-.557 2.667-.993 2.421-3.465 2.032-2.174 5.211-3.952 3.111-1.739.129-3.504.472-5.646z"/><path fill="#2a3228" d="M520.576 386.253c2.228 2.216 1.684 4.389 1.697 7.769q-.007 2.615.041 5.228l1.27.485-.086.761-1.434.779c1.085 2.649 1.254-.334 1.396 2.456-.831.724-1.344 1.094-1.822 2.096.934.721 1.062.728 2.163 1.196.34 2.356-.572 4.136-.27 5.891.574 3.327 2.386 7.317 3.27 10.63-.046.691-.094 2.118-.246 2.724-1.583-.06-3.769.174-5.391.303-1.746-1.147-1.209-.829-2.164-3.134-1.559-.178-1.779-1.073-2.649-2.255l.278-.506 1.721.367-.561-.636.712.477-.92-.242-.126-.663-2.161-1.27c.742-1.262 1.092-1.737 1.955-2.871l1.884.028.18-.427c-1.229-1.842-1.443-2.029-1.995-4.118l.6-.877c.635.33.709.293 1.411.47l-.011-.56c-1.907-1.57-2.394-2.038-3.946-3.955.115-1.194.221-.667-.186-1.603l-2.786.907-.138-.623 1.217-1.443c-1.567-1.805-2.736-3.73-2.561-6.192 1.03-.148 1.695-.557 2.667-.993 2.421-3.465 2.032-2.174 5.211-3.952 3.111-1.739.129-3.504.472-5.646z"/><path fill="#162014" d="M519 423.437c1.063-.261.688-.1 1.562-.777l-.109-1.547c1.098-1.649.386-1.121 2.069-1.81 1.828.539 3.199 2.706 4.279 4.241-.046.691-.094 2.118-.246 2.724-1.583-.06-3.769.174-5.391.303-1.746-1.147-1.209-.829-2.164-3.134"/><path fill="#2a3228" d="M505.08 403.93c1.506 1.733.872 1.363 1.164 3.805-1.676 3.242-2.581 4.662-2.812 8.274 1.045 2.342 2.946 5.314 2.073 7.607-1.065.113-.839.106-1.972.022l.368-.086c-.702 1.18-.599 1.986-.627 3.303-.824 1.015-.878.898-2.169 1.269-.029-2.314.515-4.814.712-7.212q.566-7.821.968-15.651c1.218-.367 1.42-.408 2.295-1.331"/><path fill="#222822" d="M515.294 418.709c-.82.003-.792-.096-1.615-.381-.923-2.614-3.491-8.963.396-10.192 1.798.77 2.229 1.142 3.843 2.308l-.6.877c.552 2.089.766 2.276 1.995 4.118l-.18.427-1.884-.028c-.863 1.134-1.213 1.609-1.955 2.871"/><path fill="#2a3228" d="M524.782 456.268c.417-3.311 1.368-5.279 4.456-6.647.407 2.394 1.77 6.428.517 8.642-.202.357-1.591 1.097-2.074 1.609l-.815.309-.431-1.144-.753-.303c-.284-1.269-.225-1.383-.9-2.466"/><path fill="#2a3228" d="M525.682 458.734c-2.138.124-4.459-1.406-5.692-3.104l.812-1.588-1.165.139-.033.612.647-.861-.161-.051c2.418-.04 2.461.585 4.692 2.387.675 1.083.616 1.197.9 2.466"/><path fill="#253022" d="m516.717 435.127.383-.005.588.595c-.127.785-.235 1.267-.506 1.983.917 1.211 1.115 1.438 1.826 2.837l-.516.654-1.698-.164c-1.284.78-.967 1.018-1.555 2.927-1.71-1.536-2.931-2.047-3.261-3.926 1.851-2.187 3.128-2.314 4.739-4.901"/><path fill="#2a3228" d="M505.714 410.653c1.708.174 2.181.017 3.618.793l-.467.47c-1.686.333-1.578.59-2.986.093z"/><path fill="#2a3228" d="m391.039 501.968 1.269-.535c2.2 1.603.181 1.562 2.643 3.233 1.747-.421.968-.005 2.269-1.531l.092-1.016-1.104-.027c-.827 1.007-.62.666-1.188 1.871l-.665-.815c1.532-2.057 1.818-2.618 3.81-4.13l.915.056c1.274 2.397-1.501 4.628 1.161 6.683l1.353-.145c-.836 3.145.016 5.361-.55 7.697-1.245 5.133-4.626 11.009-7.654 15.33-2.364 1.209-5.855 1.254-8.244 2.235-1.805.741-1.555 3.726-2.638 3.967-5.562 1.234-3.743.713-7.432 3.562-.229-1.48.134-1.824-.325-3.423l-1.024.106c1.116-4.548-2.786-4.375-.648-7.835.927.182 1.456.361 2.322.702.219-1.669.19-2.275 1.839-2.607.323.519.614.992.915 1.526l.223.402c1.406-.809 5.088-4.557 5.049-5.993l-.595.085-.4.843c-1.111.429-2.602-.702-4.212-1.388-3.319 1 .387.763-2.219 2.701-3.375-1.942-5.607-3.837-9.056-1.904-5.287-.718-4.757-8.02-4.703-11.754a153 153 0 0 0-1.845-1.668l.116-.756.524-.307 1.038 1.618c1.377-.062.758-.032 2.22-1.418-.406-1.458-.149-3.349.95-4.451l1.793.414c1.133-.703.712-.376 1.424-1.696-.109-1.454-.234-1.107.121-2.428l1.002-.091c1.041 2.348-1.129 1.994-.384 4.662l.714.155c1.337-1.106 1.596-1.395 3.233-2.122l.641.436c.212.945.373 1.421.671 2.34l.502.201 1.173-1.123.527.106c-2.214 2.366-3.938 3.614-3.122 7.006l.629.365 2.006-.952.541.495c.74 2.843-.134 4.027.043 6.786 1.909 2.816 4.668 1.801 7.754 2.771l-.313.912c1.21.474 2.798-.008 3.868-.656l.207.039-1.424-.746-.002-1.256c-2.029-1.195-.22.597-2.981-.136-1.321-1.562-1.541-1.814-2.473-3.607.305-1.796.663-1.478 2.695-2.982l-.153-1.263c2.766-1.216 6.525-5.897 7.102-8.544"/><path fill="#1d261c" d="m584.426 281.532 1.368.023c1.277-.663 1.496-1.294 2.221-2.482l1.318.102c.081.449.281 1.729.422 2.198-.705 2.027-1.727 3.756-.738 5.752-1.212 2.326-1.042 1.761-.014 4.303l-.073.237-1.657.654c-.237.93-.287 1.186-.432 2.102-1.063.785-1.278.636-2.649.742l-.102 1.041c-.103 2.398.26 2.01-.862 3.763-2.57.815-1.474-.214-4.134-.367l-.134.761c1.123 1.278 1.729 1.83 2.466 3.393-.353.889-1.75 3.972-1.579 4.591.692 2.503-.263 4.294.969 6.284 1.558.389 2.674.315 3.338 1.31l-.662 1.066c-.985-.326-.487-.081-1.454-.813-2.579.222-3.023 2.035-5.697.145-1.824-2.729.951-3.902-1.5-7.141-2.032.68-3.242 6.057-5.097 8.248l-.908.099c-.489-.994-.547-1.141-.838-2.209-1.669-.289-1.573-.204-3.166.459-1.02 1.415-.6 2.031.52 3.326 1.311.058 1.698-.445 2.811-1.222l.589.334c.049 2.534-.889 1.395-.895 2.257-.028 3.859-.432 3.638-3.634 6.364.775.68.509.479 1.466.907-.45 1.256-.066.747-1.154 1.526l-.825-.392c-1.027-.481-1.299-.557-2.439-.81-.537.579-1.472 8.921-4.337 11.057l-2.495-.528-.754.612.65 1.976c-.885 1.351-.464.855-2.079 1.664l-.514-.185c.18-1.275.307-1.906.287-3.201l-.55-.673.16-.677-.288.506-.08-.459 1.13-.415c.964-2.315.832-5.338.128-7.717l.553-1.29c1.044 1.057.567 1.456 2.012 2.514l.791-.57c-.856-1.333-1.643-2.156-1.554-3.687 1.31-1.811 1.238-1.373 3.876-2.17-.112-.465-.357-3.426-.2-3.625 5.839-7.421 9.428-15.815 15.596-23.081l.231-.913c2.426-1.475 1.527-3.547 5.389-4.928-.351-3.814.964-9.67 5.203-10.761"/><path fill="#2a3228" d="m579.223 292.293 1.195-.105c-.883 2.97 1.579 3.197.156 5.047l-1.718-.033c-.795 1.226-.715 1.162-.846 2.637-2.211-.985-2.359-1.059-4.176-2.618 2.426-1.475 1.527-3.547 5.389-4.928"/><path fill="#2a3228" d="M579.223 292.293c-.351-3.814.964-9.67 5.203-10.761-.605 2.945-.911 3.369-2.505 5.949l.877 1.739-.534.53-1.486-.454-.656.688.307.744 1.404.555-1.415.905z"/><path fill="#191e18" d="M573.834 297.221c1.817 1.559 1.965 1.633 4.176 2.618l-.255.779c-1.953 1.287-1.625 2.556-3.135 3.202-1.039-2.608-.164-3.212-1.017-5.686z"/><path fill="#222822" d="m535.79 569.082-.594-1.242c-1.26-.03-1.173-.031-2.308-.597l-.192-1.932c-1.416-.604-2.588.321-4.6.965-1.277-.64-.798-.165-1.41-1.541.954-.655 2.032-1.06 3.188-.719l-.998-.543c-.186-1.281-.223-1.547-.629-2.767l-1.108.301q.505-1.472.966-2.957l-.569-.758-1.018 1.267-.462-.846c.124-1.761-.011-2.738 1.069-4.108 1.942-.393 1.807-.02 4.037.861 1.665-2.873-.427-5.992 4.888-7.065 1.177.553 1.422.505 2.705.323l.172.769c.614 2.683 1.691 3.328.141 5.657-.546.82-.61 1.079-.562 1.98l1.356 2.1c-.101 3.315-.313 7.453-.224 10.686-.539.305-.995.585-1.455 1.004.581 1.213.915 1.222 2.087 1.99-.165 1.45.053.74-1.192 2.016-2.162-.409-1.381.118-2.664-1.222-.122-1.378-.253-2.263-.624-3.622"/><path fill="#2a3228" d="M322.411 508.405c.917-.812 1.136-.918 2.203-1.544 1.407.658 1.198.924 2.177 2.502l.717-.073.592-1.051c-.666-2.4-3.242-2.52-4.516-5.413.252-1.771-.077-.959 1.235-2.418l.992.631.497-.49-.548-.581.047-.5c2.84-.51 6.798 2.81 9.049 1.026-.518-.857-.654-.99-1.353-1.667l-.639-.612.214-.981c1.074-.345 1.473-.492 2.489-.977 1.398-4.309-1.572-3.199-2.59-7.294.375-2.982 2.467-2.889 2.602-4.985l-1.555-1.217.366-.741c1.658.22 1.202-.135 2.301.693.906 1.782 1.87 4.774 1.812 6.821-.016.596-1.13 1.294-1.73 1.798l.027 1.184c1.162 1.275.92.701 1.377 2.227-.985 1.075-.721.641-1.319 1.966.839.01.46.04 1.393-.117l.702-.126c1.033 1.047.587.47.703 2.544-.672 1.305-.716 1.085-2.044 2.017l-.438.302-.052 1.649c-3.329 3.073-6.81 7.406-6.99 12.075l-1.496-.763c-3.816.322-4.833-2.374-6.225-5.885"/><path fill="#222822" d="M453.428 310.111c2.183-.774 2.904-1.385 4.967-.687.627 2.01.587 1.934-.746 3.75 1.689-.205 2.504-.32 4.146-.737 1.401-.564 1.361-.589 2.851-.713l.016-.459c-1.629-.822-1.182-.205-1.794-1.576 1.832-.999 5.329.266 6.582 1.928.068 2.609-.903 3.27-2.792 5.267l-.476.497c-.501 1.376-.172 1.778.276 3.213l-.501.615-1.753.1-.24.677 1.585 1.177-.271.64c-4.316-1.098-4.316-5.15-9.445-.485l-.658-.34c.075-1.221.169-.657-.212-1.701-1.519-.102-1.915.608-3.529 1.671l-2.163-.455c.511-1.343.926-3.544 1.253-5.024.501-3.081 2.556-3.788 2.901-7.051z"/><path fill="#1d261c" d="M453.428 310.111c2.183-.774 2.904-1.385 4.967-.687.627 2.01.587 1.934-.746 3.75l-.152.034-1.682 2.409-.938-.199-.997 1.928c-1.517.401-1.908-.142-3.356.123.501-3.081 2.556-3.788 2.901-7.051z"/><path fill="#253022" d="m453.425 310.418 1.434.4c-.067 1.643-.315 2.981.018 4.6l-.997 1.928c-1.517.401-1.908-.142-3.356.123.501-3.081 2.556-3.788 2.901-7.051"/><path fill="#2a3228" d="M457.649 313.174c1.689-.205 2.504-.32 4.146-.737l1.629 2.018c-.435 2.004-.001 1.111-1.507 2.693-1.615.548-1.701.383-3.329-.029-1.231-2.183-.085-1.877-1.091-3.911z"/><defs><linearGradient id="a" x1="396.972" x2="414.986" y1="368.754" y2="360.988" gradientUnits="userSpaceOnUse"><stop offset="0" stop-color="#131b17"/><stop offset="1" stop-color="#2f3629"/></linearGradient></defs><path fill="url(#a)" d="M389.227 365.253c1.275-.557 2.895-1.213 4.209-.761 3.301 1.137 7.597-2.824 11.458-5.072 1.59-.029 8.072 2.537 10.328 3.243l.789-.731c1.624 1.381 1.096 1.108 1.424 3.986-.015 1.736-.319 1.042.808 2.207.508 1.874-2.247 3.771-3.803 4.314l-.472-.438.347-2.765c-2.545-.463-2.925-.715-5.175.257-1.656 2.339.866-.11.623 3.026l-.825.512c-2.002-1.228-2.043-5.631-4.146-6.656l-.266 1.576-.828.225c-.234-1.504.137-1.11-.7-1.774-1.435.638-.835.168-1.762 1.577l.392.925 1.795.626c.495 1.269.325.793.128 2.332l-.656.442c-1.937-.412-4.007-2.603-5.42-4.024-2.076.957.491.395-.979 1.877-.333-.728-.768-1.752-.95-2.532-.924-3.944-3.514-.921-6.319-2.372"/><path fill="#222822" d="M329.117 453.424c1.066-.803 3.423-3.942 4.288-5.262 2.398-3.658 10.552-9.212 14.599-10.114l.636 1.293.802.098c2.507-2.099.812-2.034 4.263-3.456.151 2.108.246 2.28-.594 4.138.941 2.461 1.723-.035 1.497 1.932-.846.079-1.15.057-1.929.403l-.229 2.981c-1.655-1.319-1.636-2.019-3.555-2.671-.163 1.266.013.844-.582 1.921l-1.839-.107-.378-1.226c-1.747-.531-.913-.584-2.585.176l-.479.696c.609 2.587 2.286 1.692 2.565 4.56l-.863.838c-.968-.845-1.329-1.187-2.177-2.149-3.275 2.97-6.318 6.064-9.809 8.855-2.424 1.939-1.175 3.251-5.179 3.997 1.669-3.245 2.209-3.692 1.548-6.903"/><path fill="#222822" d="M587.708 493.164c-.483-2.296-.646-4.856-1.637-7.165-1.579 1.107-2.459 1.955-3.885 3.272-2.397-2.172-1.986-.197-3.803-2.004 1.162-1.667 1.198.627 4.349-1.097 1.01.585.491.432 1.535.53.584-1.502.657-.82.12-2.117-1.764-.382-2.505 1.498-4.936 1.293-.347-1.207-.398-.643.039-1.698l1.76.532c1.628-2.739 1.648-5.265 4.966-5.86 1.498-.269 3.17-.991 4.05-2.31l-.504-.774-1.036.74-.516-.535.289-.765c2.201-.78 6.556-.222 8.745.704l.237.589 1.021.266c.079 1.348-8.733 11.966-9.493 14.43-.118.381-1.038 1.61-1.301 1.969"/><path fill="#222822" d="m337.122 502.978.627 1.029c-2.373 3.694-.601 3.983-1.191 7.794-.162 1.046-2.509 1.782-3.094 3.844 2.131.27 1.612-.036 3.867-.869.724 5.83 3.627 2.601 5.638 5.503-.084 1.587-.295 2.083-1.767 3.009-1.459.918-1.407 1.883-2.195 3.224l-.89.328c-3.522-3.262-8.745-5.266-9.738-10.153l1.753-1.634c.18-4.669 3.661-9.002 6.99-12.075"/><path fill="#2a3228" d="M500.445 649.249c2.473 2.282-.306.619 2.828 3.582l1.344-.187-.424.591c.696-1.101.493-.858.661-2.092 1.331.125 1.39.078 2.612.567.548-.556.71-.637 1.117-1.292 3.081 2.892 3.264 7.867-1.066 7.187l-.75-.579-.776.505.106.818q1.12.652 2.249 1.285c-.147 1.554.03.794-1.14 2.245l-2.243-.486c-1.539 1.497-3.764 3.42-4.81 5.195l-.394-.286c.022-1.303.138-.665-.373-1.909-.863.726-.623.507-1.237 1.082l-.377.357c-.306-2.312-1.178-5.482-.324-7.203l1.643-.496.071-.89c-.98-1.383-1.582-1.942-1.725-3.628.843-2.475 1.551-2.289 3.008-4.366"/><path fill="#2a3228" d="M609.161 488.74c-.953-2.595-2.344-6.576.001-8.517l2.454.287 1.992.38 1.602.605-.741 1.134.487 1.06c6.138-1.641 6.27 5.814 4.253 9.176 1.251 1.664 2.223 3.184 3.854 4.463l-.013 1.142c-6.099-4.802-6.587-.738-13.889-9.73"/><path fill="#222822" d="m499.759 666.302.394.286c1.046-1.775 3.271-3.698 4.81-5.195l2.243.486-.184 1.707.511.616 2.129-.206c.419 1.434.367.695-.224 2.266-1.806 1.637-3.452 1.868-5.88 2.274l-.015.731.771.48c.956.605.603.326 1.257.925-1.154 1.365-1.879 1.719-2.075 3.189l.312.636c.915 1.898 1.324 2.375 1.323 4.379-2.574 1.974-3.23.63-5.639 2.688l-1.186-.908c-1.095.114-1.154.136-2.238-.011-.117-1.735.969-3.302 1.75-5.24l-.793-1.439.354-.795 1.257.17c.825-1.515-1.878-1.451-1.838-4.723.971-1.464 1.408-1.543 2.961-2.316"/><path fill="#2a3228" d="M416.011 361.932c-1.947-1.579-1.476-3.665-.077-5.481 1.838-.921 5.516-.761 7.776-.901l.197.505c-1.113.811-1.748 1.393-2.767 2.305l.121.658 1.255.144a55 55 0 0 0 1.553-1.927l2.047.238.039.447c.241 2.586 1.137 4.398.602 6.533q-1.15 1.259-2.271 2.546l.025.436c-.961 1.135-.765.682-1.247 2.007.793 1.037.781.961 1.146 2.205l-.535.562-1.182-.324c-1.142-1.933-3.198-5.118-5.258-5.967-.328-2.878.2-2.605-1.424-3.986"/><path fill="#191e18" d="M680.58 472.122c-1.605.583-3.085.582-4.291-.591l.09-2.58c-1.051-2.019-1.485-2.307-1.091-4.196 1.184-.676 2.759.032 4.679.153.109-1.707-.25-1.045.729-2.196l.8.182.834 1.548c1.598-.126 5.4-4.066 6.555-5.375 1.291.002 1.031.035 2.325.391-1.216 3.32-4.057 12.065-6.908 13.524l-.673-.509-.173-2.193c-1.301-.092-2.179.787-2.876 1.842"/><path fill="#2a3228" d="m337.331 514.776 1.051.007c1.029-1.166 1.047-2.529 1.322-4.118 1.583-1.809 3.729-.545 5.852.12-.403 2.08-3.074.894-1.886 3.733l2.379 1.774c-.147 1.323-.93 1.911-1.851 2.929.268 1.833.824 2.334 1.903 3.826l.008.626-1.636.762-.07.783c1.99 2.019 3.41 1.869 3.794 3.51-1.777 1.703-2.764-.261-3.351 1.183l1.241.381-.129.825c-5.923-2.129-3.643-2.625-6.951-4.605.788-1.341.736-2.306 2.195-3.224 1.472-.926 1.683-1.422 1.767-3.009-2.011-2.902-4.914.327-5.638-5.503"/><path fill="#1d261c" d="m536.335 589.082-.82-.262c-1.571-1.772-1.201-2.333-1.094-4.754-2.863-.958-2.76-.589-3.918-2.662.831-3.431.113.338 2.958-1.468l.097-1.005c-1.226-.232-.817-.079-1.931-.756-.162-2.11.483-7.845 1.035-9.839 1.52.121 1.719.257 3.128.746.371 1.359.502 2.244.624 3.622 1.283 1.34.502.813 2.664 1.222l1.391.46.213.674c-.917.512-1.469.795-2.326 1.384l.644.618c-.393 2.256-.376 1.123-.664 1.985-1.189 3.563-.258 5.973-2.001 10.035"/><path fill="#191e18" d="m525.568 482.768-1.14-.057c-.377 1.14-.076.713-.748 1.376-1.379-.904-2.31-4.188-2.813-5.838-1.786-5.856-.363-3.594 1.372-6.227l.745 1.132.724 1.418c2.358-.434 6.254-1.755 8.165-.581.393 2.782 1.119 4.93-.261 7.307l-1.629-.112c-1.059 1.059-.646.412-.747 2.341l-.606-.021-.692-1.049c-1.249-.255-1.175-.19-2.37.311"/><path fill="#191e18" d="m449.271 322.493 2.163.455c1.614-1.063 2.01-1.773 3.529-1.671.381 1.044.287.48.212 1.701l.658.34c1.385 1.104 1.463 1.242 2.538 2.553l.136 1.224c-1.085 1.138-1.537 1.078-3.077 1.481l-.101-.327-1.067.104-.412.742c-.642 1.938-.724 2.086-1.757 3.86v.501c-1.894 1.741-2.293 2.589-4.921 2.923l-.427-1.454c1.264-2.951.857-10.123 2.526-12.432"/><path fill="#2a3228" d="m526.435 459.037.431 1.144.815-.309 2.095-.299c2.034 1.947 2.249 11.385 2.097 14.418-1.911-1.174-5.807.147-8.165.581l-.724-1.418c4.017-1.082 3.213-.985 4.24-3.82.271-.747.576.496 1.806-1.293l-1.154-.752-.189-2.436c-2.579-2.586-4.5-.384-6.929-3.853.568-1.311.092-.89 1.253-1.486 2.672 1.286 2.75 1.857 4.424-.477"/><path fill="#222822" d="m385.411 497.128 1.127-.362.484.472c-.664 1.95-1.034 1.929-.564 3.513 2.194.902 1.705-1.058 3.495.17l.263.679.823.368c-.577 2.647-4.336 7.328-7.102 8.544-.675-1.248-1.706-4.372-2.705-6.335-2.057-4.042 1.444-6.216 4.179-7.049"/><path fill="#475441" d="m385.411 497.128 1.127-.362.484.472c-.664 1.95-1.034 1.929-.564 3.513 2.194.902 1.705-1.058 3.495.17l.263.679c-1.798.956-1.883 1.481-3.158 3.015l-.925-.064c.238-1.169.302-1.179.145-2.342a81 81 0 0 0-2.889-.849c.789-1.554 1.177-2.697 2.022-4.232"/><path fill="#2a3228" d="M525.568 482.768c1.195-.501 1.121-.566 2.37-.311l.692 1.049.606.021c.101-1.929-.312-1.282.747-2.341l1.629.112c.136 2.622 1.096 4.238-.582 6.18l-1.193.12.002.723c1.244.329 1.762.16 2.136.973 1.086 2.361 1.148 7.585.761 10.104-1.388-3.64-4.778-3.727-7.549-8.805q1.059-1.98 2.137-3.95c.015-1.356-.296-2.109-.676-3.393z"/><path fill="#2a3228" d="M329.117 453.424c.661 3.211.121 3.658-1.548 6.903l-.943.137c-.465 1.919.85 2.907 2.04 4.522l-.395.64-1.934-.006c-2.51 2.605-3.139 6.005-3.201 9.446l-.663.77c-.489-.097-1.041-.183-1.508-.327 1.796-5.565-.575-11.076 1.981-16.244.801-1.62 3.035-1.294 3.174-1.532.688-1.185 2.095-3.099 2.997-4.309"/><path fill="#222822" d="m541.808 632.36-.396-.263c-.441-1.365-.091-.752-1.334-1.69l-.703-.011c-1.792-1.521-2.46-1.917-1.801-4.307 1.739-1.064 4.957-1.158 6.958-.582l1.805 1.081c-.017.954.157.594-.316 1.158.987 2.697 1.674 5.949.527 8.678-1.193.456-1.068.167-2.662-.481-1.236-1.675.723-.787-2.078-3.583"/><path fill="#2a3228" d="M541.808 632.36c2.45-1.785 1.394-.849 2.709-4.114l1.504-.5c.987 2.697 1.674 5.949.527 8.678-1.193.456-1.068.167-2.662-.481-1.236-1.675.723-.787-2.078-3.583"/><path fill="#222822" d="M589.333 279.175c1.325-.092 1.234-.09 2.408-.73-.396-.868-.343-.429-.208-1.313 2.032.145 4.699 2.635 5.819 2.022 1.935-1.061 2.691-1.625 5.117-2.197-1.243 6.298-4.271 5.753-3.554 9.521l-.865.152c-.926-.871-.85-.852-1.36-2.036l-.521.706.227-.543.359 1.015-.803.752-.021.875c-.489-.816-5.432-5.679-6.176-6.026-.141-.469-.341-1.749-.422-2.198"/><path fill="#2a3228" d="M446.64 445.336c2.586-3.353 2.43-3.848 5.634-7.274.348 1.429-.304 7.098-1.091 8.387-.357.81-.729 1.342-.752 2.123l.555.181.471.838c1.267 2.215 2.067 1.903 2.608 4.307-.482 1.801-1.406 2.978-2.923 4.069-1.734-2.06-1.907-2.343-2.679-4.919.015-.667-.694-2.121-.991-2.846l.98-.85c-.694-1.497-.74-1.906-.877-3.484z"/><path fill="#2a3228" d="M448.463 453.048c.772 2.576.945 2.859 2.679 4.919-1.187.081-.87-.074-1.877.399-.488 1.41-.419 1.425-.435 2.944-.83 1.187-.827 1.072-2.21 1.584l.242-1.686-.836-.993-.75-.038c-.935 1.428-.803 2.08-.865 3.782-.968 1.715-2.319 2.347-3.987 3.451-.211-2.551 1.239-13.073 5.052-11.777.533 1.493.67 2.199.975 3.715l.784.068 1.22-1.227c-1.035-.574-1.115-.587-1.969-1.387.332-1.101 1.329-2.519 1.977-3.754"/><path fill="#253022" d="M503.783 642.442c.898-1.898.741-.939.572-2.97l-.621-.568c-1.558-1.439-1.776-1.42-1.852-3.11l.884-.904.694.137.318 2.113.906.091 1.585-1.901.76.226c-.094 2.153.204-.184-.576 1.736-1.053 2.59-.525 9.417-.626 12.419l.506.378 1.148-.677c.926.609.584.248 1.102 1.006-.407.655-.569.736-1.117 1.292-1.222-.489-1.281-.442-2.612-.567-.168 1.234.035.991-.661 2.092l.424-.591-1.344.187c-3.134-2.963-.355-1.3-2.828-3.582l.02-.08c1.697-1.974.949-1.78 3.503-3.604l.099.108.675-.528.119-1.036c-.52-.638-.73-.959-1.078-1.667"/><path fill="#2a3228" d="M484.029 393.039c-1.086-1.191-.757-.492-.855-2.238 2.174-.062 5.284 2.07 6.305 2.063 3.895-.028 11.323-2.281 15.211-3.228l.177.448-1.188 1.916c-2.922 1.118-.926-.286-3.229.521-1.076 1.343-.401 1.724-.54 4.169l-.641.105a87 87 0 0 0-2.217-2.287c-2.466-.471-4.598.26-7.065.621-3.243.475-2.669-1.73-5.958-2.09"/><path fill="#2a3228" d="m506.102 493.409.829 1.391c-.891 1.86-.983 1.106-.566 2.539l1.675.884-1.05.968c.109 2.277 2.679 2.775 2.994 5.329l-.682.392-1.967-.547c-.128 2.363.268 1.369-1.054 3.155-.393-1.774-.579-3.084-2.021-4.161l-1.552.386c-2.33-2.549.536-1.329-2.302-4.458 1.038-.236 1.171-.162 1.898-1.021 3.125-3.694 1.815-.042 3.798-4.857"/><path fill="#222822" d="M497.115 639.06c1.774-.302 2.673-.632 4.375-.052-.066.838-.032 1.543.09 2.374 1.082.251 1.381.307 2.203 1.06.348.708.558 1.029 1.078 1.667l-.119 1.036-.675.528-.099-.108c-2.554 1.824-1.806 1.63-3.503 3.604-2.157-.744-2.412-1.188-3.178-3.321.139-1.821.267-2.02 1.202-3.472l-.25-.949c-1.084-.933-.617-.565-1.124-2.367"/><path fill="#222822" d="M364.487 539.128c2.841-1.944 1.68-3.593 3.005-6.078l1.184-.354c3.265.582 2.276 1.765 5.051 2.39l1.024-.106c.459 1.599.096 1.943.325 3.423l-1.537-.218c-1.556 1.32-7.943 3.279-9.052.943"/><path fill="#2a3228" d="M648.014 345.679c.258 4.118-1.161 6.193-3.562 9.979-.697-.621-.378-.264-.94-1.087-1.578.448-1.156.416-2.445 1.877.041.023-3.547-2.475-3.526-2.458.5-1.57.822-2.582 1.695-3.978l1.011 1.034.448-.321-.568-1.785c1.091-.421 3.966.792 5.414 1.239 1.508-1.093.95-.396 1.617-2.251-.965-.859-.951-.692-1.613-1.738z"/><path fill="#2a3228" d="m455.133 437.911-.551-2.316.552-.667c2.467 1.727.703 3.631 5.351 5.984-3.259 8.301-3.895 5.409-9.499 7.841l-.555-.181c.023-.781.395-1.313.752-2.123l1.351.246c2.171-1.509 3.968-3.367 3.089-6.172l-1.413.316-.541-.438c.812-1.042 1.045-1.138 2.069-2.026z"/><path fill="#222822" d="M462.379 439.65c-.666-2.713-.009-3.585-2.231-6.25-1.539.256-1.215.3-2.72.178.413-1.622 3.484-1.44 5.112-2.758 1.675-1.356 1.747-3.704 2.822-5.985l1.649-.313c-1.022 9.192-.576 6.311-4.632 15.128"/><path fill="#2a3228" d="M629.711 282.264c6.546 3.946 8.701-2.899 13.161 7.834l-.901-.353c-1.193-.477-1.42-.643-2.493-1.42-2.085-.034-3.345.62-5.092 1.757l-.935-.332-.005-.761c1.353-1.009 1.124-.561 1.856-1.896-3.18-2.789-2.203.626-5.591-4.829"/><path fill="#2a3228" d="M489.201 750.526c.976-3.275 1.767-2.927 2.437-5.434-1.016-1.52-1.332-1.794-1.581-3.641l.56-.716 1.552.067c1.785.804 1.282.172 1.867 1.686l-.588 1.995.607.985c.725-.997.624-.96 1.121-2.123l.726-.017 2.147 2.539c-2.232.687-4.896 3.335-6.551 5.097-1.24.158-1.158.116-2.297-.438"/><path fill="#191e18" d="M663.693 410.533c3.55-2.921 7.53-2.529 11.154.455.572.471.756.477 1.178 1.094-.806.123-2.187.283-2.917.5-1.64-.344-1.722-.236-3.325.045-1.258.97-.858.367-1.312 1.818-1.114-1.993-1.583-1.476-3.669-1.415-.944-1.105-.856-1.047-1.109-2.497"/><path fill="#222822" d="M634.386 290.082c1.747-1.137 3.007-1.791 5.092-1.757 1.073.777 1.3.943 2.493 1.42l.901.353c.764 1.945 1.975 3.004 2.949 4.814-3.906 1.453-8.031-2.544-11.435-4.83"/><path fill="#222822" d="M606.28 277.383c2.601-.276 14.538.068 16.332 1.15-1.975.769-3.671 1.636-5.565 2.568-.615 1.427-.252 1-1.319 2.011l-.448-.35.662-1.944c-1.098-1.095-3.551-2.825-5.147-2.663-.562 1.819.309-.096.746 1.719-1.931.7-1.9 1.031-3.641.745-1.268-1.279-1.172-1.51-1.62-3.236"/><path fill="#2a3228" d="M548.967 353.018c1.317-.055.939-.2 2.069.229l-.402.898-.982-.007c-1.456 1.319-.899.518-1.438 2.661 1.143 4.254 6.916 3.98 2.882 9.292-1.203-.047-.798.028-1.989-.428l-1.286.537c-.886-2.878-.671-10.383.604-13.085z"/><path fill="#191e18" d="M589.755 281.373c.744.347 5.687 5.21 6.176 6.026l-.167 1.278c-2.099 1-2.665 1.158-5.073.522-.436-.531-1.331-1.551-1.674-2.074-.989-1.996.033-3.725.738-5.752"/><path fill="#2a3228" d="M539.675 366.002c.142-2.873-.611-4.418-.249-6.489 1.406-1.017.635-.605 2.689-.832l.686.359 1.72-.588c.21.912.352 1.448.824 2.257-.763 2.589-3.138 4.519-5.67 5.293"/><path fill="#253022" d="M607.732 439.06c-.436 3.303.623 3.211-.307 7.044l-.779.877c-.815-.444-.584-.474-1.207-1.494l-.698.326c-.761 2.284-.196 1.909-.052 4.244-1.139 1.369-1.74 1.448-3.387 2.088 1.176-4.405 2.424-10.512 6.43-13.085"/><path fill="#222822" d="M500.004 493.028c1.326-.456 1.257-.379 2.65-.079 1.618-.649 1.487-.651 2.485-2.113l.357.642-.522.068.763.675.365 1.188c-1.983 4.815-.673 1.163-3.798 4.857-.727.859-.86.785-1.898 1.021-.643-3.079-2.197-3.244-.402-6.259"/><path fill="#222822" d="M633.524 503.953c.145-.81-.001-.57.456-1.163.552-.715 2.552-.644 3.475-.756 2.638.927 3.416.806 6.248.75.497 1.06.731 2.256 1.149 2.885-1.545.175-6.855-.332-8.857-.107-.531.06-.957-1.128-1.255-1.665z"/><path fill="#2a3228" d="M544.836 380.922c1.295.732 5.954 6.864 6.687 8.327l-.123 1.248-.878.976c-3.079.612-5.466-8.235-5.686-10.551"/><path fill="#2a3228" d="M472.544 394.723c-1.677-.34-1.724-.196-2.936-1.339-.152-2.316 2.457-2.899 2.872-5.212.179-.995-.084-.365.524-1.339l.958 1.948c.852 1.608 1.658 2.583 1.353 4.313-1.099 1.247-1.147 1.113-2.771 1.629"/><path fill="#1d261c" d="M498.049 745.867c.209 3.066.716 5.909-2.677 6.612-1.733-.479-1.626-.407-2.812-1.757l-1.062.242c1.655-1.762 4.319-4.41 6.551-5.097"/><path fill="#253022" d="M447.472 450.202c-.678-.925-.297-.509-1.475-1.05-2.378.998-2.701 1.475-4.797.621 1.402-1.881 2.263-4.416 3.569-5.098.363 1.234-.009.812.863 1.5l1.008-.839.935.532c.137 1.578.183 1.987.877 3.484z"/><path fill="#2a3228" d="M607.84 473.008c2.347 1.219 1.728 1.532 3.432 2.737l-.183-.57c1.518 2.211 1.066 3.02 2.519 5.715l-1.992-.38c-.979-.679-2.161-1.038-3.271-1.537-.677-1.366-.463-4.244-.505-5.965"/><path fill="#2a3228" d="m502.46 520.494 2.56-.705.571.461c-3.883 5.652 2.199 5.261-4.042 10.269-.127-3.541 1.19-9.141.911-10.025"/><path fill="#253022" d="M414.173 473.004c1.493-1.726 1.389-1.658 3.481-2.558l1.401.079c1.445 1.629 1.456 4.843.768 6.813-1.741-1.515-3.67-4.07-5.65-4.334"/><path fill="#222822" d="M453.85 329.095c3.141 1.315 3.431 1.072 4.14 4.355-.911 1.742-.236 1.202-2.008 1.774-1.201-.536-1.129-.595-2.001-1.615l-1.888-.153v-.501c1.033-1.774 1.115-1.922 1.757-3.86"/><path fill="#2a3228" d="m558.746 400.371 1.421-1.641c2.484 1.615 2.636 1.632 5.543 1.673l.101.672c-1.835.641-3.307.457-4.182 1.382l-.152 1.064c-2.127.44-1.177.586-2.977-.131-.597-1.918-.581-.942.246-3.019"/><path fill="#191e18" d="m346.474 444.58 1.839.107c.595-1.077.419-.655.582-1.921 1.919.652 1.9 1.352 3.555 2.671l.111.465c-.838 1.951-.186 1.26-1.873 2.278-2.156-.396-3.22-1.334-4.756-2.838z"/><path fill="#222822" d="M577.646 509.09c-.478-2.158-1.768-3.235-2.932-5.506 1.631-.659 2.823-.697 4.554-.903.982-1.025 1.045-.993 2.305-1.698-1.509 3.753-3.205 3.607-3.927 8.107"/><path fill="#2a3228" d="M497.762 715.377c-2.652 1.014-1.45 1.848-3.837 2.005l-.242-.942c.628-1.91 1.077-2.696.776-4.679l.527-.297 1.596.665c.782 2.373 2.859 1.151 1.18 3.248"/><path fill="#2a3228" d="m584.09 296.204.102-1.041c1.371-.106 1.586.043 2.649-.742.145-.916.195-1.172.432-2.102l1.657-.654c.433 1.663.739 1.977 1.739 3.304v.237l-.583-.374c-2.401 1.73-3.341 1.74-5.996 1.372"/><path fill="#191e18" d="m645.324 505.38-.033-.624c1.701-1.505 1.972-1.926 4.147-1.008 1.421 1.255 1.761 1.106 2.105 2.604-1.581.564-4.663-.312-6.219-.972"/><path fill="#2a3228" d="M477.573 355.559c-.482-1.202-.89-3.134-.319-4.346 1.69-.35 1.314-.014 2.492-.967-1.375-4.595-1.823-2.343-1.109-7.718-1.769-.082-1.955.233-3.018-.672-.131-1.565-.293-.847.551-2.217 1.734-.476 1.812-.256 2.965-1.426-.564-4.449-3.388-2.719-6.093-6.03-.463-1.84.607-3.857 1.304-5.73-.564-3.118-.279.143-2.022-1.961 1.413-3.472 3.01-3.159.623-7.466-1.404-2.534-1.131-3.981-.089-6.589 2.228-1.08 2.17 1.769 5.193 2.008l-.233-1.517.444-.518 2.205-.142c1.365 1.227 1.744 3.537 1.934 5.278-.738 1.059-.931 1.316-1.855 2.164l-.731.662-1.223-1.116c-1.516.691-2.95 4.862-3.346 6.556.641-.279 1.255-.51 1.913-.731.372.47.579.635.808 1.168l.034.906c2.463.141 4.469-1.407 5.568-3.622 1.909 2.345 1.471 3.632 4.393 5.077l.688-.919c.496.281 1.448.786 1.88 1.096l-1.968 1.455c-.13 4.403 1.604 3.835-.837 8.48 1.188 2.528 2.853 1.323 1.795 5.264-1.604 1.318-2.977 1.874-3.386 3.478 1.216 1.409 2.864 3.211 2.643 5.275-.391 3.639-.853 3.486-3.045 5.751.774 3.41.887 3.035-2.088 5.37-.868 2.541.064 3.422-2.866 4.671-.061-1.355.175-1.713-.499-2.572a92 92 0 0 0-1.788 1.97l-.572-.205c-.593-2.995 1.026.165 1.006-2.615-1.453-.116-2.95-.016-4.035-.857l.291-1.026 2.622-1.183.58-1.982z"/><path fill="#253022" d="m477.573 355.559.792-.361c2.09-.93 1.887-.799 3.15-2.705 1.524 1.598 2.537 2.566 4.217 3.997.774 3.41.887 3.035-2.088 5.37-.868 2.541.064 3.422-2.866 4.671-.061-1.355.175-1.713-.499-2.572a92 92 0 0 0-1.788 1.97l-.572-.205c-.593-2.995 1.026.165 1.006-2.615-1.453-.116-2.95-.016-4.035-.857l.291-1.026 2.622-1.183.58-1.982z"/><path fill="#2a3228" d="m478.383 358.061.748.449.117.716c1.44.908 2.525 1.923 4.032 1.992l.364.642c-.868 2.541.064 3.422-2.866 4.671-.061-1.355.175-1.713-.499-2.572a92 92 0 0 0-1.788 1.97l-.572-.205c-.593-2.995 1.026.165 1.006-2.615-1.453-.116-2.95-.016-4.035-.857l.291-1.026 2.622-1.183z"/><path fill="#1d261c" d="M478.001 325.155c2.463.141 4.469-1.407 5.568-3.622 1.909 2.345 1.471 3.632 4.393 5.077-.859 1.026-2.214 2.196-3.576 2.42-1.108-1.504-1.051-1.562-2.685-2.629-2.443.486-2.231.53-3.7-1.246"/><path fill="#253022" d="m518.003 626.945 1.621-1.408.834.078c.874 2.038.569 2.329 2.079 3.186 1.458-.251 1.643-.107 2.68-1.078-.987-1.049-1.852-1.339-3.142-1.959l.238-.61.917-.303a54 54 0 0 0 2.544 1.709c1.712-2.344.588-2.027 2.887-3.357l.9.069c.7 1.949.044 2.045-.183 4.188 2.17 2.678 5.273-.637 5.772 4.342l-.571.451c-.966-.947-1.302-1.222-2.094-2.343-2.798 1.306-.558 2.915-2.442 6.113l-.874.309c-2.796-1.981-3.779-2.008-5.685-4.107l-.618.248c.021 2.491 1.327 4.202 1.344 6.295.011 1.447-2.123 2.12-1.92 4.538 1.18.503 1.815.218 3.116-.006l.647.449-.377 1.405c-2.795.223-4.15.12-6.881-.077l-1.462-1.394c.531-2.348 1.947.035 1.413-2.23-.156-.663-.142-1.128-.114-1.79 1.507-1.433 1.611-1.567 3.448-2.47-1.479-1.423-1.264-.409-2.997-1.275l-.48-.403c-3.617.177-4.73 3.494-7.184 4.164-.815-1.801-2.262-6.246-1.784-8.162l1.253-.71c-.021-1.166.064-.595-.249-1.711 1.496-1.217 5.071-1.571 7.364-2.151"/><path fill="#2a3228" d="m519.083 635.918-.48-.403c-3.617.177-4.73 3.494-7.184 4.164-.815-1.801-2.262-6.246-1.784-8.162l1.253-.71c-.021-1.166.064-.595-.249-1.711 1.496-1.217 5.071-1.571 7.364-2.151.751 1.084 2.247 2.282 2.086 1.501.271 1.312.065 4.492.075 5.848z"/><path fill="#2a3228" d="m564.208 371.381.496-.191c1.698 1.806.362-.47 2.615.99-.601 2.408-1.525 2.294-2.211 4.369 1.471.415 1.64.037 3.385-.482.874 2.111 1.142 2.965 1.67 5.19-.886.069-1.364.125-2.237.288l.277.643c2.873.553 2.221.64 2.852 3.452l.166.443c-.764 1.162-1.119 1.288-2.244 2.096l-.672-.122c-1.57-3.661-2.344-3.252-5.963-4.423l-2.042-9.236c.658-1.107 2.685-1.916 3.908-3.017"/><path fill="#2a3228" d="M511.354 280.752c2.02 1.157 2.82 3.956 2.083 6.138l-1.132.503-.26-1.329-.509.13c-.332 1.488-.484.836.151 2.049l1.169.124c1.469-.664 1.923-.889 3.511-1.336l-.078.734c-1.17 1.312-1.213 1.601-2.9 2.113-1.522-.172-1.773-.576-2.873-1.544-1.292.028-.714-.161-1.694.774-.483 1.622-.596.909.121 2.235 1.441-.109 2.564-.015 3.993.065.623.965.589.894.761 2.032-1.339.173-2.648.273-3.992.391-1.98 2 .354.137-.317 2.755l-.994.343c-1.132-2.102-2.917-3.848-3.149-5.901 1.424-3.995 5.792-7.315 6.109-10.276"/><path fill="#2a3228" d="M514.821 733.499c-.463-1.785-.971-2.348.108-3.962 1.303-1.948 2.096-3.517 4.07-4.758l1.023-.047.56.712-1.802 1.733.032.782c1.492.465 1.4.502 2.935.333l.45-1.132c2.057 1.049 3.643 9.81-1.863 10.997-1.042-1.332-1.832-3.103-.719-4.595l2.607.442.315-.402c-1.346-1.454-3.81-2.207-5.769-2.212z"/><path fill="#2a3228" d="M621.638 460.761c.307.685.614 1.279.953 1.948 1.03-.282 1.624-.443 2.675-.608-.217 1.848-.411 1.048.315 2.531l1.082.327.075-2.132.494-.437 1.526 2.713c.64-1.078.304-.544 1.009-1.603l.906.495c.111 1.752.207 1.942-.198 3.694-3.217 1.536-9.326.396-10.612-3.63.307-1.76.633-1.962 1.775-3.298"/><path fill="#253022" d="M441.366 412.132c-.12-1.495.083-1.824.558-3.219l.156-.449c-2.006-.044-2.48-.553-3.122-2.232l.357-.734 2.357-.217c1.418-1.486.984-1.128 1.489-3.467.346 2.29-.047 2.543 1.266 3.702 1.474-.208 1.251-.103 2.614-.611l1.022.929c-.047 1.972-.213 5.152-1.644 6.667-2.38-.502-2.109-1.504-4.295-1.651z"/><path fill="#191e18" d="M488.65 325.691c.344-2.928-2.822-2.283.504-4.584 1.823-1.262 5.848-.641 6.548 1.732-.43 2.076-.586 2.138-2.332 3.463l.712 1.417-.581.527c-3.063-.463.444-1.562-2.971-1.459-.432-.31-1.384-.815-1.88-1.096"/><path fill="#2a3228" d="M433.521 400.449c-.383.082-2.152.79-2.156.784-1.448-1.725-.88-1.262-3.18-1.642l-.312-.554c1.226-.204.899-.1 1.966-.543.123-1.33-.413-2.29-.907-3.558.461-2.697 1.944-2.935 1.363-5.136l.542.116c1.107 1.372 1.412 1.631 2.888 2.601l-.479 2.245c-1.443 2.516-1.728 3.644.275 5.687"/><path fill="#cbcac7" fill-opacity=".024" d="m514.821 733.499 1.947-2.109c1.959.005 4.423.758 5.769 2.212l-.315.402-2.607-.442c-1.113 1.492-.323 3.263.719 4.595-1.172 1.379-4.68 1.098-6.206-.126l.109-1.015c2.048-1.525 1.561.381 4.27-.518l-.15-.687c-1.644-.456-2.037-.505-3.543-1.415z"/><defs><linearGradient id="b" x1="437.784" x2="435.742" y1="390.336" y2="395.103" gradientUnits="userSpaceOnUse"><stop offset="0" stop-color="#414a3e"/><stop offset="1" stop-color="#272b24"/></linearGradient></defs><path fill="url(#b)" d="m433.725 392.517 1.983.121c1.134-1.07 1.043-1.185 1.642-2.669l.821-.168c1.02 1.688 1.233 6.462.783 8.448-.787.948-.289.679-1.363 1.046-.587-3.114-1.598-2.965-4.345-4.533z"/><path fill="#253022" d="m355.546 492.725.532-.087.651.489c-.287 2.904-.645 4.715-2.541 6.947l-.926.027-1.751.106c-2.12-2.725 2.881-4.929 4.035-7.482"/><path fill="#222822" d="M468.719 293.245c2.298.687 3.611.067 5.287 1.581l.006 1.471c-.746 1.212-.773 1.373-.767 2.745l-1.297 1.153c-1.417.047-.777.198-1.909-.619-1.052-3.999 1.14-2.433-1.32-6.331"/><path fill="#2a3228" d="M506.156 702.812c.818.708 2.804 6.782 2.821 8.54-3.556-.646-6.628-5.278-2.821-8.54"/><defs><linearGradient id="c" x1="479.159" x2="476.884" y1="321.284" y2="319.614" gradientUnits="userSpaceOnUse"><stop offset="0" stop-color="#2a3427" stop-opacity=".984"/><stop offset="1" stop-color="#161d17"/></linearGradient></defs><path fill="url(#c)" d="M477.967 324.249c-.229-.533-.436-.698-.808-1.168-.658.221-1.272.452-1.913.731.396-1.694 1.83-5.865 3.346-6.556l1.223 1.116c.084 2.254.651 3.581-1.8 4.8z"/><path fill="#222822" d="M576.91 487.717c2.729 1.176 1.483 5.448-.228 7.246-.546-1.309-1.168-2.571-1.603-3.924.494-1.407 1.028-2.093 1.831-3.322"/><path fill="#2a3228" d="M504.745 740.782c1.497.788 2.619 1.788 3.09 3.448l-.706 1.091c-1.222-.588-1.331-.473-2.741-.691l-.448-.662z"/><path fill="#253022" d="m470.653 332.285.95-.405c1.29 1.567 1.798 2.536 1.863 4.623l-.996.126c-.712-1.295-1.35-2.528-2.362-3.622z"/><path fill="#2a3228" fill-opacity=".98" d="M616.471 391.548c-.216-.556-.192-6.172-.814-8.635l.553-.336 1.144 1.148c.548 1.879.567.918-.467 2.958l.744.807c-.066 1.78.333 2.916-1.16 4.058"/><path fill="#222822" d="M603.417 283.256c2.359 1.809 2.369 3.812.116 5.661l-.41.248c-.208-1.795-.068-4.124.294-5.909"/><path fill="#253022" d="m332.905 466.343.462.088c.328 1.244 1.306 3.075 1.901 4.31l-.394.955-.767.157-1.029-.069c1.916-1.338-.533-3.026-.173-5.441"/><path fill="#2a3228" d="M354.938 529.468c3.959 2.027 3.204-.345 6.48 1.727-2.053.482-2.594.711-4.65.58-1.704-1.085-1.094-.358-1.83-2.307"/><path fill="#cbcac7" fill-opacity=".016" d="M513.393 594.549c2.023.907 3.23 1.131 4.267 2.927-2.005-.016-3.171.093-4.54-1.467z"/><path fill="#253022" d="M615.676 463.769c2.419 1.366 2.71 2.348 3.294 5.019l-.968.005c-1.28-1.358-1.712-3.22-2.326-5.024"/><path fill="#253022" d="m567.999 325.783 1.09.628c.668 1.735.138 1.983-.533 4.273-1.055-.631-.644-.217-1.261-1.215.404-1.209.546-1.535.645-2.819z"/><path fill="#253022" d="m459.279 365.412 1.726.259c1.335 1.391 2.438 2.485 2.701 4.255-2.422-.862-2.296-2.108-3.836-3.853z"/><path fill="#1d261c" d="M494.786 295.35c1.31.261.719.022 1.714.889.249 1.435-.353 2.15-1.055 3.465-1.005-1.137-.642-2.481-.659-4.354"/><path fill="#2a3228" d="M489.406 758.494c1.588 1.099 2.571 1.82 2.721 3.825l-.804-.033c-1.292-1.639-1.6-1.82-1.917-3.792"/><path fill="#475441" d="m341.078 454.453.579.381.159.809-1.856 2.532-.737-.391c-.143-1.553.497-1.659 1.855-3.331"/><path fill="#2a3228" d="m495.633 357.262.803.862c.059 1.69-.531 1.735-1.946 3.498l-.564-.863z"/><path fill="#2a3228" d="M502.591 584.868c2.723.705 2.969 1.051 3.923 3.679-1.641-.6-2.867-2.313-3.923-3.679"/><path fill="#2a3228" fill-opacity=".988" d="M666.862 485.28c.73.52.392.162.873 1.192l-1.375 2.225-.839-.158c-.121-1.291.554-1.863 1.341-3.259"/><path fill="#1d261c" d="m524.783 593.77.67-.309c.818 1.182.466 1.945.443 3.734l-1.55-2.74z"/><path fill="#191e18" fill-opacity=".988" d="m539 577.062 1.134-.472c2.138 2.284 2.143 18.001 2.707 22.395l-.415.578-1.211.054c-.145-1.059-.113-.514-.091-1.636l-1.136.144c-.493.895-.621 1.255-.905 2.213l-1.432.017c-1.262-.991-.831-.341-1.078-2.169.54-1.804.701-1.76 2.084-2.973 1.212.288.827.383 1.892.108l-.328-.947a39 39 0 0 1-2.491-.59l-.124-.76.949-.475.091-.468c-.809-.857-1.108-1.213-1.754-2.168l-.557-.831c1.743-4.062.812-6.472 2.001-10.035.288-.862.271.271.664-1.985"/><path fill="#2a3228" fill-opacity=".965" d="M470.507 286.836c.999-2.667 2.722-5.529 5.873-5.789l.573 1.865c-2.637.718-2.523 1.324-3.759 3.721-1.47.703-.729.431-2.687.203"/><path fill="#191e18" fill-opacity=".976" d="M651.384 342.064c-1.431-.272-2.864-.923-2.825-2.557 1.331-1.588.958-1.104 3.156-1.926l1.11 1.456c-.539 1.379-.7 1.751-1.441 3.027"/></svg>